<svg width="547" height="561" viewBox="0 0 547 561" fill="none" xmlns="http://www.w3.org/2000/svg">
<path fill-rule="evenodd" clip-rule="evenodd" d="M401.813 0.12207H322.3V79.6361H401.813V0.12207ZM308.157 70.9471H203.612H203.605L203.602 70.9501L86.438 185.997C34.228 223.488 0.220947 284.727 0.220947 353.908C0.220947 467.998 92.7079 560.486 206.798 560.486C320.888 560.486 413.376 467.998 413.376 353.908C413.376 347.005 413.038 340.181 412.376 333.451V172.538H308.157V70.9471ZM407.597 89.7651H473.341V155.509H407.597V89.7651ZM509.772 216.001H451.363V274.409H509.772V216.001ZM501.844 137.651H546.779V182.586H501.844V137.651ZM533.436 8.28607H488.5V53.2211H533.436V8.28607Z" fill="#1BBBC8"/>
</svg>
