<svg width="2630" height="1784" viewBox="0 0 2630 1784" fill="none" xmlns="http://www.w3.org/2000/svg">
<g filter="url(#filter0_d_13_156)">
<path d="M1504.3 504.091C1519.86 496.214 1537.54 479.885 1562.9 471.24C1711.97 421.163 1858.04 421.868 2001.1 473.353C2012.71 477.646 2025.16 479.095 2037.41 477.58C2109.38 468.999 2175.09 483.919 2234.51 522.341C2237.4 524.248 2240.77 525.312 2244.23 525.414C2247.69 525.516 2251.11 524.651 2254.11 522.917C2446.02 412.07 2653.69 551.734 2622.96 771.507C2605.09 898.875 2549.76 993.009 2475.8 1118.26C2470.98 1126.38 2467.78 1135.39 2466.39 1144.78C2451.79 1247.75 2428.35 1334.96 2318.85 1372.81C2246.1 1398.04 2175.47 1389.33 2106.95 1346.68C2094.06 1338.63 2078.71 1335.49 2063.73 1337.84C2000.71 1347.71 1945.64 1337.01 1898.51 1305.76C1895.59 1303.78 1892.18 1302.6 1888.63 1302.37C1885.09 1302.13 1881.54 1302.84 1878.34 1304.42C1836.84 1324.27 1789.97 1330.61 1737.72 1323.44C1722.57 1321.3 1707.11 1323.78 1693.34 1330.54C1645.57 1353.73 1597.8 1363.14 1550.03 1358.78C1540.92 1358.04 1531.87 1360.94 1524.86 1366.85C1470.3 1413.73 1411.32 1423.53 1355.8 1470.02C1308.93 1509.46 1249.76 1527.14 1178.29 1523.04C1171.38 1522.66 1164.58 1524.93 1159.28 1529.38C1142.56 1543.21 1130.27 1562.8 1109.52 1577.79C1062.9 1611.34 1006.1 1623 939.118 1612.75C934.147 1612.06 929.098 1613.05 924.803 1615.56C920.508 1618.08 917.223 1621.97 915.489 1626.58C868.422 1749.15 742.206 1808.51 620.025 1755.87C568.924 1733.85 532.295 1704.33 510.138 1667.31C423.689 1521.95 363.879 1358.53 330.708 1177.05C330.075 1173.52 328.408 1170.26 325.914 1167.66C323.421 1165.07 320.211 1163.25 316.684 1162.45C188.227 1133.12 97.4877 1055.32 44.4656 929.036C-41.4073 724.824 3.73841 449.724 234.462 367.693C239.343 366.009 243.822 363.27 247.599 359.659C251.376 356.048 254.363 351.648 256.362 346.753C303.429 229.951 422.537 185.189 546.063 236.098C552.949 238.98 560.498 239.781 567.771 238.403L736.827 206.705C740.873 205.821 744.677 204.05 747.97 201.519C821.932 143.694 864.58 131.783 946.227 111.611C955.367 109.327 963.971 105.351 971.585 99.8927C1105.87 3.45386 1411.71 -79.3452 1497.2 133.512C1527.55 208.947 1519.61 280.411 1473.37 347.906C1469.68 353.298 1467.12 359.371 1465.86 365.749C1464.61 372.127 1464.68 378.674 1466.07 384.983L1489.9 497.175C1490.24 498.695 1490.92 500.12 1491.88 501.34C1492.85 502.56 1494.07 503.541 1495.47 504.21C1496.86 504.878 1498.38 505.215 1499.91 505.194C1501.44 505.173 1502.95 504.796 1504.3 504.091ZM1036.52 291.042C937.582 202.863 766.22 330.424 811.75 451.068C825.198 486.929 845.625 513.568 873.033 530.986C875.712 532.644 878.553 533.936 881.486 534.828L965.63 560.955C968.448 561.786 970.846 563.622 972.368 566.114C973.89 568.606 974.429 571.581 973.884 574.473C973.339 577.366 971.747 579.974 969.41 581.803C967.074 583.631 964.156 584.553 961.211 584.392C899.352 580.55 865.348 605.781 859.201 660.083C859.009 661.725 858.465 663.305 857.609 664.718C856.752 666.131 855.601 667.343 854.234 668.273C852.868 669.202 851.318 669.826 849.688 670.104C848.059 670.381 846.39 670.305 844.793 669.881C803.425 658.739 768.013 665.526 738.556 690.245C736.41 692.012 733.653 692.862 730.884 692.61C728.115 692.358 725.557 691.025 723.764 688.9L719.153 683.329C717.805 681.716 716.867 679.803 716.415 677.748C715.964 675.693 716.012 673.554 716.556 671.509C717.1 669.464 718.125 667.57 719.545 665.985C720.965 664.399 722.74 663.166 724.724 662.389C771.215 644.715 841.335 620.317 808.676 553.079C788.313 511.583 726.261 517.73 693.987 539.247C692.605 540.144 690.942 540.503 689.313 540.255C687.684 540.007 686.202 539.17 685.15 537.902L681.692 533.675C680.825 532.648 680.205 531.436 679.877 530.132C679.549 528.828 679.523 527.467 679.801 526.152C680.079 524.836 680.653 523.602 681.48 522.542C682.307 521.482 683.365 520.625 684.574 520.036C705.193 509.534 724.853 498.135 743.551 485.84C779.668 461.891 790.042 431.409 774.673 394.396C772.157 388.486 768.035 383.367 762.762 379.604C706.858 339.837 608.306 382.485 572.19 430.513C515.325 505.435 565.274 694.855 600.43 778.038C651.531 899.451 804.258 846.622 864.388 764.783C867.754 760.293 869.574 754.766 869.575 749.03V731.74C869.592 730.075 870.033 728.442 870.856 726.994C871.68 725.547 872.859 724.334 874.281 723.468C875.704 722.603 877.324 722.115 878.988 722.05C880.652 721.984 882.305 722.344 883.791 723.095C946.675 755.241 1008.34 750.951 1068.79 710.224C1150.44 655.281 1149.67 540.207 1084.74 474.698C1058.61 448.379 1018.08 440.887 971.201 426.286C969.408 425.579 967.919 424.268 966.992 422.579C966.064 420.89 965.756 418.93 966.12 417.038C966.485 415.146 967.5 413.441 968.989 412.218C970.478 410.995 972.348 410.331 974.274 410.341C1020.64 413.671 1048.3 391.515 1057.27 343.872C1057.73 341.41 1058.7 339.074 1060.12 337.013C1061.54 334.952 1063.38 333.213 1065.52 331.909C1067.66 330.604 1070.05 329.764 1072.53 329.442C1075.01 329.12 1077.54 329.324 1079.93 330.04C1097.1 335.163 1120.98 336.891 1151.59 335.227C1153 335.149 1154.42 335.351 1155.75 335.821C1157.09 336.291 1158.32 337.019 1159.37 337.965C1160.42 338.911 1161.28 340.055 1161.89 341.333C1162.5 342.61 1162.85 343.995 1162.93 345.408C1166.9 410.982 1180.47 483.599 1203.65 563.26C1219.79 618.332 1255.39 635.429 1310.47 614.553C1316.7 612.181 1321.97 607.787 1325.45 602.066C1361.76 542.512 1317 400.159 1289.33 329.655C1286.84 323.301 1286.73 316.252 1289.02 309.797C1291.31 303.343 1295.86 297.912 1301.82 294.499L1345.62 269.717C1350.77 266.706 1354.96 262.385 1357.72 257.23C1371.81 230.463 1372.97 207.282 1361.18 187.687C1313.92 109.306 1144.1 176.352 1081.09 208.434C1053.55 222.394 1041.38 248.585 1044.59 287.007C1044.7 287.985 1044.51 288.974 1044.04 289.839C1043.57 290.704 1042.84 291.404 1041.96 291.844C1041.08 292.285 1040.09 292.444 1039.11 292.3C1038.14 292.156 1037.23 291.717 1036.52 291.042ZM477.48 372.304C402.557 352.901 361.638 428.4 410.434 481.614C426.699 499.416 437.393 520.036 442.516 543.473C443.414 547.512 445.332 551.253 448.087 554.34C450.842 557.426 454.343 559.755 458.254 561.104C462.165 562.452 466.357 562.776 470.429 562.044C474.501 561.311 478.318 559.548 481.514 556.921C530.31 516.193 523.202 434.739 496.691 387.096C494.622 383.449 491.854 380.259 488.554 377.718C485.253 375.177 481.487 373.335 477.48 372.304ZM429.453 612.44C434.575 559.29 416.005 528.424 373.741 519.844C306.246 506.268 254.889 516.322 219.669 550.005C97.2956 667.768 155.505 970.34 335.511 1007.61C541.452 1050.26 602.735 738.656 455.387 751.527C417.35 754.793 398.139 787.068 384.499 817.229C382.418 821.831 379.227 825.845 375.214 828.911C371.201 831.978 366.49 834.002 361.503 834.801C356.516 835.601 351.408 835.151 346.638 833.492C341.867 831.834 337.582 829.018 334.166 825.297C300.547 788.412 265.007 677.95 351.648 669.497C387.573 666.039 425.61 653.359 429.453 612.44ZM1768.84 1173.21C1834.73 1173.21 1851.06 1104.62 1853.94 1049.1C1857.78 973.413 1855.8 889.526 1847.99 797.442C1847.62 793.175 1848.83 788.927 1851.38 785.519C1853.94 782.112 1857.66 779.789 1861.82 778.999L1920.22 768.049C1925.86 767.045 1931.14 764.374 1935.4 760.364C1969.46 728.09 1975.42 689.988 1953.26 646.059C1950.5 640.471 1946.57 635.499 1941.74 631.459C1891.6 589.387 1830.31 591.692 1768.45 591.885C1706.59 591.885 1645.31 589.579 1595.17 631.651C1590.34 635.691 1586.41 640.663 1583.65 646.252C1561.62 690.18 1567.64 728.282 1601.7 760.557C1605.97 764.567 1611.24 767.237 1616.88 768.241L1675.28 779.191C1679.44 779.981 1683.16 782.304 1685.72 785.711C1688.27 789.119 1689.48 793.367 1689.11 797.634C1681.43 889.718 1679.57 973.606 1683.54 1049.3C1686.42 1104.82 1702.75 1173.21 1768.84 1173.21ZM1962.87 893.88C1950.57 978.216 1918.49 1174.17 2015.7 1188.38C2112.91 1202.41 2137.69 1005.3 2149.98 920.968C2162.09 836.44 2194.17 640.488 2096.96 626.464C1999.75 612.44 1974.97 809.352 1962.87 893.88ZM2275.43 1061.98C2306.94 1073.12 2338.06 1052.69 2368.8 1000.69C2412.6 926.731 2543.81 683.905 2423.55 641.449C2303.29 599.185 2253.34 870.635 2241.04 955.547C2232.46 1015.36 2243.92 1050.83 2275.43 1061.98ZM1436.3 1114.04C1436.26 1112.54 1436.68 1111.08 1437.52 1109.84C1438.36 1108.61 1439.57 1107.67 1440.97 1107.16C1442.38 1106.65 1443.9 1106.59 1445.34 1107C1446.78 1107.41 1448.05 1108.26 1448.98 1109.43C1477.15 1146.44 1506.48 1174.87 1536.96 1194.72C1542.53 1198.39 1548.82 1200.82 1555.4 1201.83C1617.07 1211.05 1650.88 1183 1643.58 1121.72C1636.09 1059.09 1584.61 1017.02 1540.04 971.877C1537.28 969.066 1535.6 965.386 1535.28 961.485C1534.96 957.584 1536.04 953.712 1538.31 950.553C1623.6 828.947 1535.23 616.859 1359.65 656.625C1259.36 679.294 1213 744.419 1220.56 852.001C1225.68 926.411 1251.62 1042.96 1298.36 1201.64C1304.13 1221.23 1314.63 1239.61 1329.87 1256.77C1338.48 1266.58 1350.11 1273.16 1362.79 1275.4C1375.47 1277.64 1388.41 1275.41 1399.41 1269.07C1457.62 1235.83 1439.18 1169.75 1436.3 1114.04ZM1260.52 1220.66C1251.81 1208.88 1248.41 1199.85 1250.34 1193.57C1230.74 1101.1 1195.33 1014.91 1144.1 934.992C1124.38 904.254 1097.61 874.861 1063.8 846.813C1025.89 815.308 987.594 808.072 948.916 825.105C849.403 868.906 872.264 1104.43 877.836 1225.65C880.909 1294.68 891.603 1353.85 909.918 1403.16C954.487 1522.85 1062.45 1459.64 1055.92 1362.82C1053.87 1332.21 1055.47 1302.69 1060.72 1274.26C1061.7 1269.22 1064.14 1264.57 1067.72 1260.89C1071.31 1257.22 1075.89 1254.68 1080.9 1253.59C1085.9 1252.5 1091.1 1252.92 1095.85 1254.78C1100.6 1256.65 1104.69 1259.88 1107.6 1264.07C1149.67 1324.2 1173.68 1414.3 1271.08 1342.07C1277.26 1337.5 1281.45 1330.69 1282.8 1323.05C1289.33 1286.42 1284.85 1249.99 1269.35 1213.74C1269.08 1213.08 1268.61 1212.51 1268 1212.13C1267.39 1211.74 1266.67 1211.56 1265.95 1211.6C1265.23 1211.64 1264.54 1211.91 1263.98 1212.36C1263.42 1212.81 1263.02 1213.43 1262.82 1214.13C1262.18 1216.43 1261.41 1218.61 1260.52 1220.66ZM852.093 1147.08C849.596 1049.68 804.066 964.384 698.213 948.055C625.02 936.721 508.217 986.861 489.006 1071.77C482.475 1100.72 481.706 1129.66 486.701 1158.61C509.626 1293.34 552.018 1422.24 613.877 1545.32C670.934 1659.24 801.376 1641.76 776.21 1497.1C770.959 1466.75 758.216 1428.46 737.98 1382.22C734.571 1374.33 733.99 1365.51 736.333 1357.22C738.677 1348.93 743.802 1341.68 750.851 1336.69C816.553 1290.59 854.014 1225.85 852.093 1147.08ZM2314.04 1158.99C2314.04 1139.68 2306.37 1121.16 2292.72 1107.51C2279.06 1093.85 2260.55 1086.18 2241.23 1086.18C2221.92 1086.18 2203.41 1093.85 2189.75 1107.51C2176.1 1121.16 2168.43 1139.68 2168.43 1158.99C2168.43 1178.3 2176.1 1196.82 2189.75 1210.47C2203.41 1224.13 2221.92 1231.8 2241.23 1231.8C2260.55 1231.8 2279.06 1224.13 2292.72 1210.47C2306.37 1196.82 2314.04 1178.3 2314.04 1158.99Z" fill="#957063"/>
<path d="M1036.53 291.04C1037.24 291.716 1038.15 292.155 1039.12 292.299C1040.1 292.442 1041.09 292.283 1041.97 291.843C1042.85 291.403 1043.58 290.703 1044.05 289.838C1044.51 288.972 1044.71 287.984 1044.6 287.006C1041.39 248.584 1053.56 222.393 1081.1 208.433C1144.11 176.351 1313.93 109.305 1361.19 187.685C1372.97 207.281 1371.82 230.462 1357.73 257.229C1354.96 262.384 1350.78 266.705 1345.63 269.716L1301.83 294.498C1295.86 297.911 1291.32 303.341 1289.03 309.796C1286.74 316.251 1286.85 323.3 1289.34 329.654C1317.01 400.158 1361.77 542.511 1325.46 602.065C1321.98 607.786 1316.71 612.18 1310.47 614.552C1255.4 635.428 1219.8 618.33 1203.66 563.259C1180.48 483.598 1166.91 410.98 1162.94 345.407C1162.86 343.994 1162.51 342.609 1161.9 341.331C1161.29 340.054 1160.43 338.91 1159.38 337.964C1158.33 337.018 1157.1 336.289 1155.76 335.82C1154.43 335.35 1153.01 335.148 1151.6 335.225C1120.99 336.89 1097.11 335.161 1079.94 330.038C1077.54 329.323 1075.02 329.119 1072.54 329.441C1070.06 329.763 1067.67 330.603 1065.53 331.907C1063.39 333.212 1061.55 334.951 1060.13 337.012C1058.71 339.072 1057.74 341.409 1057.27 343.87C1048.31 391.513 1020.65 413.67 974.284 410.34C972.357 410.33 970.487 410.994 968.998 412.217C967.509 413.44 966.494 415.145 966.13 417.037C965.765 418.929 966.073 420.889 967.001 422.578C967.929 424.267 969.418 425.578 971.21 426.285C1018.08 440.885 1058.62 448.378 1084.75 474.697C1149.68 540.206 1150.45 655.279 1068.8 710.223C1008.35 750.95 946.684 755.24 883.8 723.094C882.314 722.343 880.661 721.983 878.997 722.048C877.333 722.114 875.713 722.602 874.291 723.467C872.868 724.332 871.689 725.546 870.866 726.993C870.042 728.44 869.601 730.074 869.584 731.739V749.029C869.583 754.764 867.763 760.292 864.397 764.782C804.267 846.62 651.54 899.45 600.439 778.037C565.283 694.854 515.335 505.434 572.199 430.512C608.316 382.484 706.868 339.836 762.771 379.603C768.045 383.366 772.166 388.485 774.682 394.395C790.051 431.408 779.677 461.889 743.56 485.839C724.862 498.134 705.203 509.533 684.583 520.034C683.375 520.624 682.317 521.481 681.49 522.541C680.663 523.601 680.088 524.835 679.811 526.15C679.533 527.466 679.559 528.827 679.886 530.131C680.214 531.435 680.835 532.647 681.701 533.674L685.159 537.901C686.212 539.169 687.693 540.006 689.322 540.254C690.951 540.502 692.614 540.143 693.996 539.245C726.271 517.729 788.322 511.582 808.685 553.077C841.344 620.316 771.224 644.713 724.734 662.387C722.75 663.165 720.974 664.398 719.554 665.983C718.134 667.569 717.109 669.463 716.565 671.508C716.021 673.553 715.973 675.691 716.424 677.746C716.876 679.802 717.815 681.714 719.163 683.327L723.773 688.899C725.566 691.024 728.124 692.357 730.893 692.609C733.662 692.86 736.419 692.011 738.566 690.243C768.022 665.525 803.435 658.737 844.802 669.88C846.399 670.304 848.069 670.38 849.698 670.103C851.327 669.825 852.877 669.201 854.244 668.271C855.61 667.342 856.761 666.13 857.618 664.717C858.475 663.304 859.018 661.723 859.21 660.082C865.358 605.779 899.361 580.549 961.22 584.391C964.165 584.552 967.083 583.63 969.42 581.802C971.756 579.973 973.348 577.365 973.893 574.472C974.438 571.58 973.899 568.605 972.377 566.113C970.855 563.62 968.457 561.784 965.639 560.954L881.495 534.827C878.563 533.934 875.721 532.643 873.042 530.985C845.635 513.567 825.207 486.928 811.759 451.067C766.229 330.423 937.591 202.862 1036.53 291.04ZM1301.25 168.282C1242.66 166.553 1056.31 193.449 1067.65 284.893C1068.72 293.19 1072.77 300.811 1079.03 306.328C1085.29 311.844 1093.33 314.879 1101.65 314.862H1158.9C1164.97 314.852 1170.82 317.161 1175.21 321.311C1179.61 325.46 1182.23 331.131 1182.53 337.146C1186.88 418.985 1201.16 496.277 1225.37 569.022C1239.39 611.286 1305.1 628.384 1318.93 576.899C1336.22 511.966 1298.18 408.227 1272.05 318.128C1270.3 312.118 1270.64 305.692 1273.01 299.9C1275.39 294.107 1279.65 289.291 1285.12 286.238C1306.12 274.583 1321.62 264.977 1331.61 257.421C1340.46 250.76 1346.72 241.23 1349.35 230.447C1351.98 219.664 1350.8 208.29 1346.02 198.251C1345.12 196.33 1336.73 188.774 1320.85 175.583C1315.25 170.975 1308.34 168.401 1301.25 168.282ZM952.383 394.395C955.457 393.627 969.289 391.898 993.879 389.208C1005.83 387.943 1016.8 382.021 1024.4 372.736C1031.99 363.451 1035.59 351.555 1034.41 339.644C1025.19 249.16 892.637 287.774 858.442 329.27C815.281 381.652 814.193 434.546 855.176 487.952C861.332 496.117 869.584 502.371 878.998 506.01C915.498 520.227 991.381 534.058 994.647 576.899C994.882 579.984 994.499 583.084 993.52 586.019C992.541 588.953 990.986 591.663 988.946 593.989C986.907 596.315 984.423 598.21 981.641 599.564C978.86 600.918 975.836 601.703 972.747 601.873C946.364 603.41 927.537 605.523 916.267 608.213C905.095 610.884 895.341 617.859 888.885 627.791C882.429 637.723 879.728 649.91 881.303 662.003C892.637 749.029 1007.13 732.892 1057.27 699.849C1150.26 638.95 1133.16 490.065 1021.93 460.481C990.229 451.836 949.31 444.343 939.32 421.29C938.171 418.687 937.602 415.865 937.654 413.02C937.706 410.175 938.377 407.375 939.62 404.816C940.863 402.256 942.649 399.998 944.853 398.199C947.057 396.399 949.627 395.101 952.383 394.395ZM695.341 559.609C688.881 561.536 681.952 561.152 675.744 558.525C669.536 555.898 664.437 551.191 661.323 545.212C658.209 539.234 657.274 532.357 658.679 525.764C660.084 519.171 663.741 513.274 669.022 509.084C703.602 481.997 750.861 479.692 764.308 427.438C765.918 420.909 764.954 414.027 761.619 408.227C744.841 379.282 714.424 372.687 670.367 388.44C580.844 420.33 559.904 477.77 568.549 569.022C575.721 645.098 596.085 719.444 629.64 792.061C632.164 797.621 635.977 802.553 640.782 806.469C706.483 861.221 796.967 817.804 840.96 761.9C845.102 756.641 848.162 750.613 849.962 744.169C851.762 737.724 852.265 730.99 851.443 724.358C850.62 717.727 848.489 711.33 845.172 705.539C841.856 699.749 837.42 694.68 832.123 690.627C810.414 674.298 766.229 697.736 735.108 712.144C731.714 713.732 728.003 714.524 724.257 714.458C720.511 714.393 716.829 713.473 713.493 711.768C710.157 710.063 707.255 707.618 705.008 704.62C702.761 701.622 701.229 698.15 700.528 694.47L698.223 682.175C696.761 674.466 698.059 666.489 701.887 659.64C705.715 652.791 711.831 647.507 719.163 644.713C737.349 637.669 755.92 629.217 774.874 619.355C779.66 616.928 783.86 613.483 787.215 609.235C790.569 604.987 793.006 600.025 794.375 594.658C795.744 589.291 796.015 583.633 795.172 578.033C794.329 572.434 792.39 567.013 789.475 562.106C771.032 530.6 729.729 549.235 695.341 559.609Z" fill="#261D1F"/>
<path d="M1320.84 175.586C1336.72 188.777 1345.11 196.333 1346.01 198.255C1350.79 208.293 1351.97 219.667 1349.35 230.45C1346.72 241.233 1340.45 250.763 1331.6 257.424C1321.61 264.98 1306.12 274.586 1285.11 286.241C1279.65 289.294 1275.38 294.111 1273.01 299.903C1270.63 305.695 1270.3 312.121 1272.05 318.131C1298.17 408.23 1336.21 511.969 1318.92 576.902C1305.09 628.387 1239.39 611.289 1225.37 569.025C1201.16 496.28 1186.88 418.988 1182.53 337.149C1182.23 331.134 1179.61 325.463 1175.21 321.314C1170.81 317.164 1164.97 314.855 1158.9 314.865H1101.65C1093.33 314.882 1085.28 311.848 1079.02 306.331C1072.76 300.814 1068.72 293.193 1067.64 284.896C1056.31 193.452 1242.66 166.556 1301.25 168.285C1308.34 168.404 1315.24 170.978 1320.84 175.586Z" fill="#FFDBCF"/>
<path d="M952.379 394.391C949.623 395.097 947.053 396.395 944.849 398.195C942.645 399.994 940.859 402.252 939.616 404.812C938.373 407.371 937.702 410.171 937.65 413.016C937.598 415.861 938.166 418.683 939.316 421.286C949.305 444.339 990.224 451.832 1021.92 460.476C1133.15 490.061 1150.25 638.946 1057.27 699.845C1007.13 732.887 892.633 749.025 881.299 661.999C879.724 649.906 882.424 637.719 888.88 627.787C895.336 617.854 905.09 610.88 916.262 608.208C927.533 605.519 946.359 603.406 972.742 601.869C975.831 601.699 978.855 600.914 981.637 599.56C984.419 598.206 986.902 596.311 988.942 593.985C990.982 591.659 992.537 588.949 993.515 586.015C994.494 583.08 994.878 579.979 994.643 576.895C991.377 534.054 915.494 520.222 878.993 506.006C869.579 502.367 861.328 496.112 855.172 487.948C814.188 434.542 815.277 381.648 858.437 329.266C892.633 287.77 1025.19 249.156 1034.41 339.64C1035.59 351.551 1031.99 363.447 1024.39 372.732C1016.8 382.017 1005.83 387.938 993.875 389.204C969.285 391.893 955.453 393.622 952.379 394.391Z" fill="#FFDBCF"/>
<path d="M496.705 387.098C523.216 434.741 530.324 516.195 481.528 556.922C478.332 559.549 474.515 561.313 470.443 562.046C466.371 562.778 462.18 562.454 458.268 561.106C454.357 559.757 450.856 557.428 448.101 554.341C445.346 551.255 443.428 547.514 442.53 543.475C437.407 520.038 426.713 499.418 410.448 481.616C361.652 428.401 402.571 352.902 477.494 372.305C481.501 373.337 485.267 375.178 488.568 377.72C491.868 380.261 494.636 383.451 496.705 387.098ZM455.017 527.914C455.199 530.949 456.336 533.849 458.267 536.198C460.197 538.548 462.821 540.226 465.763 540.994C468.705 541.761 471.814 541.578 474.646 540.471C477.478 539.364 479.887 537.389 481.528 534.83C499.779 507.166 501.316 444.346 488.636 413.993C468.657 366.35 410.256 383.832 408.335 436.278C408.209 439.982 408.824 443.674 410.144 447.138C411.463 450.602 413.461 453.767 416.019 456.449C440.353 482.32 453.352 506.142 455.017 527.914Z" fill="#261D1F"/>
<path d="M695.344 559.607C729.731 549.234 771.035 530.599 789.477 562.105C792.392 567.011 794.332 572.432 795.175 578.032C796.018 583.631 795.746 589.29 794.378 594.657C793.009 600.024 790.572 604.985 787.217 609.234C783.863 613.482 779.663 616.926 774.877 619.353C755.922 629.215 737.351 637.668 719.165 644.712C711.833 647.506 705.718 652.79 701.889 659.638C698.061 666.487 696.764 674.464 698.225 682.173L700.531 694.468C701.231 698.149 702.763 701.621 705.01 704.619C707.257 707.617 710.16 710.061 713.496 711.766C716.832 713.472 720.513 714.392 724.259 714.457C728.005 714.522 731.717 713.73 735.11 712.142C766.232 697.734 810.417 674.297 832.125 690.626C837.422 694.679 841.858 699.747 845.175 705.538C848.491 711.329 850.623 717.725 851.445 724.357C852.267 730.988 851.764 737.722 849.964 744.167C848.165 750.612 845.105 756.639 840.962 761.899C796.969 817.802 706.486 861.219 640.785 806.468C635.98 802.551 632.166 797.62 629.642 792.06C596.087 719.443 575.724 645.096 568.551 569.021C559.907 477.769 580.846 420.328 670.369 388.438C714.426 372.685 744.844 379.281 761.621 408.225C764.957 414.025 765.92 420.907 764.311 427.436C750.863 479.69 703.604 481.995 669.025 509.083C663.743 513.272 660.086 519.17 658.681 525.763C657.276 532.356 658.211 539.232 661.325 545.211C664.44 551.189 669.539 555.896 675.747 558.524C681.955 561.151 688.884 561.534 695.344 559.607Z" fill="#FFDBCF"/>
<path d="M455.01 527.915C453.345 506.143 440.345 482.321 416.011 456.45C413.453 453.769 411.455 450.603 410.136 447.139C408.816 443.676 408.201 439.983 408.327 436.279C410.248 383.833 468.649 366.351 488.629 413.994C501.308 444.348 499.771 507.167 481.521 534.831C479.879 537.391 477.47 539.365 474.639 540.472C471.807 541.58 468.697 541.763 465.755 540.995C462.813 540.228 460.189 538.549 458.259 536.2C456.329 533.85 455.191 530.95 455.01 527.915Z" fill="#FFDBCF"/>
<path d="M429.465 612.451C425.623 653.371 387.585 666.05 351.661 669.508C265.019 677.961 300.559 788.423 334.179 825.308C337.594 829.029 341.879 831.845 346.65 833.503C351.421 835.162 356.528 835.612 361.515 834.812C366.502 834.013 371.213 831.989 375.226 828.922C379.24 825.856 382.43 821.842 384.511 817.24C398.151 787.079 417.362 754.804 455.4 751.538C602.747 738.667 541.464 1050.27 335.523 1007.62C155.517 970.351 97.3079 667.779 219.681 550.016C254.901 516.333 306.259 506.279 373.753 519.855C416.017 528.435 434.588 559.301 429.465 612.451ZM389.89 543.484C340.198 519.15 295.821 519.983 256.759 545.981C137.651 625.515 159.935 825.308 239.085 925.589C289.417 989.562 370.871 1014.73 442.336 971.503C501.314 935.963 547.036 836.451 488.058 782.468C483.585 778.378 478.252 775.343 472.452 773.586C466.651 771.83 460.53 771.396 454.54 772.318C448.55 773.239 442.842 775.493 437.838 778.911C432.833 782.33 428.659 786.828 425.623 792.074L399.88 836.643C397.053 841.521 393.253 845.766 388.716 849.113C384.178 852.461 379.001 854.839 373.506 856.1C368.01 857.361 362.314 857.478 356.771 856.445C351.229 855.411 345.958 853.248 341.287 850.09C285.191 812.245 235.05 663.168 344.36 651.065C363.315 649.016 376.827 646.903 384.895 644.726C392.12 642.731 398.535 638.341 403.146 632.238C419.027 611.235 419.795 586.773 405.451 558.853C402.09 552.128 396.617 546.722 389.89 543.484Z" fill="#261D1F"/>
<path d="M405.445 558.84C419.789 586.759 419.021 611.221 403.14 632.225C398.529 638.328 392.113 642.718 384.889 644.712C376.821 646.89 363.309 649.003 344.354 651.052C235.044 663.155 285.185 812.232 341.28 850.077C345.952 853.235 351.223 855.398 356.765 856.431C362.308 857.465 368.004 857.348 373.5 856.087C378.995 854.825 384.172 852.447 388.709 849.1C393.247 845.753 397.047 841.508 399.874 836.63L425.616 792.06C428.653 786.815 432.827 782.317 437.831 778.898C442.836 775.479 448.543 773.226 454.534 772.304C460.524 771.383 466.645 771.817 472.446 773.573C478.246 775.33 483.579 778.365 488.052 782.455C547.03 836.438 501.308 935.95 442.33 971.49C370.865 1014.71 289.411 989.549 239.078 925.576C159.929 825.295 137.645 625.502 256.752 545.968C295.815 519.97 340.192 519.137 389.884 543.471C396.611 546.709 402.084 552.115 405.445 558.84Z" fill="#FFDBCF"/>
<path d="M1768.47 591.886C1830.33 591.694 1891.61 589.389 1941.75 631.46C1946.59 635.5 1950.51 640.473 1953.28 646.061C1975.44 689.99 1969.48 728.091 1935.41 760.366C1931.15 764.376 1925.88 767.046 1920.24 768.05L1861.83 779C1857.67 779.79 1853.96 782.114 1851.4 785.521C1848.84 788.928 1847.63 793.176 1848 797.443C1855.82 889.527 1857.8 973.415 1853.96 1049.11C1851.08 1104.63 1834.75 1173.21 1768.85 1173.21C1702.77 1173.21 1686.44 1104.82 1683.56 1049.3C1679.59 973.607 1681.44 889.719 1689.13 797.635C1689.5 793.368 1688.29 789.12 1685.73 785.713C1683.18 782.306 1679.46 779.982 1675.3 779.193L1616.9 768.242C1611.25 767.238 1605.98 764.568 1601.72 760.558C1567.65 728.284 1561.63 690.182 1583.66 646.253C1586.43 640.665 1590.35 635.692 1595.19 631.653C1645.33 589.581 1706.61 591.886 1768.47 591.886ZM1769.62 1156.5C1805.23 1156.5 1825.72 1130.24 1831.1 1077.73C1840.7 983.213 1839.87 889.079 1828.6 795.33C1828.07 790.776 1828.47 786.162 1829.79 781.77C1831.11 777.379 1833.31 773.304 1836.26 769.796C1839.21 766.287 1842.85 763.419 1846.95 761.368C1851.05 759.317 1855.53 758.126 1860.11 757.869C1871.5 757.228 1886.04 754.154 1903.71 748.647C1958.66 731.549 1965 655.858 1914.47 629.732C1874.32 608.984 1812.46 604.181 1770.01 604.181C1727.36 603.989 1665.5 608.984 1625.54 629.539C1574.82 655.666 1581.16 731.357 1635.91 748.455C1653.59 753.962 1668.12 757.036 1679.52 757.676C1684.12 757.931 1688.61 759.128 1692.73 761.191C1696.84 763.254 1700.49 766.14 1703.44 769.67C1706.4 773.2 1708.59 777.299 1709.9 781.712C1711.2 786.126 1711.59 790.761 1711.03 795.33C1699.63 889.079 1698.73 983.213 1708.34 1077.73C1713.59 1130.11 1734.02 1156.37 1769.62 1156.5Z" fill="#261D1F"/>
<path d="M1770.01 604.174C1812.46 604.174 1874.32 608.977 1914.47 629.725C1965 655.852 1958.66 731.543 1903.71 748.64C1886.04 754.147 1871.5 757.221 1860.1 757.862C1855.53 758.119 1851.05 759.31 1846.95 761.361C1842.85 763.412 1839.21 766.28 1836.26 769.789C1833.31 773.298 1831.11 777.373 1829.79 781.764C1828.47 786.155 1828.07 790.769 1828.6 795.323C1839.87 889.072 1840.7 983.206 1831.1 1077.72C1825.72 1130.23 1805.23 1156.49 1769.62 1156.49C1734.02 1156.36 1713.59 1130.11 1708.34 1077.72C1698.73 983.206 1699.63 889.072 1711.03 795.323C1711.59 790.754 1711.2 786.12 1709.9 781.706C1708.59 777.292 1706.4 773.193 1703.44 769.663C1700.49 766.133 1696.84 763.247 1692.73 761.184C1688.61 759.121 1684.12 757.925 1679.52 757.669C1668.12 757.029 1653.59 753.955 1635.91 748.448C1581.16 731.351 1574.82 655.659 1625.54 629.533C1665.5 608.977 1727.36 603.982 1770.01 604.174Z" fill="#FFDBCF"/>
<path d="M2096.98 626.455C2194.18 640.479 2162.1 836.43 2150 920.958C2137.7 1005.29 2112.92 1202.4 2015.71 1188.37C1918.51 1174.16 1950.59 978.207 1962.88 893.871C1974.99 809.343 1999.77 612.431 2096.98 626.455ZM2019.94 1168.39C2097.17 1179.35 2120.99 975.133 2129.25 915.963C2137.7 856.794 2171.51 654.118 2094.09 643.168C2016.87 632.41 1993.24 836.43 1984.78 895.6C1976.52 954.77 1942.71 1157.44 2019.94 1168.39Z" fill="#261D1F"/>
<path d="M2423.56 641.437C2543.82 683.893 2412.61 926.719 2368.81 1000.68C2338.07 1052.68 2306.95 1073.11 2275.44 1061.96C2243.94 1050.82 2232.48 1015.35 2241.06 955.536C2253.35 870.623 2303.3 599.173 2423.56 641.437ZM2282.74 1044.29C2348.06 1067.54 2432.78 829.128 2445.85 786.48C2468.13 713.606 2459.68 670.189 2420.49 656.229C2381.17 642.27 2347.17 670.574 2318.48 741.142C2301.76 782.637 2217.04 1021.04 2282.74 1044.29Z" fill="#261D1F"/>
<path d="M2019.93 1168.42C1942.7 1157.46 1976.51 954.79 1984.77 895.62C1993.22 836.45 2016.85 632.43 2094.08 643.188C2171.5 654.139 2137.69 856.814 2129.24 915.984C2120.97 975.153 2097.15 1179.37 2019.93 1168.42Z" fill="#FFDBCF"/>
<path d="M1436.3 1114.05C1439.18 1169.76 1457.62 1235.85 1399.41 1269.08C1388.41 1275.42 1375.47 1277.66 1362.79 1275.42C1350.11 1273.17 1338.48 1266.59 1329.87 1256.79C1314.63 1239.63 1304.13 1221.25 1298.37 1201.65C1251.62 1042.97 1225.68 926.424 1220.56 852.014C1213 744.433 1259.37 679.308 1359.65 656.639C1535.24 616.872 1623.61 828.961 1538.31 950.566C1536.04 953.726 1534.97 957.597 1535.28 961.498C1535.6 965.399 1537.28 969.08 1540.04 971.89C1584.61 1017.04 1636.09 1059.11 1643.59 1121.74C1650.89 1183.02 1617.07 1211.07 1555.41 1201.85C1548.83 1200.83 1542.54 1198.41 1536.96 1194.74C1506.48 1174.89 1477.15 1146.45 1448.98 1109.44C1448.05 1108.27 1446.78 1107.42 1445.34 1107.01C1443.91 1106.61 1442.38 1106.66 1440.98 1107.17C1439.57 1107.68 1438.37 1108.62 1437.53 1109.86C1436.69 1111.09 1436.26 1112.56 1436.3 1114.05ZM1579.61 1188.01C1586.16 1188.27 1592.67 1186.99 1598.72 1184.27C1604.77 1181.54 1610.21 1177.44 1614.68 1172.22C1619.15 1167 1622.55 1160.8 1624.65 1154.01C1626.76 1147.23 1627.51 1140.02 1626.87 1132.88C1620.92 1061.03 1558.29 1016.27 1513.72 973.811C1511 971.145 1509.14 967.724 1508.39 963.991C1507.64 960.257 1508.02 956.384 1509.49 952.871C1516.22 937.503 1532.74 921.75 1538.12 906.765C1567.89 824.927 1545.8 717.538 1460.31 680.268C1377.13 644.152 1252.84 686.608 1242.08 782.278C1237.34 824.158 1239.39 870.392 1248.22 920.981C1264.75 1014.73 1285.88 1116.36 1318.54 1206.07C1327.12 1229.76 1343.51 1247.63 1367.72 1259.67C1370.88 1261.26 1374.41 1262.01 1377.97 1261.84C1381.54 1261.67 1385.02 1260.59 1388.08 1258.71C1418.69 1239.75 1431.69 1215.55 1427.08 1186.09C1417.99 1129.61 1412.86 1088.69 1411.71 1063.33C1411.64 1061.37 1412.16 1059.42 1413.2 1057.76C1414.25 1056.09 1415.77 1054.78 1417.58 1053.99C1419.38 1053.2 1421.38 1052.97 1423.32 1053.34C1425.25 1053.7 1427.03 1054.64 1428.42 1056.03C1460.12 1088.12 1516.22 1185.52 1579.61 1188.01Z" fill="#261D1F"/>
<path d="M2282.73 1044.3C2217.03 1021.05 2301.75 782.643 2318.47 741.148C2347.16 670.58 2381.16 642.276 2420.48 656.236C2459.67 670.196 2468.12 713.612 2445.84 786.486C2432.77 829.134 2348.05 1067.54 2282.73 1044.3Z" fill="#FFDBCF"/>
<path d="M1579.61 1187.99C1516.22 1185.49 1460.12 1088.09 1428.42 1056.01C1427.03 1054.62 1425.25 1053.68 1423.32 1053.31C1421.38 1052.95 1419.38 1053.18 1417.58 1053.96C1415.78 1054.75 1414.25 1056.07 1413.2 1057.73C1412.16 1059.4 1411.64 1061.34 1411.71 1063.31C1412.86 1088.67 1417.99 1129.59 1427.08 1186.07C1431.69 1215.52 1418.69 1239.73 1388.08 1258.69C1385.02 1260.57 1381.54 1261.64 1377.98 1261.81C1374.41 1261.98 1370.88 1261.24 1367.72 1259.65C1343.51 1247.61 1327.12 1229.74 1318.54 1206.05C1285.88 1116.33 1264.75 1014.71 1248.23 920.957C1239.39 870.368 1237.34 824.134 1242.08 782.254C1252.84 686.584 1377.13 644.128 1460.31 680.244C1545.8 717.513 1567.9 824.903 1538.12 906.741C1532.74 921.726 1516.22 937.478 1509.49 952.847C1508.02 956.359 1507.64 960.233 1508.39 963.967C1509.14 967.7 1511 971.121 1513.72 973.787C1558.29 1016.24 1620.92 1061 1626.87 1132.85C1627.51 1140 1626.76 1147.21 1624.65 1153.99C1622.55 1160.77 1619.15 1166.98 1614.68 1172.2C1610.21 1177.41 1604.77 1181.52 1598.72 1184.24C1592.68 1186.97 1586.16 1188.24 1579.61 1187.99ZM1388.17 788.826C1382.76 789.318 1377.55 791.255 1372.81 794.526C1368.08 797.797 1363.92 802.339 1360.57 807.892C1357.23 813.445 1354.76 819.9 1353.31 826.889C1351.86 833.878 1351.46 841.265 1352.13 848.626C1352.8 855.988 1354.53 863.18 1357.22 869.793C1359.9 876.406 1363.5 882.31 1367.79 887.167C1372.08 892.025 1376.99 895.741 1382.24 898.104C1387.49 900.467 1392.97 901.429 1398.37 900.937C1403.77 900.446 1408.99 898.509 1413.72 895.238C1418.46 891.967 1422.62 887.425 1425.96 881.872C1429.31 876.319 1431.78 869.863 1433.22 862.874C1434.67 855.885 1435.07 848.499 1434.4 841.138C1433.73 833.776 1432 826.584 1429.32 819.971C1426.63 813.358 1423.04 807.454 1418.75 802.596C1414.45 797.739 1409.54 794.023 1404.3 791.66C1399.05 789.297 1393.57 788.334 1388.17 788.826Z" fill="#FFDBCF"/>
<path d="M1388.17 788.823C1393.57 788.331 1399.05 789.294 1404.3 791.657C1409.55 794.02 1414.46 797.736 1418.75 802.593C1423.04 807.451 1426.64 813.355 1429.32 819.968C1432.01 826.581 1433.74 833.773 1434.41 841.135C1435.08 848.496 1434.68 855.882 1433.23 862.871C1431.78 869.861 1429.31 876.316 1425.97 881.869C1422.62 887.422 1418.46 891.964 1413.73 895.235C1408.99 898.506 1403.78 900.443 1398.37 900.934C1392.97 901.426 1387.49 900.464 1382.24 898.101C1377 895.738 1372.09 892.022 1367.79 887.164C1363.5 882.307 1359.91 876.403 1357.22 869.79C1354.54 863.177 1352.81 855.985 1352.14 848.623C1351.47 841.262 1351.87 833.876 1353.32 826.886C1354.76 819.897 1357.23 813.442 1360.58 807.889C1363.92 802.336 1368.08 797.794 1372.82 794.523C1377.55 791.252 1382.77 789.315 1388.17 788.823ZM1388.9 805.835C1385.71 806.108 1382.63 807.409 1379.86 809.663C1377.08 811.916 1374.65 815.079 1372.71 818.969C1370.77 822.86 1369.35 827.402 1368.55 832.337C1367.74 837.272 1367.55 842.503 1368 847.732C1368.45 852.96 1369.52 858.084 1371.16 862.809C1372.79 867.535 1374.96 871.77 1377.54 875.274C1380.11 878.777 1383.04 881.48 1386.16 883.228C1389.28 884.976 1392.53 885.734 1395.73 885.46C1398.92 885.186 1401.99 883.886 1404.77 881.632C1407.55 879.378 1409.97 876.216 1411.91 872.326C1413.86 868.435 1415.27 863.892 1416.08 858.957C1416.88 854.022 1417.07 848.791 1416.62 843.563C1416.17 838.334 1415.1 833.211 1413.46 828.485C1411.83 823.76 1409.66 819.524 1407.09 816.021C1404.51 812.518 1401.58 809.815 1398.46 808.067C1395.34 806.319 1392.09 805.561 1388.9 805.835Z" fill="#261D1F"/>
<path d="M1416.61 843.587C1414.73 821.599 1402.32 804.707 1388.89 805.858C1375.47 807.009 1366.11 825.767 1368 847.755C1369.88 869.743 1382.29 886.634 1395.72 885.483C1409.14 884.332 1418.5 865.575 1416.61 843.587Z" fill="#957063"/>
<path d="M1250.35 1193.56C1208.6 1088.41 1156.85 992.548 1095.12 905.971C1077.45 880.997 1042.87 850.067 1011.56 840.078C997.893 835.686 983.252 835.792 969.91 840.378C956.569 844.964 945.275 853.774 937.786 865.436C916.141 899.247 903.334 938.437 899.364 983.007C888.222 1106.47 894.881 1234.16 919.343 1366.07C924.082 1392.07 934.84 1414.16 951.618 1432.35C958.729 1439.98 967.61 1445.33 976.684 1447.44C985.758 1449.55 994.437 1448.29 1001.18 1443.88C1021.29 1430.81 1033.33 1412.63 1037.3 1389.32C1038.19 1384.47 1038.58 1379.44 1038.45 1374.33L1036.91 1286.35C1036.79 1281.55 1037.84 1276.8 1039.99 1272.52C1055.1 1242.55 1077.32 1231.21 1106.65 1238.51C1109.82 1239.36 1112.75 1240.9 1115.22 1243.03C1117.68 1245.17 1119.61 1247.82 1120.87 1250.81C1136.11 1286.92 1152.69 1315.16 1170.62 1335.53C1178.87 1344.87 1190.02 1351.16 1202.27 1353.36C1214.51 1355.55 1227.13 1353.54 1238.05 1347.63C1281.85 1324 1271.86 1268.29 1260.53 1220.65C1261.43 1218.6 1262.19 1216.42 1262.83 1214.11C1263.03 1213.42 1263.43 1212.8 1263.99 1212.35C1264.56 1211.9 1265.24 1211.63 1265.96 1211.59C1266.68 1211.55 1267.4 1211.73 1268.01 1212.11C1268.62 1212.5 1269.09 1213.06 1269.37 1213.73C1284.86 1249.97 1289.35 1286.41 1282.81 1323.04C1281.47 1330.68 1277.27 1337.48 1271.1 1342.06C1173.7 1414.29 1149.68 1324.19 1107.61 1264.06C1104.7 1259.87 1100.61 1256.64 1095.86 1254.77C1091.11 1252.91 1085.91 1252.49 1080.91 1253.58C1075.91 1254.66 1071.32 1257.2 1067.74 1260.88C1064.15 1264.56 1061.71 1269.21 1060.74 1274.24C1055.48 1302.68 1053.88 1332.2 1055.93 1362.81C1062.46 1459.63 954.499 1522.83 909.93 1403.15C891.615 1353.84 880.921 1294.67 877.848 1225.64C872.276 1104.42 849.416 868.894 948.928 825.093C987.606 808.06 1025.9 815.296 1063.81 846.801C1097.62 874.849 1124.39 904.242 1144.11 934.98C1195.34 1014.9 1230.75 1101.09 1250.35 1193.56Z" fill="#261D1F"/>
<path d="M1250.35 1193.58C1248.43 1199.85 1251.82 1208.88 1260.53 1220.66C1271.87 1268.31 1281.86 1324.02 1238.06 1347.65C1227.13 1353.55 1214.52 1355.57 1202.27 1353.37C1190.02 1351.17 1178.87 1344.89 1170.63 1335.54C1152.7 1315.18 1136.11 1286.94 1120.87 1250.82C1119.62 1247.84 1117.68 1245.18 1115.22 1243.05C1112.76 1240.92 1109.83 1239.37 1106.65 1238.53C1077.33 1231.23 1055.1 1242.56 1039.99 1272.53C1037.85 1276.82 1036.79 1281.57 1036.92 1286.36L1038.46 1374.35C1038.58 1379.46 1038.2 1384.48 1037.3 1389.33C1033.33 1412.64 1021.29 1430.83 1001.19 1443.89C994.441 1448.3 985.762 1449.56 976.688 1447.45C967.615 1445.34 958.734 1440 951.622 1432.37C934.844 1414.18 924.086 1392.09 919.348 1366.09C894.886 1234.17 888.226 1106.49 899.368 983.023C903.338 938.454 916.146 899.264 937.79 865.452C945.279 853.79 956.573 844.981 969.915 840.394C983.256 835.808 997.897 835.703 1011.56 840.094C1042.87 850.084 1077.45 881.013 1095.13 905.988C1156.86 992.565 1208.6 1088.43 1250.35 1193.58ZM999.841 1007.61C993.502 1032.4 989.275 1116.16 1026.16 1125.76C1030.59 1126.89 1035.21 1127.12 1039.71 1126.44C1044.22 1125.76 1048.53 1124.18 1052.38 1121.81C1056.23 1119.43 1059.54 1116.31 1062.1 1112.63C1064.66 1108.95 1066.42 1104.79 1067.27 1100.4C1075.85 1057.5 1061.83 1023.43 1025.2 998.2C1023.02 996.694 1020.5 995.737 1017.87 995.408C1015.23 995.08 1012.56 995.391 1010.07 996.314C1007.59 997.237 1005.36 998.746 1003.58 1000.71C1001.8 1002.68 1000.51 1005.05 999.841 1007.61Z" fill="#FFDBCF"/>
<path d="M852.105 1147.09C854.026 1225.85 816.565 1290.6 750.863 1336.7C743.814 1341.69 738.689 1348.94 736.345 1357.23C734.002 1365.52 734.583 1374.34 737.992 1382.23C758.227 1428.47 770.971 1466.76 776.222 1497.11C801.388 1641.77 670.946 1659.25 613.889 1545.33C552.03 1422.25 509.638 1293.35 486.713 1158.62C481.718 1129.67 482.487 1100.73 489.018 1071.78C508.229 986.871 625.032 936.73 698.225 948.065C804.077 964.394 849.607 1049.69 852.105 1147.09ZM744.139 1591.25C784.867 1538.42 746.253 1452.54 720.51 1378.2C717.644 1370.04 717.38 1361.18 719.751 1352.83C722.123 1344.48 727.016 1337.04 733.765 1331.51C809.841 1270.04 840.77 1197.1 826.554 1112.7C818.614 1065.44 800.555 1029.39 772.379 1004.54C688.812 930.967 546.075 972.27 512.071 1069.09C497.983 1108.92 502.018 1170.59 524.174 1254.09C555.68 1372.43 597.88 1475.98 650.774 1564.74C666.655 1591.37 690.989 1603.8 723.776 1602C727.695 1601.82 731.547 1600.77 735.064 1598.91C738.581 1597.05 741.678 1594.44 744.139 1591.25Z" fill="#261D1F"/>
<path d="M723.778 1602.01C690.991 1603.8 666.657 1591.38 650.776 1564.74C597.882 1475.98 555.682 1372.44 524.176 1254.1C502.02 1170.59 497.985 1108.93 512.073 1069.1C546.077 972.273 688.814 930.97 772.381 1004.55C800.557 1029.39 818.616 1065.45 826.556 1112.7C840.772 1197.1 809.843 1270.04 733.767 1331.52C727.018 1337.04 722.125 1344.48 719.753 1352.83C717.381 1361.19 717.646 1370.04 720.512 1378.2C746.254 1452.55 784.868 1538.42 744.141 1591.25C741.679 1594.44 738.582 1597.06 735.066 1598.91C731.549 1600.77 727.697 1601.83 723.778 1602.01ZM662.251 1090.87C656.347 1091.41 650.646 1093.54 645.473 1097.14C640.301 1100.74 635.759 1105.74 632.106 1111.86C628.454 1117.98 625.762 1125.09 624.185 1132.8C622.608 1140.5 622.176 1148.64 622.914 1156.76C624.406 1173.14 630.573 1188.43 640.059 1199.25C649.545 1210.07 661.573 1215.54 673.497 1214.46C679.401 1213.92 685.102 1211.79 690.274 1208.19C695.447 1204.59 699.989 1199.58 703.641 1193.47C707.294 1187.35 709.986 1180.23 711.563 1172.53C713.14 1164.83 713.572 1156.69 712.833 1148.57C711.342 1132.18 705.175 1116.9 695.689 1106.07C686.203 1095.25 674.175 1089.78 662.251 1090.87Z" fill="#FFDBCF"/>
<path d="M999.841 1007.6C1000.51 1005.04 1001.79 1002.67 1003.58 1000.7C1005.36 998.737 1007.59 997.229 1010.07 996.305C1012.56 995.382 1015.23 995.071 1017.87 995.399C1020.5 995.728 1023.01 996.685 1025.2 998.191C1061.83 1023.42 1075.85 1057.49 1067.27 1100.39C1066.42 1104.78 1064.66 1108.94 1062.1 1112.62C1059.54 1116.3 1056.23 1119.43 1052.38 1121.8C1048.53 1124.17 1044.22 1125.75 1039.71 1126.43C1035.21 1127.11 1030.59 1126.88 1026.16 1125.75C989.275 1116.15 993.501 1032.39 999.841 1007.6ZM1023.13 1021.54C1019.17 1022.23 1016.19 1027.62 1014.86 1036.52C1013.52 1045.42 1013.94 1057.1 1016.01 1069C1018.09 1080.89 1021.66 1092.03 1025.93 1099.95C1030.2 1107.87 1034.83 1111.93 1038.79 1111.24C1042.76 1110.55 1045.73 1105.16 1047.07 1096.26C1048.4 1087.36 1047.99 1075.68 1045.91 1063.78C1043.84 1051.89 1040.27 1040.75 1036 1032.83C1031.73 1024.91 1027.1 1020.85 1023.13 1021.54Z" fill="#261D1F"/>
<path d="M1045.9 1063.79C1041.58 1039.02 1031.38 1020.1 1023.12 1021.55C1014.87 1022.99 1011.68 1044.24 1016 1069.01C1020.33 1093.78 1030.52 1112.69 1038.78 1111.25C1047.04 1109.81 1050.23 1088.56 1045.9 1063.79Z" fill="#957063"/>
<path d="M2314.06 1158.98C2314.06 1178.29 2306.39 1196.81 2292.73 1210.46C2279.08 1224.12 2260.56 1231.79 2241.25 1231.79C2221.94 1231.79 2203.42 1224.12 2189.76 1210.46C2176.11 1196.81 2168.44 1178.29 2168.44 1158.98C2168.44 1139.67 2176.11 1121.15 2189.76 1107.49C2203.42 1093.84 2221.94 1086.17 2241.25 1086.17C2260.56 1086.17 2279.08 1093.84 2292.73 1107.49C2306.39 1121.15 2314.06 1139.67 2314.06 1158.98ZM2245.26 1103.83C2238.52 1103.29 2231.73 1104.23 2225.27 1106.6C2218.82 1108.96 2212.82 1112.71 2207.63 1117.63C2202.44 1122.54 2198.15 1128.53 2195.01 1135.25C2191.88 1141.96 2189.95 1149.28 2189.35 1156.77C2188.13 1171.9 2192.37 1186.85 2201.14 1198.33C2209.9 1209.81 2222.47 1216.87 2236.08 1217.96C2242.82 1218.5 2249.61 1217.57 2256.07 1215.2C2262.53 1212.83 2268.52 1209.08 2273.71 1204.17C2278.9 1199.25 2283.19 1193.27 2286.33 1186.55C2289.46 1179.83 2291.39 1172.52 2291.99 1165.03C2293.21 1149.89 2288.97 1134.94 2280.21 1123.47C2271.44 1111.99 2258.87 1104.93 2245.26 1103.83Z" fill="#261D1F"/>
<path d="M662.245 1090.84C674.169 1089.76 686.197 1095.23 695.683 1106.05C705.168 1116.87 711.336 1132.16 712.827 1148.55C713.566 1156.66 713.134 1164.8 711.557 1172.51C709.98 1180.21 707.288 1187.32 703.635 1193.44C699.983 1199.56 695.44 1204.56 690.268 1208.17C685.096 1211.77 679.395 1213.9 673.491 1214.43C661.567 1215.52 649.539 1210.05 640.053 1199.23C630.567 1188.41 624.4 1173.12 622.908 1156.73C622.17 1148.62 622.602 1140.47 624.179 1132.77C625.756 1125.07 628.448 1117.95 632.1 1111.84C635.753 1105.72 640.295 1100.71 645.467 1097.11C650.64 1093.51 656.341 1091.38 662.245 1090.84ZM660.314 1110.31C653.541 1111.17 647.578 1116.2 643.737 1124.31C639.896 1132.42 638.491 1142.94 639.831 1153.56C641.172 1164.17 645.149 1174.01 650.887 1180.92C656.625 1187.82 663.653 1191.21 670.427 1190.36C677.2 1189.5 683.163 1184.46 687.004 1176.35C690.845 1168.24 692.25 1157.72 690.909 1147.11C689.568 1136.49 685.592 1126.65 679.854 1119.75C674.116 1112.85 667.088 1109.45 660.314 1110.31Z" fill="#261D1F"/>
<path d="M2291.99 1165.05C2294.52 1133.53 2273.6 1106.13 2245.26 1103.85C2216.92 1101.57 2191.89 1125.27 2189.35 1156.79C2186.81 1188.3 2207.74 1215.7 2236.08 1217.98C2264.42 1220.26 2289.45 1196.56 2291.99 1165.05Z" fill="white"/>
<path d="M690.906 1147.11C688.114 1125.01 674.415 1108.53 660.31 1110.32C646.205 1112.1 637.034 1131.46 639.827 1153.57C642.62 1175.67 656.318 1192.15 670.423 1190.37C684.528 1188.58 693.699 1169.22 690.906 1147.11Z" fill="#957063"/>
</g>
<defs>
<filter id="filter0_d_13_156" x="0" y="0" width="2630" height="1783.12" filterUnits="userSpaceOnUse" color-interpolation-filters="sRGB">
<feFlood flood-opacity="0" result="BackgroundImageFix"/>
<feColorMatrix in="SourceAlpha" type="matrix" values="0 0 0 0 0 0 0 0 0 0 0 0 0 0 0 0 0 0 127 0" result="hardAlpha"/>
<feOffset dy="4"/>
<feGaussianBlur stdDeviation="2"/>
<feComposite in2="hardAlpha" operator="out"/>
<feColorMatrix type="matrix" values="0 0 0 0 0 0 0 0 0 0 0 0 0 0 0 0 0 0 0.25 0"/>
<feBlend mode="normal" in2="BackgroundImageFix" result="effect1_dropShadow_13_156"/>
<feBlend mode="normal" in="SourceGraphic" in2="effect1_dropShadow_13_156" result="shape"/>
</filter>
</defs>
</svg>
