<svg width="1773" height="1773" viewBox="0 0 1773 1773" fill="none" xmlns="http://www.w3.org/2000/svg">
<g filter="url(#filter0_d_13_161)">
<path d="M175.9 1109.05C174.987 1108.34 174.183 1107.79 173.49 1107.4C173.211 1107.24 172.946 1107.06 172.7 1106.85C168.17 1102.95 160.5 1095.74 153.93 1088.6C150.243 1084.6 147.22 1081.4 144.86 1078.99C143.367 1077.47 138.54 1072 130.38 1062.59C127.367 1059.12 121.32 1050.25 112.24 1035.98C109.367 1031.46 104.073 1021.97 96.36 1007.5C93.54 1002.21 90.9134 996.407 88.48 990.08C86.4734 984.867 83.9634 978.603 80.95 971.29C76.2834 959.963 72.6434 948.687 70.03 937.46C65.8567 919.527 63.0667 901.94 61.66 884.7C60.3134 868.113 59.8934 850.3 60.4 831.26C61.57 787.19 71.16 745.07 86.2 704.18C90.74 691.847 95.68 680.55 101.02 670.29C107.387 658.063 113.327 647.24 118.84 637.82C120.513 634.967 123.697 630.447 128.39 624.26C130.95 620.887 134.217 616.427 138.19 610.88C143.157 603.947 149.013 596.913 155.76 589.78C158.72 586.66 163.22 581.81 169.26 575.23C173.893 570.177 179.83 564.37 187.07 557.81C198.463 547.483 209.343 538.63 219.71 531.25C231.683 522.73 248.603 512.537 270.47 500.67C270.65 500.577 277.78 497.303 291.86 490.85C309.9 482.58 328.6 476.23 346.39 470.81C351.697 469.197 357.8 467.607 364.7 466.04C371.59 464.47 380.81 461.85 389.34 460.5C396.287 459.4 406.117 457.857 418.83 455.87C436.977 453.043 456.117 451.413 476.25 450.98C522.537 449.987 569.12 452.48 616 458.46C636.553 461.08 655.637 464.177 673.25 467.75C682.063 469.537 686.613 470.45 686.9 470.49C692.47 471.3 698.86 472.6 705.03 474.45C713.82 477.09 722.79 479.22 731.51 482.71C738.97 485.703 746.313 488.557 753.54 491.27C761.71 494.33 771.19 499.04 779.36 502.65C782.547 504.057 785.933 505.71 789.52 507.61C796.733 511.43 802.213 514.223 805.96 515.99C811.973 518.823 817.41 521.663 822.27 524.51C826.87 527.21 836.717 532.513 851.81 540.42C855.163 542.173 862.383 545.117 873.47 549.25C886.09 553.957 899.51 556.487 913.73 556.84C922.81 557.07 931.83 555.59 940.56 553.56C944.26 552.707 947.603 551.543 950.59 550.07C952.79 548.983 959.033 545.33 969.32 539.11C974.367 536.057 979.113 532.383 983.56 528.09C993.23 518.75 999.81 511.54 1006.79 501.43C1011.31 494.88 1016.39 489.2 1020.84 482.98C1028.58 472.18 1037.31 460.82 1046.64 451.65C1048.76 449.57 1052.95 445.91 1059.21 440.67C1063.88 436.77 1068.29 433.413 1072.44 430.6C1086.65 420.98 1102.67 413.71 1120.51 408.79C1133.88 405.11 1146.72 403.217 1159.01 403.11C1178.81 402.937 1198.26 405.78 1217.35 411.64C1233.28 416.53 1248.26 422.63 1262 431.6C1269.11 436.23 1275.5 439.51 1281.4 443.82C1288.22 448.807 1294.87 453.87 1301.34 459.01C1301.37 459.037 1305.47 462.543 1313.64 469.53C1326.12 480.203 1339.36 488.34 1353.36 493.94C1372.6 501.633 1393.27 507.44 1415.38 511.36C1423.93 512.88 1431.09 514.103 1436.88 515.03C1452.89 517.6 1467.78 521.32 1482.46 526.27C1491.02 529.157 1498.4 532.39 1504.59 535.97C1511.42 539.923 1518.2 544.293 1524.94 549.08C1528.77 551.8 1532.21 554.683 1535.26 557.73C1539.74 562.197 1545.25 568.423 1551.8 576.41C1560.18 586.643 1566.82 597.853 1571.73 610.04C1578.85 627.7 1583.24 643.58 1584.64 662.11C1585.74 676.57 1586.11 687.703 1585.76 695.51C1585.02 711.81 1584.44 725.307 1584.02 736C1583.5 749.3 1583.56 760.88 1584.21 770.74C1584.98 782.4 1589.15 795.51 1593.83 805.49C1596.6 811.417 1600.44 817.23 1605.35 822.93C1606.39 824.143 1609.71 827.653 1615.31 833.46C1626.14 844.7 1638.89 854.57 1650.47 865.77C1659.44 874.45 1666.61 881 1673.45 890.3C1685.51 906.66 1694.76 920.03 1701.55 937.67C1712.88 967.137 1717 997.64 1713.92 1029.18C1712.33 1045.39 1708.83 1061.89 1703.42 1078.66C1698.85 1092.81 1693.41 1105.37 1687.1 1116.36C1682.32 1124.67 1679.64 1129.79 1675.02 1136.68C1667.45 1147.93 1659.69 1157.91 1651.72 1166.62C1644.18 1174.86 1635.5 1182.85 1627.95 1190.2C1624.16 1193.89 1619.29 1197.84 1613.32 1202.05C1601.79 1210.2 1595.21 1214.86 1593.58 1216.04C1584.67 1222.51 1576.46 1227.81 1568.96 1231.96C1557.36 1238.38 1549.19 1243.71 1539.12 1247.81C1529.55 1251.71 1516.57 1258.21 1504.1 1263C1489.41 1268.64 1479.36 1272.28 1473.95 1273.93C1471.76 1274.6 1465.55 1276.32 1455.32 1279.09C1421.33 1288.3 1387.14 1293.32 1352.74 1294.15C1336.24 1294.56 1318.8 1293.14 1300.41 1289.91C1284.44 1287.1 1268.54 1282.5 1252.69 1276.09C1249.44 1274.78 1239.78 1270.76 1223.7 1264.04C1214.05 1260.01 1206.26 1255.68 1198.14 1252.12C1191.61 1249.26 1182.56 1246.05 1171.01 1242.5C1155.72 1237.79 1140.22 1236.79 1124.5 1239.49C1116.27 1240.9 1107.88 1243.03 1099.34 1245.87C1091.55 1248.46 1080.19 1252.54 1065.24 1258.13C1054.07 1262.31 1045.04 1264.51 1033.67 1267.89C986.46 1281.91 936.52 1273.98 890.93 1257.56C883.19 1254.77 876.647 1251.99 871.3 1249.22C851.833 1239.11 841.457 1233.69 840.17 1232.95C840.07 1232.89 829.877 1227.12 809.59 1215.63C793.64 1206.6 775.31 1196.78 757.01 1188.63C749.923 1185.48 743.07 1182.87 736.45 1180.8C706.963 1171.62 678.067 1166.45 649.76 1165.28C631.36 1164.52 611.61 1165.22 590.51 1167.39C570.657 1169.43 551.187 1172.16 532.1 1175.57C518.8 1177.94 503.1 1179.42 492.57 1181.36C483.757 1182.98 471.37 1184.84 455.41 1186.95C427.02 1190.69 398.7 1191.18 372.26 1189.03C369.42 1188.8 362.257 1187.84 350.77 1186.17C331.943 1183.42 314.263 1179.54 297.73 1174.51C288.277 1171.63 278.8 1168.45 269.3 1164.96C266.147 1163.81 259.737 1161 250.07 1156.54C235.37 1149.76 220.69 1141.05 206.61 1132.52C204.137 1131.02 198.72 1127.29 190.36 1121.32C187.467 1119.26 185.21 1117.45 183.59 1115.88C181.257 1113.63 179.02 1111.76 176.88 1110.26C176.64 1110.09 176.453 1109.86 176.32 1109.58C176.221 1109.37 176.077 1109.19 175.9 1109.05ZM378.98 798.9C381.553 788.613 385.13 779.297 389.71 770.95C395.51 760.36 400.78 751.76 408.98 743.21C417.19 734.65 429.75 727.68 441.15 732.15C446.057 734.077 451.75 737.02 458.23 740.98C471.19 748.9 486.72 751.25 502.19 749.97C508.25 749.47 514 748.043 519.44 745.69C535.133 738.91 547.837 728.107 557.55 713.28C560.39 708.94 562.917 703.13 565.13 695.85C569.72 680.72 570.53 664.86 565.16 650.09C562.507 642.783 560.043 637.067 557.77 632.94C552.87 624.04 546.6 616.92 539.14 609.98C536.373 607.413 534.217 605.547 532.67 604.38C520.16 594.95 504.59 587.39 489.5 582.24C475.59 577.49 459.3 573.65 442.75 571.52C436.883 570.767 430.377 570.45 423.23 570.57C413.25 570.75 406.73 571.027 403.67 571.4C391.48 572.91 381.65 574.58 371.47 578.08C369.67 578.7 366.827 579.557 362.94 580.65C335.76 588.29 312.25 601.55 289.82 618.66C286.533 621.167 283.183 624.1 279.77 627.46C273.54 633.58 265.38 640.68 259.32 647.67C249.38 659.14 241.21 670.22 232.4 683.15C223.54 696.15 217 709.46 210.09 724.07C206.01 732.71 202.76 742.51 200.2 749.42C195.8 761.31 192.6 774.47 190.18 786.08C186.98 801.447 185.267 817.42 185.04 834C184.833 849.767 184.923 860.683 185.31 866.75C185.83 874.937 187.557 886.093 190.49 900.22C191.65 905.8 193.81 912.54 195.63 919.46C196.743 923.68 198.243 928.41 200.13 933.65C208.16 955.93 218.63 977.22 232.82 996.44C243.04 1010.27 256.68 1022.54 268.53 1032.46C272.42 1035.72 277.04 1039.18 281.81 1042.14C288.93 1046.55 293.24 1049.16 294.74 1049.98C302.94 1054.44 311.58 1057.98 319.55 1061.94C323.643 1063.97 328.647 1066.13 334.56 1068.41C339.23 1070.21 343.83 1071.11 348.7 1072.52C351.753 1073.41 355.347 1074.23 359.48 1074.98C375.273 1077.87 391.72 1079.19 408.82 1078.93C419.253 1078.77 430.223 1077.51 441.73 1075.14C455.49 1072.31 466.243 1069.66 473.99 1067.19C477.917 1065.94 481.407 1064.53 484.46 1062.96C492.187 1058.98 500.11 1054.49 508.23 1049.48C516.543 1044.35 524.337 1037.9 531.61 1030.12C535.97 1025.46 538.973 1021.63 540.62 1018.62C550.067 1001.38 554.007 982.78 552.44 962.82C552.093 958.487 551.123 953.807 549.53 948.78C543.223 928.88 530.65 914.52 511.81 905.7C507.31 903.593 502.323 902.007 496.85 900.94C487.8 899.19 477.46 900.37 468.26 902.05C458.3 903.877 453.27 904.8 453.17 904.82C450.423 905.473 446.293 906.067 440.78 906.6C435.44 907.12 431.267 907.22 428.26 906.9C414.227 905.42 402.477 899.957 393.01 890.51C388.977 886.483 385.567 881.543 382.78 875.69C379.513 868.817 377.337 863.19 376.25 858.81C373.97 849.61 373.13 839.03 373.73 827.07C374.21 817.43 376.45 809.02 378.98 798.9ZM746.4 762.79C746.32 762.443 746.317 761.93 746.39 761.25C747.87 748.21 748.41 740.04 750.22 729.95C751.613 722.203 753.35 710.28 755.43 694.18C756.61 685.047 757.28 674.493 757.44 662.52C757.573 652.413 756.647 642.763 754.66 633.57C754.007 630.563 752.807 627.343 751.06 623.91C742.62 607.29 727.24 593.8 708.54 590.26C692.79 587.28 677.82 588.01 663.78 594.8C655.393 598.867 648.75 603.14 643.85 607.62C636.843 614.033 632.527 618.297 630.9 620.41C621.567 632.557 615.887 646.357 613.86 661.81C612.88 669.24 611.98 674.25 611.48 680.75C610.82 689.43 610.15 695.983 609.47 700.41C607.36 714.2 606.76 730.61 605.25 742.51C602.33 765.65 600.037 784.237 598.37 798.27C597.73 803.637 596.943 809.143 596.01 814.79C593.61 829.31 592.49 840.3 590.16 856.14C588.93 864.48 587.63 877.42 585.68 887.95C583.93 897.47 583.03 905.41 580.98 915.58C576.83 936.24 574.03 956.88 571.11 978.63C569.7 989.14 569.23 999.51 570.14 1009C571.273 1020.77 575.34 1031.66 582.34 1041.67C590.71 1053.63 602.62 1063.92 616.28 1067.76C625.47 1070.33 635.38 1072.55 645.4 1071.99C667.187 1070.78 684.753 1061.68 698.1 1044.7C704.61 1036.42 708.73 1026.5 710.91 1016.46C713.123 1006.24 715.057 995.627 716.71 984.62C718.977 969.46 720.743 958.95 722.01 953.09C726.75 931.04 729.88 915.62 735.79 897.78C737.583 892.38 740.333 887.633 744.04 883.54C746.693 880.613 750.087 879.14 754.22 879.12C754.591 879.12 754.956 879.181 755.3 879.3C762.71 881.9 765.88 887.38 767.1 894.93C768.04 900.757 768.207 907.39 767.6 914.83C766.827 924.223 765.333 934.587 763.12 945.92C759.59 964.02 757 980.15 754.28 998.51C751.49 1017.34 749.37 1038.44 757.06 1056.35C763.07 1070.32 771.8 1080.19 785.62 1087.18C795.96 1092.41 807.08 1095.47 818.98 1096.37C826.747 1096.96 833.62 1096.46 839.6 1094.87C847.227 1092.84 853.683 1090.36 858.97 1087.43C873.55 1079.34 883.983 1067.26 890.27 1051.19C892.063 1046.6 893.42 1040.93 894.34 1034.18C896.34 1019.54 896.92 1010.5 898.12 991.25C898.62 983.137 899.493 974.667 900.74 965.84C903.633 945.273 905.973 926.323 907.76 908.99C909.64 890.737 909.933 872.24 908.64 853.5C906.99 829.69 900.58 807.87 886.53 788.28C882.883 783.2 877.98 777.967 871.82 772.58C869.14 770.24 865.267 767.59 860.2 764.63C853.587 760.77 849.503 758.493 847.95 757.8C838.577 753.613 828.92 751.037 818.98 750.07C793.9 747.623 770.15 752.067 747.73 763.4C747.603 763.463 747.464 763.497 747.323 763.499C747.182 763.502 747.042 763.473 746.914 763.414C746.787 763.356 746.674 763.269 746.585 763.161C746.496 763.053 746.433 762.926 746.4 762.79ZM1119.85 878.87C1117.48 894.303 1115.73 906.24 1114.59 914.68C1110.69 943.57 1106.96 966.05 1103.12 993.53C1100.12 1015.02 1098.19 1032.1 1097.32 1044.75C1096.14 1061.98 1096.91 1079.07 1104.31 1094.44C1108.44 1103.03 1113.64 1110.81 1119.91 1117.76C1134.74 1134.2 1157.06 1141.36 1178.98 1140.75C1195.45 1140.3 1212.34 1134.74 1224.62 1123.4C1228.96 1119.39 1232.07 1116.16 1233.94 1113.69C1238.33 1107.93 1241.78 1101.3 1244.3 1093.79C1248.3 1081.9 1250.46 1069.89 1250.79 1057.76C1250.9 1053.6 1250.86 1038.43 1250.66 1012.26C1250.61 1005.65 1250.9 991.547 1251.55 969.96C1253.12 917.51 1259.59 873.14 1268.23 817.93C1269.04 812.737 1270.01 807.31 1271.14 801.65C1274.2 786.27 1276.03 777.4 1278.69 760.98C1282.42 737.913 1284.45 725.253 1284.77 723C1285 721.4 1285.9 713.64 1287.46 699.72C1288.8 687.787 1287.92 676.44 1284.81 665.68C1280.44 650.54 1271.87 638.607 1259.1 629.88C1251.45 624.66 1243.41 621.403 1234.96 620.11C1225.26 618.62 1216.42 617.67 1208.03 619.77C1184.59 625.657 1167.06 639.04 1155.45 659.92C1148.67 672.12 1145.69 686.3 1144.05 699.26C1142.69 710.01 1141.1 720.12 1140.13 730.61C1138.95 743.3 1137.39 757.45 1135.34 769.84C1132.42 787.56 1131.3 801.72 1128.39 818.6C1124.93 838.62 1122.27 863.07 1119.85 878.87ZM1431.24 639.57C1423 635.42 1413.78 633.1 1404.75 633.22C1392.96 633.37 1378.24 635.83 1367.8 641.51C1361.97 644.677 1357.35 647.737 1353.93 650.69C1344.53 658.82 1337.33 670.41 1332.8 683.11C1330.19 690.423 1328.59 695.477 1328 698.27C1324.67 714.103 1321.99 731.35 1319.94 750.01C1318.64 761.877 1317.12 773.13 1315.38 783.77C1311.96 804.64 1309.25 822.74 1306.36 844.89C1303.68 865.48 1300.77 882.45 1296.24 909.08C1291.55 936.67 1288.45 961.32 1283.48 995.65C1279.83 1020.92 1277.41 1044.28 1276.24 1065.75C1275.68 1076.08 1275.69 1085.74 1276.28 1094.74C1277.05 1106.41 1280.02 1117.6 1285.19 1128.29C1286.7 1131.4 1288.71 1134.39 1291.21 1137.26C1305.47 1153.61 1325.59 1165.79 1347.49 1166.41C1355.49 1166.64 1361.24 1166.4 1364.74 1165.71C1382.52 1162.22 1396.98 1153.53 1408.11 1139.64C1410.08 1137.19 1413.05 1132.15 1417.02 1124.53C1419.46 1119.86 1421.86 1111.83 1422.9 1108.18C1424.42 1102.86 1425.41 1096.65 1425.88 1089.56C1426.56 1079.1 1426.66 1067.74 1426.19 1055.48C1425.86 1046.86 1425.94 1036.97 1426.44 1025.82C1427.2 1008.86 1427.23 995.43 1428.47 979.5C1431.01 946.87 1434.14 916.01 1439.04 886.54C1440.65 876.893 1441.56 871.207 1441.77 869.48C1442.7 861.94 1443.6 856.237 1444.47 852.37C1448.3 835.4 1449.89 821.38 1452.53 803.34C1453.27 798.28 1454.72 793.27 1455.54 788.53C1458.99 768.517 1461.97 751.857 1464.5 738.55C1466.22 729.47 1467.77 718.92 1468.47 711.25C1469.73 697.62 1468.75 682.35 1463.01 670.15C1458.76 661.13 1452.76 653.693 1445.03 647.84C1441.52 645.193 1436.93 642.437 1431.24 639.57ZM999.61 773.22C1011.9 778.21 1025.33 778.66 1038.59 776.88C1067.93 772.96 1095.12 751.41 1098.55 720.65C1099.18 714.97 1099.3 708.84 1098.91 702.26C1098.03 687.46 1090.11 674.9 1079.42 665.31C1076.27 662.49 1072.39 658.41 1067.68 655.77C1052.7 647.35 1036.99 644.61 1020.54 647.55C1003.53 650.59 987.36 660.22 975.27 673.26C969.763 679.193 965.657 686.353 962.95 694.74C958.217 709.407 957.853 723.313 961.86 736.46C962.533 738.673 963.66 741.02 965.24 743.5C970.367 751.553 976.637 758.54 984.05 764.46C988.77 768.23 994.6 771.19 999.61 773.22ZM1029.28 791.03C1015.71 789.98 1006.58 789.64 995.85 794.34C988.003 797.767 980.653 802.253 973.8 807.8C965.53 814.49 960.8 821.78 956.57 831.56C954.157 837.133 952.377 841.943 951.23 845.99C949.24 853.01 948.23 862.54 947.19 871.4C944.33 895.8 941.457 915.623 938.57 930.87C935.397 947.61 930.193 973.083 922.96 1007.29C920.793 1017.55 919.563 1024.9 919.27 1029.35C918.883 1035.21 918.877 1042.68 919.25 1051.75C920.17 1073.62 930.25 1094.13 948.86 1106.14C955.667 1110.53 962.113 1113.74 968.2 1115.76C991.38 1123.46 1020.26 1121.98 1039.85 1106.69C1048.28 1100.11 1056.65 1091.21 1061.25 1081.24C1066.18 1070.57 1069.05 1058.92 1069.86 1046.28C1070.57 1035.21 1070.91 1024.35 1070.88 1013.68C1070.84 1000.83 1070.94 992.543 1071.18 988.81C1071.87 977.983 1072.46 969.713 1072.97 964C1075.06 940.547 1077.98 918.053 1081.74 896.52C1083.52 886.333 1084.57 879.833 1084.89 877.02C1086.37 864.1 1086.7 853.86 1085.87 846.3C1084.71 835.693 1081.04 825.84 1074.85 816.74C1064.15 801.03 1048.11 792.49 1029.28 791.03Z" fill="#3D56A1"/>
<path d="M378.98 798.9C376.45 809.02 374.21 817.43 373.73 827.07C373.13 839.03 373.97 849.61 376.25 858.81C377.337 863.19 379.513 868.816 382.78 875.69C385.567 881.543 388.977 886.483 393.01 890.51C402.477 899.956 414.227 905.42 428.26 906.9C431.267 907.22 435.44 907.12 440.78 906.6C446.293 906.066 450.423 905.473 453.17 904.82C453.27 904.8 458.3 903.876 468.26 902.05C477.46 900.37 487.8 899.19 496.85 900.94C502.323 902.006 507.31 903.593 511.81 905.7C530.65 914.52 543.223 928.88 549.53 948.78C551.123 953.806 552.093 958.486 552.44 962.82C554.007 982.78 550.067 1001.38 540.62 1018.62C538.973 1021.63 535.97 1025.46 531.61 1030.12C524.337 1037.9 516.543 1044.35 508.23 1049.48C500.11 1054.49 492.187 1058.98 484.46 1062.96C481.407 1064.53 477.917 1065.94 473.99 1067.19C466.243 1069.66 455.49 1072.31 441.73 1075.14C430.223 1077.51 419.253 1078.77 408.82 1078.93C391.72 1079.19 375.273 1077.87 359.48 1074.98C355.347 1074.23 351.753 1073.41 348.7 1072.52C343.83 1071.11 339.23 1070.21 334.56 1068.41C328.647 1066.13 323.643 1063.97 319.55 1061.94C311.58 1057.98 302.94 1054.44 294.74 1049.98C293.24 1049.16 288.93 1046.55 281.81 1042.14C277.04 1039.18 272.42 1035.72 268.53 1032.46C256.68 1022.54 243.04 1010.27 232.82 996.44C218.63 977.22 208.16 955.93 200.13 933.65C198.243 928.41 196.743 923.68 195.63 919.46C193.81 912.54 191.65 905.8 190.49 900.22C187.557 886.093 185.83 874.936 185.31 866.75C184.923 860.683 184.833 849.766 185.04 834C185.267 817.42 186.98 801.446 190.18 786.08C192.6 774.47 195.8 761.31 200.2 749.42C202.76 742.51 206.01 732.71 210.09 724.07C217 709.46 223.54 696.15 232.4 683.15C241.21 670.22 249.38 659.14 259.32 647.67C265.38 640.68 273.54 633.58 279.77 627.46C283.183 624.1 286.533 621.166 289.82 618.66C312.25 601.55 335.76 588.29 362.94 580.65C366.827 579.556 369.67 578.7 371.47 578.08C381.65 574.58 391.48 572.91 403.67 571.4C406.73 571.026 413.25 570.75 423.23 570.57C430.377 570.45 436.883 570.766 442.75 571.52C459.3 573.65 475.59 577.49 489.5 582.24C504.59 587.39 520.16 594.95 532.67 604.38C534.217 605.546 536.373 607.413 539.14 609.98C546.6 616.92 552.87 624.04 557.77 632.94C560.043 637.066 562.507 642.783 565.16 650.09C570.53 664.86 569.72 680.72 565.13 695.85C562.917 703.13 560.39 708.94 557.55 713.28C547.837 728.106 535.133 738.91 519.44 745.69C514 748.043 508.25 749.47 502.19 749.97C486.72 751.25 471.19 748.9 458.23 740.98C451.75 737.02 446.057 734.076 441.15 732.15C429.75 727.68 417.19 734.65 408.98 743.21C400.78 751.76 395.51 760.36 389.71 770.95C385.13 779.296 381.553 788.613 378.98 798.9ZM522.72 713.72C532.96 704.44 540.96 689.25 541.56 675.24C542.247 659.526 537.28 645.993 526.66 634.64C515.9 623.15 502.73 615.05 487.81 608.7C468.277 600.4 448.227 596.143 427.66 595.93C410.83 595.76 392.19 597.73 375.65 602.64C361.723 606.78 350.717 610.94 342.63 615.12C336.583 618.246 329.49 622.49 321.35 627.85C304.09 639.22 289.17 653.6 275.38 668.9C269.66 675.24 266.25 680.49 259.97 689.19C250.503 702.29 242.197 716.91 235.05 733.05C215.65 776.85 208.203 822.076 212.71 868.73C213.657 878.543 215.39 888.86 217.91 899.68C220.57 911.106 223.447 921.15 226.54 929.81C228.973 936.636 232.313 944.26 236.56 952.68C248.2 975.746 263.823 995.09 283.43 1010.71C287.97 1014.33 292.63 1017.25 297.06 1020.49C299.953 1022.61 303.493 1024.84 307.68 1027.18C335.46 1042.68 364.1 1052.4 396.25 1053.05C413.62 1053.4 431.18 1052.38 446.77 1047.75C457.663 1044.52 466.25 1041.6 472.53 1039.01C478.23 1036.65 484.99 1033.03 492.81 1028.14C503.52 1021.45 513.03 1011.69 518.61 1001.4C524.937 989.733 527.24 977.163 525.52 963.69C524.4 954.92 520.14 945.02 514.32 938.96C505.06 929.326 493.623 925.43 480.01 927.27C475.617 927.863 468.803 929.126 459.57 931.06C431.67 936.89 404.66 933.41 381.4 916.11C366.66 905.14 357.09 889.36 351.71 871.83C347.59 858.41 346.64 843.98 346.91 828.55C347.29 807.14 353.12 786 361.91 766.63C369.583 749.736 380.173 735.07 393.68 722.63C403.44 713.64 414.81 707.17 427.81 704.8C437.5 703.04 448.63 705.76 457.3 710.46C466.95 715.68 478.45 724.53 491.7 724.99C503.64 725.403 513.98 721.646 522.72 713.72Z" fill="white"/>
<path d="M746.4 762.79C746.433 762.926 746.496 763.053 746.585 763.161C746.674 763.269 746.787 763.356 746.915 763.414C747.042 763.473 747.182 763.502 747.323 763.5C747.465 763.497 747.604 763.463 747.73 763.4C770.15 752.067 793.9 747.623 818.98 750.07C828.92 751.037 838.577 753.613 847.95 757.8C849.503 758.493 853.587 760.77 860.2 764.63C865.267 767.59 869.14 770.24 871.82 772.58C877.98 777.967 882.883 783.2 886.53 788.28C900.58 807.87 906.99 829.69 908.64 853.5C909.933 872.24 909.64 890.737 907.76 908.99C905.973 926.323 903.633 945.273 900.74 965.84C899.493 974.667 898.62 983.137 898.12 991.25C896.92 1010.5 896.34 1019.54 894.34 1034.18C893.42 1040.93 892.063 1046.6 890.27 1051.19C883.983 1067.26 873.55 1079.34 858.97 1087.43C853.683 1090.36 847.227 1092.84 839.6 1094.87C833.62 1096.46 826.747 1096.96 818.98 1096.37C807.08 1095.47 795.96 1092.41 785.62 1087.18C771.8 1080.19 763.07 1070.32 757.06 1056.35C749.37 1038.44 751.49 1017.34 754.28 998.51C757 980.15 759.59 964.02 763.12 945.92C765.333 934.587 766.827 924.223 767.6 914.83C768.207 907.39 768.04 900.757 767.1 894.93C765.88 887.38 762.71 881.9 755.3 879.3C754.956 879.181 754.591 879.12 754.22 879.12C750.087 879.14 746.693 880.613 744.04 883.54C740.333 887.633 737.583 892.38 735.79 897.78C729.88 915.62 726.75 931.04 722.01 953.09C720.743 958.95 718.977 969.46 716.71 984.62C715.057 995.627 713.123 1006.24 710.91 1016.46C708.73 1026.5 704.61 1036.42 698.1 1044.7C684.753 1061.68 667.187 1070.78 645.4 1071.99C635.38 1072.55 625.47 1070.33 616.28 1067.76C602.62 1063.92 590.71 1053.63 582.34 1041.67C575.34 1031.66 571.273 1020.77 570.14 1009C569.23 999.51 569.7 989.14 571.11 978.63C574.03 956.88 576.83 936.24 580.98 915.58C583.03 905.41 583.93 897.47 585.68 887.95C587.63 877.42 588.93 864.48 590.16 856.14C592.49 840.3 593.61 829.31 596.01 814.79C596.943 809.143 597.73 803.637 598.37 798.27C600.037 784.237 602.33 765.65 605.25 742.51C606.76 730.61 607.36 714.2 609.47 700.41C610.15 695.983 610.82 689.43 611.48 680.75C611.98 674.25 612.88 669.24 613.86 661.81C615.887 646.357 621.567 632.557 630.9 620.41C632.527 618.297 636.843 614.033 643.85 607.62C648.75 603.14 655.393 598.867 663.78 594.8C677.82 588.01 692.79 587.28 708.54 590.26C727.24 593.8 742.62 607.29 751.06 623.91C752.807 627.343 754.007 630.563 754.66 633.57C756.647 642.763 757.573 652.413 757.44 662.52C757.28 674.493 756.61 685.047 755.43 694.18C753.35 710.28 751.613 722.203 750.22 729.95C748.41 740.04 747.87 748.21 746.39 761.25C746.317 761.93 746.32 762.443 746.4 762.79ZM724.66 793.23C715.39 786.26 717.26 773.37 718.92 763.24C721.52 747.347 723.52 733.167 724.92 720.7C726.27 708.62 728.35 696.36 729.44 683.92C730.85 667.77 731.96 655.68 729.55 643.22C727.383 632.027 721.267 623.63 711.2 618.03C698.11 610.74 679.27 613.25 666.94 621.32C655.327 628.913 647.5 638.913 643.46 651.32C641.02 658.8 639.66 665.7 638.45 674.26C637.43 681.467 636.68 688.047 636.2 694C632.06 745.53 625.75 801.2 617.61 855.25C613.683 881.297 611.283 896.877 610.41 901.99C606.01 927.783 601.69 954.87 597.45 983.25C596.043 992.67 596.04 1001.61 597.44 1010.06C599.52 1022.63 608.41 1036.04 620.8 1041.01C626.88 1043.44 631.233 1044.91 633.86 1045.41C644.98 1047.52 655.177 1045.94 664.45 1040.68C670.67 1037.15 677.5 1029.75 680.33 1023.62C683.91 1015.85 685.81 1008.31 687.11 999.3C691.38 969.85 695.39 944.79 701.61 917.84C703.683 908.853 707.75 897.493 713.81 883.76C716.34 878.03 721.57 870.42 725.79 866.29C733.063 859.197 741.657 854.973 751.57 853.62C760.04 852.47 767.35 854.22 774.31 858.73C791.65 869.97 795.22 888.74 794.81 908.01C794.23 934.87 789.71 953.68 782.91 988.92C780.737 1000.17 779.287 1009.86 778.56 1017.99C777.32 1031.75 779.3 1048.08 789.44 1057.33C792.387 1060.02 796.567 1062.84 801.98 1065.79C814.33 1072.52 831.51 1072.84 843.85 1066.09C859 1057.81 865.9 1044.64 867.32 1027.5C869.24 1004.49 870.797 988.077 871.99 978.27C874.083 961.03 876.847 939.793 880.28 914.56C882.78 896.233 883.62 878.463 882.8 861.25C882.38 852.55 881.713 845.547 880.8 840.24C879.24 831.22 876.14 822.407 871.5 813.8C859.54 791.613 840.737 778.9 815.09 775.66C795.04 773.12 771.51 777.84 754.55 787.11C747.59 790.91 742.77 793.393 740.09 794.56C734.317 797.073 729.173 796.63 724.66 793.23Z" fill="white"/>
<path d="M522.72 713.72C513.98 721.647 503.64 725.403 491.7 724.99C478.45 724.53 466.95 715.68 457.3 710.46C448.63 705.76 437.5 703.04 427.81 704.8C414.81 707.17 403.44 713.64 393.68 722.63C380.173 735.07 369.583 749.737 361.91 766.63C353.12 786 347.29 807.14 346.91 828.55C346.64 843.98 347.59 858.41 351.71 871.83C357.09 889.36 366.66 905.14 381.4 916.11C404.66 933.41 431.67 936.89 459.57 931.06C468.803 929.127 475.617 927.863 480.01 927.27C493.623 925.43 505.06 929.327 514.32 938.96C520.14 945.02 524.4 954.92 525.52 963.69C527.24 977.163 524.937 989.733 518.61 1001.4C513.03 1011.69 503.52 1021.45 492.81 1028.14C484.99 1033.03 478.23 1036.65 472.53 1039.01C466.25 1041.6 457.663 1044.52 446.77 1047.75C431.18 1052.38 413.62 1053.4 396.25 1053.05C364.1 1052.4 335.46 1042.68 307.68 1027.18C303.493 1024.84 299.953 1022.61 297.06 1020.49C292.63 1017.25 287.97 1014.33 283.43 1010.71C263.823 995.09 248.2 975.747 236.56 952.68C232.313 944.26 228.973 936.637 226.54 929.81C223.447 921.15 220.57 911.107 217.91 899.68C215.39 888.86 213.657 878.543 212.71 868.73C208.203 822.077 215.65 776.85 235.05 733.05C242.197 716.91 250.503 702.29 259.97 689.19C266.25 680.49 269.66 675.24 275.38 668.9C289.17 653.6 304.09 639.22 321.35 627.85C329.49 622.49 336.583 618.247 342.63 615.12C350.717 610.94 361.723 606.78 375.65 602.64C392.19 597.73 410.83 595.76 427.66 595.93C448.227 596.143 468.277 600.4 487.81 608.7C502.73 615.05 515.9 623.15 526.66 634.64C537.28 645.993 542.247 659.527 541.56 675.24C540.96 689.25 532.96 704.44 522.72 713.72Z" fill="#BECEFF"/>
<path d="M724.66 793.23C729.173 796.63 734.317 797.073 740.09 794.56C742.77 793.393 747.59 790.91 754.55 787.11C771.51 777.84 795.04 773.12 815.09 775.66C840.737 778.9 859.54 791.613 871.5 813.8C876.14 822.406 879.24 831.22 880.8 840.24C881.713 845.546 882.38 852.55 882.8 861.25C883.62 878.463 882.78 896.233 880.28 914.56C876.847 939.793 874.083 961.03 871.99 978.27C870.797 988.076 869.24 1004.49 867.32 1027.5C865.9 1044.64 859 1057.81 843.85 1066.09C831.51 1072.84 814.33 1072.52 801.98 1065.79C796.567 1062.84 792.387 1060.02 789.44 1057.33C779.3 1048.08 777.32 1031.75 778.56 1017.99C779.287 1009.86 780.737 1000.17 782.91 988.92C789.71 953.68 794.23 934.87 794.81 908.01C795.22 888.74 791.65 869.97 774.31 858.73C767.35 854.22 760.04 852.47 751.57 853.62C741.657 854.973 733.063 859.196 725.79 866.29C721.57 870.42 716.34 878.03 713.81 883.76C707.75 897.493 703.683 908.853 701.61 917.84C695.39 944.79 691.38 969.85 687.11 999.3C685.81 1008.31 683.91 1015.85 680.33 1023.62C677.5 1029.75 670.67 1037.15 664.45 1040.68C655.177 1045.94 644.98 1047.52 633.86 1045.41C631.233 1044.91 626.88 1043.44 620.8 1041.01C608.41 1036.04 599.52 1022.63 597.44 1010.06C596.04 1001.61 596.043 992.67 597.45 983.25C601.69 954.87 606.01 927.783 610.41 901.99C611.283 896.876 613.683 881.296 617.61 855.25C625.75 801.2 632.06 745.53 636.2 694C636.68 688.046 637.43 681.466 638.45 674.26C639.66 665.7 641.02 658.8 643.46 651.32C647.5 638.913 655.327 628.913 666.94 621.32C679.27 613.25 698.11 610.74 711.2 618.03C721.267 623.63 727.383 632.026 729.55 643.22C731.96 655.68 730.85 667.77 729.44 683.92C728.35 696.36 726.27 708.62 724.92 720.7C723.52 733.166 721.52 747.346 718.92 763.24C717.26 773.37 715.39 786.26 724.66 793.23Z" fill="#BECEFF"/>
<path d="M1119.85 878.87C1122.27 863.07 1124.93 838.62 1128.39 818.6C1131.3 801.72 1132.42 787.56 1135.34 769.84C1137.39 757.45 1138.95 743.3 1140.13 730.61C1141.1 720.12 1142.69 710.01 1144.05 699.26C1145.69 686.3 1148.67 672.12 1155.45 659.92C1167.06 639.04 1184.59 625.656 1208.03 619.77C1216.42 617.67 1225.26 618.62 1234.96 620.11C1243.41 621.403 1251.45 624.66 1259.1 629.88C1271.87 638.606 1280.44 650.54 1284.81 665.68C1287.92 676.44 1288.8 687.786 1287.46 699.72C1285.9 713.64 1285 721.4 1284.77 723C1284.45 725.253 1282.42 737.913 1278.69 760.98C1276.03 777.4 1274.2 786.27 1271.14 801.65C1270.01 807.31 1269.04 812.736 1268.23 817.93C1259.59 873.14 1253.12 917.51 1251.55 969.96C1250.9 991.546 1250.61 1005.65 1250.66 1012.26C1250.86 1038.43 1250.9 1053.6 1250.79 1057.76C1250.46 1069.89 1248.3 1081.9 1244.3 1093.79C1241.78 1101.3 1238.33 1107.93 1233.94 1113.69C1232.07 1116.16 1228.96 1119.39 1224.62 1123.4C1212.34 1134.74 1195.45 1140.3 1178.98 1140.75C1157.06 1141.36 1134.74 1134.2 1119.91 1117.76C1113.64 1110.81 1108.44 1103.03 1104.31 1094.44C1096.91 1079.07 1096.14 1061.98 1097.32 1044.75C1098.19 1032.1 1100.12 1015.02 1103.12 993.53C1106.96 966.05 1110.69 943.57 1114.59 914.68C1115.73 906.24 1117.48 894.303 1119.85 878.87ZM1192.15 1112.19C1204.66 1108.18 1213.12 1099.11 1218.1 1087.24C1220.13 1082.43 1221.48 1076.23 1222.17 1068.65C1222.85 1061.27 1223.17 1054.89 1223.14 1049.5C1223.01 1027.9 1222.95 1015.82 1222.94 1013.25C1222.73 969.636 1225.34 926.546 1230.77 883.98C1232.71 868.753 1236.1 847.29 1240.93 819.59C1247.24 783.383 1251 761.976 1252.2 755.37C1255.57 736.776 1258.32 718.573 1260.46 700.76C1261.05 695.846 1261.22 689.89 1260.95 682.89C1260.7 676.203 1259.44 670.59 1257.19 666.05C1251.53 654.61 1241.86 646.83 1229.37 644.63C1209.59 641.14 1191.6 651.33 1181.39 667.97C1174.78 678.75 1171.45 694.88 1169.82 708.01C1166.08 738.11 1164.75 750.24 1162.18 767.98C1161.83 770.42 1161.1 776.26 1160.01 785.5C1157.31 808.226 1151.78 848.066 1143.42 905.02C1142.33 912.473 1141.35 919.106 1140.48 924.92C1138.84 935.946 1135.73 956.88 1131.15 987.72C1129.16 1001.17 1127.06 1017.22 1124.87 1035.87C1123.48 1047.66 1122.91 1060.24 1124.66 1072.02C1126.99 1087.64 1137.37 1102.5 1151.89 1109.27C1165.31 1115.52 1178.73 1116.5 1192.15 1112.19Z" fill="white"/>
<path d="M1404.75 633.22C1413.78 633.1 1423 635.42 1431.24 639.57C1436.93 642.437 1441.52 645.194 1445.03 647.84C1452.76 653.694 1458.76 661.13 1463.01 670.15C1468.75 682.35 1469.73 697.62 1468.47 711.25C1467.77 718.92 1466.22 729.47 1464.5 738.55C1461.97 751.857 1458.99 768.517 1455.54 788.53C1454.72 793.27 1453.27 798.28 1452.53 803.34C1449.89 821.38 1448.3 835.4 1444.47 852.37C1443.6 856.237 1442.7 861.94 1441.77 869.48C1441.56 871.207 1440.65 876.894 1439.04 886.54C1434.14 916.01 1431.01 946.87 1428.47 979.5C1427.23 995.43 1427.2 1008.86 1426.44 1025.82C1425.94 1036.97 1425.86 1046.86 1426.19 1055.48C1426.66 1067.74 1426.56 1079.1 1425.88 1089.56C1425.41 1096.65 1424.42 1102.86 1422.9 1108.18C1421.86 1111.83 1419.46 1119.86 1417.02 1124.53C1413.05 1132.15 1410.08 1137.19 1408.11 1139.64C1396.98 1153.53 1382.52 1162.22 1364.74 1165.71C1361.24 1166.4 1355.49 1166.64 1347.49 1166.41C1325.59 1165.79 1305.47 1153.61 1291.21 1137.26C1288.71 1134.39 1286.7 1131.4 1285.19 1128.29C1280.02 1117.6 1277.05 1106.41 1276.28 1094.74C1275.69 1085.74 1275.68 1076.08 1276.24 1065.75C1277.41 1044.28 1279.83 1020.92 1283.48 995.65C1288.45 961.32 1291.55 936.67 1296.24 909.08C1300.77 882.45 1303.68 865.48 1306.36 844.89C1309.25 822.74 1311.96 804.64 1315.38 783.77C1317.12 773.13 1318.64 761.877 1319.94 750.01C1321.99 731.35 1324.67 714.104 1328 698.27C1328.59 695.477 1330.19 690.424 1332.8 683.11C1337.33 670.41 1344.53 658.82 1353.93 650.69C1357.35 647.737 1361.97 644.677 1367.8 641.51C1378.24 635.83 1392.96 633.37 1404.75 633.22ZM1437.04 677.65C1430.05 666.79 1419.31 660.43 1406.17 658.92C1398.52 658.04 1391.93 658.547 1386.4 660.44C1374.05 664.66 1362.85 677.21 1357.94 689.98C1355.06 697.474 1353.28 703.874 1352.61 709.18C1346.35 758.407 1342.39 787.93 1340.72 797.75C1338.51 810.75 1336.99 820.387 1336.14 826.66C1334.72 837.254 1333.53 845.63 1332.56 851.79C1327.11 886.404 1322.15 919.117 1317.68 949.93C1316.78 956.1 1314.86 964.96 1313.99 971.75C1312.52 983.144 1310.7 996.224 1308.53 1010.99C1307.12 1020.56 1306.04 1032.46 1304.94 1043.13C1303.77 1054.38 1303.01 1067.25 1302.66 1081.76C1302.29 1096.99 1305.44 1112.08 1315.64 1124.1C1327.01 1137.49 1342.7 1142.32 1359.67 1140.29C1374.25 1138.55 1386.96 1127.1 1392.37 1113.86C1396.83 1102.95 1399.06 1091.25 1399.06 1078.75C1399.07 1055.73 1399.05 1041.73 1399.01 1036.75C1398.78 1009.04 1400.12 981.547 1403.03 954.26C1407.14 915.694 1412.4 878.7 1418.81 843.28C1420.27 835.22 1421.28 825.86 1423.15 816.83C1423.85 813.444 1424.7 809.044 1425.71 803.63C1429.96 780.684 1434.28 757.377 1438.67 733.71C1441.16 720.26 1443.25 707.01 1441.82 693.33C1441.13 686.744 1439.53 681.517 1437.04 677.65Z" fill="white"/>
<path d="M1218.1 1087.24C1213.12 1099.11 1204.66 1108.18 1192.15 1112.19C1178.73 1116.5 1165.31 1115.52 1151.89 1109.27C1137.37 1102.5 1126.99 1087.64 1124.66 1072.02C1122.91 1060.24 1123.48 1047.66 1124.87 1035.87C1127.06 1017.22 1129.16 1001.17 1131.15 987.72C1135.73 956.88 1138.84 935.947 1140.48 924.92C1141.35 919.107 1142.33 912.473 1143.42 905.02C1151.78 848.067 1157.31 808.227 1160.01 785.5C1161.1 776.26 1161.83 770.42 1162.18 767.98C1164.75 750.24 1166.08 738.11 1169.82 708.01C1171.45 694.88 1174.78 678.75 1181.39 667.97C1191.6 651.33 1209.59 641.14 1229.37 644.63C1241.86 646.83 1251.53 654.61 1257.19 666.05C1259.44 670.59 1260.7 676.203 1260.95 682.89C1261.22 689.89 1261.05 695.847 1260.46 700.76C1258.32 718.573 1255.57 736.777 1252.2 755.37C1251 761.977 1247.24 783.383 1240.93 819.59C1236.1 847.29 1232.71 868.753 1230.77 883.98C1225.34 926.547 1222.73 969.637 1222.94 1013.25C1222.95 1015.82 1223.01 1027.9 1223.14 1049.5C1223.17 1054.89 1222.85 1061.27 1222.17 1068.65C1221.48 1076.23 1220.13 1082.43 1218.1 1087.24Z" fill="#BECEFF"/>
<path d="M999.61 773.219C994.6 771.189 988.77 768.23 984.05 764.46C976.637 758.54 970.367 751.553 965.24 743.5C963.66 741.02 962.533 738.673 961.86 736.46C957.853 723.313 958.217 709.406 962.95 694.74C965.657 686.353 969.763 679.193 975.27 673.26C987.36 660.22 1003.53 650.59 1020.54 647.55C1036.99 644.61 1052.7 647.35 1067.68 655.77C1072.39 658.41 1076.27 662.49 1079.42 665.31C1090.11 674.9 1098.03 687.46 1098.91 702.26C1099.3 708.84 1099.18 714.97 1098.55 720.65C1095.12 751.41 1067.93 772.96 1038.59 776.88C1025.33 778.66 1011.9 778.209 999.61 773.219ZM1066.25 689.86C1055.64 675.39 1039.39 669.59 1021.8 673.65C1006.95 677.07 996.357 685.31 990.01 698.37C985.82 707.02 983.63 720.31 987.82 729.2C993.25 740.75 1005.16 748.86 1017.75 751.29C1028.9 753.443 1039.45 752.196 1049.4 747.55C1057.63 743.71 1063.44 737.12 1067.63 729.55C1072.81 720.216 1073.95 710.223 1071.04 699.57C1070.12 696.196 1068.52 692.96 1066.25 689.86Z" fill="white"/>
<path d="M1406.17 658.92C1419.31 660.43 1430.05 666.79 1437.04 677.65C1439.53 681.517 1441.13 686.743 1441.82 693.33C1443.25 707.01 1441.16 720.26 1438.67 733.71C1434.28 757.377 1429.96 780.683 1425.71 803.63C1424.7 809.043 1423.85 813.443 1423.15 816.83C1421.28 825.86 1420.27 835.22 1418.81 843.28C1412.4 878.7 1407.14 915.693 1403.03 954.26C1400.12 981.547 1398.78 1009.04 1399.01 1036.75C1399.05 1041.73 1399.07 1055.73 1399.06 1078.75C1399.06 1091.25 1396.83 1102.95 1392.37 1113.86C1386.96 1127.1 1374.25 1138.55 1359.67 1140.29C1342.7 1142.32 1327.01 1137.49 1315.64 1124.1C1305.44 1112.08 1302.29 1096.99 1302.66 1081.76C1303.01 1067.25 1303.77 1054.38 1304.94 1043.13C1306.04 1032.46 1307.12 1020.56 1308.53 1010.99C1310.7 996.223 1312.52 983.143 1313.99 971.75C1314.86 964.96 1316.78 956.1 1317.68 949.93C1322.15 919.117 1327.11 886.403 1332.56 851.79C1333.53 845.63 1334.72 837.253 1336.14 826.66C1336.99 820.386 1338.51 810.75 1340.72 797.75C1342.39 787.93 1346.35 758.406 1352.61 709.18C1353.28 703.873 1355.06 697.473 1357.94 689.98C1362.85 677.21 1374.05 664.66 1386.4 660.44C1391.93 658.547 1398.52 658.04 1406.17 658.92Z" fill="#BECEFF"/>
<path d="M1071.04 699.57C1073.95 710.223 1072.81 720.217 1067.63 729.55C1063.44 737.12 1057.63 743.71 1049.4 747.55C1039.45 752.197 1028.9 753.443 1017.75 751.29C1005.16 748.86 993.25 740.75 987.82 729.2C983.63 720.31 985.82 707.02 990.01 698.37C996.357 685.31 1006.95 677.07 1021.8 673.65C1039.39 669.59 1055.64 675.39 1066.25 689.86C1068.52 692.96 1070.12 696.197 1071.04 699.57Z" fill="#BECEFF"/>
<path d="M995.85 794.34C1006.58 789.64 1015.71 789.98 1029.28 791.03C1048.11 792.49 1064.15 801.03 1074.85 816.74C1081.04 825.84 1084.71 835.693 1085.87 846.3C1086.7 853.86 1086.37 864.1 1084.89 877.02C1084.57 879.833 1083.52 886.333 1081.74 896.52C1077.98 918.053 1075.06 940.547 1072.97 964C1072.46 969.713 1071.87 977.983 1071.18 988.81C1070.94 992.543 1070.84 1000.83 1070.88 1013.68C1070.91 1024.35 1070.57 1035.21 1069.86 1046.28C1069.05 1058.92 1066.18 1070.57 1061.25 1081.24C1056.65 1091.21 1048.28 1100.11 1039.85 1106.69C1020.26 1121.98 991.38 1123.46 968.2 1115.76C962.113 1113.74 955.667 1110.53 948.86 1106.14C930.25 1094.13 920.17 1073.62 919.25 1051.75C918.877 1042.68 918.883 1035.21 919.27 1029.35C919.563 1024.9 920.793 1017.55 922.96 1007.29C930.193 973.083 935.397 947.61 938.57 930.87C941.457 915.623 944.33 895.8 947.19 871.4C948.23 862.54 949.24 853.01 951.23 845.99C952.377 841.943 954.157 837.133 956.57 831.56C960.8 821.78 965.53 814.49 973.8 807.8C980.653 802.253 988.003 797.767 995.85 794.34ZM1022.34 1086.74C1035.57 1078.58 1042.42 1061.5 1043.49 1046.24C1044.78 1027.93 1043.58 1000.37 1045.11 977.71C1047.1 948.39 1051.11 918.29 1056.19 886.43C1057.26 879.737 1058.2 872.343 1059.02 864.25C1062.07 834.32 1046.9 812.92 1014.85 816.64C1001.2 818.22 990.767 824.777 983.54 836.31C979.33 843.02 977.32 851.75 976.04 859.52C975.32 863.933 973.107 880.137 969.4 908.13C969.06 910.677 966.767 924.327 962.52 949.08C958.59 971.96 953.77 991.22 948.91 1014.42C946.597 1025.48 945.62 1036.76 945.98 1048.25C946.44 1062.59 951.67 1075.75 963.05 1084.04C972.357 1090.83 983.07 1094.37 995.19 1094.66C1005.69 1094.91 1013.67 1092.09 1022.34 1086.74Z" fill="white"/>
<path d="M1022.34 1086.74C1013.67 1092.09 1005.69 1094.91 995.19 1094.66C983.07 1094.37 972.357 1090.83 963.05 1084.04C951.67 1075.75 946.44 1062.59 945.98 1048.25C945.62 1036.76 946.597 1025.48 948.91 1014.42C953.77 991.22 958.59 971.96 962.52 949.08C966.767 924.327 969.06 910.677 969.4 908.13C973.107 880.137 975.32 863.933 976.04 859.52C977.32 851.75 979.33 843.02 983.54 836.31C990.767 824.777 1001.2 818.22 1014.85 816.64C1046.9 812.92 1062.07 834.32 1059.02 864.25C1058.2 872.343 1057.26 879.737 1056.19 886.43C1051.11 918.29 1047.1 948.39 1045.11 977.71C1043.58 1000.37 1044.78 1027.93 1043.49 1046.24C1042.42 1061.5 1035.57 1078.58 1022.34 1086.74Z" fill="#BECEFF"/>
</g>
<defs>
<filter id="filter0_d_13_161" x="-4" y="0" width="1781" height="1781" filterUnits="userSpaceOnUse" color-interpolation-filters="sRGB">
<feFlood flood-opacity="0" result="BackgroundImageFix"/>
<feColorMatrix in="SourceAlpha" type="matrix" values="0 0 0 0 0 0 0 0 0 0 0 0 0 0 0 0 0 0 127 0" result="hardAlpha"/>
<feOffset dy="4"/>
<feGaussianBlur stdDeviation="2"/>
<feComposite in2="hardAlpha" operator="out"/>
<feColorMatrix type="matrix" values="0 0 0 0 0 0 0 0 0 0 0 0 0 0 0 0 0 0 0.25 0"/>
<feBlend mode="normal" in2="BackgroundImageFix" result="effect1_dropShadow_13_161"/>
<feBlend mode="normal" in="SourceGraphic" in2="effect1_dropShadow_13_161" result="shape"/>
</filter>
</defs>
</svg>
