<svg xmlns="http://www.w3.org/2000/svg" width="100%" viewBox="0 0 111 88" fill="none" class="marquee-sticker-2"><path d="M6.51551 39.3871C9.04411 41.9103 11.7191 44.3115 14.0282 47.0543C18.9092 53.0194 22.7983 59.9764 27.9233 65.8277C31.246 69.7982 35.0078 73.3811 38.9782 76.6956C46.0545 82.593 54.307 88.157 63.8225 87.9348C68.6954 87.7911 73.5304 86.6583 78.2949 85.8371C84.1517 84.753 90.068 83.6798 95.2282 80.5902C103.917 75.3432 107.644 65.3724 108.486 55.6374C108.909 51.3662 109.251 47.0461 109.701 42.7261C110.617 35.0698 110.075 26.8417 106.454 20.1367C101.814 11.2174 91.8133 5.23059 81.726 5.13574C76.7935 5.08966 72.0208 6.42036 67.1479 6.84315C59.825 7.58032 52.3909 5.89188 45.1439 4.63164C40.4634 3.78606 36.0647 2.67489 31.5495 1.51764C28.3434 0.734393 24.9042 0.016192 21.6492 0.577201C18.687 1.05962 16.153 2.84835 13.9848 4.85931C9.97101 8.64273 6.30142 13.3937 3.25246 18.123C-2.22755 26.4595 -0.460499 32.5033 6.47488 39.3465L6.51011 39.3817L6.51551 39.3871Z" fill="#F0EBE6"></path><path d="M101.161 33.1238C101.486 28.7658 98.971 24.8604 96.6999 21.3426C93.5723 16.8166 85.2114 13.0467 79.7829 13.5345C74.5739 13.9438 69.8093 16.1851 66.2048 19.9441C65.2914 20.7491 64.0583 22.8034 62.7818 22.5541C62.1992 22.4457 61.3969 21.6272 60.9064 21.1231C59.9849 20.1637 59.1041 19.1202 58.058 18.2611C54.4209 15.4859 49.8922 13.5372 45.2875 13.4532C43.2766 13.4966 41.3036 14.1606 39.3847 14.7487C38.1706 15.1905 36.8453 15.4208 35.7639 16.1282C34.2571 17.4101 32.3681 17.3884 31.1241 15.7948C29.6443 13.7839 29.2296 11.1794 27.5846 9.24431C26.9124 8.23883 25.869 8.06267 24.6278 7.99221C23.625 7.90277 22.5219 8.03556 21.7251 8.59386C19.6871 10.0574 19.9662 13.2554 19.4486 15.4832C19.2535 16.5699 19.1667 17.7679 18.3943 18.6026C17.1531 19.9496 15.4782 20.8087 13.8764 21.6678C12.3614 22.1502 11.1039 23.0392 9.89518 24.0826C8.52924 25.1531 7.60504 26.8009 7.3286 28.5083C7.29608 29.1886 7.81644 29.9908 8.21213 30.4949C8.61594 31.0478 9.15798 31.3703 9.83281 31.476C11.44 31.7795 13.0959 31.9151 14.5567 32.6983C16.1638 33.384 17.771 34.2485 18.7521 35.7066C19.3239 36.479 19.8605 37.3056 20.2047 38.2108C20.5056 39.0429 20.7766 39.883 21.2455 40.6392C22.1263 42.1162 23.0531 43.5879 24.6278 44.4416C25.1942 44.7451 25.8094 45.0405 26.159 45.5988C27.8014 48.8266 28.7364 52.4773 31.1024 55.3121C31.9914 56.3935 32.5388 57.7269 33.4847 58.7459C33.9779 59.269 34.6853 59.5671 35.1677 60.0767C36.2979 61.3098 37.3792 62.6242 38.569 63.8059C39.7831 65.0011 41.1193 66.0472 42.4039 67.1665C43.927 68.4972 45.4366 69.8469 47.041 71.08C49.5724 73.0097 52.1985 74.8391 54.8491 76.6169C57.2016 78.3162 60.0174 79.2973 62.9227 79.2675C69.9448 79.4166 74.8151 73.5571 80.2924 70.0773C80.6745 69.9336 80.9997 70.4079 81.2084 70.8036C81.8345 71.8389 82.3955 72.923 83.1841 73.858C86.7914 77.5411 91.1087 74.0477 92.1007 69.9146C92.2579 69.3374 92.5506 68.8631 93.0276 68.5189C94.7377 67.3291 96.7405 66.4402 98.1417 64.8656C98.5564 64.3073 98.7379 63.6297 99.0008 62.9928C100.798 59.4371 97.8544 58.5264 95.5507 56.5913C95.3177 56.407 95.0846 56.1577 95.0819 55.8487C95.0656 55.6048 95.193 55.3148 95.3095 55.0764C96.6511 52.2469 98.1227 49.7617 99.299 46.9322C100.291 43.5201 100.925 39.9318 101.169 36.4058C101.201 35.3407 101.058 34.2594 101.155 33.197L101.161 33.1319V33.1238ZM38.4823 25.5705C36.4306 26.8741 34.3058 28.0503 32.2 29.2645C30.8097 30.129 30.1267 31.6549 29.5766 33.1834C28.8665 35.2405 28.1646 37.2975 27.2648 39.2624C26.7038 40.4359 26.5818 42.3493 25.1698 40.3709C24.9665 40.0917 24.8093 39.7909 24.644 39.4846C23.8608 37.975 22.5192 36.7446 22.0151 35.0779C21.8037 33.9125 20.9284 33.1482 20.118 32.365C19.0963 31.3215 18.0284 30.2429 16.6083 29.774C15.1665 29.2428 13.7463 28.9989 12.2178 28.6628C11.7462 28.5571 11.3804 28.3051 11.3749 27.9067C11.3668 27.2129 12.1256 26.7142 12.6839 26.3863C14.3263 25.4133 15.7655 24.2127 17.5189 23.3373C18.3293 22.9172 19.1369 22.424 19.8226 21.8331C23.1182 19.0416 23.1074 15.7813 23.8147 11.7512C24.1426 10.0465 25.1291 10.9571 25.6224 11.9951C26.2457 13.2391 26.7932 14.5454 27.3732 15.8165C28.0074 17.3884 28.9261 18.8872 30.5522 19.5268C31.9615 20.2992 41.87 23.3454 38.5419 25.5217L38.485 25.5624L38.4823 25.5705ZM95.9518 62.0171C95.9274 62.2313 95.8109 62.4345 95.6727 62.608C94.941 63.4698 94.0872 64.2801 93.0113 64.7897C92.4232 65.0824 91.7728 65.3046 91.2714 65.7382C90.7076 66.2477 90.4068 67.0988 89.8295 67.6462C88.824 68.7276 88.4284 70.2236 87.5367 71.3971C86.8294 72.5029 85.6369 71.8416 85.0189 71.0394C84.4715 70.3835 84.2357 69.5027 83.8834 68.7222C82.3928 65.3453 79.3032 65.0282 76.2515 63.8465C74.5386 63.0145 78.3221 60.3992 79.127 59.9032C80.5309 59.0359 82.0025 58.2229 82.9484 56.8353C83.3549 56.2661 83.7614 55.6699 84.0297 55.0276C84.3875 54.1657 84.3007 53.0708 84.7533 52.2252C85.0217 51.7184 85.4526 50.8756 85.9702 50.759C87.3687 50.8783 88.6072 54.9571 89.5802 56.0547C91.1629 58.3015 94.239 58.7324 95.6971 61.1905C95.8434 61.4182 95.9735 61.7055 95.9573 61.9602L95.9518 62.0171Z" fill="#A0325A"></path></svg>