<svg width="894" height="869" viewBox="0 0 894 869" fill="none" xmlns="http://www.w3.org/2000/svg">
<g filter="url(#filter0_d_13_411)">
<path d="M244.981 835.77C254.421 834.663 261.141 833.753 265.141 833.04C276.021 831.11 293.601 827.72 309.241 823.93C315.754 822.35 325.411 820.21 338.211 817.51C362.677 812.35 386.551 809.937 409.831 810.27C415.184 810.35 420.891 810.69 426.951 811.29C434.504 812.037 440.174 812.797 443.961 813.57C459.687 816.77 475.517 821.797 491.451 828.65C526.271 843.62 559.741 854.78 595.921 858.37C614.821 860.243 633.994 860.12 653.441 858C698.241 853.11 742.411 834.13 772.461 801.21C788.834 783.283 799.687 761.97 805.021 737.27C809.911 714.64 807.631 690.76 800.571 668.71C794.931 651.09 787.091 634.97 781.811 619.05C773.191 593.05 776.651 565.92 799.981 549.24C812.141 540.55 826.511 537.59 840.231 531.67C845.057 529.59 847.767 528.39 848.361 528.07C870.441 516.28 884.571 499.94 887.871 474.12C890.101 456.64 885.261 436.66 875.881 421.65C867.507 408.23 856.057 396.523 841.531 386.53C833.997 381.343 827.357 376.82 821.611 372.96C816.464 369.507 812.127 366.097 808.601 362.73C790.701 345.69 786.181 322.12 792.631 298.63C795.011 289.963 797.407 282.597 799.821 276.53C805.281 262.817 809.301 252.367 811.881 245.18C819.634 223.567 823.327 201.713 822.961 179.62C822.587 157.46 816.757 136.857 805.471 117.81C792.871 96.5501 775.157 80.8501 752.331 70.7101C724.461 58.3401 694.371 57.7001 664.651 62.6201C653.537 64.4601 640.681 66.9267 626.081 70.0201C604.271 74.6301 581.031 77.2201 559.901 73.3901C548.601 71.3434 539.001 68.1834 531.101 63.9101C522.034 59.0034 513.671 53.4567 506.011 47.2701C484.521 29.8901 472.511 18.8601 451.651 9.98006C414.751 -5.72994 370.561 -1.17993 340.571 26.4001C332.244 34.0601 325.201 42.9034 319.441 52.9301C314.387 61.7301 310.761 68.9367 308.561 74.5501C302.647 89.6501 299.417 97.8434 298.871 99.1301C296.151 105.583 293.454 110.967 290.781 115.28C283.674 126.753 274.344 135.35 262.791 141.07C244.851 149.95 223.901 149.87 204.281 147.51C173.961 143.85 152.261 140.65 125.661 144.65C103.007 148.057 83.2006 156.967 66.2406 171.38C34.3506 198.47 19.2206 240.79 24.8706 282.51C27.7906 304.14 35.1706 324.16 45.1506 343.45C56.8606 366.09 74.5506 388.68 87.1406 407.4C97.6106 422.98 107.381 442.06 108.691 460.06C109.941 477.17 106.021 494.47 96.6106 509.02C91.3972 517.067 86.1039 523.467 80.7306 528.22C66.9973 540.367 59.2106 547.247 57.3706 548.86C26.2106 576.22 6.72058 611.29 5.12058 653.08C3.94058 684.04 11.4306 716.15 27.1806 743.62C35.5806 758.287 44.4472 770.273 53.7806 779.58C79.7139 805.46 111.014 822.64 147.681 831.12C160.041 833.98 171.657 835.847 182.531 836.72C203.984 838.453 224.801 838.137 244.981 835.77Z" stroke="#EA8B99" stroke-width="2"/>
<path d="M192.541 700.55C192.414 700.617 192.297 700.67 192.191 700.71C192.112 700.736 192.042 700.782 191.988 700.845C191.934 700.908 191.898 700.984 191.884 701.066C191.871 701.147 191.88 701.231 191.911 701.308C191.942 701.385 191.994 701.451 192.061 701.5C192.287 701.674 192.337 701.707 192.211 701.6C192.199 701.595 192.187 701.593 192.175 701.595C192.162 701.598 192.151 701.603 192.142 701.612C192.134 701.621 192.128 701.632 192.126 701.644C192.123 701.657 192.125 701.669 192.131 701.68C202.691 713.98 215.027 723.97 229.141 731.65C253.271 744.79 279.721 753.34 306.911 759.42C327.457 764.02 348.944 767.514 371.371 769.9C376.911 770.487 380.791 770.84 383.011 770.96C393.521 771.55 401.731 772.44 412.161 772.84C428.654 773.48 446.404 773.717 465.411 773.55C478.141 773.44 489.031 772.36 503.331 771.52C512.991 770.96 521.891 769.68 532.451 768.45C538.664 767.73 545.567 766.7 553.161 765.36C559.507 764.247 568.751 762.404 580.891 759.83C596.644 756.49 614.181 751.154 633.501 743.82C645.111 739.41 656.021 733.69 666.481 726.98C676.514 720.554 685.211 712.764 692.571 703.61C709.281 682.81 710.551 654.67 695.451 632.42C691.677 626.867 689.411 623.687 688.651 622.88C685.717 619.774 683.007 616.744 680.521 613.79C680.415 613.664 680.34 613.516 680.3 613.356C680.26 613.197 680.256 613.03 680.288 612.869C680.321 612.708 680.389 612.556 680.488 612.425C680.587 612.293 680.715 612.186 680.861 612.11C701.621 601.22 720.111 585.23 732.761 565.5C744.214 547.647 749.657 527.847 749.091 506.1C748.771 493.747 746.414 482.384 742.021 472.01C740.221 467.77 738.061 463.39 735.541 458.87C733.474 455.164 730.694 451.304 727.201 447.29C724.067 443.697 720.827 440.197 717.481 436.79C716.454 435.737 715.737 435.464 715.331 435.97" stroke="#C74D62" stroke-width="2"/>
<path d="M715.331 435.97C696.071 410.73 668.761 399.51 637.201 400.34" stroke="#F2ABB7" stroke-width="2"/>
<path d="M637.2 400.34L640.25 400.15C640.363 400.145 640.471 400.105 640.561 400.037C640.651 399.969 640.718 399.875 640.754 399.768C640.789 399.661 640.792 399.546 640.761 399.438C640.73 399.329 640.667 399.233 640.58 399.16C638.654 397.507 636.944 395.654 635.45 393.6C634.224 391.927 631.464 389.54 627.17 386.44" stroke="#C74D62" stroke-width="2"/>
<path d="M627.171 386.44C623.397 381.52 619.517 377.38 615.531 374.02C607.877 367.574 598.881 362.087 588.541 357.56C573.334 350.9 557.584 345.947 541.291 342.7C536.044 341.653 531.027 340.723 526.241 339.91" stroke="#F2ABB7" stroke-width="2"/>
<path d="M526.241 339.91C526.307 336.583 526.157 333.8 525.791 331.56C524.664 324.613 522.471 317.986 519.211 311.68C519.023 311.311 518.976 310.888 519.077 310.489C519.178 310.089 519.421 309.741 519.761 309.51C525.694 305.43 530.784 300.356 535.031 294.29C546.504 277.896 550.504 259.613 547.031 239.44C544.584 225.24 538.834 212.766 529.781 202.02C527.181 198.933 523.564 195.32 518.931 191.18" stroke="#C74D62" stroke-width="2"/>
<path d="M518.931 191.18C518.077 190.467 516.734 189.04 514.901 186.9C509.941 181.087 503.097 176.26 494.371 172.42C483.081 167.46 468.451 165.79 458.351 173.85" stroke="#F2ABB7" stroke-width="2"/>
<path d="M458.35 173.85C458.45 173.583 458.497 173.44 458.49 173.42C458.48 173.312 458.44 173.21 458.376 173.123C458.312 173.037 458.226 172.969 458.127 172.927C458.028 172.885 457.919 172.871 457.812 172.885C457.706 172.9 457.605 172.943 457.52 173.01C455.9 174.323 454.71 175.946 453.95 177.88C453.866 178.092 453.714 178.271 453.518 178.389C453.322 178.508 453.093 178.559 452.866 178.535C452.638 178.511 452.425 178.414 452.258 178.258C452.091 178.101 451.979 177.895 451.94 177.67C451.22 173.54 455.16 169.93 458.69 167.92C463.87 164.986 467.5 162.943 469.58 161.79C476.7 157.85 481.52 152.19 484.04 144.81C486.75 136.84 485.98 129.59 482.78 122.01C480.347 116.25 477.107 111.243 473.06 106.99C471.727 105.59 469.48 103.793 466.32 101.6" stroke="#C74D62" stroke-width="2"/>
<path d="M466.321 101.6C462.834 95.6398 457.984 91.6131 451.771 89.5198C437.781 84.8098 420.291 90.1698 408.371 97.8498C388.031 110.95 374.261 133.09 373.591 157.53C373.588 157.594 373.568 157.656 373.534 157.71C373.5 157.764 373.452 157.808 373.396 157.839C373.339 157.869 373.276 157.884 373.212 157.882C373.148 157.881 373.085 157.863 373.031 157.83C359.321 149.33 343.971 152.3 332.501 163.15C324.801 170.436 320.001 179.676 318.101 190.87C313.481 218.09 327.361 240.08 347.291 257.65C347.485 257.821 347.611 258.057 347.646 258.314C347.681 258.571 347.622 258.833 347.481 259.05C344.954 262.89 342.387 266.793 339.781 270.76C326.831 290.44 325.341 315.53 336.511 336.82C336.578 336.947 336.613 337.088 336.615 337.231C336.616 337.375 336.583 337.517 336.519 337.645C336.454 337.773 336.36 337.884 336.243 337.968C336.127 338.053 335.993 338.108 335.851 338.13C323.304 340.03 310.767 342.646 298.241 345.98C278.161 351.32 258.471 359.55 242.331 372.77C227.697 384.756 219.711 400.286 218.371 419.36C216.777 442.08 217.931 466.8 221.831 493.52C225.524 518.846 232.444 543.543 242.591 567.61C242.619 567.674 242.632 567.744 242.631 567.814C242.63 567.884 242.614 567.954 242.584 568.018C242.553 568.082 242.51 568.14 242.456 568.186C242.402 568.233 242.339 568.268 242.271 568.29C221.631 574.75 201.681 584.78 186.261 600.22C172.541 613.98 164.581 632.78 166.231 652.19C167.861 671.31 177.801 687.89 192.541 700.55" stroke="#F2ABB7" stroke-width="2"/>
<path d="M466.32 101.6C474.01 117.12 471.79 133.03 457.31 142.77C453.71 145.196 450.024 147.52 446.25 149.74C444.37 150.846 442.764 152.306 441.43 154.12C434.58 163.51 445.99 174.86 452.51 180.43C452.564 180.475 452.626 180.508 452.693 180.529C452.76 180.55 452.83 180.558 452.9 180.551C452.97 180.545 453.037 180.524 453.099 180.491C453.161 180.459 453.216 180.414 453.26 180.36L458.35 173.85" stroke="#D39EA8" stroke-width="2"/>
<path d="M518.931 191.18C525.711 201.033 530.071 211.5 532.011 222.58C535.284 241.286 531.674 258.74 521.181 274.94C516.461 282.24 510.001 288.23 503.421 294.05C503.15 294.287 502.978 294.617 502.939 294.976C502.9 295.335 502.997 295.697 503.211 295.99C511.721 307.63 513.341 323.56 506.401 336.44C506.371 336.494 506.355 336.554 506.353 336.616C506.352 336.677 506.366 336.738 506.393 336.793C506.421 336.848 506.462 336.896 506.512 336.932C506.562 336.968 506.62 336.991 506.681 337L526.241 339.91" stroke="#D39EA8" stroke-width="2"/>
<path d="M627.17 386.44C630.25 391 632.664 395.464 634.41 399.83C634.47 399.98 634.561 400.113 634.677 400.221C634.793 400.328 634.931 400.407 635.08 400.45C635.687 400.624 636.394 400.587 637.2 400.34" stroke="#D39EA8" stroke-width="2"/>
<path d="M715.331 435.97C726.097 451.15 731.891 467.956 732.711 486.39C734.681 530.42 710.971 566.46 674.471 588.97C670.457 591.45 666.621 593.66 662.961 595.6C662.859 595.654 662.773 595.733 662.708 595.828C662.644 595.924 662.604 596.033 662.592 596.147C662.581 596.261 662.597 596.375 662.64 596.48C662.684 596.586 662.752 596.678 662.841 596.75C674.111 605.95 682.881 616.58 687.421 630.88C692.547 647.04 691.117 662.37 683.13 676.87C674.48 692.57 659.281 705.32 644.041 713.76C635.187 718.66 628.127 722.186 622.861 724.34C606.014 731.226 587.964 736.843 568.711 741.19C543.704 746.83 518.521 750.783 493.161 753.05C441.001 757.71 389.291 756.86 338.031 750.5C318.611 748.086 298.567 744.386 277.901 739.4C256.007 734.113 235.371 726.496 215.991 716.55C208.611 712.756 200.794 707.423 192.541 700.55" stroke="#D39EA8" stroke-width="2"/>
<path d="M433.451 329.73C433.864 327.99 433.627 326.524 432.74 325.33C430.45 322.21 428.55 320.33 426.94 317.2C421.09 305.85 422.62 291.62 428.81 280.72C435.39 269.13 442.771 259.45 445.421 246.23C448.501 230.857 445.734 217.004 437.12 204.67C434.314 200.644 430.537 195.934 425.79 190.54C422.384 186.674 419.767 183.037 417.94 179.63C412.41 169.34 411.051 155.89 416.111 145.35C419.931 137.4 426.7 130.59 435.21 127.12C438.244 125.88 439.82 125.23 439.94 125.17C443.83 123.03 446.34 118.59 442.46 115.1C439.79 112.7 434.6 114.34 431.75 115.46C403.09 126.7 392.461 160.65 407.921 186.64C413.671 196.31 421.56 203.86 427.17 211.92C436.981 226.03 436.34 242.47 428.31 257.55C423.77 266.07 417.66 274.62 414.23 284.2C408.8 299.36 410.41 317.13 420.38 330.25C421.75 332.06 424.31 334.64 426.22 334.87C430.107 335.35 432.517 333.637 433.451 329.73Z" stroke="#807F80" stroke-width="2"/>
<path d="M375.821 334.18C380.271 332.24 380.811 327.18 377.231 323.92C374.861 321.77 373.011 320.29 371.581 318.15C365.361 308.9 367.431 298.79 374.271 290.48C389.301 272.21 392.701 248.69 375.821 230.16C373.554 227.673 369.677 224 364.191 219.14C357.701 213.4 352.001 200.66 358.671 192.85C360.077 191.203 360.907 190.137 361.161 189.65C363.991 184.29 360.951 179.95 355.221 180.36C350.391 180.7 346.681 187.06 345.501 191.25C342.081 203.46 344.471 215.25 352.721 224.73C362.361 235.79 375.891 242.29 374.651 259.61C373.931 269.76 369.291 275.98 362.881 284.89C355.094 295.717 353.684 307.397 358.651 319.93C360.781 325.3 368.611 337.33 375.821 334.18Z" stroke="#807F80" stroke-width="2"/>
<path d="M477.971 324.57C482.691 324.72 486.111 319.2 483.311 315.22C481.391 312.49 479.781 310.66 478.491 307.82C474.264 298.554 474.901 289.507 480.401 280.68C481.701 278.594 484.621 275.347 489.161 270.94C493.721 266.52 497.691 262.32 500.321 258.11C506.947 247.497 508.494 236.24 504.961 224.34C501.421 212.4 492.941 201.8 481.861 196.22C478.331 194.44 474.791 195.87 473.191 199.5C471.091 204.24 474.581 206.64 478.671 208.91C484.871 212.337 489.457 217.664 492.431 224.89C497.031 236.05 494.391 246.89 486.461 255.98C482.091 260.99 476.951 264.93 473.061 270.27C470.214 274.17 468.497 276.734 467.911 277.96C461.964 290.407 462.021 302.91 468.081 315.47C469.841 319.11 473.531 324.42 477.971 324.57Z" stroke="#807F80" stroke-width="2"/>
<path d="M590.451 590.45C590.392 590.431 590.342 590.393 590.307 590.342C590.272 590.291 590.255 590.23 590.259 590.169C590.262 590.107 590.286 590.048 590.326 590.002C590.366 589.955 590.421 589.923 590.481 589.91C614.231 585.02 636.991 578.79 657.661 567.17C686.041 551.21 705.261 525.26 706.091 492.11C706.871 460.26 687.111 433.2 655.071 428.12C640.437 425.8 626.408 428.597 612.981 436.51C612.932 436.54 612.876 436.556 612.818 436.557C612.761 436.559 612.704 436.545 612.654 436.518C612.603 436.49 612.561 436.451 612.53 436.402C612.5 436.353 612.483 436.297 612.481 436.24C612.121 428.68 611.681 419.67 609.331 411.71C605.261 397.94 591.231 387.84 578.451 382.11C567.481 377.19 555.871 373.66 543.711 370.61C538.364 369.277 533.478 368.213 529.051 367.42C472.661 357.35 415.301 356.43 357.431 362.74C337.237 364.933 317.737 368.727 298.931 374.12C285.717 377.907 274.321 382.923 264.741 389.17C258.494 393.243 253.701 398.047 250.361 403.58C245.701 411.3 244.891 420.3 244.651 429.39C244.324 441.77 244.474 453.493 245.101 464.56C247.491 506.54 259.271 548.97 281.011 585.15C281.032 585.187 281.045 585.229 281.047 585.272C281.049 585.314 281.041 585.357 281.023 585.396C281.006 585.435 280.979 585.47 280.946 585.496C280.912 585.523 280.873 585.541 280.831 585.55C261.338 589.363 243.211 595.663 226.451 604.45C212.691 611.67 195.831 625 192.691 641.16C184.941 681.03 248.161 702.94 275.861 710.19C297.714 715.91 319.151 720.053 340.171 722.62C395.258 729.36 449.674 729.71 503.421 723.67C525.854 721.15 547.997 717.28 569.851 712.06C591.321 706.93 612.771 699.7 632.231 688.97C640.098 684.63 647.051 679.19 653.091 672.65C672.341 651.8 662.621 628.24 641.841 613.48C633.427 607.507 624.374 602.643 614.681 598.89C605.468 595.323 597.391 592.51 590.451 590.45Z" stroke="#807F80" stroke-width="2"/>
<path d="M278.561 394.9C273.214 397.514 268.544 400.91 264.551 405.09" stroke="#752E39" stroke-width="2"/>
<path d="M264.551 405.09C261.031 409.03 258.611 413.9 261.991 418.88C265.117 423.48 269.074 427.077 273.861 429.67C273.996 429.742 274.151 429.768 274.302 429.745C274.454 429.722 274.593 429.65 274.701 429.54C278.187 426 280.887 423.654 282.801 422.5C292.227 416.807 302.854 412.38 314.681 409.22C331.314 404.78 349.247 401.427 368.481 399.16C372.671 398.67 378.811 398.34 383.971 397.65" stroke="#5E2430" stroke-width="2"/>
<path d="M383.971 397.65C397.757 396.777 409.321 396.254 418.661 396.08C444.047 395.62 470.821 397.087 498.981 400.48C508.714 401.654 520.364 403.77 533.931 406.83C547.797 409.957 559.931 414.28 570.331 419.8C575.397 422.48 579.521 425.937 582.701 430.17C582.787 430.283 582.911 430.361 583.05 430.389C583.188 430.416 583.331 430.392 583.451 430.32C587.004 428.28 590.057 425.957 592.611 423.35C595.217 420.704 596.387 417.57 596.121 413.95" stroke="#752E39" stroke-width="2"/>
<path d="M596.121 413.95C596.381 406.37 584.541 398.94 579.001 396.03C564.951 388.64 551.211 384.79 534.941 381.04C528.454 379.54 521.611 378.257 514.411 377.19C460.411 369.17 406.304 368.607 352.091 375.5C329.011 378.44 304.311 383.71 282.311 393.06C281.004 393.613 279.754 394.227 278.561 394.9" stroke="#794A50" stroke-width="2"/>
<path d="M596.12 413.95L595.9 415.69C595.886 415.806 595.842 415.916 595.772 416.01C595.702 416.103 595.609 416.177 595.502 416.223C595.395 416.27 595.278 416.287 595.162 416.275C595.045 416.262 594.935 416.219 594.84 416.15C589.14 412.01 583.66 406.95 577.02 403.65C570.98 400.65 566.024 398.493 562.15 397.18C545.797 391.64 528.634 387.617 510.66 385.11C471.727 379.69 432.577 378.05 393.21 380.19" stroke="#EB7787" stroke-width="2"/>
<path d="M393.211 380.19L376.311 380.66" stroke="#D46D7E" stroke-width="2"/>
<path d="M376.31 380.66C370.497 380.446 365.61 380.493 361.65 380.8C341.677 382.353 321.65 386.256 301.57 392.51C297.864 393.67 292.487 395.93 285.44 399.29" stroke="#794A50" stroke-width="2"/>
<path d="M285.441 399.29C287.314 397.443 289.761 395.92 292.781 394.72C300.467 391.68 305.451 389.847 307.731 389.22C321.164 385.533 328.647 383.48 330.181 383.06C330.349 383.017 330.498 382.919 330.603 382.781C330.708 382.643 330.764 382.473 330.761 382.3C330.754 381.747 330.587 381.323 330.261 381.03C330.127 380.905 329.963 380.817 329.786 380.775C329.609 380.733 329.424 380.738 329.251 380.79C325.071 382.01 320.381 382.21 316.511 383.23C305.061 386.27 295.421 388.7 284.601 393.31C282.887 394.037 280.874 394.567 278.561 394.9" stroke="#EB7787" stroke-width="2"/>
<path d="M272.42 407.6C276.34 404.22 280.68 401.45 285.44 399.29" stroke="#752E39" stroke-width="2"/>
<path d="M383.971 397.65L380.661 397.5C380.601 397.491 380.547 397.462 380.506 397.417C380.466 397.372 380.443 397.314 380.441 397.254C380.438 397.193 380.457 397.134 380.493 397.086C380.53 397.038 380.582 397.004 380.641 396.99L395.511 395.01C395.58 395.002 395.644 394.97 395.695 394.92C395.745 394.869 395.779 394.803 395.791 394.73C396.524 389.777 395.664 384.93 393.211 380.19" stroke="#D05067" stroke-width="2"/>
<path d="M264.551 405.09L274.651 398.72C274.956 398.529 275.307 398.424 275.667 398.417C276.026 398.41 276.38 398.501 276.691 398.68L278.681 399.83C278.857 399.932 279.002 400.079 279.103 400.255C279.203 400.432 279.255 400.632 279.253 400.835C279.251 401.039 279.195 401.238 279.091 401.412C278.987 401.587 278.839 401.731 278.661 401.83C276.281 403.163 274.201 405.086 272.421 407.6" stroke="#D05067" stroke-width="2"/>
<path d="M272.421 407.6C270.447 409.56 269.574 411.744 269.801 414.15C269.816 414.302 269.871 414.449 269.96 414.575C270.049 414.701 270.17 414.803 270.311 414.87C271.397 415.377 272.404 415.27 273.331 414.55C282.711 407.24 293.991 402.89 305.691 399.43C325.844 393.464 347.417 389.204 370.411 386.65C371.744 386.504 373.837 386.09 376.691 385.41C379.381 384.78 379.901 381.36 376.311 380.66" stroke="#5E2430" stroke-width="2"/>
<path d="M356.931 412C340.021 414.79 323.971 417.94 307.231 423.19C299.064 425.75 291.654 429.43 285.001 434.23C284.889 434.312 284.801 434.421 284.746 434.548C284.69 434.675 284.67 434.814 284.686 434.952C284.702 435.089 284.755 435.22 284.838 435.33C284.922 435.441 285.033 435.527 285.161 435.58C299.354 441.3 315.341 445.84 333.121 449.2C333.274 449.233 333.517 449.317 333.851 449.45C333.902 449.47 333.958 449.472 334.01 449.455C334.062 449.439 334.107 449.405 334.137 449.359C334.168 449.314 334.182 449.259 334.177 449.205C334.172 449.151 334.149 449.099 334.111 449.06C317.991 432.86 342.821 423.43 354.201 420.98C357.247 420.32 360.074 419.673 362.681 419.04" stroke="#3F251B" stroke-width="2"/>
<path d="M362.681 419.04C375.647 416.78 389.891 415.607 405.411 415.52C423.724 415.427 439.577 416.867 452.971 419.84C457.084 420.753 460.634 421.973 463.621 423.5C463.869 423.625 464.087 423.805 464.256 424.025C464.425 424.244 464.54 424.496 464.591 424.758C464.642 425.021 464.628 425.287 464.549 425.533C464.471 425.778 464.331 425.997 464.141 426.17C463.574 426.683 462.664 426.877 461.411 426.75C435.421 424.13 410.201 423.5 383.211 426.43C380.117 426.77 376.991 427.22 373.831 427.78" stroke="#563426" stroke-width="2"/>
<path d="M373.831 427.78C370.991 428.2 336.291 434.07 341.441 440.8C344.931 445.36 351.851 447.65 357.151 449.01C361.918 450.237 365.861 451.624 368.981 453.17C369.584 453.468 370.232 453.667 370.901 453.76C381.274 455.234 393.111 456.214 406.411 456.7C432.064 457.627 456.941 457.1 481.041 455.12" stroke="#3F251B" stroke-width="2"/>
<path d="M481.041 455.12C483.141 454.84 485.321 454.6 487.581 454.4C497.127 453.554 505.817 452.47 513.651 451.15C534.801 447.6 554.191 443.36 573.011 435.62C573.084 435.591 573.148 435.542 573.196 435.48C573.245 435.418 573.276 435.345 573.287 435.267C573.298 435.189 573.289 435.109 573.259 435.036C573.23 434.963 573.182 434.899 573.121 434.85C566.011 429.15 559.411 425.89 550.051 422.54C541.217 419.367 532.051 416.747 522.551 414.68C522.502 414.667 522.451 414.671 522.405 414.691C522.359 414.711 522.322 414.746 522.298 414.79C522.275 414.834 522.268 414.885 522.277 414.934C522.287 414.983 522.313 415.028 522.351 415.06C525.041 417.56 527.821 419.57 527.881 423.66C528.031 433.31 513.351 437.53 506.131 439.13C488.704 442.997 470.357 444.467 451.091 443.54C447.711 443.374 444.904 442.87 442.671 442.03C441.704 441.664 441.097 441.24 440.851 440.76C440.721 440.503 440.652 440.219 440.65 439.925C440.648 439.631 440.712 439.333 440.839 439.05C440.965 438.767 441.151 438.505 441.386 438.28C441.62 438.054 441.897 437.871 442.201 437.74C446.007 436.087 450.767 434.84 456.481 434C457.387 433.867 465.974 432.79 482.241 430.77C486.181 430.28 509.961 427.06 512.251 422.86C512.521 422.368 512.57 421.773 512.389 421.194C512.207 420.615 511.809 420.093 511.271 419.73C508.717 417.99 505.861 416.6 502.701 415.56C490.591 411.55 477.721 409.82 465.161 408.89C428.914 406.197 392.837 407.234 356.931 412" stroke="#563426" stroke-width="2"/>
<path d="M481.041 455.12C479.741 454.167 477.954 453.504 475.681 453.13C460.751 450.67 449.131 448.52 434.421 446.75C420.961 445.137 408.871 443.187 398.151 440.9C392.197 439.627 388.244 438.587 386.291 437.78C379.761 435.11 376.711 433.4 373.831 427.78" stroke="#92583F" stroke-width="2"/>
<path d="M362.681 419.04C361.081 416.28 359.164 413.933 356.931 412" stroke="#92583F" stroke-width="2"/>
<path d="M255.741 438.63C255.847 457.257 257.427 475.503 260.481 493.37C263.174 509.117 267.654 525.463 273.921 542.41C283.261 567.67 296.267 589.667 312.941 608.4" stroke="#752E39" stroke-width="2"/>
<path d="M312.94 608.401C328.087 625.641 345.78 638.441 366.02 646.801C392.34 657.671 422.58 660.371 450.94 656.431C487.594 651.344 518.414 634.971 543.4 607.311C555.52 593.897 565.744 578.554 574.07 561.281C583.25 542.227 589.987 522.667 594.28 502.601C598.834 481.321 601.164 459.987 601.27 438.601" stroke="#5E2430" stroke-width="2"/>
<path d="M601.271 438.6L601.251 432.25C601.251 432.213 601.24 432.177 601.22 432.146C601.2 432.114 601.171 432.09 601.137 432.075C601.103 432.06 601.065 432.055 601.028 432.062C600.992 432.068 600.958 432.085 600.931 432.11C589.521 442.81 574.371 449.04 559.581 453.31C526.901 462.74 493.211 467.09 458.911 468.69C417.304 470.644 376.701 468.397 337.101 461.95C315.881 458.5 293.081 453.04 274.041 443.55C267.687 440.384 261.754 436.244 256.241 431.13C256.203 431.094 256.156 431.07 256.105 431.061C256.053 431.052 256 431.058 255.951 431.079C255.903 431.1 255.861 431.135 255.831 431.18C255.8 431.224 255.783 431.277 255.781 431.33L255.741 438.63" stroke="#794A50" stroke-width="2"/>
<path d="M601.27 438.601C594.924 445.681 586.98 451.284 577.44 455.411C565.56 460.551 553.824 464.567 542.23 467.461C537.87 468.554 531.1 469.954 521.92 471.661" stroke="#D46D7E" stroke-width="2"/>
<path d="M521.921 471.66C505.571 474.1 490.181 476.4 472.921 477.65C440.094 480.037 406.737 479.707 372.851 476.66C364.797 475.933 355.854 474.8 346.021 473.26C326.191 470.14 308.331 466.36 292.951 460.78C285.464 458.06 280.097 455.857 276.851 454.17C269.964 450.597 265.284 447.62 262.811 445.24C260.591 443.107 258.234 440.903 255.741 438.63" stroke="#EB7787" stroke-width="2"/>
<path d="M312.94 608.4C318.567 610.413 323.86 613.087 328.82 616.42C329.372 616.786 329.959 617.088 330.57 617.32C333.35 618.38 336.87 619.753 341.13 621.44C346.717 623.647 353.27 625.45 360.79 626.85C367.424 628.09 374.2 628.607 381.12 628.4C391.974 628.08 402.484 626.4 412.65 623.36C436.63 616.193 457.504 603.33 475.27 584.77C482.497 577.217 487.654 571.13 490.74 566.51C495.04 560.063 499.36 552.607 503.7 544.14C507.88 535.973 511.117 528.003 513.41 520.23C517.437 506.583 520.004 492.97 521.11 479.39C521.317 476.85 521.587 474.273 521.92 471.66" stroke="#D05067" stroke-width="2"/>
<path d="M615.951 449.53L612.971 451.51C612.752 451.655 612.571 451.85 612.444 452.078C612.317 452.306 612.247 452.561 612.241 452.82C612.027 461.587 611.327 470.204 610.141 478.67C610.132 478.723 610.142 478.778 610.168 478.825C610.194 478.871 610.236 478.908 610.285 478.929C610.335 478.95 610.39 478.953 610.442 478.939C610.493 478.925 610.539 478.893 610.571 478.85C613.444 475.07 616.981 471.7 621.181 468.74C643.101 453.32 672.621 466.28 672.621 494.18C672.621 514.08 659.651 531.72 642.751 541.23C626.457 550.397 608.881 555.694 590.021 557.12C589.75 557.142 589.49 557.238 589.271 557.399C589.052 557.56 588.882 557.778 588.781 558.03C585.534 565.977 581.961 573.214 578.061 579.74C578.027 579.796 578.01 579.86 578.012 579.926C578.014 579.991 578.035 580.054 578.072 580.108C578.109 580.161 578.16 580.203 578.22 580.229C578.28 580.254 578.347 580.261 578.411 580.25C605.751 574.92 634.411 568.76 657.401 553.19" stroke="#5E2430" stroke-width="2"/>
<path d="M657.401 553.19C674.591 542.29 689.091 524.45 693.121 504.35C698.921 475.44 684.911 446.25 654.711 440.45C640.057 437.63 627.137 440.656 615.951 449.53" stroke="#752E39" stroke-width="2"/>
<path d="M657.401 553.19C657.254 553.256 657.101 553.28 656.941 553.26C656.858 553.25 656.78 553.215 656.718 553.159C656.656 553.103 656.614 553.029 656.596 552.947C656.578 552.865 656.587 552.78 656.62 552.704C656.653 552.627 656.709 552.563 656.781 552.52C657.814 551.886 658.697 551.196 659.431 550.45C666.324 543.41 672.241 534.91 677.181 524.95C687.241 504.68 688.031 476.98 670.881 460.18C667.661 457.026 663.107 454.096 657.221 451.39C652.941 449.423 647.697 448.126 641.491 447.5C635.031 446.853 629.334 446.623 624.401 446.81C621.827 446.91 619.467 447.833 617.321 449.58C617.133 449.735 616.9 449.82 616.661 449.82C616.254 449.826 616.017 449.73 615.951 449.53" stroke="#D05067" stroke-width="2"/>
<path d="M595.001 544.65C600.121 543.716 604.854 542.733 609.201 541.7C631.341 536.45 656.241 523.51 660.511 498.79C662.081 489.7 658.261 479.15 649.251 475.78C637.531 471.39 628.151 476.74 620.251 485.24C616.464 489.313 613.314 493.156 610.801 496.77C610.287 497.503 609.177 498.433 607.471 499.56C607.332 499.651 607.212 499.769 607.119 499.907C607.027 500.044 606.963 500.198 606.931 500.36C604.044 514.986 599.971 529.633 594.711 544.3C594.694 544.343 594.689 544.39 594.696 544.436C594.704 544.481 594.723 544.524 594.753 544.56C594.782 544.596 594.821 544.623 594.864 544.639C594.908 544.654 594.955 544.658 595.001 544.65Z" stroke="#807F80" stroke-width="2"/>
<path d="M587.021 694.89C600.121 691.143 612.781 686.003 625.001 679.47C633.331 675.01 640.671 669.61 646.611 662.17C657.791 648.15 648.811 633.9 637.121 624.91C629.381 618.956 620.141 613.786 609.401 609.4C596.094 603.96 582.064 599.793 567.311 596.9C567.207 596.878 567.099 596.888 567.001 596.927C566.903 596.966 566.819 597.033 566.761 597.12C543.891 630.22 510.801 654.45 471.991 664.44C435.961 673.71 395.921 671.77 360.981 657.78C349.214 653.066 338.127 646.726 327.721 638.76" stroke="#5E2430" stroke-width="2"/>
<path d="M327.721 638.76C314.547 628.447 302.937 616.637 292.891 603.33" stroke="#752E39" stroke-width="2"/>
<path d="M292.891 603.33L287.621 596.25C287.532 596.129 287.409 596.036 287.266 595.984C287.124 595.933 286.969 595.924 286.821 595.96C264.751 601.13 242.911 607.57 223.831 620.04C208.861 629.82 195.701 645.55 210.241 663.14C215.227 669.174 221.024 674.117 227.631 677.97C237.764 683.877 248.597 688.78 260.131 692.68C271.731 696.594 281.801 699.514 290.341 701.44C319.847 708.08 349.787 712.357 380.161 714.27C420.574 716.824 460.674 716.027 500.461 711.88C517.041 710.15 533.071 707.48 550.001 704.17C562.387 701.757 574.727 698.664 587.021 694.89" stroke="#794A50" stroke-width="2"/>
<path d="M292.891 603.33C291.091 603.63 289.421 603.923 287.881 604.21C274.967 606.563 262.161 610.63 249.461 616.41C239.761 620.83 229.581 627.6 223.771 636.53C217.241 646.57 220.571 656.57 228.911 664.15C233.004 667.863 236.877 670.743 240.531 672.79C261.631 684.58 284.791 691.48 308.951 696.29C333.571 701.197 358.561 704.32 383.921 705.66C394.661 706.23 405.451 706.88 416.211 706.82" stroke="#EB7787" stroke-width="2"/>
<path d="M416.21 706.82C444.53 707.98 472.83 707.656 501.11 705.85C509.71 705.3 517.81 704.17 526.21 703.31C540.6 701.84 554.7 699.28 569.89 696.72C573.044 696.186 575.887 695.803 578.42 695.57C581.24 695.303 584.107 695.076 587.02 694.89" stroke="#D46D7E" stroke-width="2"/>
<path d="M416.211 706.82C415.384 703.573 415.454 700.257 416.421 696.87" stroke="#D05067" stroke-width="2"/>
<path d="M416.42 696.87C442.98 697.39 469.477 695.98 495.91 692.64C515.157 690.207 533.18 686.56 549.98 681.7C561.727 678.3 572.347 674.087 581.84 669.06C589.39 665.07 598.55 658.42 601.35 650.27C603.904 642.824 602.347 636.017 596.68 629.85C590.034 622.63 581.36 618.36 570.66 617.04C569.667 616.92 568.867 617.254 568.26 618.04C568.115 618.229 568.014 618.448 567.966 618.681C567.917 618.915 567.923 619.158 567.981 619.391C568.04 619.625 568.15 619.844 568.304 620.032C568.457 620.221 568.651 620.374 568.87 620.48C569.93 621 571.874 621.877 574.7 623.11C583.65 627.03 599.31 637 592.33 649.08C588.51 655.68 580.63 660.45 573.78 663.33C562.467 668.084 551.247 671.67 540.12 674.09C527.847 676.757 519.087 678.49 513.84 679.29C484.72 683.744 454.824 685.837 424.15 685.57" stroke="#5E2430" stroke-width="2"/>
<path d="M424.151 685.57C422.571 684.13 420.117 683.586 416.791 683.94C416.544 683.96 416.294 683.96 416.041 683.94C397.561 682.266 379.194 678.753 360.941 673.4C351.421 670.606 342.981 666.556 335.621 661.25C331.047 657.95 327.891 654.41 326.151 650.63C324.071 646.123 324.594 642.166 327.721 638.76" stroke="#D05067" stroke-width="2"/>
<path d="M424.151 685.57C405.851 685.29 389.231 684.59 374.291 683.47C351.084 681.73 326.257 677.533 299.811 670.88C297.504 670.3 295.504 670.12 293.811 670.34C293.212 670.417 292.657 670.677 292.229 671.082C291.801 671.486 291.524 672.012 291.441 672.58C290.391 679.64 320.291 686.38 326.251 687.59C355.931 693.59 385.987 696.683 416.421 696.87" stroke="#752E39" stroke-width="2"/>
<path d="M576.101 486.22C572.461 486.65 571.321 489.76 570.691 493.28C565.051 524.73 554.331 553.7 535.081 579.26C532.321 582.93 530.031 590 536.741 591.01C540.631 591.6 543.951 587.12 545.951 584.41C563.941 559.95 575.571 531.27 580.631 501.64C581.361 497.35 584.151 485.25 576.101 486.22Z" stroke="#5E2430" stroke-width="2"/>
<path d="M526.671 603.7C527.401 597.22 519.511 600.74 517.371 602.38C507.571 609.867 497.827 616.337 488.141 621.79C483.671 624.31 484.151 632.36 490.321 632.29C491.407 632.277 493.234 631.683 495.801 630.51C506.607 625.57 515.854 618.75 523.541 610.05C525.394 607.95 526.437 605.833 526.671 603.7Z" stroke="#5E2430" stroke-width="2"/>
<path d="M281.831 475.77C274.771 478.96 276.211 489.98 277.161 496.65C281.301 525.443 291.554 551.82 307.921 575.78C312.331 582.22 327.501 602.22 336.691 597.18C341.591 594.5 340.781 586.98 337.871 582.94C337.184 581.98 334.861 578.803 330.901 573.41C322.294 561.663 315.611 549.77 310.851 537.73C306.417 526.523 303.107 515.087 300.921 503.42C299.587 496.287 298.677 491.697 298.191 489.65C296.211 481.31 292.881 474.54 283.251 475.4C282.761 475.44 282.28 475.565 281.831 475.77Z" stroke="#F2ABB7" stroke-width="2"/>
<path d="M283.67 619.68C283.247 619.086 282.655 618.631 281.972 618.375C281.288 618.118 280.542 618.071 279.83 618.24C270.25 620.513 262.98 625.29 258.02 632.57C249.75 644.71 257.96 657.89 269.52 663.78C272.06 665.073 273.934 664.513 275.14 662.1C275.373 661.632 275.444 661.101 275.343 660.589C275.242 660.077 274.974 659.613 274.58 659.27C268.02 653.54 259.02 646.46 264.12 636.47C266.694 631.423 272.94 626.88 282.86 622.84C283.144 622.723 283.397 622.545 283.602 622.317C283.806 622.088 283.956 621.817 284.041 621.523C284.125 621.228 284.142 620.919 284.09 620.617C284.038 620.315 283.919 620.029 283.74 619.78L283.67 619.68Z" stroke="#752E39" stroke-width="2"/>
<path d="M244.981 835.77C224.801 838.137 203.984 838.453 182.531 836.72C171.657 835.847 160.041 833.98 147.681 831.12C111.014 822.64 79.7139 805.46 53.7806 779.58C44.4472 770.273 35.5806 758.287 27.1806 743.62C11.4306 716.15 3.94058 684.04 5.12058 653.08C6.72058 611.29 26.2106 576.22 57.3706 548.86C59.2106 547.247 66.9973 540.367 80.7306 528.22C86.1039 523.467 91.3972 517.067 96.6106 509.02C106.021 494.47 109.941 477.17 108.691 460.06C107.381 442.06 97.6106 422.98 87.1406 407.4C74.5506 388.68 56.8606 366.09 45.1506 343.45C35.1706 324.16 27.7906 304.14 24.8706 282.51C19.2206 240.79 34.3506 198.47 66.2406 171.38C83.2006 156.967 103.007 148.057 125.661 144.65C152.261 140.65 173.961 143.85 204.281 147.51C223.901 149.87 244.851 149.95 262.791 141.07C274.344 135.35 283.674 126.753 290.781 115.28C293.454 110.967 296.151 105.583 298.871 99.1301C299.417 97.8434 302.647 89.6501 308.561 74.5501C310.761 68.9367 314.387 61.7301 319.441 52.9301C325.201 42.9034 332.244 34.0601 340.571 26.4001C370.561 -1.17993 414.751 -5.72994 451.651 9.98006C472.511 18.8601 484.521 29.8901 506.011 47.2701C513.671 53.4567 522.034 59.0034 531.101 63.9101C539.001 68.1834 548.601 71.3434 559.901 73.3901C581.031 77.2201 604.271 74.6301 626.081 70.0201C640.681 66.9267 653.537 64.4601 664.651 62.6201C694.371 57.7001 724.461 58.3401 752.331 70.7101C775.157 80.8501 792.871 96.5501 805.471 117.81C816.757 136.857 822.587 157.46 822.961 179.62C823.327 201.713 819.634 223.567 811.881 245.18C809.301 252.367 805.281 262.817 799.821 276.53C797.407 282.597 795.011 289.963 792.631 298.63C786.181 322.12 790.701 345.69 808.601 362.73C812.127 366.097 816.464 369.507 821.611 372.96C827.357 376.82 833.997 381.343 841.531 386.53C856.057 396.523 867.507 408.23 875.881 421.65C885.261 436.66 890.101 456.64 887.871 474.12C884.571 499.94 870.441 516.28 848.361 528.07C847.767 528.39 845.057 529.59 840.231 531.67C826.511 537.59 812.141 540.55 799.981 549.24C776.651 565.92 773.191 593.05 781.811 619.05C787.091 634.97 794.931 651.09 800.571 668.71C807.631 690.76 809.911 714.64 805.021 737.27C799.687 761.97 788.834 783.283 772.461 801.21C742.411 834.13 698.241 853.11 653.441 858C633.994 860.12 614.821 860.243 595.921 858.37C559.741 854.78 526.271 843.62 491.451 828.65C475.517 821.797 459.687 816.77 443.961 813.57C440.174 812.797 434.504 812.037 426.951 811.29C420.891 810.69 415.184 810.35 409.831 810.27C386.551 809.937 362.677 812.35 338.211 817.51C325.411 820.21 315.754 822.35 309.241 823.93C293.601 827.72 276.021 831.11 265.141 833.04C261.141 833.753 254.421 834.663 244.981 835.77ZM192.541 700.55C192.414 700.617 192.297 700.67 192.191 700.71C192.112 700.735 192.042 700.782 191.988 700.845C191.933 700.907 191.898 700.984 191.884 701.065C191.871 701.147 191.88 701.231 191.911 701.307C191.942 701.384 191.994 701.451 192.061 701.5C192.287 701.673 192.337 701.707 192.211 701.6C192.199 701.595 192.187 701.593 192.175 701.595C192.162 701.597 192.151 701.603 192.142 701.612C192.134 701.621 192.128 701.632 192.126 701.644C192.123 701.656 192.125 701.669 192.131 701.68C202.691 713.98 215.027 723.97 229.141 731.65C253.271 744.79 279.721 753.34 306.911 759.42C327.457 764.02 348.944 767.513 371.371 769.9C376.911 770.487 380.791 770.84 383.011 770.96C393.521 771.55 401.731 772.44 412.161 772.84C428.654 773.48 446.404 773.717 465.411 773.55C478.141 773.44 489.031 772.36 503.331 771.52C512.991 770.96 521.891 769.68 532.451 768.45C538.664 767.73 545.567 766.7 553.161 765.36C559.507 764.247 568.751 762.403 580.891 759.83C596.644 756.49 614.181 751.153 633.501 743.82C645.111 739.41 656.021 733.69 666.481 726.98C676.514 720.553 685.211 712.763 692.571 703.61C709.281 682.81 710.551 654.67 695.451 632.42C691.677 626.867 689.411 623.687 688.651 622.88C685.717 619.773 683.007 616.743 680.521 613.79C680.415 613.664 680.34 613.515 680.3 613.356C680.26 613.196 680.256 613.03 680.288 612.869C680.321 612.707 680.389 612.556 680.488 612.424C680.587 612.293 680.715 612.186 680.861 612.11C701.621 601.22 720.111 585.23 732.761 565.5C744.214 547.647 749.657 527.847 749.091 506.1C748.771 493.747 746.414 482.383 742.021 472.01C740.221 467.77 738.061 463.39 735.541 458.87C733.474 455.163 730.694 451.303 727.201 447.29C724.067 443.697 720.827 440.197 717.481 436.79C716.454 435.737 715.737 435.463 715.331 435.97C696.071 410.73 668.761 399.51 637.201 400.34L640.251 400.15C640.363 400.144 640.472 400.105 640.561 400.037C640.651 399.969 640.718 399.875 640.754 399.768C640.79 399.661 640.792 399.546 640.761 399.437C640.73 399.329 640.667 399.232 640.581 399.16C638.654 397.507 636.944 395.653 635.451 393.6C634.224 391.927 631.464 389.54 627.171 386.44C623.397 381.52 619.517 377.38 615.531 374.02C607.877 367.573 598.881 362.087 588.541 357.56C573.334 350.9 557.584 345.947 541.291 342.7C536.044 341.653 531.027 340.723 526.241 339.91C526.307 336.583 526.157 333.8 525.791 331.56C524.664 324.613 522.471 317.987 519.211 311.68C519.023 311.312 518.976 310.888 519.077 310.489C519.178 310.09 519.421 309.742 519.761 309.51C525.694 305.43 530.784 300.357 535.031 294.29C546.504 277.897 550.504 259.613 547.031 239.44C544.584 225.24 538.834 212.767 529.781 202.02C527.181 198.933 523.564 195.32 518.931 191.18C518.077 190.467 516.734 189.04 514.901 186.9C509.941 181.087 503.097 176.26 494.371 172.42C483.081 167.46 468.451 165.79 458.351 173.85C458.451 173.583 458.497 173.44 458.491 173.42C458.48 173.313 458.44 173.211 458.376 173.124C458.313 173.037 458.226 172.969 458.127 172.927C458.028 172.885 457.919 172.871 457.813 172.886C457.706 172.9 457.605 172.943 457.521 173.01C455.901 174.323 454.711 175.947 453.951 177.88C453.866 178.093 453.714 178.272 453.518 178.39C453.323 178.508 453.094 178.559 452.866 178.536C452.639 178.512 452.425 178.414 452.258 178.258C452.091 178.102 451.98 177.895 451.941 177.67C451.221 173.54 455.161 169.93 458.691 167.92C463.871 164.987 467.501 162.943 469.581 161.79C476.701 157.85 481.521 152.19 484.041 144.81C486.751 136.84 485.981 129.59 482.781 122.01C480.347 116.25 477.107 111.243 473.061 106.99C471.727 105.59 469.481 103.793 466.321 101.6C462.834 95.6401 457.984 91.6134 451.771 89.5201C437.781 84.8101 420.291 90.1701 408.371 97.8501C388.031 110.95 374.261 133.09 373.591 157.53C373.588 157.594 373.568 157.656 373.534 157.71C373.5 157.764 373.452 157.809 373.396 157.839C373.339 157.869 373.276 157.884 373.212 157.883C373.148 157.881 373.085 157.863 373.031 157.83C359.321 149.33 343.971 152.3 332.501 163.15C324.801 170.437 320.001 179.677 318.101 190.87C313.481 218.09 327.361 240.08 347.291 257.65C347.485 257.822 347.611 258.058 347.646 258.315C347.681 258.572 347.622 258.833 347.481 259.05C344.954 262.89 342.387 266.793 339.781 270.76C326.831 290.44 325.341 315.53 336.511 336.82C336.578 336.947 336.613 337.088 336.615 337.232C336.616 337.375 336.583 337.517 336.519 337.645C336.454 337.774 336.36 337.884 336.243 337.969C336.127 338.053 335.993 338.108 335.851 338.13C323.304 340.03 310.767 342.647 298.241 345.98C278.161 351.32 258.471 359.55 242.331 372.77C227.697 384.757 219.711 400.287 218.371 419.36C216.777 442.08 217.931 466.8 221.831 493.52C225.524 518.847 232.444 543.543 242.591 567.61C242.619 567.674 242.632 567.744 242.631 567.814C242.63 567.885 242.614 567.954 242.584 568.018C242.553 568.083 242.51 568.14 242.456 568.187C242.402 568.234 242.339 568.269 242.271 568.29C221.631 574.75 201.681 584.78 186.261 600.22C172.541 613.98 164.581 632.78 166.231 652.19C167.861 671.31 177.801 687.89 192.541 700.55Z" fill="#FFC3CD"/>
<path d="M466.321 101.6C474.011 117.12 471.791 133.03 457.311 142.77C453.711 145.196 450.024 147.52 446.251 149.74C444.371 150.846 442.764 152.306 441.431 154.12C434.581 163.51 445.991 174.86 452.511 180.43C452.564 180.475 452.626 180.509 452.693 180.529C452.76 180.55 452.83 180.558 452.9 180.551C452.97 180.545 453.038 180.524 453.1 180.492C453.161 180.459 453.216 180.414 453.261 180.36L458.351 173.85C468.451 165.79 483.081 167.46 494.371 172.42C503.097 176.26 509.941 181.086 514.901 186.9C516.734 189.04 518.077 190.466 518.931 191.18C525.711 201.033 530.071 211.5 532.011 222.58C535.284 241.286 531.674 258.74 521.181 274.94C516.461 282.24 510.001 288.23 503.421 294.05C503.15 294.287 502.978 294.617 502.939 294.976C502.9 295.335 502.997 295.697 503.211 295.99C511.721 307.63 513.341 323.56 506.401 336.44C506.371 336.494 506.355 336.554 506.353 336.616C506.352 336.677 506.366 336.738 506.393 336.793C506.421 336.848 506.461 336.896 506.511 336.932C506.562 336.968 506.62 336.991 506.681 337L526.241 339.91C531.027 340.723 536.044 341.653 541.291 342.7C557.584 345.946 573.334 350.9 588.541 357.56C598.881 362.086 607.877 367.573 615.531 374.02C619.517 377.38 623.397 381.52 627.171 386.44C630.251 391 632.664 395.463 634.411 399.83C634.47 399.979 634.561 400.112 634.677 400.22C634.793 400.327 634.931 400.406 635.081 400.45C635.687 400.623 636.394 400.586 637.201 400.34C668.761 399.51 696.071 410.73 715.331 435.97C726.097 451.15 731.891 467.956 732.711 486.39C734.681 530.42 710.971 566.46 674.471 588.97C670.457 591.45 666.621 593.66 662.961 595.6C662.859 595.654 662.773 595.733 662.708 595.828C662.644 595.924 662.604 596.033 662.593 596.147C662.581 596.261 662.597 596.375 662.64 596.481C662.684 596.586 662.752 596.678 662.841 596.75C674.111 605.95 682.881 616.58 687.421 630.88C692.547 647.04 691.117 662.37 683.131 676.87C674.481 692.57 659.281 705.32 644.041 713.76C635.187 718.66 628.127 722.186 622.861 724.34C606.014 731.226 587.964 736.843 568.711 741.19C543.704 746.83 518.521 750.783 493.161 753.05C441.001 757.71 389.291 756.86 338.031 750.5C318.611 748.086 298.567 744.386 277.901 739.4C256.007 734.113 235.371 726.496 215.991 716.55C208.611 712.756 200.794 707.423 192.541 700.55C177.801 687.89 167.861 671.31 166.231 652.19C164.581 632.78 172.541 613.98 186.261 600.22C201.681 584.78 221.631 574.75 242.271 568.29C242.339 568.268 242.402 568.233 242.456 568.186C242.51 568.14 242.553 568.082 242.584 568.018C242.614 567.954 242.63 567.884 242.631 567.814C242.632 567.744 242.619 567.674 242.591 567.61C232.444 543.543 225.524 518.846 221.831 493.52C217.931 466.8 216.777 442.08 218.371 419.36C219.711 400.286 227.697 384.756 242.331 372.77C258.471 359.55 278.161 351.32 298.241 345.98C310.767 342.646 323.304 340.03 335.851 338.13C335.993 338.108 336.127 338.053 336.243 337.968C336.36 337.884 336.454 337.773 336.519 337.645C336.583 337.517 336.616 337.375 336.615 337.231C336.613 337.088 336.578 336.947 336.511 336.82C325.341 315.53 326.831 290.44 339.781 270.76C342.387 266.793 344.954 262.89 347.481 259.05C347.622 258.833 347.681 258.571 347.646 258.314C347.611 258.057 347.485 257.821 347.291 257.65C327.361 240.08 313.481 218.09 318.101 190.87C320.001 179.676 324.801 170.436 332.501 163.15C343.971 152.3 359.321 149.33 373.031 157.83C373.085 157.863 373.148 157.881 373.212 157.882C373.276 157.884 373.339 157.869 373.396 157.839C373.452 157.808 373.5 157.764 373.534 157.71C373.568 157.656 373.588 157.594 373.591 157.53C374.261 133.09 388.031 110.95 408.371 97.8498C420.291 90.1698 437.781 84.8098 451.771 89.5198C457.984 91.6131 462.834 95.6398 466.321 101.6ZM433.451 329.73C433.864 327.99 433.627 326.523 432.741 325.33C430.451 322.21 428.551 320.33 426.941 317.2C421.091 305.85 422.621 291.62 428.811 280.72C435.391 269.13 442.771 259.45 445.421 246.23C448.501 230.856 445.734 217.003 437.121 204.67C434.314 200.643 430.537 195.933 425.791 190.54C422.384 186.673 419.767 183.036 417.941 179.63C412.411 169.34 411.051 155.89 416.111 145.35C419.931 137.4 426.701 130.59 435.211 127.12C438.244 125.88 439.821 125.23 439.941 125.17C443.831 123.03 446.341 118.59 442.461 115.1C439.791 112.7 434.601 114.34 431.751 115.46C403.091 126.7 392.461 160.65 407.921 186.64C413.671 196.31 421.561 203.86 427.171 211.92C436.981 226.03 436.341 242.47 428.311 257.55C423.771 266.07 417.661 274.62 414.231 284.2C408.801 299.36 410.411 317.13 420.381 330.25C421.751 332.06 424.311 334.64 426.221 334.87C430.107 335.35 432.517 333.636 433.451 329.73ZM375.821 334.18C380.271 332.24 380.811 327.18 377.231 323.92C374.861 321.77 373.011 320.29 371.581 318.15C365.361 308.9 367.431 298.79 374.271 290.48C389.301 272.21 392.701 248.69 375.821 230.16C373.554 227.673 369.677 224 364.191 219.14C357.701 213.4 352.001 200.66 358.671 192.85C360.077 191.203 360.907 190.136 361.161 189.65C363.991 184.29 360.951 179.95 355.221 180.36C350.391 180.7 346.681 187.06 345.501 191.25C342.081 203.46 344.471 215.25 352.721 224.73C362.361 235.79 375.891 242.29 374.651 259.61C373.931 269.76 369.291 275.98 362.881 284.89C355.094 295.716 353.684 307.396 358.651 319.93C360.781 325.3 368.611 337.33 375.821 334.18ZM477.971 324.57C482.691 324.72 486.111 319.2 483.311 315.22C481.391 312.49 479.781 310.66 478.491 307.82C474.264 298.553 474.901 289.506 480.401 280.68C481.701 278.593 484.621 275.346 489.161 270.94C493.721 266.52 497.691 262.32 500.321 258.11C506.947 247.496 508.494 236.24 504.961 224.34C501.421 212.4 492.941 201.8 481.861 196.22C478.331 194.44 474.791 195.87 473.191 199.5C471.091 204.24 474.581 206.64 478.671 208.91C484.871 212.336 489.457 217.663 492.431 224.89C497.031 236.05 494.391 246.89 486.461 255.98C482.091 260.99 476.951 264.93 473.061 270.27C470.214 274.17 468.497 276.733 467.911 277.96C461.964 290.406 462.021 302.91 468.081 315.47C469.841 319.11 473.531 324.42 477.971 324.57ZM590.451 590.45C590.392 590.431 590.342 590.393 590.307 590.342C590.272 590.291 590.255 590.23 590.259 590.168C590.262 590.107 590.286 590.048 590.326 590.001C590.366 589.955 590.42 589.922 590.481 589.91C614.231 585.02 636.991 578.79 657.661 567.17C686.041 551.21 705.261 525.26 706.091 492.11C706.871 460.26 687.111 433.2 655.071 428.12C640.437 425.8 626.407 428.596 612.981 436.51C612.931 436.539 612.875 436.556 612.818 436.557C612.761 436.558 612.704 436.545 612.654 436.517C612.603 436.49 612.561 436.45 612.53 436.402C612.5 436.353 612.483 436.297 612.481 436.24C612.121 428.68 611.681 419.67 609.331 411.71C605.261 397.94 591.231 387.84 578.451 382.11C567.481 377.19 555.871 373.66 543.711 370.61C538.364 369.276 533.477 368.213 529.051 367.42C472.661 357.35 415.301 356.43 357.431 362.74C337.237 364.933 317.737 368.726 298.931 374.12C285.717 377.906 274.321 382.923 264.741 389.17C258.494 393.243 253.701 398.046 250.361 403.58C245.701 411.3 244.891 420.3 244.651 429.39C244.324 441.77 244.474 453.493 245.101 464.56C247.491 506.54 259.271 548.97 281.011 585.15C281.032 585.187 281.044 585.229 281.047 585.271C281.049 585.314 281.041 585.357 281.023 585.396C281.006 585.435 280.979 585.469 280.945 585.496C280.912 585.523 280.873 585.541 280.831 585.55C261.337 589.363 243.211 595.663 226.451 604.45C212.691 611.67 195.831 625 192.691 641.16C184.941 681.03 248.161 702.94 275.861 710.19C297.714 715.91 319.151 720.053 340.171 722.62C395.257 729.36 449.674 729.71 503.421 723.67C525.854 721.15 547.997 717.28 569.851 712.06C591.321 706.93 612.771 699.7 632.231 688.97C640.097 684.63 647.051 679.19 653.091 672.65C672.341 651.8 662.621 628.24 641.841 613.48C633.427 607.506 624.374 602.643 614.681 598.89C605.467 595.323 597.391 592.51 590.451 590.45Z" fill="#FDFCFD"/>
<path d="M458.351 173.85L453.261 180.36C453.216 180.414 453.162 180.459 453.1 180.491C453.038 180.524 452.97 180.545 452.9 180.551C452.831 180.558 452.76 180.55 452.694 180.529C452.627 180.508 452.565 180.475 452.511 180.43C445.991 174.86 434.581 163.51 441.431 154.12C442.764 152.306 444.371 150.846 446.251 149.74C450.024 147.52 453.711 145.196 457.311 142.77C471.791 133.03 474.011 117.12 466.321 101.6C469.481 103.793 471.728 105.59 473.061 106.99C477.108 111.243 480.348 116.25 482.781 122.01C485.981 129.59 486.751 136.84 484.041 144.81C481.521 152.19 476.701 157.85 469.581 161.79C467.501 162.943 463.871 164.986 458.691 167.92C455.161 169.93 451.221 173.54 451.941 177.67C451.98 177.895 452.091 178.101 452.258 178.258C452.425 178.414 452.639 178.511 452.866 178.535C453.094 178.559 453.323 178.508 453.519 178.389C453.714 178.271 453.866 178.092 453.951 177.88C454.711 175.946 455.901 174.323 457.521 173.01C457.605 172.943 457.706 172.9 457.813 172.885C457.92 172.871 458.028 172.885 458.127 172.927C458.227 172.969 458.313 173.037 458.377 173.123C458.441 173.21 458.48 173.312 458.491 173.42C458.498 173.44 458.451 173.583 458.351 173.85Z" fill="#A83F53"/>
<path d="M433.451 329.729C432.517 333.636 430.107 335.349 426.22 334.869C424.31 334.639 421.75 332.059 420.38 330.249C410.41 317.129 408.8 299.359 414.23 284.199C417.66 274.619 423.77 266.069 428.31 257.549C436.34 242.469 436.981 226.029 427.17 211.919C421.56 203.859 413.671 196.309 407.921 186.639C392.461 160.649 403.09 126.699 431.75 115.459C434.6 114.339 439.79 112.699 442.46 115.099C446.34 118.589 443.83 123.029 439.94 125.169C439.82 125.229 438.244 125.879 435.21 127.119C426.7 130.589 419.931 137.399 416.111 145.349C411.051 155.889 412.41 169.339 417.94 179.629C419.767 183.036 422.384 186.673 425.79 190.539C430.537 195.933 434.314 200.643 437.12 204.669C445.734 217.003 448.501 230.856 445.421 246.229C442.771 259.449 435.39 269.129 428.81 280.719C422.62 291.619 421.09 305.849 426.94 317.199C428.55 320.329 430.45 322.209 432.74 325.329C433.627 326.523 433.864 327.989 433.451 329.729Z" fill="#030102"/>
<path d="M377.231 323.92C380.811 327.18 380.271 332.24 375.821 334.18C368.611 337.33 360.781 325.3 358.651 319.93C353.684 307.397 355.094 295.717 362.881 284.89C369.291 275.98 373.931 269.76 374.651 259.61C375.891 242.29 362.361 235.79 352.721 224.73C344.471 215.25 342.081 203.46 345.501 191.25C346.681 187.06 350.391 180.7 355.221 180.36C360.951 179.95 363.991 184.29 361.161 189.65C360.907 190.137 360.077 191.203 358.671 192.85C352.001 200.66 357.701 213.4 364.191 219.14C369.677 224 373.554 227.673 375.821 230.16C392.701 248.69 389.301 272.21 374.271 290.48C367.431 298.79 365.361 308.9 371.581 318.15C373.011 320.29 374.861 321.77 377.231 323.92Z" fill="#030102"/>
<path d="M526.241 339.91L506.681 337C506.62 336.991 506.562 336.968 506.512 336.932C506.462 336.896 506.421 336.848 506.393 336.793C506.366 336.738 506.352 336.677 506.353 336.616C506.355 336.554 506.371 336.494 506.401 336.44C513.341 323.56 511.721 307.63 503.211 295.99C502.997 295.697 502.9 295.335 502.939 294.976C502.978 294.617 503.15 294.287 503.421 294.05C510.001 288.23 516.461 282.24 521.181 274.94C531.674 258.74 535.284 241.286 532.011 222.58C530.071 211.5 525.711 201.033 518.931 191.18C523.564 195.32 527.181 198.933 529.781 202.02C538.834 212.766 544.584 225.24 547.031 239.44C550.504 259.613 546.504 277.896 535.031 294.29C530.784 300.356 525.694 305.43 519.761 309.51C519.421 309.741 519.178 310.089 519.077 310.489C518.976 310.888 519.023 311.311 519.211 311.68C522.471 317.986 524.664 324.613 525.791 331.56C526.157 333.8 526.307 336.583 526.241 339.91Z" fill="#A83F53"/>
<path d="M483.311 315.219C486.111 319.199 482.691 324.719 477.971 324.569C473.531 324.419 469.841 319.109 468.081 315.469C462.021 302.909 461.964 290.406 467.911 277.959C468.497 276.733 470.214 274.169 473.061 270.269C476.951 264.929 482.091 260.989 486.461 255.979C494.391 246.889 497.031 236.049 492.431 224.889C489.457 217.663 484.871 212.336 478.671 208.909C474.581 206.639 471.091 204.239 473.191 199.499C474.791 195.869 478.331 194.439 481.861 196.219C492.941 201.799 501.421 212.399 504.961 224.339C508.494 236.239 506.947 247.496 500.321 258.109C497.691 262.319 493.721 266.519 489.161 270.939C484.621 275.346 481.701 278.593 480.401 280.679C474.901 289.506 474.264 298.553 478.491 307.819C479.781 310.659 481.391 312.489 483.311 315.219Z" fill="#030102"/>
<path d="M590.451 590.45C597.391 592.51 605.468 595.323 614.681 598.89C624.374 602.643 633.427 607.507 641.841 613.48C662.621 628.24 672.341 651.8 653.091 672.65C647.051 679.19 640.098 684.63 632.231 688.97C612.771 699.7 591.321 706.93 569.851 712.06C547.997 717.28 525.854 721.15 503.421 723.67C449.674 729.71 395.258 729.36 340.171 722.62C319.151 720.053 297.714 715.91 275.861 710.19C248.161 702.94 184.941 681.03 192.691 641.16C195.831 625 212.691 611.67 226.451 604.45C243.211 595.663 261.338 589.363 280.831 585.55C280.873 585.541 280.912 585.523 280.946 585.496C280.979 585.47 281.006 585.435 281.023 585.396C281.041 585.357 281.049 585.314 281.047 585.272C281.045 585.229 281.032 585.187 281.011 585.15C259.271 548.97 247.491 506.54 245.101 464.56C244.474 453.493 244.324 441.77 244.651 429.39C244.891 420.3 245.701 411.3 250.361 403.58C253.701 398.047 258.494 393.243 264.741 389.17C274.321 382.923 285.717 377.907 298.931 374.12C317.737 368.727 337.237 364.933 357.431 362.74C415.301 356.43 472.661 357.35 529.051 367.42C533.478 368.213 538.364 369.277 543.711 370.61C555.871 373.66 567.481 377.19 578.451 382.11C591.231 387.84 605.261 397.94 609.331 411.71C611.681 419.67 612.121 428.68 612.481 436.24C612.483 436.297 612.5 436.353 612.53 436.402C612.561 436.451 612.603 436.49 612.654 436.518C612.704 436.545 612.761 436.559 612.818 436.557C612.876 436.556 612.932 436.54 612.981 436.51C626.408 428.597 640.437 425.8 655.071 428.12C687.111 433.2 706.871 460.26 706.091 492.11C705.261 525.26 686.041 551.21 657.661 567.17C636.991 578.79 614.231 585.02 590.481 589.91C590.421 589.923 590.366 589.955 590.326 590.002C590.286 590.048 590.262 590.107 590.259 590.169C590.255 590.23 590.272 590.291 590.307 590.342C590.342 590.393 590.392 590.431 590.451 590.45ZM278.561 394.9C273.214 397.513 268.544 400.91 264.551 405.09C261.031 409.03 258.611 413.9 261.991 418.88C265.117 423.48 269.074 427.077 273.861 429.67C273.996 429.742 274.151 429.768 274.302 429.745C274.454 429.721 274.594 429.649 274.701 429.54C278.188 426 280.888 423.653 282.801 422.5C292.228 416.807 302.854 412.38 314.681 409.22C331.314 404.78 349.248 401.427 368.481 399.16C372.671 398.67 378.811 398.34 383.971 397.65C397.757 396.777 409.321 396.253 418.661 396.08C444.047 395.62 470.821 397.087 498.981 400.48C508.714 401.653 520.364 403.77 533.931 406.83C547.798 409.957 559.931 414.28 570.331 419.8C575.397 422.48 579.521 425.937 582.701 430.17C582.787 430.283 582.911 430.361 583.05 430.388C583.188 430.416 583.331 430.392 583.451 430.32C587.004 428.28 590.058 425.957 592.611 423.35C595.218 420.703 596.388 417.57 596.121 413.95C596.381 406.37 584.541 398.94 579.001 396.03C564.951 388.64 551.211 384.79 534.941 381.04C528.454 379.54 521.611 378.257 514.411 377.19C460.411 369.17 406.304 368.607 352.091 375.5C329.011 378.44 304.311 383.71 282.311 393.06C281.004 393.613 279.754 394.227 278.561 394.9ZM356.931 412C340.021 414.79 323.971 417.94 307.231 423.19C299.064 425.75 291.654 429.43 285.001 434.23C284.889 434.312 284.801 434.421 284.746 434.548C284.69 434.675 284.67 434.814 284.686 434.952C284.702 435.089 284.755 435.22 284.838 435.33C284.922 435.441 285.033 435.527 285.161 435.58C299.354 441.3 315.341 445.84 333.121 449.2C333.274 449.233 333.517 449.317 333.851 449.45C333.902 449.47 333.958 449.472 334.01 449.455C334.062 449.439 334.107 449.405 334.137 449.359C334.168 449.314 334.182 449.259 334.177 449.205C334.172 449.151 334.149 449.099 334.111 449.06C317.991 432.86 342.821 423.43 354.201 420.98C357.248 420.32 360.074 419.673 362.681 419.04C375.647 416.78 389.891 415.607 405.411 415.52C423.724 415.427 439.577 416.867 452.971 419.84C457.084 420.753 460.634 421.973 463.621 423.5C463.869 423.625 464.087 423.805 464.256 424.025C464.425 424.244 464.54 424.496 464.591 424.758C464.642 425.021 464.628 425.287 464.549 425.533C464.471 425.779 464.331 425.997 464.141 426.17C463.574 426.683 462.664 426.877 461.411 426.75C435.421 424.13 410.201 423.5 383.211 426.43C380.117 426.77 376.991 427.22 373.831 427.78C370.991 428.2 336.291 434.07 341.441 440.8C344.931 445.36 351.851 447.65 357.151 449.01C361.917 450.237 365.861 451.623 368.981 453.17C369.584 453.468 370.232 453.667 370.901 453.76C381.274 455.233 393.111 456.213 406.411 456.7C432.064 457.627 456.941 457.1 481.041 455.12C483.141 454.84 485.321 454.6 487.581 454.4C497.127 453.553 505.817 452.47 513.651 451.15C534.801 447.6 554.191 443.36 573.011 435.62C573.084 435.59 573.148 435.542 573.196 435.48C573.245 435.418 573.276 435.345 573.287 435.267C573.298 435.189 573.289 435.109 573.26 435.036C573.23 434.963 573.183 434.899 573.121 434.85C566.011 429.15 559.411 425.89 550.051 422.54C541.218 419.367 532.051 416.747 522.551 414.68C522.503 414.667 522.451 414.671 522.405 414.691C522.36 414.711 522.322 414.746 522.299 414.79C522.275 414.834 522.268 414.885 522.277 414.934C522.287 414.983 522.313 415.028 522.351 415.06C525.041 417.56 527.821 419.57 527.881 423.66C528.031 433.31 513.351 437.53 506.131 439.13C488.704 442.997 470.357 444.467 451.091 443.54C447.711 443.373 444.904 442.87 442.671 442.03C441.704 441.663 441.097 441.24 440.851 440.76C440.721 440.503 440.652 440.219 440.65 439.925C440.648 439.63 440.713 439.333 440.839 439.05C440.966 438.767 441.152 438.505 441.386 438.279C441.62 438.054 441.897 437.871 442.201 437.74C446.008 436.087 450.768 434.84 456.481 434C457.388 433.867 465.974 432.79 482.241 430.77C486.181 430.28 509.961 427.06 512.251 422.86C512.521 422.367 512.57 421.773 512.389 421.194C512.207 420.615 511.809 420.093 511.271 419.73C508.717 417.99 505.861 416.6 502.701 415.56C490.591 411.55 477.721 409.82 465.161 408.89C428.914 406.197 392.837 407.233 356.931 412ZM255.741 438.63C255.847 457.257 257.428 475.503 260.481 493.37C263.174 509.117 267.654 525.463 273.921 542.41C283.261 567.67 296.267 589.667 312.941 608.4C328.087 625.64 345.781 638.44 366.021 646.8C392.341 657.67 422.581 660.37 450.941 656.43C487.594 651.343 518.414 634.97 543.401 607.31C555.521 593.897 565.744 578.553 574.071 561.28C583.251 542.227 589.987 522.667 594.281 502.6C598.834 481.32 601.164 459.987 601.271 438.6L601.251 432.25C601.251 432.213 601.24 432.176 601.22 432.145C601.2 432.114 601.171 432.089 601.137 432.075C601.103 432.06 601.065 432.055 601.029 432.061C600.992 432.068 600.958 432.085 600.931 432.11C589.521 442.81 574.371 449.04 559.581 453.31C526.901 462.74 493.211 467.09 458.911 468.69C417.304 470.643 376.701 468.397 337.101 461.95C315.881 458.5 293.081 453.04 274.041 443.55C267.687 440.383 261.754 436.243 256.241 431.13C256.203 431.094 256.156 431.069 256.105 431.06C256.053 431.051 256 431.058 255.952 431.079C255.903 431.1 255.861 431.135 255.831 431.179C255.8 431.224 255.783 431.276 255.781 431.33L255.741 438.63ZM615.951 449.53L612.971 451.51C612.752 451.655 612.571 451.849 612.444 452.077C612.317 452.306 612.247 452.56 612.241 452.82C612.028 461.587 611.327 470.203 610.141 478.67C610.132 478.723 610.142 478.777 610.168 478.824C610.195 478.871 610.236 478.908 610.285 478.929C610.335 478.949 610.39 478.953 610.442 478.939C610.493 478.924 610.539 478.893 610.571 478.85C613.444 475.07 616.981 471.7 621.181 468.74C643.101 453.32 672.621 466.28 672.621 494.18C672.621 514.08 659.651 531.72 642.751 541.23C626.458 550.397 608.881 555.693 590.021 557.12C589.75 557.141 589.49 557.238 589.271 557.399C589.052 557.559 588.882 557.778 588.781 558.03C585.534 565.977 581.961 573.213 578.061 579.74C578.027 579.796 578.01 579.86 578.012 579.925C578.014 579.991 578.035 580.054 578.072 580.107C578.109 580.161 578.16 580.203 578.22 580.229C578.281 580.254 578.347 580.261 578.411 580.25C605.751 574.92 634.411 568.76 657.401 553.19C674.591 542.29 689.091 524.45 693.121 504.35C698.921 475.44 684.911 446.25 654.711 440.45C640.057 437.63 627.137 440.657 615.951 449.53ZM595.001 544.65C600.121 543.717 604.854 542.733 609.201 541.7C631.341 536.45 656.241 523.51 660.511 498.79C662.081 489.7 658.261 479.15 649.251 475.78C637.531 471.39 628.151 476.74 620.251 485.24C616.464 489.313 613.314 493.157 610.801 496.77C610.288 497.503 609.177 498.433 607.471 499.56C607.332 499.652 607.212 499.77 607.12 499.907C607.027 500.044 606.963 500.198 606.931 500.36C604.044 514.987 599.971 529.633 594.711 544.3C594.694 544.343 594.689 544.39 594.696 544.436C594.704 544.482 594.723 544.525 594.753 544.56C594.782 544.596 594.821 544.623 594.865 544.639C594.908 544.655 594.955 544.659 595.001 544.65ZM587.021 694.89C600.121 691.143 612.781 686.003 625.001 679.47C633.331 675.01 640.671 669.61 646.611 662.17C657.791 648.15 648.811 633.9 637.121 624.91C629.381 618.957 620.141 613.787 609.401 609.4C596.094 603.96 582.064 599.793 567.311 596.9C567.207 596.879 567.099 596.888 567.001 596.928C566.903 596.967 566.82 597.034 566.761 597.12C543.891 630.22 510.801 654.45 471.991 664.44C435.961 673.71 395.921 671.77 360.981 657.78C349.214 653.067 338.127 646.727 327.721 638.76C314.547 628.447 302.938 616.637 292.891 603.33L287.621 596.25C287.532 596.128 287.409 596.036 287.266 595.984C287.124 595.933 286.969 595.924 286.821 595.96C264.751 601.13 242.911 607.57 223.831 620.04C208.861 629.82 195.701 645.55 210.241 663.14C215.227 669.173 221.024 674.117 227.631 677.97C237.764 683.877 248.597 688.78 260.131 692.68C271.731 696.593 281.801 699.513 290.341 701.44C319.847 708.08 349.787 712.357 380.161 714.27C420.574 716.823 460.674 716.027 500.461 711.88C517.041 710.15 533.071 707.48 550.001 704.17C562.388 701.757 574.727 698.663 587.021 694.89Z" fill="#030102"/>
<path d="M596.121 413.949L595.901 415.689C595.886 415.805 595.842 415.915 595.772 416.009C595.702 416.102 595.609 416.176 595.502 416.223C595.395 416.269 595.278 416.287 595.162 416.274C595.046 416.261 594.935 416.218 594.841 416.149C589.141 412.009 583.661 406.949 577.021 403.649C570.981 400.649 566.024 398.493 562.151 397.179C545.797 391.639 528.634 387.616 510.661 385.109C471.727 379.689 432.577 378.049 393.211 380.189L376.311 380.659C370.497 380.446 365.611 380.492 361.651 380.799C341.677 382.352 321.651 386.256 301.571 392.509C297.864 393.669 292.487 395.929 285.441 399.289C287.314 397.442 289.761 395.919 292.781 394.719C300.467 391.679 305.451 389.846 307.731 389.219C321.164 385.532 328.647 383.479 330.181 383.059C330.349 383.016 330.498 382.918 330.603 382.78C330.708 382.642 330.764 382.473 330.761 382.299C330.754 381.746 330.587 381.323 330.261 381.029C330.127 380.904 329.963 380.817 329.786 380.775C329.609 380.732 329.424 380.738 329.251 380.789C325.071 382.009 320.381 382.209 316.511 383.229C305.061 386.269 295.421 388.699 284.601 393.309C282.887 394.036 280.874 394.566 278.561 394.899C279.754 394.226 281.004 393.613 282.311 393.059C304.311 383.709 329.011 378.439 352.091 375.499C406.304 368.606 460.411 369.169 514.411 377.189C521.611 378.256 528.454 379.539 534.941 381.039C551.211 384.789 564.951 388.639 579.001 396.029C584.541 398.939 596.381 406.369 596.121 413.949Z" fill="#EF939D"/>
<path d="M596.121 413.95C596.387 417.57 595.217 420.703 592.611 423.35C590.057 425.957 587.004 428.28 583.451 430.32C583.331 430.392 583.188 430.416 583.05 430.388C582.911 430.361 582.787 430.283 582.701 430.17C579.521 425.937 575.397 422.48 570.331 419.8C559.931 414.28 547.797 409.957 533.931 406.83C520.364 403.77 508.714 401.653 498.981 400.48C470.821 397.087 444.047 395.62 418.661 396.08C409.321 396.253 397.757 396.777 383.971 397.65L380.661 397.5C380.601 397.491 380.547 397.461 380.506 397.416C380.466 397.371 380.443 397.313 380.441 397.253C380.438 397.193 380.457 397.134 380.493 397.086C380.53 397.038 380.582 397.004 380.641 396.99L395.511 395.01C395.58 395.002 395.644 394.97 395.695 394.919C395.745 394.869 395.779 394.802 395.791 394.73C396.524 389.777 395.664 384.93 393.211 380.19C432.577 378.05 471.727 379.69 510.661 385.11C528.634 387.617 545.797 391.64 562.151 397.18C566.024 398.493 570.981 400.65 577.021 403.65C583.661 406.95 589.141 412.01 594.841 416.15C594.935 416.219 595.046 416.262 595.162 416.275C595.278 416.287 595.395 416.27 595.502 416.223C595.61 416.177 595.703 416.103 595.772 416.01C595.842 415.916 595.887 415.806 595.901 415.69L596.121 413.95Z" fill="#E65A70"/>
<path d="M393.211 380.189C395.664 384.929 396.524 389.776 395.791 394.729C395.779 394.802 395.745 394.868 395.694 394.919C395.644 394.969 395.579 395.001 395.511 395.009L380.641 396.989C380.582 397.003 380.53 397.037 380.493 397.085C380.457 397.133 380.438 397.192 380.441 397.253C380.443 397.313 380.466 397.371 380.506 397.416C380.546 397.461 380.601 397.49 380.661 397.499L383.971 397.649C378.811 398.339 372.671 398.669 368.481 399.159C349.247 401.426 331.314 404.779 314.681 409.219C302.854 412.379 292.227 416.806 282.801 422.499C280.887 423.653 278.187 425.999 274.701 429.539C274.593 429.649 274.454 429.721 274.302 429.744C274.151 429.767 273.996 429.741 273.861 429.669C269.074 427.076 265.117 423.479 261.991 418.879C258.611 413.899 261.031 409.029 264.551 405.089L274.651 398.719C274.956 398.529 275.307 398.424 275.666 398.417C276.026 398.41 276.38 398.501 276.691 398.679L278.681 399.829C278.856 399.932 279.002 400.078 279.102 400.255C279.203 400.432 279.255 400.632 279.253 400.835C279.251 401.039 279.195 401.238 279.091 401.412C278.987 401.587 278.838 401.731 278.661 401.829C276.281 403.163 274.201 405.086 272.421 407.599C270.447 409.559 269.574 411.743 269.801 414.149C269.816 414.302 269.871 414.448 269.96 414.574C270.049 414.7 270.17 414.802 270.311 414.869C271.397 415.376 272.404 415.269 273.331 414.549C282.711 407.239 293.991 402.889 305.691 399.429C325.844 393.463 347.417 389.203 370.411 386.649C371.744 386.503 373.837 386.089 376.691 385.409C379.381 384.779 379.901 381.359 376.311 380.659L393.211 380.189Z" fill="#B9465E"/>
<path d="M376.311 380.66C379.901 381.36 379.381 384.78 376.691 385.41C373.837 386.09 371.744 386.503 370.411 386.65C347.417 389.203 325.844 393.463 305.691 399.43C293.991 402.89 282.711 407.24 273.331 414.55C272.404 415.27 271.397 415.376 270.311 414.87C270.17 414.802 270.049 414.7 269.96 414.574C269.871 414.448 269.816 414.302 269.801 414.15C269.574 411.743 270.447 409.56 272.421 407.6C276.341 404.22 280.681 401.45 285.441 399.29C292.487 395.93 297.864 393.67 301.571 392.51C321.651 386.256 341.677 382.353 361.651 380.8C365.611 380.493 370.497 380.446 376.311 380.66Z" fill="#030102"/>
<path d="M285.441 399.29C280.681 401.45 276.341 404.22 272.421 407.6C274.201 405.087 276.281 403.163 278.661 401.83C278.839 401.731 278.987 401.587 279.091 401.413C279.195 401.238 279.251 401.039 279.253 400.836C279.255 400.632 279.203 400.432 279.103 400.256C279.002 400.079 278.857 399.932 278.681 399.83L276.691 398.68C276.38 398.501 276.026 398.411 275.667 398.418C275.307 398.425 274.956 398.529 274.651 398.72L264.551 405.09C268.544 400.91 273.214 397.513 278.561 394.9C280.874 394.567 282.887 394.037 284.601 393.31C295.421 388.7 305.061 386.27 316.511 383.23C320.381 382.21 325.071 382.01 329.251 380.79C329.425 380.738 329.609 380.733 329.786 380.775C329.964 380.817 330.127 380.905 330.261 381.03C330.587 381.323 330.754 381.747 330.761 382.3C330.764 382.473 330.708 382.643 330.603 382.781C330.498 382.919 330.349 383.017 330.181 383.06C328.647 383.48 321.164 385.533 307.731 389.22C305.451 389.847 300.467 391.68 292.781 394.72C289.761 395.92 287.314 397.443 285.441 399.29Z" fill="#E65A70"/>
<path d="M637.2 400.339C636.394 400.586 635.687 400.623 635.08 400.449C634.931 400.406 634.793 400.327 634.677 400.22C634.561 400.112 634.47 399.979 634.41 399.829C632.664 395.463 630.25 390.999 627.17 386.439C631.464 389.539 634.224 391.926 635.45 393.599C636.944 395.653 638.654 397.506 640.58 399.159C640.667 399.232 640.73 399.328 640.761 399.437C640.792 399.545 640.789 399.66 640.754 399.767C640.718 399.874 640.651 399.968 640.561 400.036C640.471 400.104 640.363 400.144 640.25 400.149L637.2 400.339Z" fill="#A83F53"/>
<path d="M481.041 455.119C479.741 454.166 477.954 453.503 475.681 453.129C460.751 450.669 449.131 448.519 434.421 446.749C420.961 445.136 408.871 443.186 398.151 440.899C392.197 439.626 388.244 438.586 386.291 437.779C379.761 435.109 376.711 433.399 373.831 427.779C376.991 427.219 380.117 426.769 383.211 426.429C410.201 423.499 435.421 424.129 461.411 426.749C462.664 426.876 463.574 426.683 464.141 426.169C464.331 425.997 464.471 425.778 464.549 425.532C464.628 425.286 464.642 425.02 464.591 424.758C464.54 424.495 464.425 424.243 464.256 424.024C464.087 423.805 463.869 423.625 463.621 423.499C460.634 421.973 457.084 420.753 452.971 419.839C439.577 416.866 423.724 415.426 405.411 415.519C389.891 415.606 375.647 416.779 362.681 419.039C361.081 416.279 359.164 413.933 356.931 411.999C392.837 407.233 428.914 406.196 465.161 408.889C477.721 409.819 490.591 411.549 502.701 415.559C505.861 416.599 508.717 417.989 511.271 419.729C511.809 420.092 512.207 420.614 512.389 421.193C512.57 421.772 512.521 422.367 512.251 422.859C509.961 427.059 486.181 430.279 482.241 430.769C465.974 432.789 457.387 433.866 456.481 433.999C450.767 434.839 446.007 436.086 442.201 437.739C441.897 437.87 441.62 438.053 441.386 438.279C441.151 438.504 440.965 438.766 440.839 439.049C440.712 439.332 440.648 439.63 440.65 439.924C440.652 440.218 440.721 440.502 440.851 440.759C441.097 441.239 441.704 441.663 442.671 442.029C444.904 442.869 447.711 443.373 451.091 443.539C470.357 444.466 488.704 442.996 506.131 439.129C513.351 437.529 528.031 433.309 527.881 423.659C527.821 419.569 525.041 417.559 522.351 415.059C522.313 415.027 522.287 414.982 522.277 414.933C522.268 414.884 522.275 414.833 522.298 414.789C522.322 414.745 522.359 414.71 522.405 414.69C522.451 414.67 522.502 414.666 522.551 414.679C532.051 416.746 541.217 419.366 550.051 422.539C559.411 425.889 566.011 429.149 573.121 434.849C573.182 434.898 573.23 434.962 573.259 435.035C573.289 435.108 573.298 435.188 573.287 435.266C573.276 435.344 573.245 435.417 573.196 435.479C573.148 435.541 573.084 435.59 573.011 435.619C554.191 443.359 534.801 447.599 513.651 451.149C505.817 452.469 497.127 453.553 487.581 454.399C485.321 454.599 483.141 454.839 481.041 455.119Z" fill="#A96749"/>
<path d="M356.931 412C359.164 413.933 361.081 416.28 362.681 419.04C360.074 419.673 357.247 420.32 354.201 420.98C342.821 423.43 317.991 432.86 334.111 449.06C334.149 449.099 334.172 449.151 334.177 449.205C334.182 449.259 334.168 449.314 334.137 449.359C334.107 449.405 334.062 449.439 334.01 449.455C333.958 449.472 333.902 449.47 333.851 449.45C333.517 449.317 333.274 449.233 333.121 449.2C315.341 445.84 299.354 441.3 285.161 435.58C285.033 435.527 284.922 435.441 284.838 435.33C284.755 435.22 284.702 435.089 284.686 434.952C284.67 434.814 284.69 434.675 284.746 434.548C284.801 434.421 284.889 434.312 285.001 434.23C291.654 429.43 299.064 425.75 307.231 423.19C323.971 417.94 340.021 414.79 356.931 412Z" fill="#7A4834"/>
<path d="M373.831 427.779C376.711 433.399 379.761 435.109 386.291 437.779C388.244 438.586 392.197 439.626 398.151 440.899C408.871 443.186 420.961 445.136 434.421 446.749C449.131 448.519 460.751 450.669 475.681 453.129C477.954 453.503 479.741 454.166 481.041 455.119C456.941 457.099 432.064 457.626 406.411 456.699C393.111 456.213 381.274 455.233 370.901 453.759C370.232 453.667 369.584 453.467 368.981 453.169C365.861 451.623 361.918 450.236 357.151 449.009C351.851 447.649 344.931 445.359 341.441 440.799C336.291 434.069 370.991 428.199 373.831 427.779Z" fill="#7A4834"/>
<path d="M601.271 438.599C594.924 445.679 586.981 451.283 577.441 455.409C565.561 460.549 553.824 464.566 542.231 467.459C537.871 468.553 531.101 469.953 521.921 471.659C505.571 474.099 490.181 476.399 472.921 477.649C440.094 480.036 406.737 479.706 372.851 476.659C364.797 475.933 355.854 474.799 346.021 473.259C326.191 470.139 308.331 466.359 292.951 460.779C285.464 458.059 280.097 455.856 276.851 454.169C269.964 450.596 265.284 447.619 262.811 445.239C260.591 443.106 258.234 440.903 255.741 438.629L255.781 431.329C255.783 431.276 255.8 431.223 255.831 431.179C255.861 431.134 255.903 431.099 255.951 431.078C256 431.057 256.053 431.051 256.105 431.06C256.156 431.069 256.203 431.093 256.241 431.129C261.754 436.243 267.687 440.383 274.041 443.549C293.081 453.039 315.881 458.499 337.101 461.949C376.701 468.396 417.304 470.643 458.911 468.689C493.211 467.089 526.901 462.739 559.581 453.309C574.371 449.039 589.521 442.809 600.931 432.109C600.958 432.084 600.992 432.067 601.028 432.061C601.065 432.054 601.103 432.059 601.137 432.074C601.171 432.089 601.2 432.113 601.22 432.145C601.24 432.176 601.251 432.212 601.251 432.249L601.271 438.599Z" fill="#EF939D"/>
<path d="M192.541 700.549C200.794 707.423 208.611 712.756 215.991 716.549C235.371 726.496 256.007 734.113 277.901 739.399C298.567 744.386 318.611 748.086 338.031 750.499C389.291 756.859 441.001 757.709 493.161 753.049C518.521 750.783 543.704 746.829 568.711 741.189C587.964 736.843 606.014 731.226 622.861 724.339C628.127 722.186 635.187 718.659 644.041 713.759C659.281 705.319 674.481 692.569 683.131 676.869C691.117 662.369 692.547 647.039 687.421 630.879C682.881 616.579 674.111 605.949 662.841 596.749C662.752 596.678 662.684 596.585 662.64 596.48C662.597 596.375 662.581 596.261 662.593 596.147C662.604 596.033 662.644 595.924 662.708 595.828C662.773 595.733 662.859 595.654 662.961 595.6C666.621 593.66 670.457 591.449 674.471 588.969C710.971 566.459 734.681 530.419 732.711 486.389C731.891 467.956 726.097 451.149 715.331 435.969C715.737 435.463 716.454 435.736 717.481 436.789C720.827 440.196 724.067 443.696 727.201 447.289C730.694 451.303 733.474 455.163 735.541 458.869C738.061 463.389 740.221 467.769 742.021 472.009C746.414 482.383 748.771 493.746 749.091 506.099C749.657 527.846 744.214 547.646 732.761 565.499C720.111 585.229 701.621 601.219 680.861 612.109C680.715 612.185 680.587 612.293 680.488 612.424C680.389 612.555 680.321 612.707 680.288 612.868C680.256 613.029 680.26 613.196 680.3 613.355C680.34 613.515 680.415 613.663 680.521 613.79C683.007 616.743 685.717 619.773 688.651 622.879C689.411 623.686 691.677 626.866 695.451 632.42C710.551 654.67 709.281 682.809 692.571 703.609C685.211 712.763 676.514 720.553 666.481 726.979C656.021 733.689 645.111 739.409 633.501 743.819C614.181 751.153 596.644 756.489 580.891 759.829C568.751 762.403 559.507 764.246 553.161 765.359C545.567 766.699 538.664 767.729 532.451 768.449C521.891 769.679 512.991 770.959 503.331 771.519C489.031 772.359 478.141 773.439 465.411 773.549C446.404 773.716 428.654 773.479 412.161 772.839C401.731 772.439 393.521 771.549 383.011 770.959C380.791 770.839 376.911 770.486 371.371 769.899C348.944 767.513 327.457 764.019 306.911 759.419C279.721 753.339 253.271 744.789 229.141 731.649C215.027 723.969 202.691 713.979 192.131 701.679C192.125 701.668 192.123 701.656 192.126 701.643C192.128 701.631 192.134 701.62 192.142 701.611C192.151 701.602 192.162 701.597 192.175 701.594C192.187 701.592 192.199 701.594 192.211 701.599C192.337 701.706 192.287 701.673 192.061 701.499C191.994 701.45 191.942 701.384 191.911 701.307C191.88 701.23 191.871 701.146 191.884 701.065C191.898 700.983 191.934 700.907 191.988 700.844C192.042 700.781 192.112 700.735 192.191 700.709C192.297 700.669 192.414 700.616 192.541 700.549Z" fill="#A83F53"/>
<path d="M601.27 438.6C601.164 459.986 598.834 481.32 594.28 502.6C589.987 522.666 583.25 542.226 574.07 561.28C565.744 578.553 555.52 593.896 543.4 607.31C518.414 634.97 487.594 651.343 450.94 656.43C422.58 660.37 392.34 657.67 366.02 646.8C345.78 638.44 328.087 625.64 312.94 608.4C318.567 610.413 323.86 613.086 328.82 616.42C329.372 616.785 329.959 617.087 330.57 617.32C333.35 618.38 336.87 619.753 341.13 621.44C346.717 623.646 353.27 625.45 360.79 626.85C367.424 628.09 374.2 628.606 381.12 628.4C391.974 628.08 402.484 626.4 412.65 623.36C436.63 616.193 457.504 603.33 475.27 584.77C482.497 577.216 487.654 571.13 490.74 566.51C495.04 560.063 499.36 552.606 503.7 544.14C507.88 535.973 511.117 528.003 513.41 520.23C517.437 506.583 520.004 492.97 521.11 479.39C521.317 476.85 521.587 474.273 521.92 471.66C531.1 469.953 537.87 468.553 542.23 467.46C553.824 464.566 565.56 460.55 577.44 455.41C586.98 451.283 594.924 445.68 601.27 438.6ZM576.1 486.22C572.46 486.65 571.32 489.76 570.69 493.28C565.05 524.73 554.33 553.7 535.08 579.26C532.32 582.93 530.03 590 536.74 591.01C540.63 591.6 543.95 587.12 545.95 584.41C563.94 559.95 575.57 531.27 580.63 501.64C581.36 497.35 584.15 485.25 576.1 486.22ZM526.67 603.7C527.4 597.22 519.51 600.74 517.37 602.38C507.57 609.866 497.827 616.336 488.14 621.79C483.67 624.31 484.15 632.36 490.32 632.29C491.407 632.276 493.234 631.683 495.8 630.51C506.607 625.57 515.854 618.75 523.54 610.05C525.394 607.95 526.437 605.833 526.67 603.7Z" fill="#B9465E"/>
<path d="M521.921 471.66C521.587 474.273 521.317 476.85 521.111 479.39C520.004 492.97 517.437 506.583 513.411 520.23C511.117 528.003 507.881 535.973 503.701 544.14C499.361 552.607 495.041 560.063 490.741 566.51C487.654 571.13 482.497 577.217 475.271 584.77C457.504 603.33 436.631 616.193 412.651 623.36C402.484 626.4 391.974 628.08 381.121 628.4C374.201 628.607 367.424 628.09 360.791 626.85C353.271 625.45 346.717 623.647 341.131 621.44C336.871 619.753 333.351 618.38 330.571 617.32C329.959 617.087 329.372 616.785 328.821 616.42C323.861 613.087 318.567 610.413 312.941 608.4C296.267 589.667 283.261 567.67 273.921 542.41C267.654 525.463 263.174 509.117 260.481 493.37C257.427 475.503 255.847 457.257 255.741 438.63C258.234 440.903 260.591 443.107 262.811 445.24C265.284 447.62 269.964 450.597 276.851 454.17C280.097 455.857 285.464 458.06 292.951 460.78C308.331 466.36 326.191 470.14 346.021 473.26C355.854 474.8 364.797 475.933 372.851 476.66C406.737 479.707 440.094 480.037 472.921 477.65C490.181 476.4 505.571 474.1 521.921 471.66ZM281.831 475.77C274.771 478.96 276.211 489.98 277.161 496.65C281.301 525.443 291.554 551.82 307.921 575.78C312.331 582.22 327.501 602.22 336.691 597.18C341.591 594.5 340.781 586.98 337.871 582.94C337.184 581.98 334.861 578.803 330.901 573.41C322.294 561.663 315.611 549.77 310.851 537.73C306.417 526.523 303.107 515.087 300.921 503.42C299.587 496.287 298.677 491.697 298.191 489.65C296.211 481.31 292.881 474.54 283.251 475.4C282.761 475.44 282.281 475.565 281.831 475.77Z" fill="#E65A70"/>
<path d="M657.401 553.19C657.254 553.256 657.101 553.28 656.941 553.26C656.858 553.25 656.78 553.215 656.718 553.159C656.656 553.103 656.614 553.029 656.596 552.947C656.578 552.865 656.587 552.78 656.62 552.704C656.653 552.627 656.709 552.563 656.781 552.52C657.814 551.886 658.697 551.196 659.431 550.45C666.324 543.41 672.241 534.91 677.181 524.95C687.241 504.68 688.031 476.98 670.881 460.18C667.661 457.026 663.107 454.096 657.221 451.39C652.941 449.423 647.697 448.126 641.491 447.5C635.031 446.853 629.334 446.623 624.401 446.81C621.827 446.91 619.467 447.833 617.321 449.58C617.133 449.735 616.9 449.82 616.661 449.82C616.254 449.826 616.017 449.73 615.951 449.53C627.137 440.656 640.057 437.63 654.711 440.45C684.911 446.25 698.921 475.44 693.121 504.35C689.091 524.45 674.591 542.29 657.401 553.19Z" fill="#E65A70"/>
<path d="M657.401 553.19C634.411 568.76 605.751 574.92 578.411 580.25C578.347 580.261 578.28 580.254 578.22 580.228C578.16 580.203 578.109 580.161 578.072 580.107C578.035 580.054 578.014 579.99 578.012 579.925C578.01 579.86 578.027 579.796 578.061 579.74C581.961 573.213 585.534 565.976 588.781 558.03C588.882 557.778 589.052 557.559 589.271 557.398C589.49 557.238 589.75 557.141 590.021 557.12C608.881 555.693 626.457 550.397 642.751 541.23C659.651 531.72 672.621 514.08 672.621 494.18C672.621 466.28 643.101 453.32 621.181 468.74C616.981 471.7 613.444 475.07 610.571 478.85C610.539 478.893 610.493 478.924 610.442 478.938C610.39 478.953 610.335 478.949 610.285 478.928C610.236 478.908 610.194 478.871 610.168 478.824C610.142 478.777 610.132 478.723 610.141 478.67C611.327 470.203 612.027 461.586 612.241 452.82C612.247 452.56 612.317 452.305 612.444 452.077C612.571 451.849 612.752 451.654 612.971 451.51L615.951 449.53C616.017 449.73 616.254 449.826 616.661 449.82C616.9 449.82 617.133 449.735 617.321 449.58C619.467 447.833 621.827 446.91 624.401 446.81C629.334 446.623 635.031 446.853 641.491 447.5C647.697 448.126 652.941 449.423 657.221 451.39C663.107 454.096 667.661 457.026 670.881 460.18C688.031 476.98 687.241 504.68 677.181 524.95C672.241 534.91 666.324 543.41 659.431 550.45C658.697 551.196 657.814 551.886 656.781 552.52C656.709 552.563 656.653 552.627 656.62 552.704C656.587 552.78 656.578 552.865 656.596 552.947C656.614 553.029 656.656 553.103 656.718 553.159C656.78 553.215 656.858 553.25 656.941 553.26C657.101 553.28 657.254 553.256 657.401 553.19Z" fill="#B9465E"/>
<path d="M595.001 544.65C594.955 544.658 594.908 544.654 594.864 544.639C594.821 544.623 594.782 544.596 594.753 544.56C594.723 544.524 594.704 544.481 594.696 544.436C594.689 544.39 594.694 544.343 594.711 544.3C599.971 529.633 604.044 514.986 606.931 500.36C606.963 500.198 607.027 500.044 607.119 499.907C607.212 499.769 607.332 499.651 607.471 499.56C609.177 498.433 610.287 497.503 610.801 496.77C613.314 493.156 616.464 489.313 620.251 485.24C628.151 476.74 637.531 471.39 649.251 475.78C658.261 479.15 662.081 489.7 660.511 498.79C656.241 523.51 631.341 536.45 609.201 541.7C604.854 542.733 600.121 543.716 595.001 544.65Z" fill="#FDFCFD"/>
<path d="M283.251 475.4C292.881 474.54 296.211 481.31 298.191 489.65C298.677 491.697 299.587 496.287 300.921 503.42C303.107 515.087 306.417 526.523 310.851 537.73C315.611 549.77 322.294 561.663 330.901 573.41C334.861 578.803 337.184 581.98 337.871 582.94C340.781 586.98 341.591 594.5 336.691 597.18C327.501 602.22 312.331 582.22 307.921 575.78C291.554 551.82 281.301 525.443 277.161 496.65C276.211 489.98 274.771 478.96 281.831 475.77C282.28 475.565 282.761 475.44 283.251 475.4Z" fill="#FDFCFD"/>
<path d="M576.101 486.22C584.151 485.25 581.361 497.35 580.631 501.64C575.571 531.27 563.941 559.95 545.951 584.41C543.951 587.12 540.631 591.6 536.741 591.01C530.031 590 532.321 582.93 535.081 579.26C554.331 553.7 565.051 524.73 570.691 493.28C571.321 489.76 572.461 486.65 576.101 486.22Z" fill="#030102"/>
<path d="M292.891 603.329C291.091 603.629 289.421 603.923 287.881 604.209C274.967 606.563 262.161 610.629 249.461 616.409C239.761 620.829 229.581 627.599 223.771 636.529C217.241 646.569 220.571 656.569 228.911 664.149C233.004 667.863 236.877 670.743 240.531 672.789C261.631 684.579 284.791 691.479 308.951 696.289C333.571 701.196 358.561 704.319 383.921 705.659C394.661 706.229 405.451 706.879 416.211 706.819C444.531 707.979 472.831 707.656 501.111 705.849C509.711 705.299 517.811 704.169 526.211 703.309C540.601 701.839 554.701 699.279 569.891 696.719C573.044 696.186 575.887 695.803 578.421 695.569C581.241 695.303 584.107 695.076 587.021 694.889C574.727 698.663 562.387 701.756 550.001 704.169C533.071 707.479 517.041 710.149 500.461 711.879C460.674 716.026 420.574 716.823 380.161 714.269C349.787 712.356 319.847 708.079 290.341 701.439C281.801 699.513 271.731 696.593 260.131 692.679C248.597 688.779 237.764 683.876 227.631 677.969C221.024 674.116 215.227 669.173 210.241 663.139C195.701 645.549 208.861 629.819 223.831 620.039C242.911 607.569 264.751 601.129 286.821 595.959C286.969 595.923 287.124 595.932 287.266 595.984C287.409 596.035 287.532 596.128 287.621 596.249L292.891 603.329Z" fill="#EF939D"/>
<path d="M587.021 694.89C584.107 695.076 581.241 695.303 578.421 695.57C575.887 695.803 573.044 696.186 569.891 696.72C554.701 699.28 540.601 701.84 526.211 703.31C517.811 704.17 509.711 705.3 501.111 705.85C472.831 707.656 444.531 707.98 416.211 706.82C415.384 703.573 415.454 700.256 416.421 696.87C442.981 697.39 469.477 695.98 495.911 692.64C515.157 690.206 533.181 686.56 549.981 681.7C561.727 678.3 572.347 674.086 581.841 669.06C589.391 665.07 598.551 658.42 601.351 650.27C603.904 642.823 602.347 636.016 596.681 629.85C590.034 622.63 581.361 618.36 570.661 617.04C569.667 616.92 568.867 617.253 568.261 618.04C568.115 618.228 568.014 618.447 567.966 618.68C567.918 618.914 567.923 619.157 567.981 619.391C568.04 619.624 568.15 619.843 568.304 620.032C568.458 620.22 568.651 620.373 568.871 620.48C569.931 621 571.874 621.876 574.701 623.11C583.651 627.03 599.311 637 592.331 649.08C588.511 655.68 580.631 660.45 573.781 663.33C562.467 668.083 551.247 671.67 540.121 674.09C527.847 676.756 519.087 678.49 513.841 679.29C484.721 683.743 454.824 685.836 424.151 685.57C422.571 684.13 420.117 683.586 416.791 683.94C416.544 683.96 416.294 683.96 416.041 683.94C397.561 682.266 379.194 678.753 360.941 673.4C351.421 670.606 342.981 666.556 335.621 661.25C331.047 657.95 327.891 654.41 326.151 650.63C324.071 646.123 324.594 642.166 327.721 638.76C338.127 646.726 349.214 653.066 360.981 657.78C395.921 671.77 435.961 673.71 471.991 664.44C510.801 654.45 543.891 630.22 566.761 597.12C566.819 597.033 566.903 596.966 567.001 596.927C567.099 596.888 567.207 596.878 567.311 596.9C582.064 599.793 596.094 603.96 609.401 609.4C620.141 613.786 629.381 618.956 637.121 624.91C648.811 633.9 657.791 648.15 646.611 662.17C640.671 669.61 633.331 675.01 625.001 679.47C612.781 686.003 600.121 691.143 587.021 694.89Z" fill="#B9465E"/>
<path d="M517.371 602.38C519.511 600.74 527.401 597.22 526.671 603.7C526.437 605.833 525.394 607.95 523.541 610.05C515.854 618.75 506.607 625.57 495.801 630.51C493.234 631.683 491.407 632.277 490.321 632.29C484.151 632.36 483.671 624.31 488.141 621.79C497.827 616.337 507.571 609.867 517.371 602.38Z" fill="#030102"/>
<path d="M327.721 638.76C324.594 642.167 324.071 646.123 326.151 650.63C327.891 654.41 331.047 657.95 335.621 661.25C342.981 666.557 351.421 670.607 360.941 673.4C379.194 678.753 397.561 682.267 416.041 683.94C416.294 683.96 416.544 683.96 416.791 683.94C420.117 683.587 422.571 684.13 424.151 685.57C405.851 685.29 389.231 684.59 374.291 683.47C351.084 681.73 326.257 677.533 299.811 670.88C297.504 670.3 295.504 670.12 293.811 670.34C293.212 670.417 292.657 670.678 292.229 671.082C291.802 671.486 291.525 672.012 291.441 672.58C290.391 679.64 320.291 686.38 326.251 687.59C355.931 693.59 385.987 696.683 416.421 696.87C415.454 700.257 415.384 703.573 416.211 706.82C405.451 706.88 394.661 706.23 383.921 705.66C358.561 704.32 333.571 701.197 308.951 696.29C284.791 691.48 261.631 684.58 240.531 672.79C236.877 670.743 233.004 667.863 228.911 664.15C220.571 656.57 217.241 646.57 223.771 636.53C229.581 627.6 239.761 620.83 249.461 616.41C262.161 610.63 274.967 606.563 287.881 604.21C289.421 603.923 291.091 603.63 292.891 603.33C302.937 616.637 314.547 628.447 327.721 638.76ZM283.671 619.68C283.247 619.086 282.656 618.632 281.972 618.375C281.288 618.119 280.542 618.072 279.831 618.24C270.251 620.513 262.981 625.29 258.021 632.57C249.751 644.71 257.961 657.89 269.521 663.78C272.061 665.073 273.934 664.513 275.141 662.1C275.373 661.633 275.445 661.102 275.343 660.59C275.242 660.077 274.974 659.613 274.581 659.27C268.021 653.54 259.021 646.46 264.121 636.47C266.694 631.423 272.941 626.88 282.861 622.84C283.144 622.724 283.397 622.545 283.602 622.317C283.806 622.089 283.956 621.817 284.041 621.523C284.126 621.229 284.143 620.919 284.091 620.617C284.039 620.315 283.919 620.029 283.741 619.78L283.671 619.68Z" fill="#E65A70"/>
<path d="M416.421 696.869C385.987 696.683 355.931 693.589 326.251 687.589C320.291 686.379 290.391 679.639 291.441 672.579C291.524 672.012 291.801 671.486 292.229 671.081C292.657 670.677 293.212 670.417 293.811 670.339C295.504 670.119 297.504 670.299 299.811 670.879C326.257 677.533 351.084 681.729 374.291 683.469C389.231 684.589 405.851 685.289 424.151 685.569C454.824 685.836 484.721 683.743 513.841 679.289C519.087 678.489 527.847 676.756 540.121 674.089C551.247 671.669 562.467 668.083 573.781 663.329C580.631 660.449 588.511 655.679 592.331 649.079C599.311 636.999 583.651 627.029 574.701 623.109C571.874 621.876 569.931 620.999 568.871 620.479C568.651 620.373 568.458 620.22 568.304 620.031C568.15 619.843 568.04 619.624 567.981 619.39C567.923 619.157 567.918 618.914 567.966 618.68C568.014 618.447 568.115 618.228 568.261 618.039C568.867 617.253 569.667 616.919 570.661 617.039C581.361 618.359 590.034 622.629 596.681 629.849C602.347 636.016 603.904 642.823 601.351 650.269C598.551 658.419 589.391 665.069 581.841 669.059C572.347 674.086 561.727 678.299 549.981 681.699C533.181 686.559 515.157 690.206 495.911 692.639C469.477 695.979 442.981 697.389 416.421 696.869Z" fill="#030102"/>
<path d="M283.671 619.68L283.741 619.78C283.919 620.029 284.039 620.315 284.091 620.617C284.143 620.919 284.126 621.228 284.041 621.523C283.957 621.817 283.807 622.088 283.602 622.317C283.398 622.545 283.144 622.723 282.861 622.84C272.941 626.88 266.694 631.423 264.121 636.47C259.021 646.46 268.021 653.54 274.581 659.27C274.974 659.613 275.242 660.077 275.344 660.589C275.445 661.101 275.374 661.632 275.141 662.1C273.934 664.513 272.061 665.073 269.521 663.78C257.961 657.89 249.751 644.71 258.021 632.57C262.981 625.29 270.251 620.513 279.831 618.24C280.543 618.071 281.288 618.118 281.972 618.375C282.656 618.631 283.247 619.086 283.671 619.68Z" fill="#030102"/>
</g>
<defs>
<filter id="filter0_d_13_411" x="0" y="0" width="893.409" height="868.688" filterUnits="userSpaceOnUse" color-interpolation-filters="sRGB">
<feFlood flood-opacity="0" result="BackgroundImageFix"/>
<feColorMatrix in="SourceAlpha" type="matrix" values="0 0 0 0 0 0 0 0 0 0 0 0 0 0 0 0 0 0 127 0" result="hardAlpha"/>
<feOffset dy="4"/>
<feGaussianBlur stdDeviation="2"/>
<feComposite in2="hardAlpha" operator="out"/>
<feColorMatrix type="matrix" values="0 0 0 0 0 0 0 0 0 0 0 0 0 0 0 0 0 0 0.25 0"/>
<feBlend mode="normal" in2="BackgroundImageFix" result="effect1_dropShadow_13_411"/>
<feBlend mode="normal" in="SourceGraphic" in2="effect1_dropShadow_13_411" result="shape"/>
</filter>
</defs>
</svg>
