<svg width="1773" height="1773" viewBox="0 0 1773 1773" fill="none" xmlns="http://www.w3.org/2000/svg">
<g filter="url(#filter0_d_13_433)">
<path d="M973.4 1150.49C976.4 1150.97 978.43 1151.3 979.49 1151.49C990.39 1153.44 1000.77 1155.42 1010.62 1157.43C1028.21 1161.03 1044.01 1163.1 1058.02 1163.64C1067.35 1164 1075.91 1163.6 1083.71 1162.45C1094.41 1160.86 1105.43 1157.71 1116.76 1153C1124.01 1149.99 1132.53 1146.2 1142.32 1141.64C1150.97 1137.6 1157.49 1135.09 1161.9 1134.12C1172.89 1131.68 1185.91 1131.4 1197.14 1134.85C1215.55 1140.51 1230.92 1151.82 1244.55 1165.15C1248.65 1169.16 1259.2 1179.7 1276.19 1196.76C1279.9 1200.49 1283.28 1203.63 1286.31 1206.19C1291.94 1210.94 1295.5 1213.88 1296.99 1215.01C1308.24 1223.54 1320.7 1230.25 1334.36 1235.12C1338.93 1236.75 1343.81 1237.95 1348.98 1238.72C1369.89 1241.85 1390.81 1241.84 1411.74 1238.68C1443.95 1233.82 1474.44 1224.65 1503.21 1211.17C1508.9 1208.5 1516.67 1204.62 1526.54 1199.51C1538.31 1193.41 1548.75 1186.94 1557.86 1180.11C1569.61 1171.28 1576.74 1165.82 1579.23 1163.72C1590.57 1154.17 1601.87 1142.33 1613.14 1128.19C1619.94 1119.66 1625.76 1110.21 1630.79 1101.3C1635.94 1092.19 1639.25 1085.41 1640.72 1080.96C1644.82 1068.55 1647.19 1061.19 1647.84 1058.87C1651.41 1046.1 1653.33 1033.06 1653.61 1019.76C1654.28 987.707 1646.89 957.807 1631.44 930.06C1627.55 923.087 1621.07 913.85 1611.98 902.35C1606.06 894.86 1598.87 888.21 1591.55 881.55C1590.14 880.264 1574.09 867.23 1543.4 842.45C1530.81 832.27 1521.24 822.71 1512 810.17C1501.32 795.67 1495.14 779.38 1491.31 761.29C1489.82 754.277 1489.12 745.71 1489.19 735.59C1489.26 724.424 1489.69 715.814 1490.47 709.76C1492.84 691.214 1494.5 673.214 1495.43 655.76C1496.14 642.467 1495.39 629.717 1493.19 617.51C1491.44 607.777 1489.94 600.707 1488.69 596.3C1486.91 590.04 1484.46 583.487 1481.33 576.64C1473.73 560.02 1463.93 544.65 1451.82 530.85C1447.21 525.59 1444.02 522.024 1442.27 520.15C1435.24 512.63 1425.98 505.08 1415.9 496.97C1412.63 494.33 1409.01 491.757 1405.05 489.25C1392.35 481.21 1385.61 476.56 1374.48 470.65C1364.7 465.45 1353.67 460.084 1341.4 454.55C1331.41 450.044 1321.85 446.34 1312.7 443.44C1302.14 440.094 1292.29 437.24 1283.14 434.88C1277.88 433.52 1271 432.23 1262.49 431.01C1244.17 428.39 1223.67 429.07 1205.46 434.53C1199.07 436.45 1194.4 438.014 1191.46 439.22C1174.99 445.98 1159.95 456.16 1147.81 469.16C1142.54 474.814 1138.62 479.444 1136.06 483.05C1132.72 487.77 1129.05 493.367 1125.05 499.84C1122.18 504.494 1119.05 510.407 1115.68 517.58C1110.01 529.66 1104 543.787 1097.67 559.96C1094.22 568.767 1089.5 577.937 1083.49 587.47C1079.33 594.07 1075.01 599.337 1070.54 603.27C1059.14 613.29 1044.5 619.93 1028.77 620.04C1020.12 620.107 1013.46 619.577 1008.78 618.45C998.273 615.917 987.167 611.867 975.46 606.3C954.26 596.227 936.247 588.247 921.42 582.36C908.287 577.154 894.44 573.08 879.88 570.14C865.853 567.307 853.383 565.347 842.47 564.26C836.897 563.7 828.243 563.34 816.51 563.18C797.82 562.93 785.85 562.99 770.99 562.15C759.39 561.497 752.887 561.09 751.48 560.93C721.987 557.524 697.65 553.727 678.47 549.54C653.743 544.134 634.51 540.11 620.77 537.47C598.34 533.16 574.31 531.65 552.01 535.01C548.043 535.61 542.723 536.787 536.05 538.54C530.59 539.98 525.36 541.834 520.36 544.1C508.687 549.394 498.35 554.967 489.35 560.82C483.23 564.8 474.75 569.89 467.68 573.36C460.4 576.94 456.1 579.5 450.2 581.8C442.893 584.66 435.51 586.897 428.05 588.51C416.57 590.99 404.78 591.08 393.5 590.05C372.81 588.18 349.29 585.24 326.25 584.73C310.39 584.377 295.3 585.567 280.98 588.3C267.31 590.9 253.88 594.23 241.15 599.35C236.58 601.19 233.24 603.13 229.2 604.84C226.873 605.827 223.967 607.364 220.48 609.45C207.26 617.36 196.66 624.02 188.94 630.71C183.333 635.57 175.877 643.557 166.57 654.67C162.057 660.05 157.737 666.094 153.61 672.8C147.63 682.52 143.843 688.917 142.25 691.99C131.99 711.824 124.937 734.18 121.09 759.06C120.13 765.274 119.373 771.17 118.82 776.75C116.793 797.277 117.46 817.38 120.82 837.06C121.34 840.114 122.003 843.254 122.81 846.48C124.93 854.99 126.22 861.64 129.24 869.67C132.86 879.33 135.09 885.127 135.93 887.06C138.817 893.767 143.547 902.74 150.12 913.98C154.22 920.987 159.623 928.87 166.33 937.63C174.043 947.704 179.42 955.1 182.46 959.82C189.147 970.194 194.727 980.43 199.2 990.53C202.727 998.484 206.013 1008.2 209.06 1019.69C210.78 1026.19 212.08 1033.49 212.96 1041.6C215.35 1063.55 216.14 1087.43 217.78 1107.25C219.387 1126.55 222.747 1145.42 227.86 1163.87C231 1175.21 234.503 1185.02 238.37 1193.31C248.9 1215.88 264.57 1238.73 282.6 1255.39C292.553 1264.58 303.783 1273.18 316.29 1281.19C319.357 1283.15 323.397 1285.4 328.41 1287.93C335.18 1291.34 345.74 1297.34 355.09 1300.37C367.617 1304.44 374.973 1306.76 377.16 1307.33C389.43 1310.53 403.93 1313.22 417.14 1313.61C428.947 1313.96 439.46 1313.34 448.68 1311.77C465.14 1308.96 481.563 1303 497.95 1293.9C510.04 1287.19 522.62 1278.5 532.26 1271.77C552.89 1257.35 575.24 1244.66 599.94 1237.17C612.673 1233.31 623.783 1230.66 633.27 1229.22C645.303 1227.4 652.213 1226.3 654 1225.91C673.767 1221.6 686.553 1218.49 692.36 1216.57C704.847 1212.46 715.737 1208.52 725.03 1204.76C735.81 1200.4 742.043 1197.9 743.73 1197.25C762.94 1189.86 781.48 1180.89 800.83 1173.88C811.85 1169.89 817.8 1167.74 818.68 1167.44C826.7 1164.69 836.113 1161.73 846.92 1158.57C857.407 1155.5 866.977 1153.16 875.63 1151.54C907.637 1145.53 940.227 1145.18 973.4 1150.49Z" stroke="#FED9BF" stroke-width="2"/>
<path d="M1375.27 1027.94C1378.29 1018.45 1379.93 1011.89 1380.2 1008.26C1380.73 1001.03 1380.82 995.244 1380.46 990.91C1378.87 971.744 1370.82 955.72 1356.31 942.84C1351.38 938.46 1345.76 935.014 1339.46 932.5C1339.33 932.447 1339.21 932.352 1339.14 932.23C1339.07 932.107 1339.04 931.963 1339.05 931.82C1339.07 931.677 1339.13 931.542 1339.23 931.435C1339.33 931.329 1339.46 931.257 1339.6 931.23C1348.01 929.784 1355.44 926.25 1361.9 920.63C1364.93 917.997 1367.5 915.57 1369.63 913.35C1370.01 912.958 1370.35 912.529 1370.65 912.07C1375.14 905.204 1378.45 898.88 1380.6 893.1C1382.84 887.06 1385.4 878.95 1388.28 868.77C1388.5 868.004 1388.87 866.137 1389.39 863.17C1389.69 861.444 1391.97 852.394 1396.22 836.02C1398.48 827.347 1400.67 818.27 1402.8 808.79C1406.47 792.437 1409.17 780.084 1410.9 771.73C1414.02 756.63 1417.12 742.89 1419.6 731.1C1421.84 720.43 1423.4 711.47 1426.1 698.68C1427.17 693.654 1429.14 681.644 1432.01 662.65C1434.55 645.86 1435.78 630.26 1434.49 615.51C1433.46 603.877 1430.27 592.567 1424.9 581.58C1421.91 575.46 1419.62 571.267 1418.03 569C1405.88 551.6 1388.41 538.57 1367.85 533.52C1358.34 531.187 1348.47 530.444 1338.24 531.29C1320.2 532.79 1304.7 539.37 1291.74 551.03C1285.45 556.68 1278.77 564.08 1274.74 571.71C1270.63 579.497 1267.4 588.504 1265.03 598.73C1263.18 606.75 1261.22 620.014 1259.17 638.52C1257.8 650.927 1256.62 668.67 1255.63 691.75C1254.17 725.73 1253.78 763.074 1254.47 803.78C1254.8 823.287 1255.59 840.534 1256.86 855.52C1257.49 863 1258.23 868.99 1259.09 873.49C1261.43 885.79 1264.87 897.78 1271.33 907.26C1275.07 912.74 1279.98 917.724 1286.05 922.21C1287.47 923.26 1288.72 923.76 1290.49 924.46C1290.55 924.483 1290.59 924.524 1290.63 924.576C1290.66 924.628 1290.67 924.689 1290.67 924.75C1290.67 924.811 1290.64 924.869 1290.6 924.916C1290.56 924.962 1290.51 924.996 1290.45 925.01C1268.5 930.68 1248.43 943.98 1239.36 965.42C1237.03 970.94 1235.25 976.497 1234.04 982.09C1231.28 994.83 1233.42 1011.52 1237.47 1023.56C1243.32 1040.93 1254.21 1054.26 1270.16 1063.56C1287.74 1073.81 1307.14 1076.08 1328.37 1070.38C1331.84 1069.45 1337.35 1066.92 1344.9 1062.79C1347.31 1061.47 1349.36 1060.04 1351.05 1058.51C1353.74 1056.07 1357.94 1053.22 1361.12 1049.69C1362.93 1047.68 1364.17 1046.15 1364.86 1045.11C1367.25 1041.44 1369.42 1038.12 1371.36 1035.13C1372.35 1033.6 1372.97 1032.57 1373.2 1032.02C1373.85 1030.47 1374.43 1029.34 1374.92 1028.65C1375.07 1028.43 1375.19 1028.19 1375.27 1027.94Z" stroke="#7F5D54" stroke-width="2"/>
<path d="M501.61 783.92C500.96 782.2 498.78 779.64 497.53 777.35C487.66 759.22 470.86 741.32 448.25 742.51C433.083 743.31 420.603 749.403 410.81 760.79C407.043 765.177 403.287 771 399.54 778.26C397.59 782.05 396.85 786.14 395.2 790.57C392.86 796.85 391.47 805.09 390.34 811.24C390.325 811.314 390.288 811.381 390.235 811.435C390.181 811.488 390.114 811.525 390.041 811.54C389.968 811.555 389.893 811.548 389.825 811.519C389.757 811.491 389.7 811.442 389.66 811.38C389.407 810.993 389.23 810.573 389.13 810.12C387.25 801.13 383.95 791.11 382.18 783.44C378.68 768.22 372.81 750.3 367.93 735.56C364.95 726.553 361.847 718.65 358.62 711.85C352.907 699.79 344.563 689.887 333.59 682.14C313.53 667.97 284.83 667.48 263.08 678.17C256.927 681.197 251.953 684.117 248.16 686.93C233.83 697.54 222 714.14 217.8 731.78C216.387 737.733 215.587 742.023 215.4 744.65C214.34 759.583 215.093 772.937 217.66 784.71C221.22 801.097 226.487 820.593 233.46 843.2C236.04 851.59 238.76 858.61 241.12 866.21C243.98 875.42 249.04 888.23 251.84 897.54C253.12 901.773 254.773 906.457 256.8 911.59C260.26 920.343 264.113 931.117 268.36 943.91C269.167 946.35 271.463 952.213 275.25 961.5C280.03 973.21 282.96 983.27 287.74 994.24C288.227 995.353 290.237 1000.34 293.77 1009.2C304.477 1036.03 310.49 1050.95 311.81 1053.95C316.343 1064.3 319.517 1071.9 321.33 1076.75C323.803 1083.38 326.69 1090.07 329.99 1096.83C334.25 1105.55 338.4 1116.25 343.08 1125.98C350.86 1142.12 359.18 1157.72 368.97 1172.32C370.45 1174.53 372.35 1176.19 373.71 1178.22C382.91 1191.98 395.807 1201.65 412.4 1207.23C416.487 1208.61 419.703 1209.44 422.05 1209.72C423.83 1209.94 428.04 1209.98 434.68 1209.84C434.911 1209.83 435.139 1209.78 435.35 1209.69C436.437 1209.22 438.013 1208.97 440.08 1208.94C440.339 1208.93 440.591 1208.89 440.83 1208.81L450.19 1205.61C450.383 1205.54 450.567 1205.46 450.74 1205.35C452.98 1204 454.8 1203 456.2 1202.34C458.247 1201.38 460.09 1200.25 461.73 1198.94C468.303 1193.69 472.92 1189.07 475.58 1185.08C480.107 1178.3 483.563 1171.76 485.95 1165.47C487.39 1161.67 489.113 1156.04 491.12 1148.59C493.58 1139.46 495.3 1127.6 497.1 1119.4C497.153 1119.15 497.27 1118.98 497.45 1118.91C497.797 1118.78 498.017 1118.88 498.11 1119.23C498.657 1121.19 499.427 1122.97 500.42 1124.56C501.413 1126.16 503.82 1130.01 507.64 1136.11C512.31 1143.57 517.4 1149.88 522.57 1155.67C530.19 1164.18 539.123 1170.31 549.37 1174.06C562.61 1178.91 576.96 1177.99 590.47 1173.11C592.463 1172.4 594.803 1171.22 597.49 1169.57C600.497 1167.74 602.737 1166.36 604.21 1165.45C608.65 1162.7 613.04 1158.6 617.38 1153.15C625.653 1142.77 631.223 1130.6 634.09 1116.65C637.137 1101.84 639.117 1087.8 640.03 1074.51C640.417 1068.89 641.247 1051.14 642.52 1021.25C642.72 1016.58 642.673 1013.23 642.38 1011.19C642.374 1011.14 642.381 1011.1 642.402 1011.06C642.423 1011.02 642.457 1010.98 642.497 1010.96C642.538 1010.94 642.584 1010.93 642.63 1010.94C642.675 1010.95 642.717 1010.97 642.75 1011C643.123 1011.37 643.38 1011.78 643.52 1012.23C645.19 1017.46 646.68 1021.56 649.48 1027.16C654.053 1036.31 656.827 1041.82 657.8 1043.69C660.047 1047.98 664.207 1054.58 670.28 1063.49C678.547 1075.62 689.417 1086.58 702.89 1096.39C713.717 1104.28 725.07 1109.76 736.95 1112.83C743.397 1114.5 749.827 1115.48 756.24 1115.79C763.527 1116.14 770.027 1115.91 775.74 1115.08C803.707 1111.03 826.98 1098.36 845.56 1077.08C845.64 1076.99 847.333 1074.96 850.64 1071.01C852.347 1068.97 853.933 1066.86 855.4 1064.69C859.373 1058.82 861.487 1055.66 861.74 1055.23C870.753 1039.5 877.627 1022.87 882.36 1005.36C882.867 1003.49 884.177 997.52 886.29 987.44C886.87 984.69 886.82 982.35 886.81 979.91C886.803 979.834 886.825 979.759 886.871 979.699C886.917 979.639 886.984 979.598 887.059 979.586C887.133 979.573 887.21 979.589 887.273 979.631C887.337 979.672 887.382 979.736 887.4 979.81C891.207 990.597 895.07 1000.05 898.99 1008.17C902.78 1016.03 905.92 1024.33 909.46 1030.84C913.053 1037.45 917.247 1044.01 922.04 1050.5C929.84 1061.07 939.26 1069.59 950.19 1076.29C960.01 1082.3 973.58 1085.12 984.88 1084.95C986.58 1084.92 987.78 1084.87 988.48 1084.78C990.633 1084.52 991.833 1084.39 992.08 1084.39C994.02 1084.36 995.793 1084.15 997.4 1083.74C1005.72 1081.65 1013.14 1078.13 1019.67 1073.18C1030.6 1064.9 1039.06 1053.75 1044.94 1041.46C1048.81 1033.37 1052.26 1025.82 1053.35 1018.8C1053.36 1018.75 1053.39 1018.69 1053.42 1018.66C1053.46 1018.62 1053.51 1018.59 1053.57 1018.58C1053.62 1018.57 1053.68 1018.58 1053.73 1018.6C1053.78 1018.62 1053.82 1018.66 1053.85 1018.71C1057.57 1025.75 1061.8 1032.57 1066.55 1039.17C1071.33 1045.82 1076.53 1051.37 1082.16 1055.82C1096.95 1067.53 1113.98 1071.81 1133.26 1068.66C1140.83 1067.43 1148.39 1064.51 1155.93 1059.92C1166.32 1053.59 1174.71 1046.12 1181.12 1037.5C1182.17 1036.1 1182.73 1034.85 1183.79 1033.86C1183.98 1033.69 1184.13 1033.5 1184.26 1033.29C1188.62 1025.94 1192.44 1018.18 1195.73 1010.02C1198.43 1003.33 1200.04 999.103 1200.57 997.35C1203.95 986.07 1207.1 977.31 1210.13 964.92C1218.42 930.94 1225.41 896.527 1231.11 861.68C1234.34 841.947 1236.67 825.303 1238.1 811.75C1240.16 792.25 1241.36 771.92 1241.69 750.76C1241.91 736.74 1240.73 723.673 1238.15 711.56C1234.52 694.513 1226.19 679.913 1213.14 667.76C1209.76 664.62 1203.99 660.98 1200.65 659.57C1180.74 651.21 1159.33 652.83 1140.72 664.26C1127.53 672.373 1117.8 684.037 1111.52 699.25C1107.35 709.363 1104.24 718.857 1102.19 727.73C1101.82 729.31 1100.76 734.59 1099.01 743.57C1098.02 748.623 1097.19 753.943 1096.5 759.53C1095.33 769.09 1093.81 780.38 1091.95 793.4C1091.8 794.44 1091.94 795.58 1091.78 796.66C1091.77 796.744 1091.73 796.823 1091.67 796.884C1091.62 796.946 1091.54 796.986 1091.45 797.001C1091.37 797.015 1091.28 797.003 1091.2 796.965C1091.13 796.927 1091.06 796.866 1091.02 796.79C1089.53 793.997 1088.32 791.763 1087.39 790.09C1075.21 768.06 1055.77 753.93 1029.8 758.71C1013.98 761.62 1000.34 774.38 992.67 788.26C991.96 789.54 991.76 791.07 991.27 792.27C991.244 792.338 991.196 792.394 991.134 792.431C991.072 792.468 990.999 792.483 990.927 792.474C990.854 792.465 990.786 792.432 990.733 792.381C990.679 792.329 990.643 792.263 990.63 792.19C989.323 783.637 987.22 774.293 984.32 764.16C979.29 746.55 972.95 730.54 961.72 718.03C950.71 705.75 933.94 698.36 917.23 699.07C915.703 699.13 914.723 699.203 914.29 699.29C911.66 699.8 909.33 699.73 906.91 700.29C890.05 704.22 875.92 713.26 866.2 727.96C859.33 738.35 854.94 748.33 853.19 759.63C852.523 763.95 852.143 766.887 852.05 768.44C852.03 768.813 851.747 772.917 851.2 780.75C850.813 786.37 850.757 791.813 851.03 797.08C851.032 797.132 851.016 797.183 850.986 797.226C850.956 797.269 850.913 797.3 850.863 797.316C850.813 797.332 850.76 797.331 850.71 797.314C850.661 797.296 850.619 797.263 850.59 797.22C846.23 789.92 842.66 786.03 835.4 777.43C819.94 759.11 800.8 745.86 778.15 738.82C753.17 731.05 727.99 735.27 705.31 746.93C686.21 756.75 671.04 772.88 659.88 791.39C659.127 792.643 658.397 794.18 657.69 796C657.664 796.068 657.616 796.125 657.552 796.16C657.489 796.196 657.416 796.208 657.344 796.195C657.273 796.182 657.208 796.145 657.162 796.089C657.115 796.033 657.09 795.963 657.09 795.89C657.05 793.43 656.93 788.43 657.21 785.05C658.277 771.703 659.267 758.437 660.18 745.25C661.387 727.837 661.587 710.423 660.78 693.01C660.16 679.69 658.023 666.977 654.37 654.87C651.957 646.87 648.067 638.61 642.7 630.09C638.75 623.83 633.61 618.84 627.99 614.12C615.71 603.78 598.39 599.77 582.16 601C558.95 602.76 535.27 617.72 524.1 638.44C520.327 645.427 517.823 650.723 516.59 654.33C512.997 664.823 510.247 676.473 508.34 689.28C506.847 699.307 505.16 716.167 503.28 739.86C502.23 753.1 502.72 765.11 502.25 778.5C502.15 781.433 502.04 783.23 501.92 783.89C501.915 783.926 501.898 783.959 501.872 783.984C501.846 784.009 501.813 784.024 501.777 784.028C501.741 784.031 501.705 784.022 501.675 784.003C501.644 783.983 501.622 783.954 501.61 783.92Z" stroke="#7F5D54" stroke-width="2"/>
<path d="M1399.16 655.13C1401.02 642.44 1402.64 627.41 1401.93 614C1401.27 601.43 1396.8 587.63 1388.17 578.07C1373.69 562.03 1355.87 555.77 1334.7 559.29C1330.03 560.07 1324.87 562.37 1320.88 564.15C1304.47 571.49 1295.18 588.65 1291.56 606.02C1288.39 621.233 1286.23 635.477 1285.1 648.75C1281.41 691.95 1280.95 735.04 1280.49 787.25C1280.39 798.39 1280.71 814.807 1281.44 836.5C1281.78 846.58 1282.67 856.623 1284.12 866.63C1285.1 873.383 1286.43 878.537 1288.11 882.09C1290.74 887.61 1293.76 892.02 1297.17 895.32C1298.8 896.907 1300.97 898.55 1303.68 900.25C1311.2 904.983 1319.38 906.213 1328.21 903.94C1345.88 899.37 1351.57 879.36 1355.76 863.75C1356.75 860.063 1359.87 846.143 1365.12 821.99C1365.86 818.6 1366.8 815.91 1367.32 812.73C1367.7 810.39 1368.16 808.053 1368.71 805.72C1372.16 791.06 1375.79 774.453 1379.61 755.9C1380.2 753.01 1381.82 748.52 1382.45 745.08C1383.4 739.86 1384.57 734.33 1385.94 728.49C1386.24 727.19 1386.24 725.43 1386.59 723.78C1388.11 716.5 1389.29 711.033 1390.14 707.38C1391.12 703.18 1392.09 696.06 1393.26 690.8C1394.56 684.993 1396.53 673.103 1399.16 655.13Z" stroke="#7F8080" stroke-width="2"/>
<path d="M1306.98 947.796C1295.08 947.276 1283.44 951.817 1274.63 960.418C1265.83 969.019 1260.57 980.977 1260.01 993.661C1259.46 1006.34 1263.66 1018.72 1271.68 1028.05C1279.71 1037.39 1290.9 1042.93 1302.8 1043.44C1314.7 1043.96 1326.34 1039.42 1335.15 1030.82C1343.95 1022.22 1349.21 1010.26 1349.77 997.58C1350.32 984.896 1346.12 972.525 1338.1 963.189C1330.08 953.853 1318.88 948.316 1306.98 947.796Z" stroke="#7F8080" stroke-width="2"/>
<path d="M619.55 904.64C621.037 882.1 622.097 863.803 622.73 849.75C623.297 837.27 623.867 824.773 624.44 812.26C625.02 799.753 625.767 787.26 626.68 774.78C628.133 755 629.16 739.737 629.76 728.99C630.147 722.07 630.273 712.243 630.14 699.51C630.013 687.143 628.553 675.307 625.76 664C623.9 656.473 621.13 650.1 617.45 644.88C606.2 628.91 588.25 623.48 570.08 631.6C559.553 636.307 551.667 643.587 546.42 653.44C541.553 662.593 537.977 673.483 535.69 686.11C533.057 700.657 531.31 716.203 530.45 732.75C528.12 777.53 528.55 830.79 528.06 869.5C527.96 877.567 527.5 885.707 526.68 893.92C526.42 896.507 525.77 898.913 524.73 901.14C524.505 901.628 524.121 902.022 523.648 902.248C523.176 902.474 522.647 902.517 522.16 902.37C518.68 901.32 514.82 890.92 513.47 886.99C507.037 868.25 501.767 853.493 497.66 842.72C494.813 835.247 492.46 828.9 490.6 823.68C485.947 810.567 480.283 798.143 473.61 786.41C471.157 782.103 467.373 777.867 462.26 773.7C455.9 768.52 445.65 767.27 438.44 771.42C435.033 773.38 432.667 775.1 431.34 776.58C422.41 786.53 418.09 802.2 415.92 815.73C414.673 823.497 414.047 827.427 414.04 827.52C410.427 860.62 408.19 883.697 407.33 896.75C406.423 910.483 405.49 921.65 404.53 930.25C404 934.89 403.57 940.9 399.31 943.5C399.172 943.584 399.011 943.621 398.85 943.605C398.689 943.588 398.538 943.52 398.42 943.41C396.527 941.643 395.247 939.887 394.58 938.14C391.967 931.313 389.593 923.943 387.46 916.03C382.493 897.557 377.607 879.077 372.8 860.59C369.11 846.37 365.91 831.21 361.84 816.28C357.49 800.35 351.95 778.2 348.48 765.74C344.98 753.18 341.093 741.483 336.82 730.65C331.53 717.23 320.61 703.23 306.38 699.63C293.793 696.45 281.837 698.033 270.51 704.38C257.363 711.747 248.733 723.227 244.62 738.82C243.66 742.467 243.077 746.08 242.87 749.66C242.19 761.433 243.113 772.993 245.64 784.34C248.513 797.24 251.34 808.433 254.12 817.92C258.26 832.02 260.87 841.5 264.56 852.28C268.05 862.45 269.97 870 273.41 878.81C276.85 887.63 280.9 901.07 284.81 910.91C285.73 913.23 290.23 925.423 298.31 947.49C302.663 959.37 306.893 970.493 311 980.86C318.687 1000.26 323.117 1011.3 324.29 1013.99C330.58 1028.4 337.27 1046.19 343.99 1061.07C348.057 1070.09 350.78 1076.34 352.16 1079.81C356.05 1089.57 360.36 1097.97 365.38 1109.12C370.967 1121.52 377.4 1133.69 384.68 1145.64C389.34 1153.29 394.19 1159.63 400.06 1166.46C407.89 1175.57 419.16 1181.23 431.33 1179.39C444.7 1177.37 453.63 1164.52 457.49 1152.78C461.097 1141.81 464.127 1128.92 466.58 1114.12C466.867 1112.39 467.653 1106.52 468.94 1096.49C469.067 1095.51 471.173 1076.93 475.26 1040.75C475.56 1038.08 476.263 1035.38 477.37 1032.64C478.3 1030.32 481.3 1029.72 482.56 1032.23C484.607 1036.31 485.757 1038.63 486.01 1039.18C490.623 1049.23 497.427 1063.53 506.42 1082.09C511.89 1093.38 518.21 1104.54 524.72 1114.69C528.813 1121.07 532.2 1125.86 534.88 1129.06C537.087 1131.69 540.423 1134.91 544.89 1138.73C553.117 1145.77 562.31 1148.32 572.47 1146.38C584.78 1144.04 593.77 1133.36 598.4 1122.42C601.847 1114.29 604.213 1106.28 605.5 1098.37C607.03 1088.95 608 1083.71 608.8 1075.16C610.907 1052.54 612.323 1035.4 613.05 1023.75C614.243 1004.57 616.333 966.32 619.32 909C619.473 906.147 619.55 904.693 619.55 904.64Z" stroke="#7F8080" stroke-width="2"/>
<path d="M983.29 894.62C982.623 894.787 982.143 894.553 981.85 893.92C980.25 890.5 978.877 886.447 977.73 881.76C976.457 876.547 974.943 868.56 973.19 857.8C970.63 842.153 969.35 834.32 969.35 834.3C969.043 831.593 966.11 815.9 960.55 787.22C959.043 779.473 956.937 771.03 954.23 761.89C952.223 755.15 949.007 748.59 944.58 742.21C937.92 732.623 929.137 727.603 918.23 727.15C894.54 726.17 881.64 751.28 878.82 771.04C876.713 785.813 876.247 800.743 877.42 815.83C878.36 827.877 879.37 837.623 880.45 845.07C881.463 852.083 884.19 866.847 888.63 889.36C890.64 899.53 893.41 911.81 895.53 919.23C902.403 943.283 906.927 958.357 909.1 964.45C917.22 987.22 925.44 1006.29 937.49 1025.26C946.41 1039.29 960.99 1054.47 978.15 1055.34C989.77 1055.93 1001.32 1048.96 1008.42 1039.92C1012.49 1034.74 1015.87 1029.53 1018.55 1024.29C1022.52 1016.53 1028.13 1003.71 1031.88 992.96C1035.62 982.24 1038.76 973.017 1041.29 965.29C1041.98 963.163 1042.72 961.16 1043.51 959.28C1044.42 957.09 1045.73 954.59 1048.55 955.5C1050.12 956 1051.31 957.007 1052.14 958.52C1054.71 963.26 1058.56 971.273 1063.71 982.56C1065.92 987.407 1069.59 994.31 1074.72 1003.27C1081.21 1014.61 1087.98 1023.5 1095.03 1029.95C1104.58 1038.68 1116.42 1040.65 1128.8 1037.86C1138.12 1035.76 1147.04 1028.17 1152.66 1020.63C1158.95 1012.19 1164.12 1002.54 1168.16 991.68C1169.83 987.18 1172.2 980.43 1173.62 974.62C1174.39 971.46 1175.84 967.69 1176.68 963.98C1177.34 961.12 1177.67 958.82 1178.59 956.03C1180.57 950.02 1181.27 943.99 1182.94 938.4C1184.31 933.8 1184.85 928.48 1186.39 923.09C1187.68 918.57 1188.6 914.423 1189.15 910.65C1189.48 908.403 1189.88 906.453 1190.35 904.8C1191.74 899.92 1192.01 895.26 1193.25 890.15C1195.18 882.157 1196.84 873.187 1198.25 863.24C1199.61 853.593 1201.01 844.583 1202.46 836.21C1203.75 828.77 1205.09 818.95 1206.49 806.75C1207.82 795.15 1209.06 780.79 1210.23 763.67C1211.15 750.09 1210.87 739.14 1210.16 727C1209.91 722.733 1209.03 717.563 1207.53 711.49C1204.44 698.99 1197.05 686.41 1183.99 682.5C1177.69 680.62 1171.38 680.477 1165.06 682.07C1157.14 684.06 1147.83 690.73 1143.07 697.3C1138.53 703.553 1135.09 710.537 1132.76 718.25C1128.67 731.803 1125.58 745.22 1123.5 758.5C1119.83 781.96 1116.67 805.37 1114.02 828.73C1112.39 843.09 1109.88 861.32 1108.18 870.72C1107.06 876.927 1105.92 881.36 1104.77 884.02C1103.82 886.22 1100.91 889.18 1098.71 886.02C1096.15 882.36 1093.33 876.08 1091.37 870.9C1085.02 854.133 1079.27 838.96 1074.13 825.38C1067.49 807.84 1051.54 774.03 1026.48 789.48C1015.8 796.06 1010.99 809.3 1007.23 820.94C1001.41 838.927 995.96 857.39 990.88 876.33C989.1 882.98 987.98 888.85 984 893.99C983.707 894.37 983.47 894.58 983.29 894.62Z" stroke="#7F8080" stroke-width="2"/>
<path d="M730.64 1079.57C765.86 1096.97 804.74 1079.83 826.52 1050.29C835.02 1038.77 841.64 1026.64 846.38 1013.91C859.4 978.95 862.96 939.84 858.32 902.83C856.68 889.71 853.593 875.474 849.06 860.12C844.42 844.38 837.28 828.7 828.93 814.83C821.33 802.21 811.91 791.31 800.47 782.17C795.01 777.804 791.913 775.374 791.18 774.88C786.287 771.554 780.927 768.744 775.1 766.45C742.01 753.42 710.12 769.06 688.99 794.61C684.19 800.41 678.43 809.63 675.04 815.8C669.64 825.614 665.37 836.167 662.23 847.46C659.297 858.014 657.203 867.75 655.95 876.67C654.317 888.317 653.387 901.314 653.16 915.66C653.08 920.434 653.307 925.987 653.84 932.32C654.7 942.667 655.187 948.207 655.3 948.94C657.827 964.967 661.05 979.104 664.97 991.35C669.223 1004.64 674.93 1017.8 682.09 1030.81C685.41 1036.84 690.59 1043.59 694.61 1049.11C704.203 1062.28 716.213 1072.44 730.64 1079.57Z" stroke="#7F8080" stroke-width="2"/>
<path d="M761.83 991.171C763.11 992.021 765.4 991.921 766.41 991.391C772.24 988.311 775.33 980.481 776.58 974.021C780.2 955.281 778 937.204 769.98 919.791C767.647 914.717 764.467 910.811 760.44 908.071C756.55 905.421 751.36 907.121 748.5 910.891C743.28 917.771 741.56 927.071 741.41 935.541C741.163 949.114 743.837 962.017 749.43 974.251C752.83 981.691 755.63 987.041 761.83 991.171Z" stroke="#7F8080" stroke-width="2"/>
<path d="M973.4 1150.49C940.227 1145.18 907.637 1145.53 875.63 1151.54C866.977 1153.16 857.407 1155.5 846.92 1158.57C836.113 1161.73 826.7 1164.69 818.68 1167.44C817.8 1167.74 811.85 1169.89 800.83 1173.88C781.48 1180.89 762.94 1189.86 743.73 1197.25C742.043 1197.9 735.81 1200.4 725.03 1204.76C715.737 1208.52 704.847 1212.46 692.36 1216.57C686.553 1218.49 673.767 1221.6 654 1225.91C652.213 1226.3 645.303 1227.4 633.27 1229.22C623.783 1230.66 612.673 1233.31 599.94 1237.17C575.24 1244.66 552.89 1257.35 532.26 1271.77C522.62 1278.5 510.04 1287.19 497.95 1293.9C481.563 1303 465.14 1308.96 448.68 1311.77C439.46 1313.34 428.947 1313.96 417.14 1313.61C403.93 1313.22 389.43 1310.53 377.16 1307.33C374.973 1306.76 367.617 1304.44 355.09 1300.37C345.74 1297.34 335.18 1291.34 328.41 1287.93C323.397 1285.4 319.357 1283.15 316.29 1281.19C303.783 1273.18 292.553 1264.58 282.6 1255.39C264.57 1238.73 248.9 1215.88 238.37 1193.31C234.503 1185.02 231 1175.21 227.86 1163.87C222.747 1145.42 219.387 1126.55 217.78 1107.25C216.14 1087.43 215.35 1063.55 212.96 1041.6C212.08 1033.49 210.78 1026.19 209.06 1019.69C206.013 1008.2 202.727 998.484 199.2 990.53C194.727 980.43 189.147 970.194 182.46 959.82C179.42 955.1 174.043 947.704 166.33 937.63C159.623 928.87 154.22 920.987 150.12 913.98C143.547 902.74 138.817 893.767 135.93 887.06C135.09 885.127 132.86 879.33 129.24 869.67C126.22 861.64 124.93 854.99 122.81 846.48C122.003 843.254 121.34 840.114 120.82 837.06C117.46 817.38 116.793 797.277 118.82 776.75C119.373 771.17 120.13 765.274 121.09 759.06C124.937 734.18 131.99 711.824 142.25 691.99C143.843 688.917 147.63 682.52 153.61 672.8C157.737 666.094 162.057 660.05 166.57 654.67C175.877 643.557 183.333 635.57 188.94 630.71C196.66 624.02 207.26 617.36 220.48 609.45C223.967 607.364 226.873 605.827 229.2 604.84C233.24 603.13 236.58 601.19 241.15 599.35C253.88 594.23 267.31 590.9 280.98 588.3C295.3 585.567 310.39 584.377 326.25 584.73C349.29 585.24 372.81 588.18 393.5 590.05C404.78 591.08 416.57 590.99 428.05 588.51C435.51 586.897 442.893 584.66 450.2 581.8C456.1 579.5 460.4 576.94 467.68 573.36C474.75 569.89 483.23 564.8 489.35 560.82C498.35 554.967 508.687 549.394 520.36 544.1C525.36 541.834 530.59 539.98 536.05 538.54C542.723 536.787 548.043 535.61 552.01 535.01C574.31 531.65 598.34 533.16 620.77 537.47C634.51 540.11 653.743 544.134 678.47 549.54C697.65 553.727 721.987 557.524 751.48 560.93C752.887 561.09 759.39 561.497 770.99 562.15C785.85 562.99 797.82 562.93 816.51 563.18C828.243 563.34 836.897 563.7 842.47 564.26C853.383 565.347 865.853 567.307 879.88 570.14C894.44 573.08 908.287 577.154 921.42 582.36C936.247 588.247 954.26 596.227 975.46 606.3C987.167 611.867 998.273 615.917 1008.78 618.45C1013.46 619.577 1020.12 620.107 1028.77 620.04C1044.5 619.93 1059.14 613.29 1070.54 603.27C1075.01 599.337 1079.33 594.07 1083.49 587.47C1089.5 577.937 1094.22 568.767 1097.67 559.96C1104 543.787 1110.01 529.66 1115.68 517.58C1119.05 510.407 1122.18 504.494 1125.05 499.84C1129.05 493.367 1132.72 487.77 1136.06 483.05C1138.62 479.444 1142.54 474.814 1147.81 469.16C1159.95 456.16 1174.99 445.98 1191.46 439.22C1194.4 438.014 1199.07 436.45 1205.46 434.53C1223.67 429.07 1244.17 428.39 1262.49 431.01C1271 432.23 1277.88 433.52 1283.14 434.88C1292.29 437.24 1302.14 440.094 1312.7 443.44C1321.85 446.34 1331.41 450.044 1341.4 454.55C1353.67 460.084 1364.7 465.45 1374.48 470.65C1385.61 476.56 1392.35 481.21 1405.05 489.25C1409.01 491.757 1412.63 494.33 1415.9 496.97C1425.98 505.08 1435.24 512.63 1442.27 520.15C1444.02 522.024 1447.21 525.59 1451.82 530.85C1463.93 544.65 1473.73 560.02 1481.33 576.64C1484.46 583.487 1486.91 590.04 1488.69 596.3C1489.94 600.707 1491.44 607.777 1493.19 617.51C1495.39 629.717 1496.14 642.467 1495.43 655.76C1494.5 673.214 1492.84 691.214 1490.47 709.76C1489.69 715.814 1489.26 724.424 1489.19 735.59C1489.12 745.71 1489.82 754.277 1491.31 761.29C1495.14 779.38 1501.32 795.67 1512 810.17C1521.24 822.71 1530.81 832.27 1543.4 842.45C1574.09 867.23 1590.14 880.264 1591.55 881.55C1598.87 888.21 1606.06 894.86 1611.98 902.35C1621.07 913.85 1627.55 923.087 1631.44 930.06C1646.89 957.807 1654.28 987.707 1653.61 1019.76C1653.33 1033.06 1651.41 1046.1 1647.84 1058.87C1647.19 1061.19 1644.82 1068.55 1640.72 1080.96C1639.25 1085.41 1635.94 1092.19 1630.79 1101.3C1625.76 1110.21 1619.94 1119.66 1613.14 1128.19C1601.87 1142.33 1590.57 1154.17 1579.23 1163.72C1576.74 1165.82 1569.61 1171.28 1557.86 1180.11C1548.75 1186.94 1538.31 1193.41 1526.54 1199.51C1516.67 1204.62 1508.9 1208.5 1503.21 1211.17C1474.44 1224.65 1443.95 1233.82 1411.74 1238.68C1390.81 1241.84 1369.89 1241.85 1348.98 1238.72C1343.81 1237.95 1338.93 1236.75 1334.36 1235.12C1320.7 1230.25 1308.24 1223.54 1296.99 1215.01C1295.5 1213.88 1291.94 1210.94 1286.31 1206.19C1283.28 1203.63 1279.9 1200.49 1276.19 1196.76C1259.2 1179.7 1248.65 1169.16 1244.55 1165.15C1230.92 1151.82 1215.55 1140.51 1197.14 1134.85C1185.91 1131.4 1172.89 1131.68 1161.9 1134.12C1157.49 1135.09 1150.97 1137.6 1142.32 1141.64C1132.53 1146.2 1124.01 1149.99 1116.76 1153C1105.43 1157.71 1094.41 1160.86 1083.71 1162.45C1075.91 1163.6 1067.35 1164 1058.02 1163.64C1044.01 1163.1 1028.21 1161.03 1010.62 1157.43C1000.77 1155.42 990.39 1153.44 979.49 1151.49C978.43 1151.3 976.4 1150.97 973.4 1150.49ZM1375.27 1027.94C1378.29 1018.45 1379.93 1011.89 1380.2 1008.26C1380.73 1001.03 1380.82 995.244 1380.46 990.91C1378.87 971.744 1370.82 955.72 1356.31 942.84C1351.38 938.46 1345.76 935.014 1339.46 932.5C1339.33 932.447 1339.21 932.352 1339.14 932.23C1339.07 932.107 1339.04 931.963 1339.05 931.82C1339.07 931.676 1339.13 931.541 1339.23 931.435C1339.33 931.329 1339.46 931.257 1339.6 931.23C1348.01 929.784 1355.44 926.25 1361.9 920.63C1364.93 917.997 1367.5 915.57 1369.63 913.35C1370.01 912.958 1370.35 912.529 1370.65 912.07C1375.14 905.204 1378.45 898.88 1380.6 893.1C1382.84 887.06 1385.4 878.95 1388.28 868.77C1388.5 868.004 1388.87 866.137 1389.39 863.17C1389.69 861.444 1391.97 852.394 1396.22 836.02C1398.48 827.347 1400.67 818.27 1402.8 808.79C1406.47 792.437 1409.17 780.084 1410.9 771.73C1414.02 756.63 1417.12 742.89 1419.6 731.1C1421.84 720.43 1423.4 711.47 1426.1 698.68C1427.17 693.654 1429.14 681.644 1432.01 662.65C1434.55 645.86 1435.78 630.26 1434.49 615.51C1433.46 603.877 1430.27 592.567 1424.9 581.58C1421.91 575.46 1419.62 571.267 1418.03 569C1405.88 551.6 1388.41 538.57 1367.85 533.52C1358.34 531.187 1348.47 530.444 1338.24 531.29C1320.2 532.79 1304.7 539.37 1291.74 551.03C1285.45 556.68 1278.77 564.08 1274.74 571.71C1270.63 579.497 1267.4 588.504 1265.03 598.73C1263.18 606.75 1261.22 620.014 1259.17 638.52C1257.8 650.927 1256.62 668.67 1255.63 691.75C1254.17 725.73 1253.78 763.074 1254.47 803.78C1254.8 823.287 1255.59 840.534 1256.86 855.52C1257.49 863 1258.23 868.99 1259.09 873.49C1261.43 885.79 1264.87 897.78 1271.33 907.26C1275.07 912.74 1279.98 917.724 1286.05 922.21C1287.47 923.26 1288.72 923.76 1290.49 924.46C1290.55 924.483 1290.59 924.524 1290.63 924.576C1290.66 924.628 1290.67 924.689 1290.67 924.75C1290.67 924.811 1290.64 924.869 1290.6 924.916C1290.56 924.962 1290.51 924.996 1290.45 925.01C1268.5 930.68 1248.43 943.98 1239.36 965.42C1237.03 970.94 1235.25 976.497 1234.04 982.09C1231.28 994.83 1233.42 1011.52 1237.47 1023.56C1243.32 1040.93 1254.21 1054.26 1270.16 1063.56C1287.74 1073.81 1307.14 1076.08 1328.37 1070.38C1331.84 1069.45 1337.35 1066.92 1344.9 1062.79C1347.31 1061.47 1349.36 1060.04 1351.05 1058.51C1353.74 1056.07 1357.94 1053.22 1361.12 1049.69C1362.93 1047.68 1364.17 1046.15 1364.86 1045.11C1367.25 1041.44 1369.42 1038.12 1371.36 1035.13C1372.35 1033.6 1372.97 1032.57 1373.2 1032.02C1373.85 1030.47 1374.43 1029.34 1374.92 1028.65C1375.07 1028.43 1375.19 1028.19 1375.27 1027.94ZM501.61 783.92C500.96 782.2 498.78 779.64 497.53 777.35C487.66 759.22 470.86 741.32 448.25 742.51C433.083 743.31 420.603 749.404 410.81 760.79C407.043 765.177 403.287 771 399.54 778.26C397.59 782.05 396.85 786.14 395.2 790.57C392.86 796.85 391.47 805.09 390.34 811.24C390.325 811.314 390.288 811.382 390.235 811.435C390.181 811.489 390.114 811.525 390.041 811.54C389.968 811.555 389.893 811.548 389.825 811.52C389.757 811.491 389.7 811.443 389.66 811.38C389.407 810.994 389.23 810.574 389.13 810.12C387.25 801.13 383.95 791.11 382.18 783.44C378.68 768.22 372.81 750.3 367.93 735.56C364.95 726.554 361.847 718.65 358.62 711.85C352.907 699.79 344.563 689.887 333.59 682.14C313.53 667.97 284.83 667.48 263.08 678.17C256.927 681.197 251.953 684.117 248.16 686.93C233.83 697.54 222 714.14 217.8 731.78C216.387 737.734 215.587 742.024 215.4 744.65C214.34 759.584 215.093 772.937 217.66 784.71C221.22 801.097 226.487 820.594 233.46 843.2C236.04 851.59 238.76 858.61 241.12 866.21C243.98 875.42 249.04 888.23 251.84 897.54C253.12 901.774 254.773 906.457 256.8 911.59C260.26 920.344 264.113 931.117 268.36 943.91C269.167 946.35 271.463 952.214 275.25 961.5C280.03 973.21 282.96 983.27 287.74 994.24C288.227 995.354 290.237 1000.34 293.77 1009.2C304.477 1036.03 310.49 1050.95 311.81 1053.95C316.343 1064.3 319.517 1071.9 321.33 1076.75C323.803 1083.38 326.69 1090.07 329.99 1096.83C334.25 1105.55 338.4 1116.25 343.08 1125.98C350.86 1142.12 359.18 1157.72 368.97 1172.32C370.45 1174.53 372.35 1176.19 373.71 1178.22C382.91 1191.98 395.807 1201.65 412.4 1207.23C416.487 1208.61 419.703 1209.44 422.05 1209.72C423.83 1209.94 428.04 1209.98 434.68 1209.84C434.911 1209.83 435.139 1209.78 435.35 1209.69C436.437 1209.22 438.013 1208.97 440.08 1208.94C440.339 1208.93 440.591 1208.89 440.83 1208.81L450.19 1205.61C450.383 1205.54 450.567 1205.46 450.74 1205.35C452.98 1204 454.8 1203 456.2 1202.34C458.247 1201.38 460.09 1200.25 461.73 1198.94C468.303 1193.69 472.92 1189.07 475.58 1185.08C480.107 1178.3 483.563 1171.76 485.95 1165.47C487.39 1161.67 489.113 1156.04 491.12 1148.59C493.58 1139.46 495.3 1127.6 497.1 1119.4C497.153 1119.15 497.27 1118.98 497.45 1118.91C497.797 1118.78 498.017 1118.88 498.11 1119.23C498.657 1121.19 499.427 1122.97 500.42 1124.56C501.413 1126.16 503.82 1130.01 507.64 1136.11C512.31 1143.57 517.4 1149.88 522.57 1155.67C530.19 1164.18 539.123 1170.31 549.37 1174.06C562.61 1178.91 576.96 1177.99 590.47 1173.11C592.463 1172.4 594.803 1171.22 597.49 1169.57C600.497 1167.74 602.737 1166.36 604.21 1165.45C608.65 1162.7 613.04 1158.6 617.38 1153.15C625.653 1142.77 631.223 1130.6 634.09 1116.65C637.137 1101.84 639.117 1087.8 640.03 1074.51C640.417 1068.89 641.247 1051.14 642.52 1021.25C642.72 1016.58 642.673 1013.23 642.38 1011.19C642.374 1011.14 642.381 1011.1 642.402 1011.06C642.423 1011.02 642.457 1010.98 642.497 1010.96C642.538 1010.94 642.584 1010.93 642.63 1010.94C642.675 1010.95 642.717 1010.97 642.75 1011C643.123 1011.37 643.38 1011.78 643.52 1012.23C645.19 1017.46 646.68 1021.56 649.48 1027.16C654.053 1036.31 656.827 1041.82 657.8 1043.69C660.047 1047.98 664.207 1054.58 670.28 1063.49C678.547 1075.62 689.417 1086.58 702.89 1096.39C713.717 1104.28 725.07 1109.76 736.95 1112.83C743.397 1114.5 749.827 1115.48 756.24 1115.79C763.527 1116.14 770.027 1115.91 775.74 1115.08C803.707 1111.03 826.98 1098.36 845.56 1077.08C845.64 1076.99 847.333 1074.96 850.64 1071.01C852.347 1068.97 853.933 1066.86 855.4 1064.69C859.373 1058.82 861.487 1055.66 861.74 1055.23C870.753 1039.5 877.627 1022.87 882.36 1005.36C882.867 1003.49 884.177 997.52 886.29 987.44C886.87 984.69 886.82 982.35 886.81 979.91C886.803 979.835 886.825 979.759 886.871 979.699C886.917 979.639 886.984 979.599 887.059 979.586C887.133 979.573 887.21 979.589 887.273 979.631C887.337 979.673 887.382 979.737 887.4 979.81C891.207 990.597 895.07 1000.05 898.99 1008.17C902.78 1016.03 905.92 1024.33 909.46 1030.84C913.053 1037.45 917.247 1044.01 922.04 1050.5C929.84 1061.07 939.26 1069.59 950.19 1076.29C960.01 1082.3 973.58 1085.12 984.88 1084.95C986.58 1084.92 987.78 1084.87 988.48 1084.78C990.633 1084.52 991.833 1084.39 992.08 1084.39C994.02 1084.36 995.793 1084.15 997.4 1083.74C1005.72 1081.65 1013.14 1078.13 1019.67 1073.18C1030.6 1064.9 1039.06 1053.75 1044.94 1041.46C1048.81 1033.37 1052.26 1025.82 1053.35 1018.8C1053.36 1018.75 1053.39 1018.69 1053.42 1018.66C1053.46 1018.62 1053.51 1018.59 1053.57 1018.58C1053.62 1018.57 1053.68 1018.58 1053.73 1018.6C1053.78 1018.62 1053.82 1018.66 1053.85 1018.71C1057.57 1025.75 1061.8 1032.57 1066.55 1039.17C1071.33 1045.82 1076.53 1051.37 1082.16 1055.82C1096.95 1067.53 1113.98 1071.81 1133.26 1068.66C1140.83 1067.43 1148.39 1064.51 1155.93 1059.92C1166.32 1053.59 1174.71 1046.12 1181.12 1037.5C1182.17 1036.1 1182.73 1034.85 1183.79 1033.86C1183.98 1033.69 1184.13 1033.5 1184.26 1033.29C1188.62 1025.94 1192.44 1018.18 1195.73 1010.02C1198.43 1003.33 1200.04 999.104 1200.57 997.35C1203.95 986.07 1207.1 977.31 1210.13 964.92C1218.42 930.94 1225.41 896.527 1231.11 861.68C1234.34 841.947 1236.67 825.304 1238.1 811.75C1240.16 792.25 1241.36 771.92 1241.69 750.76C1241.91 736.74 1240.73 723.674 1238.15 711.56C1234.52 694.514 1226.19 679.914 1213.14 667.76C1209.76 664.62 1203.99 660.98 1200.65 659.57C1180.74 651.21 1159.33 652.83 1140.72 664.26C1127.53 672.374 1117.8 684.037 1111.52 699.25C1107.35 709.364 1104.24 718.857 1102.19 727.73C1101.82 729.31 1100.76 734.59 1099.01 743.57C1098.02 748.624 1097.19 753.944 1096.5 759.53C1095.33 769.09 1093.81 780.38 1091.95 793.4C1091.8 794.44 1091.94 795.58 1091.78 796.66C1091.77 796.745 1091.73 796.823 1091.67 796.885C1091.62 796.946 1091.54 796.987 1091.45 797.001C1091.37 797.016 1091.28 797.003 1091.2 796.965C1091.13 796.927 1091.06 796.866 1091.02 796.79C1089.53 793.997 1088.32 791.764 1087.39 790.09C1075.21 768.06 1055.77 753.93 1029.8 758.71C1013.98 761.62 1000.34 774.38 992.67 788.26C991.96 789.54 991.76 791.07 991.27 792.27C991.244 792.338 991.196 792.394 991.134 792.431C991.072 792.468 990.999 792.483 990.927 792.474C990.854 792.465 990.786 792.432 990.733 792.381C990.679 792.33 990.643 792.263 990.63 792.19C989.323 783.637 987.22 774.294 984.32 764.16C979.29 746.55 972.95 730.54 961.72 718.03C950.71 705.75 933.94 698.36 917.23 699.07C915.703 699.13 914.723 699.204 914.29 699.29C911.66 699.8 909.33 699.73 906.91 700.29C890.05 704.22 875.92 713.26 866.2 727.96C859.33 738.35 854.94 748.33 853.19 759.63C852.523 763.95 852.143 766.887 852.05 768.44C852.03 768.814 851.747 772.917 851.2 780.75C850.813 786.37 850.757 791.814 851.03 797.08C851.032 797.132 851.016 797.184 850.986 797.226C850.956 797.269 850.913 797.301 850.863 797.316C850.813 797.332 850.76 797.331 850.71 797.314C850.661 797.297 850.619 797.264 850.59 797.22C846.23 789.92 842.66 786.03 835.4 777.43C819.94 759.11 800.8 745.86 778.15 738.82C753.17 731.05 727.99 735.27 705.31 746.93C686.21 756.75 671.04 772.88 659.88 791.39C659.127 792.644 658.397 794.18 657.69 796C657.664 796.068 657.616 796.125 657.552 796.161C657.489 796.196 657.416 796.209 657.344 796.196C657.273 796.183 657.208 796.145 657.162 796.089C657.115 796.033 657.09 795.963 657.09 795.89C657.05 793.43 656.93 788.43 657.21 785.05C658.277 771.704 659.267 758.437 660.18 745.25C661.387 727.837 661.587 710.424 660.78 693.01C660.16 679.69 658.023 666.977 654.37 654.87C651.957 646.87 648.067 638.61 642.7 630.09C638.75 623.83 633.61 618.84 627.99 614.12C615.71 603.78 598.39 599.77 582.16 601C558.95 602.76 535.27 617.72 524.1 638.44C520.327 645.427 517.823 650.724 516.59 654.33C512.997 664.824 510.247 676.474 508.34 689.28C506.847 699.307 505.16 716.167 503.28 739.86C502.23 753.1 502.72 765.11 502.25 778.5C502.15 781.434 502.04 783.23 501.92 783.89C501.915 783.926 501.898 783.959 501.872 783.984C501.846 784.009 501.813 784.025 501.777 784.028C501.741 784.031 501.705 784.023 501.675 784.003C501.644 783.984 501.622 783.954 501.61 783.92Z" fill="#F9683C"/>
<path d="M1374.92 1028.65C1374.43 1029.34 1373.85 1030.47 1373.2 1032.02C1372.97 1032.57 1372.35 1033.6 1371.36 1035.13C1369.42 1038.12 1367.25 1041.44 1364.86 1045.11C1364.17 1046.15 1362.93 1047.68 1361.12 1049.69C1357.94 1053.22 1353.74 1056.07 1351.05 1058.51C1349.36 1060.04 1347.31 1061.47 1344.9 1062.79C1337.35 1066.92 1331.84 1069.45 1328.37 1070.38C1307.14 1076.08 1287.74 1073.81 1270.16 1063.56C1254.21 1054.26 1243.32 1040.93 1237.47 1023.56C1233.42 1011.52 1231.28 994.83 1234.04 982.09C1235.25 976.497 1237.03 970.94 1239.36 965.42C1248.43 943.98 1268.5 930.68 1290.45 925.01C1290.51 924.996 1290.56 924.962 1290.6 924.916C1290.64 924.869 1290.67 924.811 1290.67 924.75C1290.67 924.689 1290.66 924.628 1290.63 924.576C1290.59 924.524 1290.55 924.483 1290.49 924.46C1288.72 923.76 1287.47 923.26 1286.05 922.21C1279.98 917.724 1275.07 912.74 1271.33 907.26C1264.87 897.78 1261.43 885.79 1259.09 873.49C1258.23 868.99 1257.49 863 1256.86 855.52C1255.59 840.534 1254.8 823.287 1254.47 803.78C1253.78 763.074 1254.17 725.73 1255.63 691.75C1256.62 668.67 1257.8 650.927 1259.17 638.52C1261.22 620.014 1263.18 606.75 1265.03 598.73C1267.4 588.504 1270.63 579.497 1274.74 571.71C1278.77 564.08 1285.45 556.68 1291.74 551.03C1304.7 539.37 1320.2 532.79 1338.24 531.29C1348.47 530.444 1358.34 531.187 1367.85 533.52C1388.41 538.57 1405.88 551.6 1418.03 569C1419.62 571.267 1421.91 575.46 1424.9 581.58C1430.27 592.567 1433.46 603.877 1434.49 615.51C1435.78 630.26 1434.55 645.86 1432.01 662.65C1429.14 681.644 1427.17 693.654 1426.1 698.68C1423.4 711.47 1421.84 720.43 1419.6 731.1C1417.12 742.89 1414.02 756.63 1410.9 771.73C1409.17 780.084 1406.47 792.437 1402.8 808.79C1400.67 818.27 1398.48 827.347 1396.22 836.02C1391.97 852.394 1389.69 861.444 1389.39 863.17C1388.87 866.137 1388.5 868.004 1388.28 868.77C1385.4 878.95 1382.84 887.06 1380.6 893.1C1378.45 898.88 1375.14 905.204 1370.65 912.07C1370.35 912.529 1370.01 912.958 1369.63 913.35C1367.5 915.57 1364.93 917.997 1361.9 920.63C1355.44 926.25 1348.01 929.784 1339.6 931.23C1339.46 931.257 1339.33 931.329 1339.23 931.435C1339.13 931.542 1339.07 931.677 1339.05 931.82C1339.04 931.963 1339.07 932.107 1339.14 932.23C1339.21 932.352 1339.33 932.447 1339.46 932.5C1345.76 935.014 1351.38 938.46 1356.31 942.84C1370.82 955.72 1378.87 971.744 1380.46 990.91C1380.82 995.244 1380.73 1001.03 1380.2 1008.26C1379.93 1011.89 1378.29 1018.45 1375.27 1027.94C1375.19 1028.19 1375.07 1028.43 1374.92 1028.65ZM1399.16 655.13C1401.02 642.44 1402.64 627.41 1401.93 614C1401.27 601.43 1396.8 587.63 1388.17 578.07C1373.69 562.03 1355.87 555.77 1334.7 559.29C1330.03 560.07 1324.87 562.37 1320.88 564.15C1304.47 571.49 1295.18 588.65 1291.56 606.02C1288.39 621.234 1286.23 635.477 1285.1 648.75C1281.41 691.95 1280.95 735.04 1280.49 787.25C1280.39 798.39 1280.71 814.807 1281.44 836.5C1281.78 846.58 1282.67 856.624 1284.12 866.63C1285.1 873.384 1286.43 878.537 1288.11 882.09C1290.74 887.61 1293.76 892.02 1297.17 895.32C1298.8 896.907 1300.97 898.55 1303.68 900.25C1311.2 904.984 1319.38 906.214 1328.21 903.94C1345.88 899.37 1351.57 879.36 1355.76 863.75C1356.75 860.064 1359.87 846.144 1365.12 821.99C1365.86 818.6 1366.8 815.91 1367.32 812.73C1367.7 810.39 1368.16 808.054 1368.71 805.72C1372.16 791.06 1375.79 774.454 1379.61 755.9C1380.2 753.01 1381.82 748.52 1382.45 745.08C1383.4 739.86 1384.57 734.33 1385.94 728.49C1386.24 727.19 1386.24 725.43 1386.59 723.78C1388.11 716.5 1389.29 711.034 1390.14 707.38C1391.12 703.18 1392.09 696.06 1393.26 690.8C1394.56 684.994 1396.53 673.104 1399.16 655.13ZM1306.98 947.796C1295.08 947.276 1283.44 951.816 1274.63 960.418C1265.83 969.019 1260.57 980.977 1260.01 993.661C1259.46 1006.34 1263.66 1018.72 1271.68 1028.05C1279.71 1037.39 1290.9 1042.93 1302.8 1043.44C1314.7 1043.96 1326.34 1039.42 1335.15 1030.82C1343.95 1022.22 1349.21 1010.26 1349.77 997.58C1350.32 984.896 1346.12 972.525 1338.1 963.189C1330.08 953.853 1318.88 948.316 1306.98 947.796Z" fill="#000524"/>
<path d="M1399.16 655.13C1396.53 673.103 1394.56 684.993 1393.26 690.8C1392.09 696.06 1391.12 703.18 1390.14 707.38C1389.29 711.033 1388.11 716.5 1386.59 723.78C1386.24 725.43 1386.24 727.19 1385.94 728.49C1384.57 734.33 1383.4 739.86 1382.45 745.08C1381.82 748.52 1380.2 753.01 1379.61 755.9C1375.79 774.453 1372.16 791.06 1368.71 805.72C1368.16 808.053 1367.7 810.39 1367.32 812.73C1366.8 815.91 1365.86 818.6 1365.12 821.99C1359.87 846.143 1356.75 860.063 1355.76 863.75C1351.57 879.36 1345.88 899.37 1328.21 903.94C1319.38 906.213 1311.2 904.983 1303.68 900.25C1300.97 898.55 1298.8 896.907 1297.17 895.32C1293.76 892.02 1290.74 887.61 1288.11 882.09C1286.43 878.537 1285.1 873.383 1284.12 866.63C1282.67 856.623 1281.78 846.58 1281.44 836.5C1280.71 814.807 1280.39 798.39 1280.49 787.25C1280.95 735.04 1281.41 691.95 1285.1 648.75C1286.23 635.477 1288.39 621.233 1291.56 606.02C1295.18 588.65 1304.47 571.49 1320.88 564.15C1324.87 562.37 1330.03 560.07 1334.7 559.29C1355.87 555.77 1373.69 562.03 1388.17 578.07C1396.8 587.63 1401.27 601.43 1401.93 614C1402.64 627.41 1401.02 642.44 1399.16 655.13Z" fill="#FEFBDB"/>
<path d="M501.92 783.89C502.04 783.23 502.15 781.433 502.25 778.5C502.72 765.11 502.23 753.1 503.28 739.86C505.16 716.167 506.847 699.307 508.34 689.28C510.247 676.473 512.997 664.823 516.59 654.33C517.823 650.723 520.327 645.427 524.1 638.44C535.27 617.72 558.95 602.76 582.16 601C598.39 599.77 615.71 603.78 627.99 614.12C633.61 618.84 638.75 623.83 642.7 630.09C648.067 638.61 651.957 646.87 654.37 654.87C658.023 666.977 660.16 679.69 660.78 693.01C661.587 710.423 661.387 727.837 660.18 745.25C659.267 758.437 658.277 771.703 657.21 785.05C656.93 788.43 657.05 793.43 657.09 795.89C657.09 795.963 657.115 796.033 657.162 796.089C657.208 796.145 657.273 796.182 657.344 796.195C657.416 796.208 657.489 796.196 657.552 796.16C657.616 796.125 657.664 796.068 657.69 796C658.397 794.18 659.127 792.643 659.88 791.39C671.04 772.88 686.21 756.75 705.31 746.93C727.99 735.27 753.17 731.05 778.15 738.82C800.8 745.86 819.94 759.11 835.4 777.43C842.66 786.03 846.23 789.92 850.59 797.22C850.619 797.263 850.661 797.296 850.71 797.314C850.76 797.331 850.813 797.332 850.863 797.316C850.913 797.3 850.956 797.269 850.986 797.226C851.016 797.183 851.032 797.132 851.03 797.08C850.757 791.813 850.813 786.37 851.2 780.75C851.747 772.917 852.03 768.813 852.05 768.44C852.143 766.887 852.523 763.95 853.19 759.63C854.94 748.33 859.33 738.35 866.2 727.96C875.92 713.26 890.05 704.22 906.91 700.29C909.33 699.73 911.66 699.8 914.29 699.29C914.723 699.203 915.703 699.13 917.23 699.07C933.94 698.36 950.71 705.75 961.72 718.03C972.95 730.54 979.29 746.55 984.32 764.16C987.22 774.293 989.323 783.637 990.63 792.19C990.643 792.263 990.679 792.329 990.733 792.381C990.786 792.432 990.854 792.465 990.927 792.474C990.999 792.483 991.072 792.468 991.134 792.431C991.196 792.394 991.244 792.338 991.27 792.27C991.76 791.07 991.96 789.54 992.67 788.26C1000.34 774.38 1013.98 761.62 1029.8 758.71C1055.77 753.93 1075.21 768.06 1087.39 790.09C1088.32 791.763 1089.53 793.997 1091.02 796.79C1091.06 796.866 1091.13 796.927 1091.2 796.965C1091.28 797.003 1091.37 797.015 1091.45 797.001C1091.54 796.986 1091.62 796.946 1091.67 796.884C1091.73 796.823 1091.77 796.744 1091.78 796.66C1091.94 795.58 1091.8 794.44 1091.95 793.4C1093.81 780.38 1095.33 769.09 1096.5 759.53C1097.19 753.943 1098.02 748.623 1099.01 743.57C1100.76 734.59 1101.82 729.31 1102.19 727.73C1104.24 718.857 1107.35 709.363 1111.52 699.25C1117.8 684.037 1127.53 672.373 1140.72 664.26C1159.33 652.83 1180.74 651.21 1200.65 659.57C1203.99 660.98 1209.76 664.62 1213.14 667.76C1226.19 679.913 1234.52 694.513 1238.15 711.56C1240.73 723.673 1241.91 736.74 1241.69 750.76C1241.36 771.92 1240.16 792.25 1238.1 811.75C1236.67 825.303 1234.34 841.947 1231.11 861.68C1225.41 896.527 1218.42 930.94 1210.13 964.92C1207.1 977.31 1203.95 986.07 1200.57 997.35C1200.04 999.103 1198.43 1003.33 1195.73 1010.02C1192.44 1018.18 1188.62 1025.94 1184.26 1033.29C1184.13 1033.5 1183.98 1033.69 1183.79 1033.86C1182.73 1034.85 1182.17 1036.1 1181.12 1037.5C1174.71 1046.12 1166.32 1053.59 1155.93 1059.92C1148.39 1064.51 1140.83 1067.43 1133.26 1068.66C1113.98 1071.81 1096.95 1067.53 1082.16 1055.82C1076.53 1051.37 1071.33 1045.82 1066.55 1039.17C1061.8 1032.57 1057.57 1025.75 1053.85 1018.71C1053.82 1018.66 1053.78 1018.62 1053.73 1018.6C1053.68 1018.58 1053.62 1018.57 1053.57 1018.58C1053.51 1018.59 1053.46 1018.62 1053.42 1018.66C1053.39 1018.69 1053.36 1018.75 1053.35 1018.8C1052.26 1025.82 1048.81 1033.37 1044.94 1041.46C1039.06 1053.75 1030.6 1064.9 1019.67 1073.18C1013.14 1078.13 1005.72 1081.65 997.4 1083.74C995.793 1084.15 994.02 1084.36 992.08 1084.39C991.833 1084.39 990.633 1084.52 988.48 1084.78C987.78 1084.87 986.58 1084.92 984.88 1084.95C973.58 1085.12 960.01 1082.3 950.19 1076.29C939.26 1069.59 929.84 1061.07 922.04 1050.5C917.247 1044.01 913.053 1037.45 909.46 1030.84C905.92 1024.33 902.78 1016.03 898.99 1008.17C895.07 1000.05 891.207 990.597 887.4 979.81C887.382 979.736 887.337 979.672 887.273 979.631C887.21 979.589 887.133 979.573 887.059 979.586C886.984 979.598 886.917 979.639 886.871 979.699C886.825 979.759 886.803 979.834 886.81 979.91C886.82 982.35 886.87 984.69 886.29 987.44C884.177 997.52 882.867 1003.49 882.36 1005.36C877.627 1022.87 870.753 1039.5 861.74 1055.23C861.487 1055.66 859.373 1058.82 855.4 1064.69C853.933 1066.86 852.347 1068.97 850.64 1071.01C847.333 1074.96 845.64 1076.99 845.56 1077.08C826.98 1098.36 803.707 1111.03 775.74 1115.08C770.027 1115.91 763.527 1116.14 756.24 1115.79C749.827 1115.48 743.397 1114.5 736.95 1112.83C725.07 1109.76 713.717 1104.28 702.89 1096.39C689.417 1086.58 678.547 1075.62 670.28 1063.49C664.207 1054.58 660.047 1047.98 657.8 1043.69C656.827 1041.82 654.053 1036.31 649.48 1027.16C646.68 1021.56 645.19 1017.46 643.52 1012.23C643.38 1011.78 643.123 1011.37 642.75 1011C642.717 1010.97 642.675 1010.95 642.63 1010.94C642.584 1010.93 642.538 1010.94 642.497 1010.96C642.457 1010.98 642.423 1011.02 642.402 1011.06C642.381 1011.1 642.374 1011.14 642.38 1011.19C642.673 1013.23 642.72 1016.58 642.52 1021.25C641.247 1051.14 640.417 1068.89 640.03 1074.51C639.117 1087.8 637.137 1101.84 634.09 1116.65C631.223 1130.6 625.653 1142.77 617.38 1153.15C613.04 1158.6 608.65 1162.7 604.21 1165.45C602.737 1166.36 600.497 1167.74 597.49 1169.57C594.803 1171.22 592.463 1172.4 590.47 1173.11C576.96 1177.99 562.61 1178.91 549.37 1174.06C539.123 1170.31 530.19 1164.18 522.57 1155.67C517.4 1149.88 512.31 1143.57 507.64 1136.11C503.82 1130.01 501.413 1126.16 500.42 1124.56C499.427 1122.97 498.657 1121.19 498.11 1119.23C498.017 1118.88 497.797 1118.78 497.45 1118.91C497.27 1118.98 497.153 1119.15 497.1 1119.4C495.3 1127.6 493.58 1139.46 491.12 1148.59C489.113 1156.04 487.39 1161.67 485.95 1165.47C483.563 1171.76 480.107 1178.3 475.58 1185.08C472.92 1189.07 468.303 1193.69 461.73 1198.94C460.09 1200.25 458.247 1201.38 456.2 1202.34C454.8 1203 452.98 1204 450.74 1205.35C450.567 1205.46 450.383 1205.54 450.19 1205.61L440.83 1208.81C440.591 1208.89 440.339 1208.93 440.08 1208.94C438.013 1208.97 436.437 1209.22 435.35 1209.69C435.139 1209.78 434.911 1209.83 434.68 1209.84C428.04 1209.98 423.83 1209.94 422.05 1209.72C419.703 1209.44 416.487 1208.61 412.4 1207.23C395.807 1201.65 382.91 1191.98 373.71 1178.22C372.35 1176.19 370.45 1174.53 368.97 1172.32C359.18 1157.72 350.86 1142.12 343.08 1125.98C338.4 1116.25 334.25 1105.55 329.99 1096.83C326.69 1090.07 323.803 1083.38 321.33 1076.75C319.517 1071.9 316.343 1064.3 311.81 1053.95C310.49 1050.95 304.477 1036.03 293.77 1009.2C290.237 1000.34 288.227 995.353 287.74 994.24C282.96 983.27 280.03 973.21 275.25 961.5C271.463 952.213 269.167 946.35 268.36 943.91C264.113 931.117 260.26 920.343 256.8 911.59C254.773 906.457 253.12 901.773 251.84 897.54C249.04 888.23 243.98 875.42 241.12 866.21C238.76 858.61 236.04 851.59 233.46 843.2C226.487 820.593 221.22 801.097 217.66 784.71C215.093 772.937 214.34 759.583 215.4 744.65C215.587 742.023 216.387 737.733 217.8 731.78C222 714.14 233.83 697.54 248.16 686.93C251.953 684.117 256.927 681.197 263.08 678.17C284.83 667.48 313.53 667.97 333.59 682.14C344.563 689.887 352.907 699.79 358.62 711.85C361.847 718.65 364.95 726.553 367.93 735.56C372.81 750.3 378.68 768.22 382.18 783.44C383.95 791.11 387.25 801.13 389.13 810.12C389.23 810.573 389.407 810.993 389.66 811.38C389.7 811.442 389.757 811.491 389.825 811.519C389.893 811.548 389.968 811.555 390.041 811.54C390.114 811.525 390.181 811.488 390.235 811.435C390.288 811.381 390.325 811.314 390.34 811.24C391.47 805.09 392.86 796.85 395.2 790.57C396.85 786.14 397.59 782.05 399.54 778.26C403.287 771 407.043 765.177 410.81 760.79C420.603 749.403 433.083 743.31 448.25 742.51C470.86 741.32 487.66 759.22 497.53 777.35C498.78 779.64 500.96 782.2 501.61 783.92C501.622 783.954 501.644 783.983 501.675 784.003C501.705 784.022 501.741 784.031 501.777 784.028C501.813 784.024 501.846 784.009 501.872 783.984C501.898 783.959 501.915 783.926 501.92 783.89ZM619.55 904.64C621.037 882.1 622.097 863.803 622.73 849.75C623.297 837.27 623.867 824.773 624.44 812.26C625.02 799.753 625.767 787.26 626.68 774.78C628.133 755 629.16 739.737 629.76 728.99C630.147 722.07 630.273 712.243 630.14 699.51C630.013 687.143 628.553 675.307 625.76 664C623.9 656.473 621.13 650.1 617.45 644.88C606.2 628.91 588.25 623.48 570.08 631.6C559.553 636.307 551.667 643.587 546.42 653.44C541.553 662.593 537.977 673.483 535.69 686.11C533.057 700.657 531.31 716.203 530.45 732.75C528.12 777.53 528.55 830.79 528.06 869.5C527.96 877.567 527.5 885.707 526.68 893.92C526.42 896.507 525.77 898.913 524.73 901.14C524.505 901.628 524.121 902.022 523.648 902.248C523.176 902.474 522.647 902.517 522.16 902.37C518.68 901.32 514.82 890.92 513.47 886.99C507.037 868.25 501.767 853.493 497.66 842.72C494.813 835.247 492.46 828.9 490.6 823.68C485.947 810.567 480.283 798.143 473.61 786.41C471.157 782.103 467.373 777.867 462.26 773.7C455.9 768.52 445.65 767.27 438.44 771.42C435.033 773.38 432.667 775.1 431.34 776.58C422.41 786.53 418.09 802.2 415.92 815.73C414.673 823.497 414.047 827.427 414.04 827.52C410.427 860.62 408.19 883.697 407.33 896.75C406.423 910.483 405.49 921.65 404.53 930.25C404 934.89 403.57 940.9 399.31 943.5C399.172 943.584 399.011 943.621 398.85 943.605C398.689 943.588 398.538 943.52 398.42 943.41C396.527 941.643 395.247 939.887 394.58 938.14C391.967 931.313 389.593 923.943 387.46 916.03C382.493 897.557 377.607 879.077 372.8 860.59C369.11 846.37 365.91 831.21 361.84 816.28C357.49 800.35 351.95 778.2 348.48 765.74C344.98 753.18 341.093 741.483 336.82 730.65C331.53 717.23 320.61 703.23 306.38 699.63C293.793 696.45 281.837 698.033 270.51 704.38C257.363 711.747 248.733 723.227 244.62 738.82C243.66 742.467 243.077 746.08 242.87 749.66C242.19 761.433 243.113 772.993 245.64 784.34C248.513 797.24 251.34 808.433 254.12 817.92C258.26 832.02 260.87 841.5 264.56 852.28C268.05 862.45 269.97 870 273.41 878.81C276.85 887.63 280.9 901.07 284.81 910.91C285.73 913.23 290.23 925.423 298.31 947.49C302.663 959.37 306.893 970.493 311 980.86C318.687 1000.26 323.117 1011.3 324.29 1013.99C330.58 1028.4 337.27 1046.19 343.99 1061.07C348.057 1070.09 350.78 1076.34 352.16 1079.81C356.05 1089.57 360.36 1097.97 365.38 1109.12C370.967 1121.52 377.4 1133.69 384.68 1145.64C389.34 1153.29 394.19 1159.63 400.06 1166.46C407.89 1175.57 419.16 1181.23 431.33 1179.39C444.7 1177.37 453.63 1164.52 457.49 1152.78C461.097 1141.81 464.127 1128.92 466.58 1114.12C466.867 1112.39 467.653 1106.52 468.94 1096.49C469.067 1095.51 471.173 1076.93 475.26 1040.75C475.56 1038.08 476.263 1035.38 477.37 1032.64C478.3 1030.32 481.3 1029.72 482.56 1032.23C484.607 1036.31 485.757 1038.63 486.01 1039.18C490.623 1049.23 497.427 1063.53 506.42 1082.09C511.89 1093.38 518.21 1104.54 524.72 1114.69C528.813 1121.07 532.2 1125.86 534.88 1129.06C537.087 1131.69 540.423 1134.91 544.89 1138.73C553.117 1145.77 562.31 1148.32 572.47 1146.38C584.78 1144.04 593.77 1133.36 598.4 1122.42C601.847 1114.29 604.213 1106.28 605.5 1098.37C607.03 1088.95 608 1083.71 608.8 1075.16C610.907 1052.54 612.323 1035.4 613.05 1023.75C614.243 1004.57 616.333 966.32 619.32 909C619.473 906.147 619.55 904.693 619.55 904.64ZM983.29 894.62C982.623 894.787 982.143 894.553 981.85 893.92C980.25 890.5 978.877 886.447 977.73 881.76C976.457 876.547 974.943 868.56 973.19 857.8C970.63 842.153 969.35 834.32 969.35 834.3C969.043 831.593 966.11 815.9 960.55 787.22C959.043 779.473 956.937 771.03 954.23 761.89C952.223 755.15 949.007 748.59 944.58 742.21C937.92 732.623 929.137 727.603 918.23 727.15C894.54 726.17 881.64 751.28 878.82 771.04C876.713 785.813 876.247 800.743 877.42 815.83C878.36 827.877 879.37 837.623 880.45 845.07C881.463 852.083 884.19 866.847 888.63 889.36C890.64 899.53 893.41 911.81 895.53 919.23C902.403 943.283 906.927 958.357 909.1 964.45C917.22 987.22 925.44 1006.29 937.49 1025.26C946.41 1039.29 960.99 1054.47 978.15 1055.34C989.77 1055.93 1001.32 1048.96 1008.42 1039.92C1012.49 1034.74 1015.87 1029.53 1018.55 1024.29C1022.52 1016.53 1028.13 1003.71 1031.88 992.96C1035.62 982.24 1038.76 973.017 1041.29 965.29C1041.98 963.163 1042.72 961.16 1043.51 959.28C1044.42 957.09 1045.73 954.59 1048.55 955.5C1050.12 956 1051.31 957.007 1052.14 958.52C1054.71 963.26 1058.56 971.273 1063.71 982.56C1065.92 987.407 1069.59 994.31 1074.72 1003.27C1081.21 1014.61 1087.98 1023.5 1095.03 1029.95C1104.58 1038.68 1116.42 1040.65 1128.8 1037.86C1138.12 1035.76 1147.04 1028.17 1152.66 1020.63C1158.95 1012.19 1164.12 1002.54 1168.16 991.68C1169.83 987.18 1172.2 980.43 1173.62 974.62C1174.39 971.46 1175.84 967.69 1176.68 963.98C1177.34 961.12 1177.67 958.82 1178.59 956.03C1180.57 950.02 1181.27 943.99 1182.94 938.4C1184.31 933.8 1184.85 928.48 1186.39 923.09C1187.68 918.57 1188.6 914.423 1189.15 910.65C1189.48 908.403 1189.88 906.453 1190.35 904.8C1191.74 899.92 1192.01 895.26 1193.25 890.15C1195.18 882.157 1196.84 873.187 1198.25 863.24C1199.61 853.593 1201.01 844.583 1202.46 836.21C1203.75 828.77 1205.09 818.95 1206.49 806.75C1207.82 795.15 1209.06 780.79 1210.23 763.67C1211.15 750.09 1210.87 739.14 1210.16 727C1209.91 722.733 1209.03 717.563 1207.53 711.49C1204.44 698.99 1197.05 686.41 1183.99 682.5C1177.69 680.62 1171.38 680.477 1165.06 682.07C1157.14 684.06 1147.83 690.73 1143.07 697.3C1138.53 703.553 1135.09 710.537 1132.76 718.25C1128.67 731.803 1125.58 745.22 1123.5 758.5C1119.83 781.96 1116.67 805.37 1114.02 828.73C1112.39 843.09 1109.88 861.32 1108.18 870.72C1107.06 876.927 1105.92 881.36 1104.77 884.02C1103.82 886.22 1100.91 889.18 1098.71 886.02C1096.15 882.36 1093.33 876.08 1091.37 870.9C1085.02 854.133 1079.27 838.96 1074.13 825.38C1067.49 807.84 1051.54 774.03 1026.48 789.48C1015.8 796.06 1010.99 809.3 1007.23 820.94C1001.41 838.927 995.96 857.39 990.88 876.33C989.1 882.98 987.98 888.85 984 893.99C983.707 894.37 983.47 894.58 983.29 894.62ZM730.64 1079.57C765.86 1096.97 804.74 1079.83 826.52 1050.29C835.02 1038.77 841.64 1026.64 846.38 1013.91C859.4 978.95 862.96 939.84 858.32 902.83C856.68 889.71 853.593 875.473 849.06 860.12C844.42 844.38 837.28 828.7 828.93 814.83C821.33 802.21 811.91 791.31 800.47 782.17C795.01 777.803 791.913 775.373 791.18 774.88C786.287 771.553 780.927 768.743 775.1 766.45C742.01 753.42 710.12 769.06 688.99 794.61C684.19 800.41 678.43 809.63 675.04 815.8C669.64 825.613 665.37 836.167 662.23 847.46C659.297 858.013 657.203 867.75 655.95 876.67C654.317 888.317 653.387 901.313 653.16 915.66C653.08 920.433 653.307 925.987 653.84 932.32C654.7 942.667 655.187 948.207 655.3 948.94C657.827 964.967 661.05 979.103 664.97 991.35C669.223 1004.64 674.93 1017.8 682.09 1030.81C685.41 1036.84 690.59 1043.59 694.61 1049.11C704.203 1062.28 716.213 1072.44 730.64 1079.57Z" fill="#000524"/>
<path d="M619.55 904.64C619.55 904.693 619.473 906.147 619.32 909C616.333 966.32 614.243 1004.57 613.05 1023.75C612.323 1035.4 610.907 1052.54 608.8 1075.16C608 1083.71 607.03 1088.95 605.5 1098.37C604.213 1106.28 601.847 1114.29 598.4 1122.42C593.77 1133.36 584.78 1144.04 572.47 1146.38C562.31 1148.32 553.117 1145.77 544.89 1138.73C540.423 1134.91 537.087 1131.69 534.88 1129.06C532.2 1125.86 528.813 1121.07 524.72 1114.69C518.21 1104.54 511.89 1093.38 506.42 1082.09C497.427 1063.53 490.623 1049.23 486.01 1039.18C485.757 1038.63 484.607 1036.31 482.56 1032.23C481.3 1029.72 478.3 1030.32 477.37 1032.64C476.263 1035.38 475.56 1038.08 475.26 1040.75C471.173 1076.93 469.067 1095.51 468.94 1096.49C467.653 1106.52 466.867 1112.39 466.58 1114.12C464.127 1128.92 461.097 1141.81 457.49 1152.78C453.63 1164.52 444.7 1177.37 431.33 1179.39C419.16 1181.23 407.89 1175.57 400.06 1166.46C394.19 1159.63 389.34 1153.29 384.68 1145.64C377.4 1133.69 370.967 1121.52 365.38 1109.12C360.36 1097.97 356.05 1089.57 352.16 1079.81C350.78 1076.34 348.057 1070.09 343.99 1061.07C337.27 1046.19 330.58 1028.4 324.29 1013.99C323.117 1011.3 318.687 1000.26 311 980.86C306.893 970.493 302.663 959.37 298.31 947.49C290.23 925.423 285.73 913.23 284.81 910.91C280.9 901.07 276.85 887.63 273.41 878.81C269.97 870 268.05 862.45 264.56 852.28C260.87 841.5 258.26 832.02 254.12 817.92C251.34 808.433 248.513 797.24 245.64 784.34C243.113 772.993 242.19 761.433 242.87 749.66C243.077 746.08 243.66 742.467 244.62 738.82C248.733 723.227 257.363 711.747 270.51 704.38C281.837 698.033 293.793 696.45 306.38 699.63C320.61 703.23 331.53 717.23 336.82 730.65C341.093 741.483 344.98 753.18 348.48 765.74C351.95 778.2 357.49 800.35 361.84 816.28C365.91 831.21 369.11 846.37 372.8 860.59C377.607 879.077 382.493 897.557 387.46 916.03C389.593 923.943 391.967 931.313 394.58 938.14C395.247 939.887 396.527 941.643 398.42 943.41C398.538 943.52 398.689 943.588 398.85 943.605C399.011 943.621 399.172 943.584 399.31 943.5C403.57 940.9 404 934.89 404.53 930.25C405.49 921.65 406.423 910.483 407.33 896.75C408.19 883.697 410.427 860.62 414.04 827.52C414.047 827.427 414.673 823.497 415.92 815.73C418.09 802.2 422.41 786.53 431.34 776.58C432.667 775.1 435.033 773.38 438.44 771.42C445.65 767.27 455.9 768.52 462.26 773.7C467.373 777.867 471.157 782.103 473.61 786.41C480.283 798.143 485.947 810.567 490.6 823.68C492.46 828.9 494.813 835.247 497.66 842.72C501.767 853.493 507.037 868.25 513.47 886.99C514.82 890.92 518.68 901.32 522.16 902.37C522.647 902.517 523.176 902.474 523.648 902.248C524.121 902.022 524.505 901.628 524.73 901.14C525.77 898.913 526.42 896.507 526.68 893.92C527.5 885.707 527.96 877.567 528.06 869.5C528.55 830.79 528.12 777.53 530.45 732.75C531.31 716.203 533.057 700.657 535.69 686.11C537.977 673.483 541.553 662.593 546.42 653.44C551.667 643.587 559.553 636.307 570.08 631.6C588.25 623.48 606.2 628.91 617.45 644.88C621.13 650.1 623.9 656.473 625.76 664C628.553 675.307 630.013 687.143 630.14 699.51C630.273 712.243 630.147 722.07 629.76 728.99C629.16 739.737 628.133 755 626.68 774.78C625.767 787.26 625.02 799.753 624.44 812.26C623.867 824.773 623.297 837.27 622.73 849.75C622.097 863.803 621.037 882.1 619.55 904.64Z" fill="#FEFBDB"/>
<path d="M983.29 894.62C983.47 894.58 983.707 894.37 984 893.99C987.98 888.85 989.1 882.98 990.88 876.33C995.96 857.39 1001.41 838.927 1007.23 820.94C1010.99 809.3 1015.8 796.06 1026.48 789.48C1051.54 774.03 1067.49 807.84 1074.13 825.38C1079.27 838.96 1085.02 854.133 1091.37 870.9C1093.33 876.08 1096.15 882.36 1098.71 886.02C1100.91 889.18 1103.82 886.22 1104.77 884.02C1105.92 881.36 1107.06 876.927 1108.18 870.72C1109.88 861.32 1112.39 843.09 1114.02 828.73C1116.67 805.37 1119.83 781.96 1123.5 758.5C1125.58 745.22 1128.67 731.803 1132.76 718.25C1135.09 710.537 1138.53 703.553 1143.07 697.3C1147.83 690.73 1157.14 684.06 1165.06 682.07C1171.38 680.477 1177.69 680.62 1183.99 682.5C1197.05 686.41 1204.44 698.99 1207.53 711.49C1209.03 717.563 1209.91 722.733 1210.16 727C1210.87 739.14 1211.15 750.09 1210.23 763.67C1209.06 780.79 1207.82 795.15 1206.49 806.75C1205.09 818.95 1203.75 828.77 1202.46 836.21C1201.01 844.583 1199.61 853.593 1198.25 863.24C1196.84 873.187 1195.18 882.157 1193.25 890.15C1192.01 895.26 1191.74 899.92 1190.35 904.8C1189.88 906.453 1189.48 908.403 1189.15 910.65C1188.6 914.423 1187.68 918.57 1186.39 923.09C1184.85 928.48 1184.31 933.8 1182.94 938.4C1181.27 943.99 1180.57 950.02 1178.59 956.03C1177.67 958.82 1177.34 961.12 1176.68 963.98C1175.84 967.69 1174.39 971.46 1173.62 974.62C1172.2 980.43 1169.83 987.18 1168.16 991.68C1164.12 1002.54 1158.95 1012.19 1152.66 1020.63C1147.04 1028.17 1138.12 1035.76 1128.8 1037.86C1116.42 1040.65 1104.58 1038.68 1095.03 1029.95C1087.98 1023.5 1081.21 1014.61 1074.72 1003.27C1069.59 994.31 1065.92 987.407 1063.71 982.56C1058.56 971.273 1054.71 963.26 1052.14 958.52C1051.31 957.007 1050.12 956 1048.55 955.5C1045.73 954.59 1044.42 957.09 1043.51 959.28C1042.72 961.16 1041.98 963.163 1041.29 965.29C1038.76 973.017 1035.62 982.24 1031.88 992.96C1028.13 1003.71 1022.52 1016.53 1018.55 1024.29C1015.87 1029.53 1012.49 1034.74 1008.42 1039.92C1001.32 1048.96 989.77 1055.93 978.15 1055.34C960.99 1054.47 946.41 1039.29 937.49 1025.26C925.44 1006.29 917.22 987.22 909.1 964.45C906.927 958.357 902.403 943.283 895.53 919.23C893.41 911.81 890.64 899.53 888.63 889.36C884.19 866.847 881.463 852.083 880.45 845.07C879.37 837.623 878.36 827.877 877.42 815.83C876.247 800.743 876.713 785.813 878.82 771.04C881.64 751.28 894.54 726.17 918.23 727.15C929.137 727.603 937.92 732.623 944.58 742.21C949.007 748.59 952.223 755.15 954.23 761.89C956.937 771.03 959.043 779.473 960.55 787.22C966.11 815.9 969.043 831.593 969.35 834.3C969.35 834.32 970.63 842.153 973.19 857.8C974.943 868.56 976.457 876.547 977.73 881.76C978.877 886.447 980.25 890.5 981.85 893.92C982.143 894.553 982.623 894.787 983.29 894.62Z" fill="#FEFBDB"/>
<path d="M826.52 1050.29C804.74 1079.83 765.86 1096.97 730.64 1079.57C716.213 1072.44 704.203 1062.28 694.61 1049.11C690.59 1043.59 685.41 1036.84 682.09 1030.81C674.93 1017.8 669.223 1004.64 664.97 991.35C661.05 979.104 657.827 964.967 655.3 948.94C655.187 948.207 654.7 942.667 653.84 932.32C653.307 925.987 653.08 920.434 653.16 915.66C653.387 901.314 654.317 888.317 655.95 876.67C657.203 867.75 659.297 858.014 662.23 847.46C665.37 836.167 669.64 825.614 675.04 815.8C678.43 809.63 684.19 800.41 688.99 794.61C710.12 769.06 742.01 753.42 775.1 766.45C780.927 768.744 786.287 771.554 791.18 774.88C791.913 775.374 795.01 777.804 800.47 782.17C811.91 791.31 821.33 802.21 828.93 814.83C837.28 828.7 844.42 844.38 849.06 860.12C853.593 875.474 856.68 889.71 858.32 902.83C862.96 939.84 859.4 978.95 846.38 1013.91C841.64 1026.64 835.02 1038.77 826.52 1050.29ZM761.83 991.17C763.11 992.02 765.4 991.92 766.41 991.39C772.24 988.31 775.33 980.48 776.58 974.02C780.2 955.28 778 937.204 769.98 919.79C767.647 914.717 764.467 910.81 760.44 908.07C756.55 905.42 751.36 907.12 748.5 910.89C743.28 917.77 741.56 927.07 741.41 935.54C741.163 949.114 743.837 962.017 749.43 974.25C752.83 981.69 755.63 987.04 761.83 991.17Z" fill="#FEFBDB"/>
<path d="M761.83 991.17C755.63 987.04 752.83 981.69 749.43 974.25C743.837 962.016 741.163 949.113 741.41 935.54C741.56 927.07 743.28 917.77 748.5 910.89C751.36 907.12 756.55 905.42 760.44 908.07C764.467 910.81 767.647 914.716 769.98 919.79C778 937.203 780.2 955.28 776.58 974.02C775.33 980.48 772.24 988.31 766.41 991.39C765.4 991.92 763.11 992.02 761.83 991.17Z" fill="#000524"/>
<path d="M1349.77 997.58C1350.92 971.167 1331.76 948.878 1306.98 947.796C1282.19 946.714 1261.17 967.248 1260.01 993.661C1258.86 1020.07 1278.02 1042.36 1302.8 1043.44C1327.59 1044.53 1348.61 1023.99 1349.77 997.58Z" fill="#FEFBDB"/>
</g>
<defs>
<filter id="filter0_d_13_433" x="112.676" y="428.532" width="1545.98" height="894.172" filterUnits="userSpaceOnUse" color-interpolation-filters="sRGB">
<feFlood flood-opacity="0" result="BackgroundImageFix"/>
<feColorMatrix in="SourceAlpha" type="matrix" values="0 0 0 0 0 0 0 0 0 0 0 0 0 0 0 0 0 0 127 0" result="hardAlpha"/>
<feOffset dy="4"/>
<feGaussianBlur stdDeviation="2"/>
<feComposite in2="hardAlpha" operator="out"/>
<feColorMatrix type="matrix" values="0 0 0 0 0 0 0 0 0 0 0 0 0 0 0 0 0 0 0.25 0"/>
<feBlend mode="normal" in2="BackgroundImageFix" result="effect1_dropShadow_13_433"/>
<feBlend mode="normal" in="SourceGraphic" in2="effect1_dropShadow_13_433" result="shape"/>
</filter>
</defs>
</svg>
