<svg width="1508" height="755" viewBox="0 0 1508 755" fill="none" xmlns="http://www.w3.org/2000/svg">
<g filter="url(#filter0_d_13_318)">
<path d="M1503.54 461.786C1501.98 467.226 1499.5 474.89 1496.08 484.776C1494.15 490.35 1491.23 494.606 1487.32 497.546C1487.05 497.749 1486.84 498.018 1486.71 498.326C1479.83 514.693 1470.7 529.51 1459.34 542.776C1454.3 548.656 1449.35 554.036 1444.48 558.916C1437.64 565.783 1429.43 572.426 1419.87 578.846C1406.78 587.646 1392.18 593.476 1377.36 596.976C1376.2 597.249 1372.85 597.876 1367.3 598.856C1357.07 600.669 1347.68 604.58 1339.14 610.586C1332.02 615.6 1326.26 619.333 1321.87 621.786C1317.04 624.48 1309.95 628.063 1300.6 632.536C1292.16 636.576 1284.79 639.51 1278.49 641.336C1265.61 645.083 1254.3 647.303 1244.58 647.996C1221.05 649.686 1196.67 647.656 1174.14 639.946C1162.91 636.1 1155.15 633.119 1150.86 631.006C1139.39 625.356 1127.28 618.396 1115.65 610.616C1105.34 603.726 1092.67 598.746 1080.35 598.766C1065.62 598.796 1046.94 601.966 1031.87 601.696C1020.75 601.496 1010.06 600.203 999.798 597.816C993.365 596.316 985.212 594.01 975.338 590.896C971.998 589.843 967.592 588.993 962.118 588.346C959.132 587.993 955.975 588.129 952.648 588.756C943.078 590.566 931.108 594.216 924.778 595.926C916.358 598.206 910.298 599.586 906.598 600.066C895.385 601.533 884.265 602.096 873.238 601.756C868.365 601.609 861.468 600.99 852.548 599.896C845.488 599.03 838.585 598.346 831.838 597.846C825.088 597.356 816.508 595.476 811.288 595.186C806.588 594.933 800.608 594.743 793.348 594.616C787.708 594.516 781.728 594.753 775.408 595.326C760.515 596.68 743.988 599.863 725.828 604.876C709.488 609.383 697.585 612.203 690.118 613.336C680.358 614.823 669.605 615.433 657.858 615.166C656.825 615.146 651.662 614.966 642.368 614.626C636.055 614.399 631.558 614.536 628.878 615.036C620.958 616.516 614.188 619.896 606.898 624.096C598.418 628.976 592.445 632.46 588.978 634.546C582.032 638.72 575.902 641.876 570.588 644.016C562.995 647.083 555.512 649.873 548.138 652.386C544.148 653.746 540.248 654.316 535.868 655.376C533.708 655.903 530.605 656.486 526.558 657.126C520.832 658.033 513.452 659.116 504.418 660.376C488.258 662.623 473.772 668.956 460.958 679.376C451.668 686.916 444.428 693.106 434.928 699.946C423.975 707.84 417.308 712.57 414.928 714.136C401.335 723.11 389.085 729.683 378.178 733.856C359.898 740.846 342.428 745.236 322.438 746.646C317.418 746.993 311.858 747.063 305.758 746.856C296.625 746.536 291.078 746.213 289.118 745.886C277.072 743.893 269.832 742.52 267.398 741.766C253.838 737.6 242.735 733.293 234.088 728.846C232.755 728.166 227.672 725.316 218.838 720.296C218.62 720.177 218.424 720.018 218.258 719.826C217.068 718.476 215.618 718.376 214.048 716.946C213.282 716.253 212.408 715.703 211.428 715.296C211.097 715.157 210.79 714.965 210.518 714.726C201.045 706.406 194.612 700.446 191.218 696.846C186.372 691.706 180.935 684.936 174.908 676.536C170.058 669.786 165.738 661.666 161.888 654.696C154.028 640.436 148.958 631.616 145.408 618.216C143.958 612.766 141.388 607.836 139.668 603.996C138.542 601.476 137.308 597.65 135.968 592.516C135.628 591.21 134.748 589.806 133.328 588.306C129.978 561.566 130.288 537.056 129.908 511.266C130.928 508.74 131.542 506.456 131.748 504.416C132.388 497.963 132.822 489.83 133.048 480.016C133.208 473.226 134.668 466.786 133.938 460.106C133.545 456.546 132.772 452.46 131.618 447.846C129.548 439.566 123.638 429.536 119.738 422.876C114.985 414.743 111.242 408.573 108.508 404.366C105.935 400.413 102.728 395.8 98.8883 390.526C89.0983 377.086 82.6083 366.816 70.8183 349.706C68.1683 345.846 65.7083 340.756 63.0183 336.976C58.9183 331.256 53.9483 321.936 49.5483 315.756C47.7417 313.21 45.7983 309.793 43.7183 305.506C39.8917 297.606 34.295 286.94 26.9283 273.506C26.0217 271.84 24.6817 268.636 22.9083 263.896C21.8817 261.143 20.625 258.443 19.1383 255.796C17.1783 252.31 15.6983 248.973 14.6983 245.786C12.4783 238.76 10.4817 231.68 8.70833 224.546C8.075 222.013 6.98832 220.25 5.44832 219.256C1.70832 187.47 5.21167 157.44 15.9583 129.166C21.765 113.9 30.3483 98.9862 41.7083 84.4262C77.3783 38.6762 137.238 13.8162 194.368 17.4562C216.288 18.8562 237.018 25.2762 258.948 32.4462C261.922 33.4195 266.155 34.4729 271.648 35.6062C282.108 37.7662 293.198 36.9962 302.838 33.4962C333.858 22.2062 366.448 8.1262 399.878 12.5262C410.372 13.9129 420.928 16.2762 431.548 19.6162C437.988 21.6362 443.838 21.2762 450.418 18.7662C453.292 17.6662 458.458 15.7062 465.918 12.8862C483.828 6.10619 505.018 0.996198 524.298 0.146198C559.348 -1.3938 592.958 9.32624 622.548 27.8762C632.248 33.9496 640.292 38.9729 646.678 42.9462C652.125 46.3329 659.068 50.1329 667.508 54.3462C680.528 60.8462 693.948 65.6795 707.768 68.8462C738.728 75.9362 770.618 77.2062 802.628 75.8762C828.308 74.8062 850.088 68.5362 876.648 60.5862C880.175 59.5329 886.645 58.0162 896.058 56.0362C918.128 51.4062 940.578 51.3962 962.838 55.6462C968.245 56.6729 975.058 58.0962 983.278 59.9162C997.968 63.1662 1015.06 56.2662 1028.43 49.0862C1037.15 44.4062 1048.06 38.8296 1061.17 32.3562C1068.98 28.4962 1078.45 24.8162 1089.59 21.3162C1099.89 18.0762 1109.73 15.5995 1119.13 13.8862C1143.28 9.49285 1167.6 10.0662 1192.1 15.6062C1206.08 18.7729 1219.69 22.9862 1232.92 28.2462C1236.43 29.6362 1242.59 31.4162 1247.6 31.2562C1254.16 31.0495 1258.16 30.8229 1259.62 30.5762C1312.66 21.5562 1365.99 35.0662 1408.37 67.7562C1419.83 76.6028 1431.04 87.6562 1441.98 100.916C1453.99 115.486 1463.6 132.786 1470.81 150.096C1474.15 158.123 1476.98 166.79 1479.28 176.096C1481.57 185.396 1483.05 192.743 1483.73 198.136C1486.16 217.696 1486.5 236.626 1484.75 254.926C1483.49 268.006 1480.95 281.986 1477.47 297.246C1475.45 306.106 1473.67 315.043 1472.13 324.056C1469.65 338.53 1470.82 352.596 1475.64 366.256C1478.72 375.016 1482.56 383.886 1487.69 395.396C1496.92 416.076 1503.64 439.016 1503.54 461.786ZM1056.39 423.146C1056.89 425.88 1057.8 428.536 1059.1 431.116C1066.48 445.77 1077.9 455.996 1093.35 461.796C1108.29 467.416 1125.09 468.186 1140.06 462.146C1140.13 462.119 1140.2 462.113 1140.28 462.127C1140.35 462.142 1140.42 462.177 1140.47 462.229C1140.52 462.28 1140.56 462.346 1140.58 462.418C1140.6 462.49 1140.59 462.566 1140.57 462.636C1135.33 477.076 1133.29 492.376 1136.3 507.556C1137.35 512.85 1139.48 519.016 1142.68 526.056C1151.53 545.526 1169.14 560.666 1188.9 567.976C1207.14 574.716 1225.58 575.77 1244.24 571.136C1266.33 565.646 1286.27 553.186 1302.68 537.596C1315.02 525.87 1325.45 513.306 1333.97 499.906C1338.76 492.366 1344.18 482.606 1350.23 470.626C1360.6 450.096 1368.16 426.816 1373.21 404.666C1379.85 375.52 1384.1 345.81 1385.96 315.536C1387.36 292.643 1387.95 267.69 1387.73 240.676C1387.64 229.586 1387.63 218.646 1386.72 207.626C1384.17 176.956 1367.86 147.516 1341.15 131.706C1329.42 124.766 1316.39 121.643 1302.06 122.336C1283.02 123.256 1265.64 131.886 1254.66 147.406C1250.99 152.593 1248.26 157.863 1246.46 163.216C1246.44 163.269 1246.41 163.317 1246.36 163.353C1246.32 163.389 1246.27 163.413 1246.21 163.422C1246.15 163.431 1246.1 163.425 1246.04 163.405C1245.99 163.384 1245.94 163.35 1245.91 163.306C1236.51 151.076 1224.6 140.876 1209.24 135.976C1193.02 130.816 1177.23 131.936 1161.88 139.336C1149.86 145.136 1141.35 154.216 1134.3 164.996C1134.27 165.044 1134.22 165.085 1134.17 165.114C1134.13 165.144 1134.07 165.162 1134.01 165.168C1133.96 165.174 1133.9 165.167 1133.84 165.147C1133.79 165.128 1133.74 165.097 1133.7 165.056C1120.46 152.056 1104.77 144.843 1086.65 143.416C1077.93 142.723 1069.64 143.64 1061.77 146.166C1046.59 151.033 1033.65 159.086 1022.93 170.326C1018.24 175.24 1014.05 180.31 1010.36 185.536C1010.31 185.609 1010.24 185.67 1010.16 185.714C1010.09 185.758 1010 185.785 1009.91 185.793C1009.82 185.8 1009.73 185.788 1009.65 185.758C1009.57 185.727 1009.49 185.679 1009.43 185.616C989.378 165.056 963.078 154.416 933.878 157.866C912.118 160.446 891.888 172.576 879.228 190.416C874.735 196.756 870.908 203.43 867.748 210.436C867.718 210.502 867.671 210.558 867.612 210.6C867.553 210.642 867.485 210.668 867.414 210.675C867.343 210.682 867.271 210.67 867.207 210.641C867.143 210.611 867.088 210.565 867.048 210.506C861.122 202.093 853.855 194.78 845.248 188.566C820.778 170.896 788.098 171.456 762.668 187.076C752.968 193.036 744.442 200.433 737.088 209.266C735.308 211.413 733.152 214.146 730.618 217.466C730.552 217.553 730.469 217.624 730.374 217.677C730.279 217.729 730.174 217.761 730.065 217.771C729.957 217.78 729.848 217.767 729.745 217.731C729.642 217.696 729.548 217.64 729.468 217.566C729.282 217.386 727.138 215.516 723.038 211.956C690.018 183.226 643.078 185.176 610.998 214.636C606.888 218.416 603.518 222.706 598.718 228.416C598.639 228.511 598.541 228.587 598.43 228.641C598.319 228.694 598.197 228.723 598.073 228.726C597.95 228.729 597.826 228.705 597.712 228.657C597.597 228.609 597.494 228.537 597.408 228.446C589.838 220.416 579.928 213.646 569.368 210.786C537.998 202.286 507.078 217.566 493.358 246.846C493.324 246.918 493.273 246.98 493.21 247.028C493.146 247.076 493.072 247.108 492.994 247.121C492.916 247.135 492.836 247.13 492.76 247.106C492.684 247.083 492.615 247.042 492.558 246.986C482.408 237.246 470.848 230.536 456.508 229.066C456.435 229.058 456.364 229.035 456.3 228.997C456.236 228.96 456.181 228.909 456.138 228.848C456.096 228.788 456.066 228.719 456.053 228.646C456.039 228.573 456.041 228.498 456.058 228.426C459.398 214.806 462.368 200.436 462.548 186.546C463.008 151.706 441.798 122.156 410.168 108.406C379.098 94.8962 345.008 105.156 323.818 130.786C310.448 146.966 304.138 163.586 297.048 184.826C293.988 193.98 291.188 203.846 288.648 214.426C288.623 214.532 288.565 214.626 288.483 214.697C288.401 214.768 288.299 214.812 288.191 214.822C288.083 214.832 287.974 214.807 287.88 214.753C287.787 214.698 287.713 214.615 287.668 214.516C284.842 208.13 281.508 201.536 277.668 194.736C269.348 179.986 263.478 169.286 254.698 156.956C237.628 132.996 209.318 110.366 178.298 112.016C161.128 112.916 144.278 119.666 130.818 130.896C115.878 143.356 105.988 158.846 101.148 177.366C95.5583 198.736 97.4983 222.586 104.168 244.236C106.468 251.69 109.832 260.243 114.258 269.896C127.148 297.976 142.348 323.366 160.288 350.366C168.328 362.466 181.675 380.71 200.328 405.096C209.248 416.746 219.048 427.816 227.528 439.276C229.595 442.076 230.508 444.913 230.268 447.786C227.868 475.913 226.398 494.246 225.858 502.786C224.258 527.916 223.088 546.396 223.778 567.286C224.145 578.386 225.758 589.476 228.618 600.556C233.858 620.866 246.038 639.946 262.948 652.266C273.668 660.08 284.918 665.04 296.698 667.146C322.388 671.746 347.238 663.956 366.188 646.106C381.918 631.276 390.558 610.816 392.758 589.506C393.632 581.033 394.055 571.13 394.028 559.796C393.982 538.376 393.578 517.376 392.818 496.796C392.814 496.707 392.838 496.618 392.889 496.544C392.939 496.469 393.013 496.414 393.098 496.386C393.183 496.357 393.275 496.358 393.36 496.387C393.445 496.416 393.518 496.472 393.568 496.546C397.678 502.586 401.508 506.296 407.428 512.576C417.008 522.736 429.618 530.766 442.378 536.776C463.472 546.716 485.455 549.366 508.328 544.726C521.608 542.036 531.808 537.916 543.988 532.666C546.482 531.593 548.605 531.113 550.358 531.226C558.065 531.713 562.148 531.953 562.608 531.946C573.678 531.826 584.448 528.186 594.198 523.106C601.088 519.526 606.218 514.996 612.288 509.436C612.561 509.19 612.91 509.044 613.277 509.022C613.644 509 614.008 509.104 614.308 509.316C634.458 523.676 657.678 528.306 681.208 519.766C700.555 512.746 712.972 499.266 718.458 479.326C720.025 473.626 720.928 468.146 721.168 462.886C721.169 462.859 721.176 462.833 721.19 462.81C721.203 462.787 721.222 462.767 721.245 462.753C721.268 462.739 721.294 462.732 721.321 462.73C721.348 462.729 721.374 462.735 721.398 462.746C732.965 468.566 744.825 470.43 756.978 468.336C765.858 466.796 772.228 463.096 779.198 458.576C779.287 458.519 779.387 458.483 779.491 458.471C779.596 458.459 779.702 458.471 779.8 458.507C779.899 458.543 779.988 458.601 780.061 458.678C780.133 458.754 780.187 458.846 780.218 458.946C785.818 477.896 805.428 494.826 824.468 499.126C842.902 503.286 859.978 500.286 875.698 490.126C881.818 486.173 886.932 481.393 891.038 475.786C891.122 475.671 891.246 475.592 891.387 475.565C891.527 475.537 891.674 475.562 891.798 475.636C898.065 479.536 904.728 482.663 911.788 485.016C922.568 488.596 932.358 489.186 943.298 487.166C954.108 485.176 965.608 480.496 973.588 473.046C987.028 460.516 992.498 445.656 994.948 427.376C994.956 427.318 994.979 427.262 995.014 427.214C995.049 427.166 995.095 427.127 995.149 427.102C995.202 427.076 995.261 427.064 995.32 427.066C995.38 427.069 995.437 427.086 995.488 427.116C1010.92 436.086 1029.56 436.976 1045.59 428.806C1048.83 427.153 1052.26 425.196 1055.9 422.936C1055.94 422.907 1055.99 422.89 1056.05 422.885C1056.1 422.881 1056.15 422.889 1056.2 422.91C1056.25 422.931 1056.29 422.963 1056.32 423.004C1056.36 423.046 1056.38 423.094 1056.39 423.146Z" fill="#FED82C"/>
<path d="M1056.39 423.146C1056.38 423.094 1056.36 423.046 1056.32 423.004C1056.29 422.963 1056.25 422.931 1056.2 422.91C1056.15 422.889 1056.1 422.881 1056.05 422.885C1055.99 422.89 1055.94 422.908 1055.9 422.936C1052.27 425.196 1048.83 427.153 1045.59 428.806C1029.56 436.976 1010.92 436.086 995.488 427.116C995.437 427.086 995.38 427.069 995.32 427.066C995.261 427.064 995.202 427.076 995.149 427.102C995.095 427.127 995.049 427.166 995.014 427.214C994.979 427.262 994.956 427.318 994.948 427.376C992.498 445.656 987.028 460.516 973.588 473.046C965.608 480.496 954.108 485.176 943.298 487.166C932.358 489.186 922.568 488.596 911.788 485.016C904.728 482.663 898.065 479.536 891.798 475.636C891.674 475.562 891.527 475.537 891.387 475.565C891.246 475.592 891.122 475.671 891.038 475.786C886.932 481.393 881.818 486.173 875.698 490.126C859.978 500.286 842.902 503.286 824.468 499.126C805.428 494.826 785.818 477.896 780.218 458.946C780.187 458.846 780.133 458.754 780.061 458.678C779.988 458.602 779.899 458.543 779.8 458.508C779.702 458.472 779.596 458.459 779.491 458.471C779.387 458.483 779.287 458.519 779.198 458.576C772.228 463.096 765.858 466.796 756.978 468.336C744.825 470.43 732.965 468.566 721.398 462.746C721.374 462.735 721.348 462.729 721.321 462.73C721.294 462.732 721.268 462.74 721.245 462.754C721.222 462.767 721.203 462.787 721.19 462.81C721.176 462.833 721.169 462.86 721.168 462.886C720.928 468.146 720.025 473.626 718.458 479.326C712.972 499.266 700.555 512.746 681.208 519.766C657.678 528.306 634.458 523.676 614.308 509.316C614.008 509.104 613.644 509 613.277 509.022C612.91 509.044 612.561 509.19 612.288 509.436C606.218 514.996 601.088 519.526 594.198 523.106C584.448 528.186 573.678 531.826 562.608 531.946C562.148 531.953 558.065 531.713 550.358 531.226C548.605 531.113 546.482 531.593 543.988 532.666C531.808 537.916 521.608 542.036 508.328 544.726C485.455 549.366 463.472 546.716 442.378 536.776C429.618 530.766 417.008 522.736 407.428 512.576C401.508 506.296 397.678 502.586 393.568 496.546C393.518 496.472 393.445 496.416 393.36 496.387C393.275 496.358 393.183 496.357 393.098 496.386C393.013 496.414 392.939 496.47 392.889 496.544C392.838 496.618 392.814 496.707 392.818 496.796C393.578 517.376 393.982 538.376 394.028 559.796C394.055 571.13 393.632 581.033 392.758 589.506C390.558 610.816 381.918 631.276 366.188 646.106C347.238 663.956 322.388 671.746 296.698 667.146C284.918 665.04 273.668 660.08 262.948 652.266C246.038 639.946 233.858 620.866 228.618 600.556C225.758 589.476 224.145 578.386 223.778 567.286C223.088 546.396 224.258 527.916 225.858 502.786C226.398 494.246 227.868 475.913 230.268 447.786C230.508 444.913 229.595 442.076 227.528 439.276C219.048 427.816 209.248 416.746 200.328 405.096C181.675 380.71 168.328 362.466 160.288 350.366C142.348 323.366 127.148 297.976 114.258 269.896C109.832 260.243 106.468 251.69 104.168 244.236C97.4983 222.586 95.5583 198.736 101.148 177.366C105.988 158.846 115.878 143.356 130.818 130.896C144.278 119.666 161.128 112.916 178.298 112.016C209.318 110.366 237.628 132.996 254.698 156.956C263.478 169.286 269.348 179.986 277.668 194.736C281.508 201.536 284.842 208.13 287.668 214.516C287.713 214.615 287.787 214.698 287.88 214.753C287.974 214.808 288.082 214.832 288.191 214.822C288.299 214.812 288.401 214.768 288.483 214.698C288.565 214.627 288.623 214.532 288.648 214.426C291.188 203.846 293.988 193.98 297.048 184.826C304.138 163.586 310.448 146.966 323.818 130.786C345.008 105.156 379.098 94.8964 410.168 108.406C441.798 122.156 463.008 151.706 462.548 186.546C462.368 200.436 459.398 214.806 456.058 228.426C456.041 228.498 456.039 228.573 456.053 228.646C456.066 228.719 456.096 228.788 456.138 228.848C456.181 228.909 456.236 228.96 456.3 228.997C456.364 229.035 456.435 229.059 456.508 229.066C470.848 230.536 482.408 237.246 492.558 246.986C492.615 247.042 492.684 247.083 492.76 247.107C492.836 247.13 492.916 247.135 492.994 247.122C493.072 247.108 493.146 247.076 493.21 247.028C493.273 246.98 493.324 246.918 493.358 246.846C507.078 217.566 537.998 202.286 569.368 210.786C579.928 213.646 589.838 220.416 597.408 228.446C597.494 228.537 597.597 228.609 597.712 228.657C597.826 228.706 597.95 228.729 598.073 228.726C598.197 228.723 598.319 228.694 598.43 228.641C598.541 228.587 598.639 228.511 598.718 228.416C603.518 222.706 606.888 218.416 610.998 214.636C643.078 185.176 690.018 183.226 723.038 211.956C727.138 215.516 729.282 217.386 729.468 217.566C729.548 217.64 729.642 217.696 729.745 217.732C729.848 217.767 729.957 217.78 730.065 217.771C730.174 217.761 730.279 217.729 730.374 217.677C730.469 217.625 730.552 217.553 730.618 217.466C733.152 214.146 735.308 211.413 737.088 209.266C744.442 200.433 752.968 193.036 762.668 187.076C788.098 171.456 820.778 170.896 845.248 188.566C853.855 194.78 861.122 202.093 867.048 210.506C867.088 210.565 867.143 210.611 867.207 210.641C867.271 210.67 867.343 210.682 867.414 210.675C867.485 210.668 867.553 210.642 867.612 210.6C867.671 210.558 867.718 210.502 867.748 210.436C870.908 203.43 874.735 196.756 879.228 190.416C891.888 172.576 912.118 160.446 933.878 157.866C963.078 154.416 989.378 165.056 1009.43 185.616C1009.49 185.679 1009.57 185.728 1009.65 185.758C1009.73 185.789 1009.82 185.8 1009.91 185.793C1010 185.785 1010.09 185.758 1010.16 185.714C1010.24 185.67 1010.31 185.609 1010.36 185.536C1014.05 180.31 1018.24 175.24 1022.93 170.326C1033.65 159.086 1046.6 151.033 1061.77 146.166C1069.64 143.64 1077.94 142.723 1086.65 143.416C1104.78 144.843 1120.46 152.056 1133.7 165.056C1133.74 165.097 1133.79 165.128 1133.84 165.148C1133.9 165.167 1133.96 165.174 1134.01 165.168C1134.07 165.163 1134.13 165.144 1134.17 165.114C1134.22 165.085 1134.27 165.044 1134.3 164.996C1141.35 154.216 1149.86 145.136 1161.88 139.336C1177.23 131.936 1193.02 130.816 1209.24 135.976C1224.6 140.876 1236.51 151.076 1245.91 163.306C1245.94 163.351 1245.99 163.385 1246.04 163.405C1246.1 163.425 1246.15 163.431 1246.21 163.422C1246.27 163.413 1246.32 163.389 1246.36 163.353C1246.41 163.317 1246.44 163.27 1246.46 163.216C1248.26 157.863 1250.99 152.593 1254.66 147.406C1265.64 131.886 1283.02 123.256 1302.06 122.336C1316.39 121.643 1329.42 124.766 1341.15 131.706C1367.86 147.516 1384.17 176.956 1386.72 207.626C1387.63 218.646 1387.64 229.586 1387.73 240.676C1387.95 267.69 1387.36 292.643 1385.96 315.536C1384.1 345.81 1379.85 375.52 1373.21 404.666C1368.16 426.816 1360.6 450.096 1350.23 470.626C1344.18 482.606 1338.76 492.366 1333.97 499.906C1325.45 513.306 1315.02 525.87 1302.68 537.596C1286.27 553.186 1266.33 565.646 1244.24 571.136C1225.58 575.77 1207.14 574.716 1188.9 567.976C1169.14 560.666 1151.53 545.526 1142.68 526.056C1139.48 519.016 1137.35 512.85 1136.3 507.556C1133.29 492.376 1135.33 477.076 1140.57 462.636C1140.59 462.566 1140.6 462.49 1140.58 462.418C1140.56 462.346 1140.52 462.28 1140.47 462.229C1140.42 462.177 1140.35 462.142 1140.28 462.128C1140.2 462.113 1140.13 462.119 1140.06 462.146C1125.09 468.186 1108.29 467.416 1093.35 461.796C1077.9 455.996 1066.48 445.77 1059.1 431.116C1057.8 428.536 1056.9 425.88 1056.39 423.146ZM288.958 299.336C282.358 300.126 279.108 291.966 276.748 286.146C272.808 276.446 269.508 266.906 264.758 255.956C257.588 239.416 251.148 223.786 243.278 208.376C236.578 195.276 229.558 182.496 220.958 170.196C210.488 155.236 193.628 140.256 173.978 142.166C160.048 143.526 148.058 151.546 139.078 162.536C126.468 177.986 124.378 199.706 128.478 218.666C131.118 230.853 135.462 242.996 141.508 255.096C152.675 277.43 165.065 298.553 178.678 318.466C189.385 334.133 200.788 349.85 212.888 365.616C224.558 380.816 239.878 398.916 251.148 414.106C254.135 418.126 256.088 421.333 257.008 423.726C259.248 429.506 259.098 436.596 258.668 442.796C257.202 464.103 255.782 485.603 254.408 507.296C253.268 525.363 252.702 541.36 252.708 555.286C252.718 576.726 256.478 601.586 273.958 616.396C278.658 620.383 284.128 623.103 290.368 624.556C303.955 627.723 316.205 625.133 327.118 616.786C343.198 604.496 349.748 584.006 350.038 564.276C350.548 530.196 349.538 496.636 348.458 443.536C348.398 440.49 348.368 431.766 348.368 417.366C348.368 405.506 350.048 397.076 353.748 386.676C360.368 368.066 365.058 356.376 373.638 333.016C373.778 332.636 377.308 323.126 384.228 304.486C388.368 293.346 394.518 275.38 402.678 250.586C407.465 236.046 411.525 222.036 414.858 208.556C419.918 188.116 423.518 162.556 407.958 145.216C400.998 137.456 392.802 133.236 383.368 132.556C358.828 130.776 342.308 148.336 332.898 168.836C328.725 177.936 325.652 185.356 323.678 191.096C317.665 208.616 312.478 225.84 308.118 242.766C300.825 271.066 296.875 286.293 296.268 288.446C295.258 292.016 292.808 298.876 288.958 299.336ZM1247.93 373.366C1250.91 371.456 1254.38 369.336 1257.31 371.656C1262.35 375.636 1262.49 382.596 1260.75 388.226C1257.11 399.96 1249.95 410.286 1239.29 419.206C1237 421.12 1234.3 422.92 1231.19 424.606C1224.15 428.4 1219.42 430.85 1217.01 431.956C1201.26 439.163 1192 443.566 1189.24 445.166C1178.13 451.573 1170.73 460.873 1167.05 473.066C1165.48 478.236 1165.26 483.406 1165.49 489.306C1165.94 500.966 1173.09 513.306 1182.57 519.396C1211.81 538.186 1247.72 524.096 1270.35 501.566C1274.06 497.873 1277.42 494.373 1280.44 491.066C1282.17 489.173 1285.13 485.323 1289.32 479.516C1299.17 465.856 1307.08 452.173 1313.05 438.466C1328.27 403.506 1336.82 366.546 1340.15 328.786C1343.43 291.513 1344.38 251.983 1343.01 210.196C1342.76 202.896 1341.93 195.346 1340.65 187.536C1337.24 166.716 1322.85 147.836 1299.48 151.536C1287.91 153.376 1277.82 161.626 1274.08 172.276C1271.54 179.496 1269.95 186.416 1269.31 193.036C1267.56 211.003 1265.71 225.41 1263.76 236.256C1261.69 247.766 1257.85 260.436 1250.24 269.596C1248.26 271.976 1243.21 274.646 1239.6 273.296C1234.21 271.286 1230.26 263.646 1228.75 258.376C1225.77 247.936 1224.86 238.606 1224.39 227.536C1223.91 216.41 1223.45 208.333 1223.01 203.306C1222.07 192.746 1219.53 182.826 1212.48 174.376C1203.48 163.596 1188.87 159.906 1175.98 165.516C1164.86 170.366 1157.65 180.686 1155.32 192.266C1154.16 198.033 1153.46 203.366 1153.22 208.266C1152.06 231.96 1151.87 257.133 1152.63 283.786C1152.93 294.46 1153.78 306.21 1155.18 319.036C1156.91 334.916 1160.05 349.556 1167.97 363.166C1174.82 374.946 1184.61 382.62 1197.33 386.186C1209.47 389.596 1222.16 386.656 1233.34 381.916C1237.98 379.956 1243.41 376.256 1247.93 373.366ZM1014.07 240.276C1010.14 242.686 1006.9 236.826 1005.42 234.246C996.988 219.536 987.728 206.856 974.808 197.736C966.995 192.223 959.305 188.82 951.738 187.526C937.018 185.006 920.728 188.916 910.258 199.776C894.578 216.036 890.138 239.766 886.468 261.156C884.935 270.103 883.858 278.836 883.238 287.356C880.398 326.256 880.985 364.663 884.998 402.576C886.738 418.956 893.308 439.576 911.898 443.706C916.098 444.64 920.828 444.806 926.088 444.206C945.088 442.026 952.768 421.986 953.158 405.526C953.312 398.886 953.515 383.89 953.768 360.536C953.842 353.796 954.415 347.26 955.488 340.926C955.935 338.286 956.705 335.893 957.798 333.746C960.008 329.376 964.478 326.686 968.798 330.276C970.888 332.016 973.088 337.126 973.808 339.126C979.248 354.296 981.488 361.986 986.808 372.336C989.858 378.276 994.418 383.816 1000.49 387.206C1003.36 388.806 1006.92 389.68 1011.18 389.826C1018.74 390.086 1025.29 387.623 1030.85 382.436C1034.82 378.716 1038.93 371.266 1040.99 366.656C1043.45 361.17 1047.24 350.966 1052.37 336.046C1054.63 329.506 1057.73 320.056 1064.54 318.216C1071.48 316.356 1073.79 324.326 1074.6 329.316C1075.94 337.583 1076.71 346.576 1076.88 356.296C1077.12 369.903 1077.63 381.726 1078.41 391.766C1079.3 403.216 1084.9 415.336 1095.47 419.946C1102.47 423 1109.94 423.313 1117.89 420.886C1128.81 417.556 1136.03 408.536 1139.8 397.626C1144.13 385.106 1144.13 372.296 1143.9 358.536C1143.69 346.136 1143.29 335.523 1142.71 326.696C1142.07 317.25 1140.61 302.643 1138.32 282.876C1136.97 271.166 1134.41 255.416 1132.52 245.656C1131.41 239.903 1129.03 230.716 1125.38 218.096C1123.91 213.003 1121.64 207.113 1118.57 200.426C1115.29 193.313 1110.89 187.45 1105.35 182.836C1091.72 171.496 1076.35 171.026 1060.95 179.236C1054.97 182.416 1049.61 186.683 1044.85 192.036C1037.66 200.123 1031.49 209.28 1026.33 219.506C1024.61 222.893 1022.11 227.953 1018.82 234.686C1017.71 236.966 1016.09 239.036 1014.07 240.276ZM735.438 272.456C734.962 272.854 734.324 273.06 733.619 273.042C732.915 273.024 732.181 272.783 731.528 272.356C730.408 271.63 729.365 270.593 728.398 269.246C724.678 264.086 720.998 257.166 717.578 252.726C712.078 245.573 706.185 239.436 699.898 234.316C686.698 223.576 666.658 218.116 650.528 224.496C638.528 229.25 629.458 237.66 623.318 249.726C616.748 262.646 613.388 277.726 611.208 292.316C608.182 312.576 606.462 333.233 606.048 354.286C605.468 383.886 606.178 411.696 610.288 440.346C612.588 456.386 619.538 476.416 637.578 480.456C648.498 482.886 660.628 480.976 668.518 473.026C674.588 466.906 678.008 458.136 678.698 449.806C679.818 436.216 678.968 422.456 678.378 407.536C678.192 402.71 678.412 394.626 679.038 383.286C679.318 378.216 680.838 370.486 684.688 367.126C688.578 363.736 693.158 365.826 695.228 369.926C696.668 372.78 697.535 374.586 697.828 375.346C704.658 393.036 706.928 400.936 713.838 412.296C719.238 421.166 726.908 425.046 737.338 424.906C749.648 424.746 757.288 416.716 762.368 405.926C764.682 401.02 766.352 396.976 767.378 393.796C773.192 375.79 776.538 365.56 777.418 363.106C778.685 359.586 780.005 356.886 781.378 355.006C784.438 350.806 790.048 348.616 793.248 354.326C795.788 358.856 796.838 364.636 797.318 370.046C798.092 378.78 798.672 389.393 799.058 401.886C799.528 417.086 798.518 433.196 807.058 446.136C812.998 455.126 825.428 459.706 835.678 457.136C846.732 454.37 854.445 447.646 858.818 436.966C864.808 422.356 865.148 404.256 865.068 389.036C864.915 362.063 862.642 334.526 858.248 306.426C856.055 292.446 854.292 282.406 852.958 276.306C850.852 266.72 848.135 256.903 844.808 246.856C841.602 237.183 837.248 228.643 831.748 221.236C824.315 211.236 814.618 206.073 802.658 205.746C796.332 205.566 790.642 206.666 785.588 209.046C773.962 214.513 764.585 222.536 757.458 233.116C751.985 241.243 748.382 247.236 746.648 251.096C742.222 260.936 739.875 266.156 739.608 266.756C738.575 269.096 737.185 270.996 735.438 272.456ZM498.748 395.886C492.688 402.366 484.408 399.556 480.738 392.386C476.398 383.916 476.098 375.636 475.848 364.676C475.448 347.716 476.588 332.286 477.298 308.046C477.478 301.966 477.262 295.853 476.648 289.706C475.248 275.656 469.648 264.496 456.248 259.966C449.808 257.786 441.888 257.686 435.748 260.186C428.498 263.136 421.208 268.356 417.268 275.226C415.115 278.973 413.308 282.92 411.848 287.066C409.015 295.146 406.908 302.21 405.528 308.256C400.208 331.676 396.695 354.856 394.988 377.796C394.095 389.843 394.132 402.026 395.098 414.346C396.298 429.646 399.708 443.176 405.368 456.056C414.348 476.456 431.498 492.986 452.878 500.226C469.278 505.786 487.798 504.286 503.968 497.906C509.615 495.68 516.078 492.816 523.358 489.316C526.585 487.756 529.382 487.28 531.748 487.886C537.388 489.32 540.598 490.07 541.378 490.136C554.432 491.33 565.348 487.206 574.128 477.766C582.102 469.186 587.015 459.346 588.868 448.246C590.488 438.52 591.002 427.616 590.408 415.536C588.062 367.523 586.672 339.873 586.238 332.586C585.365 317.953 584.255 304.933 582.908 293.526C581.428 281.016 579.418 268.376 574.338 257.156C571.705 251.35 568.685 247.05 565.278 244.256C558.188 238.456 548.248 237.026 539.428 240.146C528.148 244.146 520.758 251.93 517.258 263.496C514.992 270.99 513.738 279.743 513.498 289.756C512.985 310.79 512.685 326.55 512.598 337.036C512.518 346.876 511.745 356.853 510.278 366.966C508.738 377.586 505.858 388.286 498.748 395.886Z" fill="black"/>
<path d="M288.958 299.336C292.808 298.876 295.258 292.016 296.268 288.446C296.875 286.293 300.825 271.066 308.118 242.766C312.478 225.839 317.665 208.616 323.678 191.096C325.652 185.356 328.725 177.936 332.898 168.836C342.308 148.336 358.828 130.776 383.368 132.556C392.802 133.236 400.998 137.456 407.958 145.216C423.518 162.556 419.918 188.116 414.858 208.556C411.525 222.036 407.465 236.046 402.678 250.586C394.518 275.379 388.368 293.346 384.228 304.486C377.308 323.126 373.778 332.636 373.638 333.016C365.058 356.376 360.368 368.066 353.748 386.676C350.048 397.076 348.368 405.506 348.368 417.366C348.368 431.766 348.398 440.489 348.458 443.536C349.538 496.636 350.548 530.196 350.038 564.276C349.748 584.006 343.198 604.496 327.118 616.786C316.205 625.133 303.955 627.723 290.368 624.556C284.128 623.103 278.658 620.383 273.958 616.396C256.478 601.586 252.718 576.726 252.708 555.286C252.702 541.359 253.268 525.363 254.408 507.296C255.782 485.603 257.202 464.103 258.668 442.796C259.098 436.596 259.248 429.506 257.008 423.726C256.088 421.333 254.135 418.126 251.148 414.106C239.878 398.916 224.558 380.816 212.888 365.616C200.788 349.849 189.385 334.133 178.678 318.466C165.065 298.553 152.675 277.429 141.508 255.096C135.462 242.996 131.118 230.853 128.478 218.666C124.378 199.706 126.468 177.986 139.078 162.536C148.058 151.546 160.048 143.526 173.978 142.166C193.628 140.256 210.488 155.236 220.958 170.196C229.558 182.496 236.578 195.276 243.278 208.376C251.148 223.786 257.588 239.416 264.758 255.956C269.508 266.906 272.808 276.446 276.748 286.146C279.108 291.966 282.358 300.126 288.958 299.336Z" fill="#FEFFE0"/>
<path d="M1257.31 371.656C1254.38 369.336 1250.91 371.456 1247.93 373.366C1243.41 376.256 1237.98 379.956 1233.34 381.916C1222.16 386.656 1209.47 389.596 1197.33 386.186C1184.61 382.619 1174.82 374.946 1167.97 363.166C1160.05 349.556 1156.91 334.916 1155.18 319.036C1153.78 306.209 1152.94 294.459 1152.63 283.786C1151.87 257.133 1152.07 231.959 1153.22 208.266C1153.46 203.366 1154.16 198.033 1155.32 192.266C1157.65 180.686 1164.86 170.366 1175.98 165.516C1188.87 159.906 1203.48 163.596 1212.48 174.376C1219.53 182.826 1222.07 192.746 1223.01 203.306C1223.46 208.333 1223.92 216.409 1224.39 227.536C1224.86 238.606 1225.77 247.936 1228.75 258.376C1230.26 263.646 1234.21 271.286 1239.6 273.296C1243.21 274.646 1248.26 271.976 1250.24 269.596C1257.85 260.436 1261.69 247.766 1263.76 236.256C1265.71 225.409 1267.56 211.003 1269.31 193.036C1269.95 186.416 1271.54 179.496 1274.08 172.276C1277.82 161.626 1287.91 153.376 1299.48 151.536C1322.85 147.836 1337.24 166.716 1340.65 187.536C1341.93 195.346 1342.76 202.896 1343.01 210.196C1344.38 251.983 1343.43 291.513 1340.15 328.786C1336.82 366.546 1328.27 403.506 1313.05 438.466C1307.08 452.173 1299.17 465.856 1289.32 479.516C1285.13 485.323 1282.17 489.173 1280.44 491.066C1277.42 494.373 1274.06 497.873 1270.35 501.566C1247.72 524.096 1211.81 538.186 1182.57 519.396C1173.09 513.306 1165.94 500.966 1165.49 489.306C1165.26 483.406 1165.48 478.236 1167.05 473.066C1170.73 460.873 1178.13 451.573 1189.24 445.166C1192.01 443.566 1201.26 439.163 1217.01 431.956C1219.42 430.849 1224.15 428.399 1231.19 424.606C1234.3 422.919 1237 421.119 1239.29 419.206C1249.96 410.286 1257.11 399.959 1260.75 388.226C1262.49 382.596 1262.35 375.636 1257.31 371.656Z" fill="#FEFFE0"/>
<path d="M1005.42 234.246C1006.9 236.826 1010.14 242.686 1014.07 240.276C1016.09 239.036 1017.71 236.966 1018.82 234.686C1022.11 227.953 1024.62 222.893 1026.33 219.506C1031.49 209.279 1037.66 200.123 1044.85 192.036C1049.61 186.683 1054.98 182.416 1060.95 179.236C1076.35 171.026 1091.72 171.496 1105.35 182.836C1110.89 187.449 1115.3 193.313 1118.57 200.426C1121.64 207.113 1123.91 213.003 1125.38 218.096C1129.03 230.716 1131.41 239.903 1132.52 245.656C1134.41 255.416 1136.97 271.166 1138.32 282.876C1140.61 302.643 1142.08 317.249 1142.71 326.696C1143.3 335.523 1143.69 346.136 1143.9 358.536C1144.13 372.296 1144.13 385.106 1139.8 397.626C1136.03 408.536 1128.81 417.556 1117.89 420.886C1109.94 423.313 1102.47 422.999 1095.47 419.946C1084.9 415.336 1079.3 403.216 1078.41 391.766C1077.63 381.726 1077.12 369.903 1076.88 356.296C1076.71 346.576 1075.95 337.583 1074.6 329.316C1073.79 324.326 1071.48 316.356 1064.54 318.216C1057.73 320.056 1054.63 329.506 1052.37 336.046C1047.24 350.966 1043.45 361.169 1040.99 366.656C1038.93 371.266 1034.82 378.716 1030.85 382.436C1025.3 387.623 1018.74 390.086 1011.18 389.826C1006.93 389.679 1003.36 388.806 1000.49 387.206C994.418 383.816 989.858 378.276 986.808 372.336C981.488 361.986 979.248 354.296 973.808 339.126C973.088 337.126 970.888 332.016 968.798 330.276C964.478 326.686 960.008 329.376 957.798 333.746C956.705 335.893 955.935 338.286 955.488 340.926C954.415 347.259 953.842 353.796 953.769 360.536C953.515 383.889 953.312 398.886 953.159 405.526C952.769 421.986 945.088 442.026 926.088 444.206C920.828 444.806 916.099 444.639 911.899 443.706C893.309 439.576 886.738 418.956 884.998 402.576C880.985 364.663 880.398 326.256 883.238 287.356C883.858 278.836 884.935 270.103 886.468 261.156C890.138 239.766 894.578 216.036 910.258 199.776C920.728 188.916 937.018 185.006 951.738 187.526C959.305 188.819 966.995 192.223 974.808 197.736C987.728 206.856 996.989 219.536 1005.42 234.246Z" fill="#FEFFE0"/>
<path d="M735.438 272.456C737.185 270.996 738.575 269.096 739.608 266.756C739.875 266.156 742.222 260.937 746.648 251.097C748.382 247.237 751.985 241.243 757.458 233.117C764.585 222.537 773.962 214.513 785.588 209.047C790.642 206.667 796.332 205.567 802.658 205.747C814.618 206.073 824.315 211.237 831.748 221.237C837.248 228.643 841.602 237.183 844.808 246.857C848.135 256.903 850.852 266.72 852.958 276.307C854.292 282.407 856.055 292.447 858.248 306.427C862.642 334.527 864.915 362.063 865.068 389.036C865.148 404.256 864.808 422.356 858.818 436.966C854.445 447.646 846.732 454.37 835.678 457.136C825.428 459.706 812.998 455.126 807.058 446.136C798.518 433.196 799.528 417.086 799.058 401.886C798.672 389.393 798.092 378.78 797.318 370.047C796.838 364.637 795.788 358.856 793.248 354.326C790.048 348.616 784.438 350.806 781.378 355.006C780.005 356.886 778.685 359.587 777.418 363.107C776.538 365.56 773.192 375.79 767.378 393.797C766.352 396.977 764.682 401.02 762.368 405.927C757.288 416.717 749.648 424.746 737.338 424.906C726.908 425.046 719.238 421.167 713.838 412.297C706.928 400.937 704.658 393.036 697.828 375.346C697.535 374.586 696.668 372.78 695.228 369.927C693.158 365.827 688.578 363.737 684.688 367.127C680.838 370.487 679.318 378.216 679.038 383.286C678.412 394.626 678.192 402.71 678.378 407.536C678.968 422.456 679.818 436.217 678.698 449.807C678.008 458.137 674.588 466.906 668.518 473.026C660.628 480.976 648.498 482.887 637.578 480.457C619.538 476.417 612.588 456.386 610.288 440.346C606.178 411.696 605.468 383.886 606.048 354.286C606.462 333.233 608.182 312.577 611.208 292.317C613.388 277.727 616.748 262.647 623.318 249.727C629.458 237.66 638.528 229.25 650.528 224.497C666.658 218.117 686.698 223.577 699.898 234.317C706.185 239.437 712.078 245.573 717.578 252.727C720.998 257.167 724.678 264.087 728.398 269.247C729.365 270.593 730.408 271.63 731.528 272.357C732.181 272.783 732.915 273.024 733.619 273.042C734.324 273.06 734.962 272.855 735.438 272.456Z" fill="#FEFFE0"/>
<path d="M129.908 511.266C130.468 488.926 126.518 467.916 116.268 447.866C109.795 435.213 102.445 423.063 94.2185 411.416C83.6252 396.423 72.5818 380.363 61.0885 363.236C57.0685 357.243 53.6818 351.766 50.9285 346.806C46.4585 338.726 41.9685 331.656 38.2485 324.186C27.2418 302.126 19.3352 282.833 14.5285 266.306C10.8352 253.586 7.80849 237.903 5.44849 219.256C6.98849 220.249 8.07516 222.013 8.7085 224.546C10.4818 231.679 12.4785 238.759 14.6985 245.786C15.6985 248.973 17.1785 252.309 19.1385 255.796C20.6252 258.443 21.8818 261.143 22.9085 263.896C24.6818 268.636 26.0218 271.839 26.9285 273.506C34.2952 286.939 39.8918 297.606 43.7185 305.506C45.7985 309.793 47.7418 313.209 49.5485 315.756C53.9485 321.936 58.9185 331.256 63.0185 336.976C65.7085 340.756 68.1685 345.846 70.8185 349.706C82.6085 366.816 89.0985 377.086 98.8885 390.526C102.728 395.799 105.935 400.413 108.508 404.366C111.242 408.573 114.985 414.743 119.738 422.876C123.638 429.536 129.548 439.566 131.618 447.846C132.772 452.459 133.545 456.546 133.938 460.106C134.668 466.786 133.208 473.226 133.048 480.016C132.822 489.829 132.389 497.963 131.749 504.416C131.542 506.456 130.928 508.739 129.908 511.266Z" fill="#FFE878"/>
<path d="M480.738 392.386C484.408 399.556 492.688 402.366 498.748 395.886C505.858 388.286 508.738 377.586 510.278 366.966C511.745 356.853 512.518 346.876 512.598 337.036C512.685 326.549 512.985 310.789 513.498 289.756C513.738 279.743 514.992 270.989 517.258 263.496C520.758 251.929 528.148 244.146 539.428 240.146C548.248 237.026 558.188 238.456 565.278 244.256C568.685 247.049 571.705 251.349 574.338 257.156C579.418 268.376 581.428 281.016 582.908 293.526C584.255 304.933 585.365 317.953 586.238 332.586C586.672 339.873 588.062 367.523 590.408 415.536C591.002 427.616 590.488 438.519 588.868 448.246C587.015 459.346 582.102 469.186 574.128 477.766C565.348 487.206 554.432 491.329 541.378 490.136C540.598 490.069 537.388 489.319 531.748 487.886C529.382 487.279 526.585 487.756 523.358 489.316C516.078 492.816 509.615 495.679 503.968 497.906C487.798 504.286 469.278 505.786 452.878 500.226C431.498 492.986 414.348 476.456 405.368 456.056C399.708 443.176 396.298 429.646 395.098 414.346C394.132 402.026 394.095 389.843 394.988 377.796C396.695 354.856 400.208 331.676 405.528 308.256C406.908 302.209 409.015 295.146 411.848 287.066C413.308 282.919 415.115 278.973 417.268 275.226C421.208 268.356 428.498 263.136 435.748 260.186C441.888 257.686 449.808 257.786 456.248 259.966C469.648 264.496 475.248 275.656 476.648 289.706C477.262 295.853 477.478 301.966 477.298 308.046C476.588 332.286 475.448 347.716 475.848 364.676C476.098 375.636 476.398 383.916 480.738 392.386Z" fill="#FEFFE0"/>
</g>
<defs>
<filter id="filter0_d_13_318" x="0" y="0" width="1507.54" height="754.972" filterUnits="userSpaceOnUse" color-interpolation-filters="sRGB">
<feFlood flood-opacity="0" result="BackgroundImageFix"/>
<feColorMatrix in="SourceAlpha" type="matrix" values="0 0 0 0 0 0 0 0 0 0 0 0 0 0 0 0 0 0 127 0" result="hardAlpha"/>
<feOffset dy="4"/>
<feGaussianBlur stdDeviation="2"/>
<feComposite in2="hardAlpha" operator="out"/>
<feColorMatrix type="matrix" values="0 0 0 0 0 0 0 0 0 0 0 0 0 0 0 0 0 0 0.25 0"/>
<feBlend mode="normal" in2="BackgroundImageFix" result="effect1_dropShadow_13_318"/>
<feBlend mode="normal" in="SourceGraphic" in2="effect1_dropShadow_13_318" result="shape"/>
</filter>
</defs>
</svg>
