<svg width="114" height="117" viewBox="0 0 114 117" fill="none" xmlns="http://www.w3.org/2000/svg">
<path d="M53.54 0C56.64 5.04667 60 9.61 63.62 13.69C64.4533 14.33 65.3433 15.0667 66.29 15.9C67.31 16.8067 68.2133 17.52 69 18.04C76.0066 22.6933 83.6366 25.9167 91.89 27.71C95.23 28.43 102.447 29.41 113.54 30.65C108.64 37.09 105.217 44.45 103.27 52.73C100.737 63.53 101.377 74.1433 105.19 84.57C105.25 84.7361 105.264 84.915 105.232 85.0886C105.201 85.2622 105.123 85.4242 105.008 85.5583C104.894 85.6924 104.746 85.7937 104.579 85.852C104.412 85.9102 104.233 85.9233 104.06 85.89C100.26 85.17 96.81 84.33 92.63 84.34C77.6233 84.4 66.3266 90.5933 58.74 102.92C56.17 107.08 55.16 111.57 54.62 116.22C54.6009 116.365 54.5383 116.5 54.4404 116.609C54.3426 116.717 54.214 116.793 54.0719 116.827C53.9298 116.861 53.7808 116.85 53.6447 116.797C53.5086 116.744 53.3919 116.651 53.31 116.53L51.82 114.26C49.9733 109.593 47.6333 105.313 44.8 101.42L42.08 98.26C37.46 93.1267 33.19 89.5733 29.27 87.6C26.35 86.1333 23.3733 84.6467 20.34 83.14C13.45 80.31 7.37997 79.25 0.589966 78.34C0.470475 78.324 0.357375 78.2766 0.262253 78.2025C0.167131 78.1285 0.0934098 78.0305 0.0486376 77.9185C0.00386547 77.8066 -0.0103477 77.6848 0.00745798 77.5655C0.0252637 77.4463 0.0744471 77.334 0.149967 77.24C2.6433 74.0667 4.45663 70.6167 5.58997 66.89C7.25663 61.5767 6.91997 56.5233 4.57997 51.73C3.7933 50.11 2.98664 48.4067 2.15997 46.62C2.09777 46.4885 2.06765 46.3442 2.07203 46.1986C2.07642 46.0531 2.11518 45.9104 2.1852 45.782C2.25522 45.6536 2.35455 45.5432 2.47522 45.4594C2.59588 45.3757 2.73451 45.3211 2.87997 45.3L15.43 43.49L21.9 41.85C31.5333 38.2967 39.39 32.3633 45.47 24.05C47.9366 20.6833 49.7666 16.86 50.96 12.58C52.04 8.73334 52.9 4.54 53.54 0Z" fill="#9B7D72"/>
</svg>
