<svg xmlns="http://www.w3.org/2000/svg" width="100%" viewBox="0 0 96 114" fill="none" class="marquee-sticker-3"><path d="M95.2564 81.4856C94.7596 90.4753 89.4546 97.5424 82.1592 102.489C73.9008 108.31 63.6366 111.254 53.7982 112.436C46.2281 113.408 38.4265 113.8 30.8995 111.927C22.9498 110.004 15.1266 106.961 9.37112 100.974C2.23921 93.9101 -0.908581 83.1891 0.631368 73.3661C1.46769 67.6785 3.79151 62.355 6.52268 57.3556C8.77552 53.353 11.053 49.2423 12.3183 44.783C13.8181 39.694 14.3243 33.6669 18.583 29.9914C23.135 26.4579 27.0728 26.7788 29.7268 20.4894C31.9334 14.3852 34.3961 8.99999 39.4325 4.72578C44.6079 0.0688998 52.5452 -0.856921 56.9151 5.33374C59.6586 9.45981 58.9272 14.9499 61.6954 19.0637C63.8001 22.3133 67.0251 24.6803 69.6915 27.4516C72.222 29.9945 74.4224 32.7905 76.2463 35.9568C76.953 37.1449 77.672 38.3917 78.4713 39.4842C82.4338 45.3631 89.2633 44.4805 92.5469 50.1311C95.2287 54.7263 92.911 60.3213 93.3709 65.3948C93.4974 67.7063 94.0529 69.9375 94.5127 72.212C95.1238 75.2425 95.4848 78.2946 95.2595 81.4177V81.4794L95.2564 81.4856Z" fill="#FFE1F0"></path><path d="M85.5199 74.8536C85.0755 72.6903 84.162 70.6504 83.5386 68.5334C83.2022 67.2897 82.9986 66.0059 82.8288 64.7282C82.5542 62.5001 82.1993 60.2133 83.1714 58.1858C83.5448 57.0902 85.631 55.5379 85.0909 54.4732C84.9829 54.285 84.7854 54.1214 84.5478 53.9918C82.8288 53.0228 81.0451 53.7758 79.6625 54.9053C78.4188 55.865 77.4313 57.081 76.703 58.5283C76.3203 59.2782 75.9376 60.0436 75.4223 60.7102C74.5952 61.8736 73.2682 62.568 72.1695 61.3089C71.3733 60.5003 71.2962 59.414 71.5678 58.3833C72.2158 55.72 72.0523 53.0351 71.864 50.3441C71.8116 48.4924 70.7654 46.8877 70.2006 45.1749C69.6359 42.703 68.0558 40.6878 66.8955 38.4966C66.4325 37.4968 65.5684 36.8055 64.7815 36.0679C63.831 35.2007 62.9977 34.2286 62.1059 33.2843C61.2665 32.4109 60.3715 31.6055 59.3901 30.9018C58.5415 30.2939 57.6126 29.7754 56.8441 29.0625C56.0078 28.3064 55.3813 27.3467 54.6407 26.5042C52.9063 24.5877 51.0855 22.6929 49.8665 20.3814C48.5086 17.5762 49.7462 14.45 50.2554 11.5769C50.3603 10.185 48.8234 9.4598 47.66 10.1573C45.8608 11.2497 44.2962 12.7897 43.1018 14.5271C42.5865 15.4715 41.71 16.1412 41.17 17.0546C39.5899 20.4524 38.2259 24.0816 37.8802 27.8405C37.8339 30.013 38.5314 32.1332 38.8832 34.2657C39.2782 36.2994 39.1146 38.3639 39.0684 40.4285C38.8616 43.5485 39.1301 47.1469 36.8742 49.6188C34.3374 52.3161 32.6648 49.6127 31.9889 47.1253C31.7173 46.0946 31.5476 45.0391 31.2544 44.0176C30.9273 42.7462 30.4737 41.5148 29.9583 40.3082C29.6929 39.6632 29.517 38.9657 29.1436 38.4195C28.7455 37.8424 28.1252 37.4628 27.5758 36.969C27.0882 36.5401 26.4957 36.1574 25.8291 36.1852C24.2367 36.1235 23.5794 37.1758 23.3572 38.617C22.9992 40.8174 22.9529 43.0671 22.3141 45.215C22.1011 45.9711 22.0116 46.7457 21.8882 47.5203C21.4808 49.662 20.5519 51.6587 19.6693 53.6431C18.9379 55.3034 17.7714 56.689 16.8826 58.2568C16.574 58.8122 16.3394 59.4079 16.0956 59.9942C15.4908 61.4817 14.4292 62.7902 13.6052 64.2005C12.7071 65.7096 11.7844 67.2033 11.4295 68.9438C11.34 69.345 11.2505 69.7462 11.1333 70.1381C10.3278 72.6008 9.48221 75.0295 9.46678 77.6311C9.4606 78.2977 9.51616 78.9859 9.60565 79.6525C10.1056 82.7571 10.6241 85.8431 11.8214 88.7255C12.2196 89.4723 12.7843 90.1173 13.2873 90.7963C14.099 91.8239 14.7378 92.9534 15.6142 93.941C17.6171 95.9037 19.8175 97.6936 22.3203 98.9497C23.672 99.6101 25.181 99.9341 26.5759 100.459C29.2639 101.446 32.0043 102.505 34.8219 103.048C39.1146 103.724 43.5215 103.961 47.8606 103.261C53.2704 102.687 58.7822 102.381 63.939 100.539C66.2258 99.823 68.5557 99.1287 70.7376 98.1411C73.12 97.0209 75.3081 95.4686 77.5486 94.0768C79.5175 92.7775 81.1994 91.074 82.7764 89.3304C84.017 87.5899 85.2884 85.7228 85.7482 83.615C85.9797 82.3559 85.7328 81.106 85.9025 79.8685C86.1957 78.2051 85.9149 76.4831 85.5261 74.9092L85.5137 74.8505L85.5199 74.8536ZM70.5308 81.356C69.8889 86.2721 66.5591 90.5864 62.2633 92.9041C60.4764 93.9965 58.6834 95.0828 56.6559 95.6754C53.1964 96.7339 49.6381 97.6165 45.9904 97.493C43.1852 97.3665 40.2812 97.4684 37.5377 97.0517C36.3403 96.882 35.2169 96.3358 34.1245 95.8698C31.1649 94.7156 28.3103 93.1756 25.9742 91.0154C24.141 89.3026 23.53 86.8307 23.3664 84.4112C23.2553 82.9299 23.0486 81.4177 23.3171 79.9426C24.1657 76.5386 27.0512 72.3755 30.1928 70.706C32.5166 69.6073 33.0999 71.4065 33.7727 73.218C34.4948 74.8691 36.5686 75.7363 38.266 75.3474C39.2443 75.1345 39.9294 74.2827 40.6484 73.6624C44.7251 70.3634 46.7342 65.3208 47.6785 60.272C47.9038 59.0375 48.0766 57.8 48.2494 56.5594C48.4654 55.2818 48.5148 53.8282 49.0827 52.6524C50.0177 50.699 52.3199 51.705 53.5297 52.8716C55.2116 54.4825 56.3226 56.7878 56.696 59.0992C57.0231 61.2749 57.3194 63.3457 57.6465 65.6849C57.7422 66.3515 57.7237 66.978 57.5755 67.6199C57.1867 69.4283 56.7701 71.4497 56.2269 73.3291C55.7609 74.8968 55.3134 76.5294 55.4924 78.1773C55.6467 81.8066 58.5878 82.97 61.6244 81.3807C63.8032 80.2419 65.1457 78.0786 66.5652 76.1374C67.1115 75.3968 67.9385 73.9803 68.96 74.8721C70.6512 76.3319 70.6975 79.2112 70.5401 81.2912L70.5339 81.3529L70.5308 81.356Z" fill="#F5693C"></path></svg>