<svg xmlns="http://www.w3.org/2000/svg" width="100%" viewBox="0 0 114 113" fill="none" class="marquee-sticker-5"><path d="M112.594 63.7292C109.449 89.4202 89.0713 109.206 63.537 112.386C42.9195 114.871 21.3694 105.128 9.96283 87.7047C2.54402 76.2633 -0.671281 62.1877 1.37481 48.7037C3.20863 36.5629 8.76232 25.2746 17.5278 16.61C23.3772 10.684 30.723 6.49441 38.5106 3.71409C47.1856 0.930299 56.4661 0.0638425 65.4995 1.35831C71.4638 2.29784 77.1636 4.29521 82.5781 7.01985C94.1691 12.8101 103.363 22.9258 108.502 34.7116C112.316 43.8599 113.913 53.8642 112.605 63.6596L112.594 63.7292Z" fill="#82A0FF"></path><path d="M102.173 61.8572C101.358 64.8498 101.418 68.0685 100.175 70.9428C99.4898 72.7001 99.2288 74.6383 98.0422 76.1694C97.7812 76.5034 97.5759 76.8688 97.461 77.2759C96.9391 79.4125 95.5889 81.1176 94.3258 82.8366C93.1636 84.4616 92.0153 86.1701 90.3763 87.4089C87.5647 90.7043 84.3946 93.6377 80.4868 95.6211C71.3873 101.182 60.28 103.611 49.7329 101.634C45.6929 100.976 41.7295 99.8142 37.9401 98.2483C33.9558 96.3171 30.1767 93.8499 26.7875 91.0105C25.1485 89.4237 23.3565 87.9483 21.9332 86.1562C20.343 84.1206 18.4674 82.1858 17.5627 79.7048C17.4026 79.3046 17.1555 78.9566 16.8841 78.6191C15.5966 76.9941 15.1408 74.9793 14.4379 73.0898C12.9242 69.4743 11.9359 65.7127 11.7411 61.7841C11.7028 60.347 11.3026 58.9655 11.2261 57.5249C10.9999 54.6193 11.6332 51.8494 12.1691 49.0308C12.4335 45.3249 13.8776 41.9461 15.1373 38.5081C15.9133 36.4203 17.2703 34.6212 18.0672 32.5612C18.2864 31.994 18.5161 31.4199 18.9441 30.9745C21.279 28.9458 22.8484 30.79 21.3973 33.2537C20.4021 34.5447 19.3269 35.7591 18.8571 37.3563C18.6831 37.8574 18.4674 38.3411 18.1681 38.783C16.3621 41.2641 16.0211 44.3297 15.0294 47.1448C13.7871 50.7846 14.2047 54.595 14.0342 58.3531C13.9681 59.8563 14.0273 61.3735 14.2291 62.8628C15.1443 68.1729 16.8458 73.4413 19.6018 78.0832C21.2025 80.9819 23.2764 83.536 25.3016 86.1388C27.6296 88.5016 30.302 90.492 32.8875 92.552C34.5751 93.7734 36.5481 94.5111 38.3889 95.4785C42.7525 97.5733 47.3423 99.2749 52.207 99.5741C53.1431 99.602 54.0478 99.8699 54.9804 99.8699C55.7563 99.8769 56.5393 99.682 57.277 99.6646C60.9933 100.054 64.5566 99.2192 68.0746 98.2205C72.3373 97.2079 76.6 95.6351 80.0867 92.9974C82.5747 91.1949 85.0627 89.3158 87.2654 87.1306C89.134 85.1993 90.6025 83.0001 92.3145 80.9923C93.3689 79.4682 94.4859 77.2481 95.5228 75.5535C96.3615 73.8797 96.7825 72.032 97.4645 70.299C98.1396 68.3643 98.926 66.4539 99.4132 64.4705C99.7229 62.5044 99.5941 60.4792 99.5802 58.5097C99.5593 57.5841 99.5802 56.6689 99.6846 55.7468C100.064 52.3088 99.2357 49.0239 98.3484 45.8051C97.6246 43.1222 96.7199 40.4742 95.495 37.9757C93.4245 33.974 90.7486 30.3098 87.8465 26.9171C84.7217 24.3873 81.6665 21.7357 78.2772 19.5818C73.5761 16.6762 68.012 15.8271 62.7889 14.2856C57.3953 13.7776 51.9008 14.0107 46.6046 15.3922C43.7825 16.2482 41.1692 17.5774 38.3367 18.3465C37.6094 18.5379 36.9031 18.7292 36.2489 19.119C35.4207 19.5609 34.7909 20.3612 34.0914 20.911C33.3189 21.4991 32.4386 21.9515 31.6765 22.5535C29.3277 24.3212 27.205 26.4056 24.7692 28.0132C24.4456 28.1593 24.1011 27.9958 23.8262 27.8009C23.2625 27.446 22.751 26.9414 23.0119 26.4404C24.2647 24.1681 26.1855 22.289 28.5413 21.1477C28.7988 20.9598 29.0006 20.6988 29.2024 20.4517C30.5142 18.8232 32.4734 18.1064 34.3594 17.3269C36.0575 16.5996 37.3867 15.2217 39.1231 14.5535C43.953 12.3509 49.277 11.895 54.4967 11.3765C63.5196 10.4266 72.5774 13.2278 80.3268 17.7549C84.6939 19.8219 88.0518 23.2981 91.0096 27.0215C92.4224 28.6048 94.124 29.9062 95.0879 31.8166C97.8438 36.556 100.513 41.5042 101.32 47.0126C102.141 51.8634 103.23 56.8742 102.187 61.7876L102.173 61.8502V61.8572Z" fill="#E6FAB9"></path><path d="M95.2062 64.3451C94.4754 65.3299 93.0731 65.0098 92.1544 64.4565C90.9156 63.8406 89.6455 63.082 88.2884 62.647C88.1179 62.6435 87.9718 62.7166 87.8465 62.8593C87.5368 63.2629 87.3732 63.7605 87.2306 64.2407C86.8478 66.172 85.5847 67.6752 84.4781 69.2655C83.5073 70.6922 82.7104 72.2685 81.5621 73.5386C81.0819 74.0849 80.5565 74.5895 80.2642 75.2715C79.4429 77.0566 77.4664 77.7874 76.3947 79.3498C74.7 81.7856 72.1772 83.3341 69.5674 84.6216C66.5504 86.2606 63.2482 87.1931 59.7789 87.4576C54.3609 87.8299 46.3575 86.0205 41.9348 82.8713C39.7912 81.2567 37.6686 79.6316 35.8591 77.6169C34.3524 75.9396 32.5812 74.4468 31.5999 72.3764C30.977 71.0645 30.5734 69.6552 29.78 68.4303C28.7674 66.7949 27.8627 65.1072 27.2398 63.2873C26.8153 61.9615 26.5334 60.6914 25.8897 59.477C25.6252 58.8959 25.3434 58.0503 24.5361 58.36C23.2381 58.7741 22.1768 59.651 20.9554 60.166C20.3917 60.4478 19.8245 60.9698 19.1668 60.761C18.1263 60.4026 17.9176 58.8506 18.7875 58.1616C20.1342 57.149 21.4112 56.032 23.0119 55.3813C23.6383 55.1342 24.2542 54.8872 24.8596 54.5949C26.523 53.8015 28.1619 52.8863 29.9853 52.6984C30.9561 52.6949 33.5068 52.0129 33.6878 53.3979C33.6947 54.1112 33.0753 54.6993 32.456 54.9707C31.3738 55.4474 30.2289 55.8511 29.1502 56.3069C28.9101 56.4252 28.7396 56.6131 28.7117 56.8915C28.9031 59.7275 30.2046 62.2503 31.0258 64.8323C31.4225 65.8658 31.753 66.948 32.2193 67.9432C32.87 68.8166 33.6669 69.5891 34.2236 70.5356C35.4311 72.3833 36.4089 74.412 38.0479 75.9362C38.8239 76.7121 39.8052 77.255 40.4907 78.111C41.5033 79.3881 43.0552 79.9309 44.3949 80.7556C47.3388 82.6764 50.5541 84.0614 54.0164 84.733C54.9212 84.9417 55.8433 84.8547 56.762 84.8234C59.0238 84.7921 61.3274 84.7921 63.4952 84.2284C65.5553 83.696 67.4413 82.6312 69.2681 81.4933C71.3977 80.1188 73.6874 78.793 75.4795 76.9557C77.6056 74.6869 79.6065 72.2302 81.3811 69.6413C82.6965 67.804 83.208 65.5213 84.7287 63.8406C85.0105 63.5274 85.2889 63.2212 85.4524 62.8419C86.0022 61.6275 85.9675 61.363 84.6104 60.8863C83.128 60.1834 81.054 60.1381 80.2363 58.4539C80.031 58.0016 80.1737 57.4657 80.4486 57.069C81.1723 55.7884 82.6234 56.1399 83.73 56.6827C86.6773 57.9494 89.7012 59.0072 92.4293 60.7262C93.0348 61.1507 93.7586 61.3004 94.3954 61.6692C95.2305 62.1494 95.742 63.59 95.2409 64.3069L95.2096 64.3556L95.2062 64.3451Z" fill="#E6FAB9"></path><path d="M50.2722 44.8377C50.0147 46.5811 49.712 48.3314 49.4127 50.0713C49.2596 51.0212 49.0752 51.919 48.4697 52.6706C47.645 53.6972 46.4514 54.6332 45.1605 54.5636C44.2348 54.3861 43.0761 53.6798 42.9265 52.6463C42.3245 50.3148 41.719 47.9591 41.2805 45.5963C41.2179 45.2135 41.204 44.8412 41.2527 44.455C41.719 41.3719 42.0252 38.2575 43.6294 35.4911C43.9982 34.8196 44.5898 34.2871 45.3136 34.0818C46.2566 33.8069 47.4988 33.7617 48.1948 34.5238C50.0495 37.1475 50.4462 41.605 50.2792 44.7751L50.2722 44.8412V44.8377Z" fill="#E6FAB9"></path><path d="M71.7039 45.9304C71.3872 47.4963 71.0149 49.0726 70.646 50.635C70.3259 51.759 70.2493 53.1891 69.1671 53.8642C68.1023 54.5671 66.6722 54.0939 65.6735 53.4362C64.4625 52.6811 63.8884 51.2788 63.6691 49.9077C62.7992 45.652 62.4025 41.2397 63.7039 37.0362C64.1459 35.7626 64.4312 33.9009 66.0249 33.6643C67.6674 33.4903 69.2193 34.3428 69.7761 35.8774C70.4686 37.4955 71.2828 39.0962 71.2411 40.8674C71.3733 42.5168 71.8222 44.2044 71.7108 45.8643L71.7004 45.9269L71.7039 45.9304Z" fill="#E6FAB9"></path></svg>