<svg xmlns="http://www.w3.org/2000/svg" width="100%" viewBox="0 0 68 118" fill="none" class="marquee-sticker-6"><path d="M64.7978 80.8352C63.1168 83.8142 60.3487 86.2616 59.9715 89.8167C59.6062 92.1928 60.0279 94.7173 59.9566 97.135C59.9982 102.229 57.6934 106.981 54.2719 110.693C51.7533 113.488 48.5456 115.662 44.8717 116.574C39.8938 117.762 34.5417 117.308 29.7629 115.656C24.8652 113.975 20.2023 110.438 16.4332 106.806C12.5811 103.167 9.30802 98.8012 6.52803 94.2629C3.51935 89.19 0.938373 83.4815 0.151304 77.5384C-0.840699 68.15 3.15997 58.3756 8.78825 50.7633C12.8275 45.7112 10.3832 44.3568 7.25572 40.1215C3.69164 35.4288 3.87875 28.4105 8.03388 24.1633C9.47733 22.5357 11.889 21.6982 12.8721 19.732C13.7661 18.0539 13.2107 15.666 13.2226 13.7532C13.2137 11.8138 13.5344 9.89216 14.3334 8.11606C16.2372 3.85995 20.7101 0.765137 25.3583 0.278045C27.6868 0.0166792 30.0421 0.518627 32.3736 0.432495C33.823 0.411704 35.2754 0.206769 36.7366 0.0790557C42.9678 -0.60406 49.4515 3.2006 51.4949 9.14074C51.9463 10.4327 52.1899 11.79 52.2255 13.1563C52.3176 15.6986 51.388 18.048 52.175 20.4211C52.5463 21.6239 53.2948 22.711 53.9868 23.795C54.8273 25.0751 55.457 26.5186 55.8134 28.0007C56.9687 32.7053 55.7272 36.7208 54.061 41.069C53.0928 43.8044 53.7343 45.7587 55.7777 47.6328C57.5538 49.3555 59.321 51.182 60.3219 53.4838C61.2931 55.6074 61.5575 57.8825 62.4723 59.9764C63.2237 61.8268 64.4296 63.4544 65.3622 65.2186C67.9164 70.0539 67.6729 76.0386 64.8275 80.7877L64.7978 80.8382V80.8352Z" fill="#F0BEFA"></path><path d="M57.2894 71.8388C57.1171 69.9677 56.2499 68.3193 54.9133 67.0748C54.0847 66.3115 53.1254 65.5482 52.0324 65.4621C51.3641 65.3849 50.7048 65.6284 50.0603 65.7472C49.8524 65.7799 49.7009 65.7532 49.6712 65.6284C49.7395 64.9809 50.2147 64.3602 50.4315 63.7632C50.8533 62.8157 51.2691 61.9604 51.5601 60.9505C52.0413 59.2457 51.8631 57.5142 50.684 56.0262C49.6652 54.7194 48.2069 53.7957 46.4546 54.1075C46.1606 54.1491 45.7239 54.2441 45.519 54.057C45.1359 53.6264 45.4002 52.8215 45.2933 52.2809C45.1834 48.9752 42.4895 47.1427 39.2403 47.0803C39.0621 47.0625 38.9284 47.0269 38.8779 46.9526C38.7888 46.8516 38.9462 46.6229 39.0442 46.5101C39.8343 45.5418 40.5798 44.8676 41.1322 43.7538C41.8391 42.0074 43.1816 40.6204 43.8884 38.877C44.1082 38.2771 44.429 37.7395 44.8418 37.2464C46.41 35.2535 46.419 32.8596 46.318 30.5549C46.3031 29.8302 46.0923 29.153 45.6141 28.5857C44.7379 27.4987 43.1162 26.7502 41.7262 26.9492C40.9065 27.0858 40.066 27.4571 39.2938 27.8194C37.3038 28.7847 35.7029 30.3707 34.6783 32.322C33.8823 34.2259 32.7151 35.7763 31.2389 37.3088C31.129 37.4246 30.9716 37.5731 30.8291 37.5909C30.6687 37.6206 30.5202 37.5137 30.3895 37.3385C29.9559 36.7475 29.8252 36.0049 29.3648 35.4139C27.36 32.6636 24.6929 30.5965 21.6367 29.1886C20.3417 28.6214 18.9607 29.0283 17.6925 29.4738C16.0055 29.9133 14.1878 28.7936 13.074 30.7063C12.0048 32.3874 12.5542 34.4872 14.06 35.7139C15.5956 37.2583 17.0242 38.883 18.23 40.6947C19.3883 42.4856 20.3744 44.3835 21.509 46.216C21.809 46.712 22.0555 47.0269 22.4594 47.5377C22.6554 47.7843 22.7772 48.1139 22.5099 48.3426C20.021 50.2583 17.7429 52.4591 15.8956 54.9837C14.2086 57.0954 12.6433 59.3319 11.4939 61.8119C9.07332 66.4779 7.54372 71.7616 8.10209 77.0543C8.77036 80.4758 10.297 83.7072 11.7048 86.8733C12.2899 88.2128 13.1928 89.3533 14.0155 90.5443C14.758 91.8274 15.4025 93.155 16.4717 94.2005C16.6024 94.3698 16.7093 94.5539 16.8103 94.744C17.2469 95.638 18.0934 96.2082 18.7468 96.9656C19.2161 97.5091 19.4923 98.1447 19.9705 98.6497C20.5229 99.2645 21.1912 99.7961 21.8208 100.334C23.7068 101.949 25.4384 103.806 27.5382 105.086C29.4361 106.25 31.4528 107.233 33.6477 107.72C37.1523 108.368 41.1174 108.76 44.3043 106.826C45.5784 106.102 46.3061 104.634 47.4436 103.705C48.988 102.318 49.3979 100.322 50.0543 98.4833C50.1761 98.121 50.1553 97.7438 50.0603 97.3755C49.6029 95.534 50.28 93.5233 49.5227 91.7264C49.2702 91.1264 49.6385 90.571 49.689 89.9414C49.7276 89.5553 49.6919 89.1692 49.6266 88.786C49.5464 88.1861 49.2613 87.5238 49.4098 86.9743C49.5821 86.4278 49.7989 85.8932 49.9236 85.3319C50.0335 84.919 50.1493 84.5062 50.3424 84.123C50.7612 83.3805 51.4502 82.7895 51.8571 82.0232C52.4601 81.147 53.0571 80.2619 53.6956 79.4125C54.4678 78.3463 55.5252 77.4849 56.1667 76.3563C56.9449 75.0168 57.429 73.4694 57.2864 71.8982L57.2805 71.8418L57.2894 71.8388ZM40.1105 30.2668C40.9392 29.5985 43.7429 29.6045 43.734 31.042C43.7637 31.538 43.4637 31.9419 43.2529 32.3904C42.7153 33.7329 41.5748 34.7813 40.1313 35.0129C39.1957 35.1704 38.2928 35.0902 37.4998 34.5496C37.188 34.3655 37.0959 34.018 37.3127 33.7299C38.1028 32.4943 38.9997 31.2885 40.0719 30.2995L40.1105 30.2668ZM20.8377 39.0671C20.7516 39.082 20.6536 39.0374 20.5497 38.9542C18.4617 37.0979 17.0747 34.8496 15.4203 32.5775C15.3402 32.4705 15.1768 32.2419 15.2896 32.1676C15.3787 32.1053 15.6045 32.135 15.7411 32.1587C17.6568 32.4706 18.7022 33.6497 19.8131 34.9684C20.3803 35.7168 21.2535 36.4059 21.411 37.3712C21.4496 37.8315 21.31 38.6988 20.8764 39.0582L20.8407 39.0671H20.8377ZM21.9396 41.3956C21.9812 41.2649 22.1238 41.1551 22.2485 41.0719C23.1188 40.4957 23.8434 39.8304 24.0454 38.8325C24.2117 38.0038 24.1137 37.1158 23.6831 36.3881C22.991 35.1496 22.1772 33.9675 21.4169 32.7676C21.1763 32.3666 20.6506 31.6122 21.5713 32.034C24.6751 33.4032 26.1334 36.1148 28.2332 38.5206C28.8035 39.1205 29.0797 39.8987 28.7352 40.6858C28.0015 42.7826 26.3502 44.2053 24.681 45.6161C23.8791 46.2576 22.4535 42.3757 22.0377 41.8441C21.9694 41.7194 21.901 41.5649 21.9307 41.4342L21.9426 41.3956H21.9396ZM52.5789 76.7513C49.7454 80.3986 47.8149 81.3817 47.0486 86.4397C46.8407 87.7762 47.0783 89.0949 47.0664 90.4285C47.0545 91.7472 46.8021 93.0838 46.9061 94.3906C46.9744 95.4925 47.5327 96.5676 47.3931 97.6992C47.1734 99.7189 45.7804 101.54 44.4825 103.09C43.1251 104.679 40.9095 105.243 38.8839 105.442C33.8318 105.793 28.8955 103.031 25.3493 99.6862C24.4107 98.7922 23.4187 97.9517 22.4921 97.0518C22.0079 96.5409 21.6278 95.9291 21.1139 95.4449C20.7902 95.1093 20.3121 94.9311 19.9972 94.6074C19.4834 93.8916 18.9369 93.1639 18.3459 92.4957C16.9529 90.6513 15.6936 88.6791 14.6006 86.6357C13.7215 84.821 13.0888 82.9023 12.376 81.0074C12.0701 80.2174 11.5117 79.5462 11.2117 78.7353C10.9236 77.972 10.8138 77.1612 10.7276 76.3533C10.294 73.707 10.6682 71.025 11.7345 68.5302C12.0434 67.8025 12.1444 67.0095 12.4087 66.2729C12.8215 65.2126 13.3116 64.1731 13.8373 63.1603C15.2926 60.6268 16.647 57.9508 18.5211 55.6906C19.4596 54.6897 20.419 53.6828 21.4525 52.8007C22.2574 52.1087 23.0534 51.3958 23.6801 50.5316C24.7226 49.0733 26.2373 48.0011 27.5145 46.7091C28.2065 46.0141 28.5183 45.0161 29.1688 44.3033C29.5816 43.7747 30.241 43.4925 30.7132 43.0411C31.8567 41.6065 32.816 40.0235 33.8674 38.5147C34.3397 37.6266 34.904 36.7326 36.0534 36.8603C37.0543 37.0207 38.0018 37.7513 38.9819 37.8196C39.5373 37.8731 40.0689 37.7276 40.6125 37.5969C41.0966 37.4751 41.4738 37.4247 41.1144 38.0276C39.27 41.1937 37.7285 44.3924 35.6376 47.3031C35.3673 47.7189 35.403 48.2387 35.0792 48.601C34.3902 49.2218 33.5971 49.6227 32.9556 50.2642C29.5994 52.9759 27.1937 56.5697 24.6454 60.0001C23.9207 61.0812 23.0564 62.0911 22.6406 63.3534C22.3168 64.482 23.0534 65.2334 24.1286 64.6661C25.1562 64.1374 25.5839 62.9999 26.2284 62.1178C26.5165 61.7228 26.8313 61.3396 27.1343 60.9505C29.8014 57.63 32.3081 54.0927 35.6821 51.4404C37.2622 50.1038 40.6481 48.8149 42.047 50.9503C42.8489 52.3374 42.145 54.0303 41.7886 55.4559C41.6372 55.8985 41.3312 56.2608 40.9719 56.5549C40.0036 57.3568 38.9136 57.9924 37.975 58.8596C37.0098 59.7358 36.193 60.7575 35.4089 61.7941C33.9565 63.7632 32.424 65.6611 30.9597 67.6124C30.5528 68.1708 30.0836 68.8212 30.1073 69.5341C30.1816 70.7251 31.0459 71.3725 32.1062 70.5736C33.1011 69.6855 33.4843 68.3253 34.206 67.2471C35.6495 65.3166 37.2771 63.5107 38.8661 61.7257C40.3095 59.9942 42.0915 58.6488 44.1023 57.63C45.1388 56.9855 46.5912 56.4182 47.6842 57.1875C48.8752 58.0696 49.4306 59.7388 48.9346 61.108C48.8128 61.4466 48.6228 61.7614 48.4297 62.0673C47.0546 64.1048 45.8784 66.2789 44.4646 68.2896C43.8231 69.1361 43.1073 69.9172 42.4242 70.728C41.355 71.9844 40.4818 73.3862 39.5343 74.7317C39.2611 75.1564 38.869 75.593 38.8067 76.1068C38.7146 76.8939 39.8343 77.5948 40.5323 77.2176C41.6104 76.4959 42.4064 75.3851 43.1994 74.3783C43.9182 73.3506 44.6191 72.3022 45.7061 71.625C46.0625 71.3755 46.3298 71.0458 46.5823 70.6954C47.2387 69.7568 48.2158 69.2608 49.2257 68.9014C50.28 68.453 51.4681 68.3371 52.5848 68.4797C53.6689 68.5599 54.0401 70.03 54.3074 70.8171C54.8628 72.9853 53.8917 74.9455 52.6264 76.7008L52.5937 76.7454L52.5789 76.7513Z" fill="#A0325A"></path><path d="M40.9837 10.3762C38.8096 8.83177 37.1405 8.16647 34.7318 9.73763C33.814 10.2812 32.9051 10.8425 32.0082 11.3712C31.5062 11.6919 31.0281 11.2969 30.6093 11.0088C29.047 9.89505 27.0125 8.79315 25.1206 9.14659C23.4782 9.41093 21.0456 11.0088 21.114 12.8889C21.1615 15.7966 21.5327 18.8706 23.199 21.3268C24.3157 23.0554 26.0235 24.2197 27.7491 25.277C29.941 26.8096 32.3468 27.4363 34.5535 25.4255C35.6109 24.5434 36.9266 23.9108 37.5414 22.598C37.7553 21.9951 38.3196 21.7308 38.7829 21.3387C39.6383 20.6081 39.9145 19.4706 40.5561 18.5855C42.3322 16.3728 43.639 12.4909 41.0313 10.4118L40.9837 10.3762ZM37.6959 18.6776C36.2079 20.5279 34.2149 21.9119 32.4804 23.5098C32.1626 23.8039 31.8092 24.0029 31.3548 23.991C30.4073 24.0623 29.84 23.2812 29.053 22.9455C27.7016 22.4525 26.8818 21.3981 26.0918 20.2843C24.9988 18.9538 24.3989 17.3677 23.8821 15.7788C23.3831 14.7125 23.6652 13.3641 24.3068 12.4553C24.4731 12.2236 24.687 12.0365 24.9483 11.9177C27.3303 11.0059 28.2837 12.8384 29.2579 14.6561C29.7955 15.5501 30.6687 16.943 31.8508 16.3252C32.2636 16.1144 32.5844 15.7075 32.8517 15.3303C33.6744 14.2818 34.2387 13.0047 35.2545 12.1553C36.1366 11.6712 38.0018 11.2702 38.8364 12.1315C39.1304 12.4879 39.3056 13.0819 39.4215 13.5572C39.8581 15.3303 38.7948 17.2846 37.7315 18.627L37.6959 18.6686V18.6776Z" fill="#A0325A"></path></svg>