<svg xmlns="http://www.w3.org/2000/svg" width="100%" viewBox="0 0 80 110" fill="none" class="marquee-sticker-4"><path d="M79.0911 25.1071C77.8109 31.7655 74.5261 36.0023 68.6838 39.5207C66.9896 40.6679 66.623 42.5601 66.96 44.4997C67.1493 45.8302 67.5218 47.1843 67.6844 48.5237C68.329 52.8669 67.3355 56.6662 68.2225 60.8794C68.669 63.0643 69.6003 65.1074 70.1798 67.2628C70.9042 69.8114 71.2442 72.561 71.3181 75.219C71.596 82.2588 70.3779 89.4079 67.2912 95.741C65.0353 100.09 61.3247 104.028 57.1145 106.772C54.282 108.576 51.1568 109.48 47.8277 109.424C44.9124 109.253 42.0682 108.744 39.1707 109.333C30.6053 111.195 21.5787 107.804 16.7565 100.347C12.7916 94.3277 11.334 85.7801 12.2831 78.6074C13.2203 73.927 14.4444 71.8278 12.3422 67.1829C9.68421 60.8971 7.34551 54.5227 5.16943 48.0506C4.19079 44.8693 2.96082 41.682 2.05313 38.4445C1.15431 35.1478 0.938493 31.8187 0.586654 28.4452C-0.566432 18.029 7.07054 10.528 17.4365 12.9317C19.2519 13.4107 21.2683 14.3243 22.9269 12.985C24.0032 12.1926 24.902 10.9567 25.9812 10.1052C29.0235 7.58318 33.3313 6.40348 37.2696 7.09533C41.7725 8.01485 42.8872 7.4383 46.2873 4.50828C52.582 -0.594862 62.262 -0.157268 68.938 4.04115C76.167 8.13608 81.0011 16.6896 79.1 25.048L79.0881 25.1042L79.0911 25.1071Z" fill="#F5693C"></path><path d="M61.3425 74.1429C61.3189 70.8019 60.0179 67.6028 58.6904 64.5693C58.1227 63.3423 57.5935 62.0562 57.6142 60.6754C57.7561 58.2273 57.8655 55.7851 57.9306 53.337C58.108 49.7506 57.9453 45.7976 55.0478 43.3614C53.6967 42.7907 52.1651 42.3857 50.6868 42.637C50.2522 42.7198 49.7703 42.8587 49.3356 42.77C47.1122 41.8032 46.7515 40.0381 43.8481 41.8091C42.6566 42.5986 41.5893 43.2195 40.3357 43.8315C39.8922 44.0769 39.7621 43.6423 39.7887 43.2727C39.7148 41.3036 39.7828 39.7898 39.8685 37.9862C39.8685 35.3046 39.2447 32.6111 39.5965 29.9205C39.7946 27.9071 39.153 25.8049 38.9845 23.7441C38.742 22.0322 38.9106 20.1814 38.1891 18.5819C37.7841 17.7274 37.0449 17.21 36.3442 16.592C35.9776 16.2343 35.5784 15.8825 35.0847 15.7199C33.1156 15.4153 30.5049 16.2284 29.5794 18.1502C29.0798 19.1968 28.7989 20.5096 28.8373 21.7277C28.9585 22.3457 29.4907 22.8838 29.3754 23.5579C29.1005 24.9416 28.5239 26.3992 28.5683 27.8657C28.5683 29.9058 28.5742 31.9783 28.4796 34.0125C28.5476 35.5647 28.2815 37.1081 28.2874 38.6544C28.3022 40.7596 28.8403 42.8647 28.4707 44.9728C28.3613 45.5552 28.5091 46.1229 28.5742 46.6994C28.6363 47.5775 28.2401 48.4261 28.3376 49.3101C28.3288 50.1853 28.7457 51.0338 28.8048 51.906C28.7871 52.4146 28.4352 52.4323 28.2844 51.9652C27.084 48.1984 25.7683 44.4406 23.9648 40.9163C23.8406 38.7638 22.3061 37.0874 22.0104 34.9586C21.4812 32.8772 20.2631 31.0115 19.4145 29.0454C18.9356 28.0313 18.5453 26.9343 17.7913 26.0858C17.1409 25.388 16.1445 24.8824 15.8754 23.8979C15.633 23.141 15.6507 22.1387 14.9589 21.5799C13.7733 20.82 12.1856 21.5207 10.8787 21.5828C9.33834 22.0648 8.62875 23.9836 8.41883 25.4353C8.17047 26.8486 8.85344 28.1554 9.22302 29.4859C9.17572 31.458 8.93919 33.4981 9.53643 35.4317C11.0561 39.9287 12.6971 44.3903 13.9596 48.9672C14.2286 49.7625 14.8288 50.4455 15.1215 51.2024C15.5768 52.6984 15.9021 54.2536 16.4697 55.7142C18.1225 59.8002 19.722 63.9307 21.5492 67.9251C22.4214 69.2496 23.1931 70.5121 23.7903 71.9904C24.0091 72.3807 23.879 72.8153 23.5361 73.0933C20.0768 76.3958 19.3554 81.3363 20.2808 85.8304C20.5617 90.6438 22.2973 95.809 26.3626 98.7036C27.5837 99.4132 28.7841 100.279 30.1412 100.587C31.6668 100.755 33.3669 101.075 34.9368 100.945C37.5949 100.217 40.0459 98.7893 42.8783 99.6793C45.0722 100.138 47.402 101.338 49.5219 100.087C50.5272 99.5788 51.7719 99.3925 52.5022 98.473C52.8244 97.9999 53.2059 97.5919 53.7085 97.314C55.2193 96.3472 56.0915 94.7683 57.2298 93.4526C57.9542 92.6809 58.4716 91.7644 58.7732 90.7502C59.8612 87.5807 61.0143 84.3846 61.2538 81.017C61.4253 78.77 61.3248 76.4342 61.3336 74.199V74.1429H61.3425ZM48.8626 48.5917C49.0784 47.6515 49.1464 46.522 49.9003 45.8065C52.3721 43.6984 55.0035 46.7113 55.0951 49.2599C55.648 54.0467 55.2075 58.727 54.2939 63.4133C54.0485 64.9744 52.7032 66.772 51.0357 66.7129C50.3379 66.6389 49.8885 65.9914 49.7318 65.3498C49.5337 64.6757 49.8442 63.9957 49.7762 63.3068C49.6845 62 49.4184 60.4093 50.3645 59.2621C50.9647 58.2569 51.0239 57.0831 51.4703 56.0128C51.6507 55.5634 51.7985 55.0667 51.7423 54.5818C51.4674 52.1988 48.4457 51.4182 48.8537 48.6449L48.8626 48.5946V48.5917ZM40.8797 47.9057C41.6661 45.6705 43.5288 44.4613 45.7138 43.8729C45.9887 43.8078 46.246 43.9143 46.3997 44.1449C46.8432 44.8013 46.9378 45.1738 46.7604 46.2559C46.5653 46.9448 46.6983 47.9175 45.9503 48.2457C45.3057 48.4823 44.6819 48.7277 44.2532 49.2658C43.5466 50.07 42.7926 50.8298 42.0268 51.569C41.5922 51.9356 41.403 52.4708 41.1428 52.9557C40.791 53.5292 40.38 54.0585 39.9424 54.57C39.8419 54.6823 39.6201 54.9366 39.5847 54.6528C39.697 52.3702 40.105 50.1055 40.859 47.9619L40.8797 47.9057ZM42.3728 55.6196C42.3255 55.4392 42.6211 55.0696 42.7749 54.8893C43.5318 54.0673 44.3182 53.2602 44.7381 52.1781C44.9184 51.6281 45.3353 51.3384 45.8439 51.0131C46.2253 50.8978 45.9769 52.1574 45.9917 52.3554C45.8409 54.3098 44.7736 55.7467 42.5945 55.7023C42.497 55.7023 42.423 55.6846 42.3876 55.6432L42.3698 55.6166L42.3728 55.6196ZM33.8488 18.5464C34.0469 18.6883 33.905 18.9928 33.7572 19.1407C33.5236 19.3861 33.083 19.3003 32.8347 19.1288C32.8465 18.9278 33.018 18.6794 33.1747 18.5582C33.3462 18.4222 33.6271 18.4488 33.8163 18.5287L33.8488 18.5434V18.5464ZM12.4665 23.7767C12.839 23.9068 13.2056 24.1196 13.5959 24.2852C13.6373 24.3148 13.6994 24.3325 13.6846 24.3946C12.9425 24.7169 12.159 25.0451 11.3784 25.3052C11.337 25.2964 11.3134 25.2609 11.3075 25.1988C11.2956 24.4449 11.813 24.0457 12.4251 23.7767H12.4665ZM20.8278 59.8535C19.7398 57.1008 19.1307 54.1206 17.9392 51.4064C16.8068 48.8045 16.1504 46.0371 15.2398 43.3584C14.8613 42.1373 14.1222 41.07 13.5249 39.9406C13.2381 38.9471 13.2322 37.865 12.9927 36.8775C12.3068 34.7635 11.813 32.6229 11.748 30.3966C11.5736 28.6817 12.3393 26.9491 14.3321 26.822C15.7128 26.5411 15.8252 28.256 16.4165 29.1252C18.2762 32.1676 19.3731 35.5293 20.4612 38.888C22.4037 43.453 23.6573 48.3551 26.2473 52.6127C26.9214 53.8899 26.948 55.4747 27.9681 56.5775C28.4943 57.2723 29.3429 58.115 30.1915 57.5177C31.5042 56.5243 32.2108 54.9898 31.7112 53.3725C31.0518 51.8588 31.4687 50.2208 31.2411 48.636C30.9424 46.8739 30.5167 45.0674 30.8744 43.2668C31.3268 40.5348 31.0873 37.7911 31.1464 35.0562C31.2144 32.5372 30.8715 29.9797 31.5604 27.4991C31.7082 27.0053 31.6786 26.4997 31.6639 25.9941C31.7319 24.4656 32.3675 22.6561 33.6596 21.6863C34.2036 21.3759 34.9339 21.4705 35.5223 21.6952C36.0278 21.9347 36.1491 22.7389 36.3265 23.28C37.0006 25.7931 36.7256 28.4215 36.9473 30.9968C37.0006 32.0759 37.1366 33.161 37.175 34.2431C37.1602 34.9557 36.9651 35.6889 36.971 36.4222C37.0834 39.2014 37.1455 41.9806 37.1425 44.7628C37.2548 46.865 37.4086 48.9731 37.3938 51.0812C37.3908 52.2845 37.1839 53.4997 37.2489 54.6882C37.1839 55.6225 38.1655 56.6012 37.5505 57.4675C34.2923 62.0059 30.3393 66.0446 26.3153 70.2076C25.6855 70.8078 25.3751 69.4507 25.0676 69.1136C23.471 66.1393 22.247 62.9786 20.8455 59.9097L20.8249 59.8594L20.8278 59.8535ZM58.9831 76.3012C58.5603 80.198 58.3208 84.154 56.8248 87.8675C56.4641 88.923 56.1802 90.02 55.6066 90.9897C54.3205 93.1304 52.8984 95.1467 50.8879 96.4713C49.6106 97.3287 47.8366 97.9408 46.2667 97.9703C45.0426 98.0561 43.9782 97.4204 42.8576 97.0183C41.8199 96.6813 40.7141 96.6694 39.6527 96.9119C38.0768 97.2578 36.5157 97.583 34.9812 98.0768C34.316 98.2897 33.6093 98.4227 32.9145 98.3813C29.0886 97.9674 25.9043 95.2916 24.5354 91.8028C23.3114 88.6392 22.6934 85.3159 22.658 81.9424C22.7673 80.3725 23.2907 78.9296 23.9027 77.5134C24.0653 77.1438 24.2605 76.7979 24.5206 76.4875C25.0617 75.8518 25.724 75.2782 26.2503 74.6159C27.3028 73.318 28.453 72.1117 29.6179 70.9172C29.9106 70.6067 30.2565 70.3554 30.5433 70.045C30.8508 69.702 31.0223 69.2171 31.3091 68.8121C31.992 67.7979 32.9677 67.0263 33.769 66.1156C35.1793 64.4629 36.4299 62.6682 37.9467 61.0893C38.9224 60.2171 39.3807 58.9783 40.1642 57.9524C40.3534 57.7957 40.5988 57.8163 40.8678 57.9287C41.264 58.0943 41.7223 58.2776 42.1599 58.3988C44.2088 58.9901 45.495 58.3426 46.8048 56.6485C47.3458 56.0512 47.5616 55.2234 47.9371 54.564C48.5403 53.7007 49.1523 54.4369 49.0548 55.2322C49.037 55.59 49.0045 55.9537 48.8655 56.2907C48.6497 56.82 48.1618 57.2132 47.8987 57.7069C47.6503 58.1357 47.5025 58.6146 47.3163 59.0729C46.7013 60.6163 45.4861 61.7782 44.54 63.0703C44.2177 63.4724 43.9516 63.9366 43.5879 64.3062C43.2538 64.6314 42.7276 64.7792 42.4289 65.131C42.2161 65.3617 42.0741 65.6337 41.95 65.9323C41.6336 66.8163 41.3616 67.727 40.723 68.4543C39.768 69.5305 38.5853 70.4855 39.1086 71.9579C40.0962 74.5686 41.7903 77.0374 41.6691 79.9822C41.542 81.2151 41.9677 82.383 41.7962 83.6307C41.743 84.0003 41.6839 84.4349 41.9766 84.7187C42.2989 85.041 42.9611 85.2805 43.4105 85.1356C44.0935 84.8754 44.1408 83.9973 44.2266 83.3705C44.3153 82.1465 44.4217 80.9017 44.4099 79.6747C44.4365 78.4388 44.061 77.2384 43.5879 76.0794C43.4312 75.0387 43.4224 74.1724 42.6921 73.25C42.3048 72.6409 41.7016 71.9342 41.9529 71.1892C42.3107 70.3524 43.1533 69.3383 43.7683 68.679C44.0728 68.3863 44.4749 68.2532 44.8918 68.2473C46.0626 68.2119 47.2542 68.1202 48.3836 68.543C49.4036 68.9717 50.5212 69.5276 51.6388 69.4063C52.7269 69.359 53.8977 68.5371 54.7344 67.6176C55.1691 67.1741 55.6037 66.6774 56.1122 66.1688C56.3695 65.9027 56.6149 65.9441 56.7036 66.361C57.4634 69.2615 58.1937 72.0407 58.8944 74.8081C59.0156 75.2782 59.0452 75.7779 58.989 76.2509L58.9831 76.3071V76.3012Z" fill="#F0EBE6"></path><path d="M69.1565 18.372C68.4677 16.9676 67.5807 15.646 66.7439 14.3185C66.5606 14.0317 66.3537 13.7597 66.0846 13.5468C65.2213 12.9022 64.1244 12.4913 63.2344 11.8526C62.3622 11.1549 61.3688 10.3329 60.2068 10.0964C58.4121 9.67656 56.5347 9.82439 54.7045 9.68542C53.6106 9.75047 52.3451 10.4364 51.2896 10.9834C50.6924 11.4328 50.2045 12.0153 49.6398 12.5149C48.9421 13.2423 48.0817 13.8011 47.5672 14.6733C46.9996 15.6194 46.2722 16.5123 45.8879 17.5382C45.6247 18.1414 45.6513 18.8539 45.5715 19.5162C45.4621 20.0543 45.1812 20.5865 45.1517 21.1571C45.0364 22.4285 45.4059 23.691 45.6247 24.9357C46.0712 28.0225 48.1231 30.7041 50.8195 32.1854C52.4191 32.9068 54.2019 33.1433 55.9168 33.5188C57.6907 33.8204 59.4529 33.3887 61.085 32.7885C62.0754 32.3746 62.9979 31.7774 64.0002 31.3428C64.4378 31.1476 64.8783 30.9318 65.2715 30.6598C66.673 29.6752 67.7699 28.1259 68.4617 26.5087C68.8964 25.3526 69.0353 24.1256 69.4138 22.9755C69.8011 21.4942 69.6828 19.8355 69.1713 18.4164L69.1477 18.3661L69.1565 18.372ZM53.5869 30.3848C53.4657 30.4321 53.2794 30.373 53.1405 30.3197C51.1566 29.5658 49.7167 28.4068 48.7972 26.5175C48.7262 26.3697 48.6641 26.1657 48.7617 26.0415C48.8415 25.9232 49.0396 25.8612 49.1904 25.8227C50.2933 25.533 51.2896 25.2491 52.2801 25.0717C53.0074 24.9446 53.7111 24.9505 54.4562 24.9328C54.7016 24.9298 54.944 25.0126 54.9056 25.2964C54.5656 26.9285 54.1576 28.4866 53.8146 30.0034C53.785 30.1364 53.7348 30.305 53.6224 30.3671L53.5869 30.3848ZM54.0482 22.2777C52.2446 22.5468 50.4174 23.0819 48.5754 23.4545C48.0462 23.4781 48.1231 22.869 48.0226 22.4374C47.9782 22.1594 47.9368 21.8904 47.9072 21.6066C47.4697 17.9788 50.6687 14.9128 53.7022 13.5764C54.4503 13.0649 55.2604 12.3168 56.1415 12.3109C57.058 12.2193 58.0219 12.512 59.0123 12.8815C59.3494 12.9909 59.4677 13.2718 59.2962 13.5882C58.8054 14.6171 58.3235 15.6105 57.9302 16.6069C56.7831 19.0727 57.5163 21.6982 54.1044 22.2659L54.0452 22.2777H54.0482ZM56.8274 30.8401C56.6677 30.6834 56.7062 30.4085 56.6766 30.1542C56.653 29.0129 57.0018 27.7623 57.5518 26.7629C57.6375 26.6121 57.7765 26.482 57.945 26.5826C58.9089 27.1887 59.8225 28.3211 60.5468 29.8408C60.6621 30.0536 60.6237 30.2725 60.3635 30.302C59.2193 30.4587 57.9391 30.8017 56.8599 30.8549L56.8274 30.8372V30.8401ZM66.9302 24.1227C66.197 25.3083 65.3129 26.4406 64.491 27.5819C64.1924 27.9899 63.7163 28.4955 63.1812 28.1644C61.8625 27.2774 61.0879 25.8404 60.1713 24.5927C58.9828 23.5136 58.5984 22.1447 59.0715 20.5984C59.7752 18.2271 60.8898 16.1043 61.9749 13.7508C62.5633 12.6775 64.6772 16.3704 65.1237 16.8405C66.4749 18.6292 66.7912 20.8024 67.0455 22.9637C67.0839 23.3332 67.1135 23.7353 66.9539 24.0753L66.9302 24.1227Z" fill="#F0EBE6"></path></svg>