<svg xmlns="http://www.w3.org/2000/svg" width="100%" viewBox="0 0 99 113" fill="none" class="marquee-sticker-1"><path d="M98.237 85.0021C97.1858 91.0163 95.1663 97.2545 91.2159 102.046C87.7744 105.972 83.2596 109.283 78.3492 110.973C72.8607 112.91 67.8728 112.486 62.3925 110.741C59.6593 109.911 56.8071 108.951 54.19 107.698C52.5495 106.915 51.0031 105.936 49.3073 105.283C47.7609 104.669 46.0761 104.348 44.4329 104.054C41.3345 103.485 38.3357 102.544 35.3756 101.559C30.1664 99.9103 25.3971 95.7828 23.314 90.6705C22.7137 89.2402 22.1853 87.7934 21.3637 86.4765C20.0635 84.3353 18.1269 82.5178 16.965 80.2576C15.6593 77.801 15.2416 75.1895 14.1488 72.7219C13.2304 70.7079 12.3645 68.4118 11.6204 66.3979C10.6549 63.8776 8.18719 62.8928 6.12067 61.2191C5.22158 60.4915 4.36122 59.6616 3.59493 58.7293C1.1909 55.855 -0.070557 51.9958 0.477195 48.2667C0.726173 46.3662 1.54503 44.6178 1.75251 42.8971C1.92126 41.6881 1.78846 40.482 1.49522 39.2924C0.402482 35.6905 -0.330633 31.9614 0.858929 28.2682C1.85761 24.8766 4.1925 21.875 7.35452 20.2705C11.1473 18.3783 15.5708 18.4032 19.7177 17.8388C23.0761 17.4598 23.4911 16.226 22.7994 13.1055C21.1922 6.2475 26.9408 -0.344888 34.0284 1.42009C35.9621 1.81845 37.752 3.48938 39.6663 3.61663C41.1685 3.71346 42.6928 2.34961 44.076 1.59715C49.5729 -1.72256 56.8375 1.38137 58.146 7.68881C58.5527 9.71937 58.8625 11.7416 60.0576 13.4706C60.5998 14.3199 61.2638 15.1333 61.8088 15.9964C63.2086 18.1763 63.6429 20.9759 62.9568 23.4768C62.4395 25.7646 60.5196 27.9639 61.1503 30.379C61.5542 32.0167 63.3248 33.6517 64.6388 35.1483C65.8726 36.5177 66.9765 38.0724 68.4012 39.2399C69.8176 40.435 71.6545 41.0242 73.472 41.3728C76.5151 41.9399 79.6716 42.9496 82.3467 44.6565C89.9876 49.2764 94.2645 56.9201 96.6629 65.2138C98.8512 72.3484 99.4985 77.5078 98.2426 84.9522L98.2343 85.0048L98.237 85.0021Z" fill="#E6FAB9"></path><path d="M90.5131 76.5977C90.4606 74.7884 90.2171 72.8326 89.5144 71.134C89.1354 70.2238 89.1271 69.2251 88.8311 68.2901C88.2142 66.5223 87.9597 64.6024 86.9804 62.9703C86.6042 62.3423 86.2998 61.6811 86.0619 60.9895C84.2859 56.3613 80.1971 52.6791 75.8317 50.466C74.952 50.0898 73.9865 50.0842 73.0653 49.838C71.5078 49.4673 69.9503 49.1934 68.3624 48.9362C67.1977 48.7619 66.0939 48.4354 65.109 47.8739C62.1711 46.1919 60.5583 43.0188 58.3479 40.5954C57.695 39.8513 56.9841 39.1624 56.2759 38.4736C55.2634 37.4776 54.3117 36.396 53.017 35.7929C52.5191 35.5522 51.9796 35.3752 51.5563 35.01C51.0556 34.5923 50.6904 33.9062 50.104 33.588C48.5077 32.7332 46.7179 33.7375 45.6058 34.9215C44.9667 35.5024 44.1783 36.4181 43.4784 35.3807C42.8559 34.5286 42.2224 33.6351 41.6 32.7415C39.2983 29.2337 37.135 25.4465 32.4238 25.3275C31.1955 25.3718 29.9755 25.5876 28.7361 25.6125C23.2697 25.9223 17.806 26.5365 12.3644 27.2253C10.1043 27.4992 8.68231 29.7787 8.50526 31.9116C8.39183 33.079 8.63253 34.2658 9.01153 35.3724C9.92445 37.9839 11.0144 40.5484 12.5387 42.8666C12.9039 43.608 14.6827 45.658 13.1224 46.0093C12.2455 46.178 11.3436 46.0148 10.533 46.4409C8.40289 47.5862 8.0986 50.4245 9.13324 52.4163C11.4321 56.3225 16.9706 57.4678 20.8269 59.2688C23.6349 60.356 17.355 63.1749 21.4079 68.1407C22.0607 68.8987 22.8243 69.5322 23.5574 70.2017C23.8147 70.4368 24.0277 70.6803 24.1245 70.9486C24.2296 71.2308 24.2075 71.5434 24.1079 71.8781C23.3582 73.8367 23.231 75.1591 24.5505 76.9075C25.5963 78.4207 26.9739 79.602 28.5369 80.5149C29.2064 80.9547 30.3766 81.1124 30.454 82.0751C30.4291 83.2536 30.017 84.5013 30.3683 85.6383C30.7031 87.0022 31.4057 88.8169 32.3546 89.9069C32.7557 90.3551 33.2454 90.6843 33.6935 91.0882C34.1832 91.5197 34.6314 92.0205 35.1708 92.3912C36.3936 93.293 37.9621 93.3539 39.3813 93.838C42.8338 95.235 46.4578 96.0843 50.187 96.1839C51.1359 96.2614 52.1816 96.1839 52.9672 96.8008C53.9051 97.6335 54.8733 98.4247 55.9467 99.0831C56.7074 99.5866 57.4876 100.121 58.3562 100.389C58.9953 100.596 59.6537 100.749 60.2761 101C61.8668 101.78 63.5571 102.273 65.2751 102.71C67.5767 103.285 69.9337 104.309 72.3294 103.75C74.5453 103.247 76.8636 102.84 78.8416 101.534C79.713 100.973 80.4904 100.292 81.3009 99.6558C82.3854 98.8314 83.5334 98.1176 84.4242 97.0609C86.3469 95.1797 87.21 92.5931 88.1838 90.1504C88.7094 89.1157 88.8975 88.0257 89.1991 86.9192C89.6943 85.9288 89.7219 84.872 89.8271 83.7765C90.3139 81.4416 90.5795 79.0459 90.502 76.6502V76.5977H90.5131ZM18.9319 56.1482C17.8254 55.5286 16.752 54.6903 15.7312 53.9213C14.6744 53.0858 13.5291 52.1591 13.3493 50.8699C13.2691 50.3277 13.3327 49.6555 13.7338 49.246C14.229 48.7564 15.2028 48.5074 15.7975 48.9638C16.0853 49.1796 16.3038 49.5116 16.4947 49.8242C17.5183 51.5947 18.5418 53.3541 19.5433 55.1302C19.9638 55.8135 20.0302 56.6656 18.9789 56.1704L18.9319 56.1482ZM21.7897 50.4328C20.957 49.2543 20.199 47.9845 19.5129 46.7009C18.2459 44.7229 16.8931 42.7671 15.6205 40.8084C14.9787 39.6272 14.4752 38.3214 13.6951 37.1899C13.3825 36.6477 13.1362 36.0751 12.7517 35.5854C12.4502 35.1815 12.0989 34.8025 11.8942 34.3378C11.4792 33.1759 11.1361 31.765 12.121 30.7829C13.1639 29.4937 14.7159 29.5989 16.2153 29.4882C16.8571 29.4274 17.4934 29.3305 18.1297 29.2254C21.5656 28.567 25.0761 28.4259 28.5397 27.9778C29.4748 27.8394 30.396 27.6347 31.3366 27.8062C32.2467 27.9446 33.2039 27.9335 34.0919 28.2572C35.8209 28.8021 36.9053 30.3099 37.7878 31.8065C38.7423 33.317 40.0535 34.5923 40.8945 36.1774C41.6249 37.4887 42.3358 38.8166 43.0468 40.1334C43.412 40.7669 44.004 41.2538 44.3083 41.9067C44.585 42.507 44.6707 43.1765 44.8063 43.8238C45.1604 45.716 46.0871 47.4091 47.0664 49.0302C47.5976 49.9072 48.2726 50.6873 48.9863 51.4177C50.873 53.3182 52.5689 55.44 54.9037 56.8426C55.2966 57.0944 55.706 57.3655 55.9909 57.7306C56.4833 58.3448 56.5165 59.266 56.89 59.9936C57.4793 61.1361 58.4863 62.0214 59.1945 63.0615C61.5376 66.9899 64.1131 70.7715 66.6223 74.603C67.1755 75.4689 67.8478 76.2823 68.2573 77.2284C68.7525 78.5452 68.852 80.3904 67.6597 81.3531C67.0732 81.804 66.2848 82.0088 65.7066 82.4403C65.2031 82.8027 64.683 83.1292 64.1104 83.3726C63.2445 83.724 62.4782 84.3326 61.6234 84.7199C60.5362 85.1127 59.4241 85.4059 58.3645 85.8818C57.0477 86.3631 55.6645 86.6481 54.3615 87.1709C53.3711 87.6025 52.472 88.1696 51.3793 88.0949C49.4152 88.0894 45.9433 87.8099 44.7067 86.0533C44.5462 85.5276 45.1327 85.3119 45.7165 85.1486C48.4192 84.4377 51.5231 83.9065 53.3573 81.6187C55.125 79.2672 54.3975 76.3459 52.046 74.722C51.2022 74.1687 50.2312 73.9336 49.274 73.6818C48.7456 73.5407 48.0983 73.4744 47.9213 73.1977C47.6723 72.8574 48.2311 72.2903 48.4496 71.9666C49.4013 70.6055 50.4138 68.6193 49.6032 66.9539C48.7816 65.5292 47.451 64.3479 45.8575 63.9136C45.509 63.8168 45.0912 63.6923 44.8671 63.4433C44.4964 63.0505 44.549 62.4114 44.5545 61.8886C44.5656 61.3934 44.6098 60.8954 44.5628 60.4002C44.4356 58.9589 43.2156 57.8385 42.1616 56.9007C40.6428 55.5535 38.5376 55.0527 36.5042 55.1772C35.0076 55.1911 33.5026 55.2824 32.0364 55.7112C31.3614 55.902 30.692 56.1012 30.0032 56.2423C28.8606 56.4359 27.6129 56.8288 26.4621 56.5134C25.3638 56.2008 24.7525 55.1164 24.1439 54.1896C23.3582 52.9752 22.5891 51.6694 21.8201 50.4743L21.7924 50.43L21.7897 50.4328ZM45.6473 77.5216C46.9005 76.8992 50.1731 76.6917 51.1635 77.7485C51.6864 78.3847 51.5812 79.353 50.9228 79.8509C50.364 80.3406 49.4815 80.36 48.7124 80.4955C47.6142 80.6477 46.5353 80.9133 45.4287 80.6615C43.0773 80.2521 43.8352 78.3183 45.5947 77.5465L45.6473 77.5216ZM40.7286 69.9693C39.918 69.9693 38.6952 69.5516 38.8336 68.5391C38.9138 67.9885 39.4533 67.7202 39.9097 67.5155C40.9969 67.0369 42.1893 66.5804 43.4397 66.7077C44.7814 66.882 47.3016 66.6634 47.0084 68.6663C46.9447 69.3053 46.4357 69.7148 45.7828 69.7176C44.1147 69.7978 42.4216 69.9306 40.7784 69.972H40.7258L40.7286 69.9693ZM40.9914 59.9604C40.1504 61.2827 37.1654 61.0974 35.6882 61.0752C34.5401 61.042 32.5455 60.7405 32.4099 59.3407C32.4487 58.9811 32.8636 58.7431 33.2094 58.6186C36.1307 57.6559 38.8502 57.9354 40.6456 59.3684C40.8226 59.5067 41.0273 59.7142 40.9969 59.9272L40.9914 59.9604ZM24.2185 67.4629C23.1341 66.3923 22.8243 64.9316 22.8492 63.4737C22.9211 61.4542 26.8854 59.7999 28.5839 59.1664C29.2147 58.9036 29.7902 59.0364 29.9506 59.7778C30.1249 60.4251 30.2964 61.1057 30.7224 61.6036C31.1539 62.1375 31.8069 62.4474 32.4321 62.7074C33.6548 63.2137 34.8914 63.7255 36.2331 63.565C37.7104 63.352 39.1213 63.0256 40.6345 62.8098C40.9775 62.7544 41.3981 62.7627 41.5585 63.0892C41.8517 64.0353 40.4243 64.1653 39.7659 64.312C37.2235 64.8237 34.6923 65.3162 32.1637 65.8722C30.7307 66.171 29.4637 66.8737 28.3433 67.8225C27.068 68.9927 25.4358 68.7825 24.2601 67.4989L24.2185 67.4574V67.4629ZM32.1305 78.5452C30.1442 78.2907 28.2797 77.2865 26.9629 75.7483C25.6931 74.26 26.2547 72.412 27.743 71.3331C29.768 69.6512 32.0392 68.3869 34.5622 67.5929C35.0104 67.4518 35.7075 67.2416 35.8569 67.853C35.9897 69.5294 36.388 70.8739 37.9953 71.7343C38.7174 72.1216 39.5307 72.2848 40.3385 72.3789C40.889 72.4867 44.0731 72.4757 42.0647 73.1701C39.6524 73.7621 37.1239 73.5158 34.6867 73.1175C33.8097 72.9653 32.6174 72.6942 32.1665 73.704C31.5939 75.3223 33.8208 75.6653 34.9108 76.0139C35.3866 76.1688 35.5111 76.523 35.1625 76.9103C34.3658 77.7402 33.3754 78.6586 32.1831 78.5535H32.1277L32.1305 78.5452ZM87.3511 83.3892C86.4825 88.2692 84.7147 93.1713 81.1432 96.7372C79.6659 98.1176 77.7848 99.1301 75.9202 99.9435C73.6158 100.959 71.1094 101.581 68.6418 100.715C66.6278 99.9573 64.47 99.7277 62.3758 99.2657C61.7064 99.1329 61.0894 98.8535 60.5278 98.4745C58.8569 97.3347 56.9149 96.5657 55.3629 95.2046C54.3726 94.2446 53.0696 93.6803 51.7057 93.5309C50.4581 93.3788 49.1662 93.4977 47.9185 93.2985C43.8159 92.5793 39.7354 91.315 36.1529 89.1185C34.9716 88.3964 33.5995 87.6135 33.2067 86.1944C33.0075 85.4889 33.1071 84.6618 33.3146 83.9508C34.0089 81.5053 35.6107 79.6711 37.8487 78.642C38.6731 78.2492 39.5141 77.9172 40.3855 77.5769C40.5986 77.4995 40.9693 77.3805 41.1435 77.5133C41.3898 77.6959 41.2957 78.1413 41.2846 78.4318C41.1518 79.6601 41.3814 80.7224 41.9236 81.7045C42.0647 82.0005 42.3082 82.3628 42.0703 82.6533C41.8489 82.93 41.1491 83.0877 40.7894 83.4832C39.6248 84.7281 41.185 86.4848 41.7189 87.7076C42.6374 89.2872 43.921 90.7811 45.6971 91.3565C47.0167 91.6885 48.4192 91.8572 49.7582 91.979C50.8426 91.9956 51.9243 91.7466 53.0004 91.4782C56.7793 90.5183 60.3176 88.8861 63.9886 87.6163C67.0428 86.5568 70.5423 85.3146 71.6627 81.9534C72.5424 79.5411 72.3433 77.4967 70.7277 75.4994C68.213 71.9279 65.8339 68.2873 63.4603 64.6135C63.0398 63.9108 62.4865 63.222 62.0494 62.5608C61.7782 62.1126 61.9028 61.634 62.3178 61.3519C63.0785 60.8152 64.1297 60.6437 64.7466 59.9659C65.95 58.5329 65.0593 57.5176 63.4299 57.3074C62.3897 57.1469 61.5238 56.53 60.5804 56.1095C58.8542 55.5784 57.1556 54.9974 55.7226 53.8687C53.6173 52.3444 51.8662 50.4964 50.3308 48.4603C48.7899 46.5294 47.6059 44.2997 47.4067 41.8099C47.3292 41.204 47.1965 40.5677 47.2408 39.9868C47.3403 38.7972 48.4967 37.8152 49.6669 37.7792C50.8122 37.7598 51.8219 38.4321 52.7846 38.9798C53.5426 39.4418 54.3366 39.854 54.876 40.5207C55.3048 41.0436 55.6811 41.6107 56.1375 42.1114C56.6493 42.6924 57.1943 43.2429 57.7116 43.8183C59.2 45.4726 60.3066 47.4202 61.9056 48.9555C62.4506 49.5088 63.0066 50.0787 63.6871 50.4688C65.3 51.2821 67.1977 51.3208 68.935 51.7385C72.5618 52.4274 76.3961 53.5118 79.1238 56.1759C82.0258 59.064 83.9429 62.8513 85.2071 66.716C85.5225 67.6095 85.8987 68.4699 86.2639 69.3413C87.1187 71.3497 87.3013 73.455 87.5088 75.5326C87.8463 78.1109 87.9099 80.7666 87.3539 83.3228L87.3428 83.3754L87.3511 83.3892Z" fill="#A0325A"></path><path d="M54.8013 22.1904C53.6394 23.261 52.9533 24.6387 52.6103 26.1768C52.3945 26.9487 52.2202 27.8699 51.6504 28.4591C50.8426 29.2116 49.8521 28.3623 49.6723 27.3609C49.3182 26.0606 49.8826 24.7936 50.3639 23.6428C50.671 22.8765 49.9545 22.586 49.3017 22.4837C46.0954 21.8391 43.5502 19.8666 43.6 16.8899C43.6332 16.0102 43.3456 15.8276 42.5378 16.1098C40.0535 16.818 36.6978 17.1195 34.2634 16.2149C32.4873 15.3988 30.7694 12.7707 30.6504 10.8204C30.5674 9.93515 31.378 9.06097 32.266 9.4704C33.5884 10.1509 33.5164 12.093 34.6009 13.0059C36.3741 14.5689 39.0189 14.4444 41.0854 13.5619C42.8421 12.8842 44.5987 12.0625 46.0207 10.7678C46.7621 10.1316 47.3402 9.28781 48.1619 8.75389C49.3155 7.94333 50.7014 9.09139 50.2311 10.3584C49.3542 12.2368 47.8824 13.7777 46.9751 15.67C46.4107 16.6742 46.4135 17.9633 47.2241 18.8375C48.3943 20.1599 50.3861 19.7393 51.9685 19.8113C52.7375 19.8113 53.6394 19.6287 54.3365 19.9219C55.2965 20.2954 55.5538 21.449 54.8373 22.1489L54.8013 22.1904Z" fill="#A0325A"></path><path d="M30.3018 31.2642C30.6974 31.989 30.0722 32.6557 29.3474 32.7636C27.2338 33.2865 25.112 33.8896 22.9514 34.1385C22.3262 34.2022 21.665 34.3515 21.073 34.0749C20.0716 33.6295 19.9886 32.3597 20.7992 31.6571C21.1228 31.3666 21.5489 31.2559 21.9749 31.2034C24.1299 30.9903 26.3154 30.8354 28.4815 30.7054C29.0846 30.6833 29.9173 30.6833 30.2769 31.2255L30.2991 31.2642H30.3018Z" fill="#A0325A"></path></svg>