<svg width="49" height="49" viewBox="0 0 49 49" fill="none" xmlns="http://www.w3.org/2000/svg">
<g clip-path="url(#clip0_8_71)">
<path fill-rule="evenodd" clip-rule="evenodd" d="M28.408 2.84204V45.454H22.7264L11.3632 34.0908V14.2052L22.7264 2.84204H28.408ZM8.5224 14.2052V34.0908H4.2612C1.9269 34.0908 0.0381059 32.2254 0.000578506 29.9002L0 29.8297V18.4664C0 16.1322 1.86546 14.2433 4.1906 14.2058L4.2612 14.2052H8.5224ZM45.0216 15.9716L48.2927 19.2396L43.3877 24.1446L48.2927 29.0496L45.0216 32.3207L40.1197 27.4157L35.2147 32.3207L31.9436 29.0496L36.8486 24.1446L31.9436 19.2396L35.2146 15.9716L40.1197 20.8766L45.0216 15.9716Z" fill="white"/>
</g>
<defs>
<clipPath id="clip0_8_71">
<rect width="48.2927" height="48.2927" fill="white"/>
</clipPath>
</defs>
</svg>
