<svg width="49" height="49" viewBox="0 0 49 49" fill="none" xmlns="http://www.w3.org/2000/svg">
<g clip-path="url(#clip0_8_69)">
<path fill-rule="evenodd" clip-rule="evenodd" d="M28.408 2.84204V45.454H22.7264L11.3632 34.0908V14.2052L22.7264 2.84204H28.408ZM42.0543 9.08128C46.0797 13.1067 48.2927 18.4587 48.2927 24.1488C48.2927 29.839 46.0797 35.1882 42.0543 39.2136L40.0459 37.2052C43.5343 33.7195 45.4519 29.0805 45.4519 24.1489C45.4519 19.2144 43.5343 14.5782 40.0459 11.0897L42.0543 9.08128ZM8.5224 14.2052V34.0908H4.2612C1.90334 34.0908 0 32.1875 0 29.8296V18.4664C0 16.1086 1.90334 14.2052 4.2612 14.2052H8.5224ZM36.0372 15.1129C38.4462 17.5531 39.77 20.7632 39.77 24.1466C39.77 27.5328 38.4462 30.7429 36.0372 33.1832L34.0174 31.1918C35.8952 29.2828 36.9292 26.78 36.9292 24.1466C36.9292 21.516 35.8952 19.0133 34.0174 17.1043L36.0372 15.1129Z" fill="white"/>
</g>
<defs>
<clipPath id="clip0_8_69">
<rect width="48.2927" height="48.2927" fill="white"/>
</clipPath>
</defs>
</svg>
